<?xml version="1.0" encoding="UTF-8" standalone="no"?>
<svg
   xmlns:dc="http://purl.org/dc/elements/1.1/"
   xmlns:cc="http://creativecommons.org/ns#"
   xmlns:rdf="http://www.w3.org/1999/02/22-rdf-syntax-ns#"
   xmlns:svg="http://www.w3.org/2000/svg"
   xmlns="http://www.w3.org/2000/svg"
   xmlns:xlink="http://www.w3.org/1999/xlink"
   xmlns:sodipodi="http://sodipodi.sourceforge.net/DTD/sodipodi-0.dtd"
   xmlns:inkscape="http://www.inkscape.org/namespaces/inkscape"
   id="b809eb86-ec6b-4213-aa3e-83f4128e49a5"
   data-name="Layer 1"
   width="550"
   height="400"
   viewBox="0 0 550 400"
   version="1.1"
   sodipodi:docname="friends_graphic.svg"
   inkscape:version="0.92.4 (5da689c313, 2019-01-14)">
  <metadata
     id="metadata211">
    <rdf:RDF>
      <cc:Work
         rdf:about="">
        <dc:format>image/svg+xml</dc:format>
        <dc:type
           rdf:resource="http://purl.org/dc/dcmitype/StillImage" />
        <dc:title>true friends</dc:title>
      </cc:Work>
    </rdf:RDF>
  </metadata>
  <sodipodi:namedview
     pagecolor="#ffffff"
     bordercolor="#666666"
     borderopacity="1"
     objecttolerance="10"
     gridtolerance="10"
     guidetolerance="10"
     inkscape:pageopacity="0"
     inkscape:pageshadow="2"
     inkscape:window-width="1920"
     inkscape:window-height="1017"
     id="namedview209"
     showgrid="false"
     inkscape:zoom="0.37119838"
     inkscape:cx="458.42474"
     inkscape:cy="155.89684"
     inkscape:window-x="-8"
     inkscape:window-y="-8"
     inkscape:window-maximized="1"
     inkscape:current-layer="b809eb86-ec6b-4213-aa3e-83f4128e49a5" />
  <defs
     id="defs10">
    <linearGradient
       id="b7709055-0dd4-48d6-ac10-5a758f15d1a1"
       x1="443.56"
       y1="792.13"
       x2="443.56"
       y2="251.5"
       gradientUnits="userSpaceOnUse">
      <stop
         offset="0"
         stop-color="gray"
         stop-opacity="0.25"
         id="stop2" />
      <stop
         offset="0.54"
         stop-color="gray"
         stop-opacity="0.12"
         id="stop4" />
      <stop
         offset="1"
         stop-color="gray"
         stop-opacity="0.1"
         id="stop6" />
    </linearGradient>
    <linearGradient
       id="f59ba046-7ebe-407e-be3d-c62856fc1078"
       x1="712"
       y1="788.53998"
       x2="712"
       y2="248.5"
       xlink:href="#b7709055-0dd4-48d6-ac10-5a758f15d1a1"
       gradientTransform="matrix(0.53230524,0,0,0.53230524,-31.406009,-32.498012)" />
    <linearGradient
       inkscape:collect="always"
       xlink:href="#b7709055-0dd4-48d6-ac10-5a758f15d1a1"
       id="linearGradient1018"
       gradientUnits="userSpaceOnUse"
       x1="443.56"
       y1="792.13"
       x2="443.56"
       y2="251.5"
       gradientTransform="matrix(0.53230524,0,0,0.53230524,-31.406009,-32.498012)" />
  </defs>
  <title
     id="title12">true friends</title>
  <g
     id="g28"
     style="opacity:0.2"
     transform="matrix(0.53230524,0,0,0.53230524,0,14.078702)">
    <path
       d="m 433.55,753.92 a 42.59,42.59 0 0 0 2.16,6.52 q 20.85,-8.19 42.16,-15.7 c -0.12,-0.59 -0.24,-1.21 -0.39,-1.82 a 36.92,36.92 0 0 0 -8.86,-16.84 c -5.68,-6 -13,-8.9 -20.12,-7.13 -7.12,1.77 -12.29,7.83 -14.65,15.8 a 37.39,37.39 0 0 0 -0.3,19.17 z"
       transform="translate(-59,-87.5)"
       id="path14"
       inkscape:connector-curvature="0"
       style="fill:#3f3d56" />
    <ellipse
       cx="446.94"
       cy="712.40997"
       rx="22.639999"
       ry="30.290001"
       transform="rotate(-12.59,20.916663,936.1849)"
       id="ellipse16"
       style="fill:#3f3d56" />
    <ellipse
       cx="438.37"
       cy="676.40002"
       rx="22.639999"
       ry="30.290001"
       transform="rotate(-12.59,12.322422,900.14074)"
       id="ellipse18"
       style="fill:#3f3d56" />
    <ellipse
       cx="429.79001"
       cy="640.40002"
       rx="22.639999"
       ry="30.290001"
       transform="rotate(-12.59,3.7685065,864.14691)"
       id="ellipse20"
       style="fill:#3f3d56" />
    <ellipse
       cx="421.20999"
       cy="604.40002"
       rx="22.639999"
       ry="30.290001"
       transform="rotate(-12.59,-4.8307346,828.14807)"
       id="ellipse22"
       style="fill:#3f3d56" />
    <path
       d="M 444.74,337.44 A 111.58,111.58 0 0 0 450,323.06 l -60,4.72 62.54,-15.13 a 113.31,113.31 0 0 0 -1.11,-47.48 112,112 0 0 0 -17.23,-38.43 l -73.2,65.45 63.37,-77.47 c -25.87,-27.62 -65,-40.76 -103.89,-31 -58.11,14.53 -93.72,74.57 -79.54,134.1 a 110.74,110.74 0 0 0 38.39,61 113.13,113.13 0 0 0 -7.33,22.64 L 356.42,422.6 270,415.11 a 113.46,113.46 0 0 0 2.68,36 110.84,110.84 0 0 0 38.4,61 112.85,112.85 0 0 0 -6.64,72.27 c 14.18,59.53 72.78,96 130.89,81.48 58.11,-14.52 93.72,-74.56 79.54,-134.09 a 110.84,110.84 0 0 0 -38.4,-61 112.85,112.85 0 0 0 6.64,-72.27 110.77,110.77 0 0 0 -38.37,-61.06 z"
       transform="translate(-59,-87.5)"
       id="path24"
       inkscape:connector-curvature="0"
       style="fill:#1877f2" />
    <path
       d="m 272.7,451.07 a 110.84,110.84 0 0 0 38.4,61 112.85,112.85 0 0 0 -6.64,72.27 c 14.18,59.53 72.78,96 130.89,81.48 58.11,-14.52 93.72,-74.56 79.54,-134.09 a 110.84,110.84 0 0 0 -38.4,-61 C 486.23,448.87 269.82,439 272.7,451.07 Z"
       transform="translate(-59,-87.5)"
       id="path26"
       inkscape:connector-curvature="0"
       style="opacity:0.1" />
  </g>
  <g
     id="g44"
     style="opacity:0.2"
     transform="matrix(0.53230524,0,0,0.53230524,0,14.078702)">
    <path
       d="m 703.24,742.93 a 46.72,46.72 0 0 0 -0.43,7.86 q 26.15,0.42 52.5,1.76 c 0.12,-0.69 0.24,-1.39 0.34,-2.1 a 41.67,41.67 0 0 0 -2.45,-21.73 c -3.62,-8.82 -10.37,-15.13 -18.82,-16.35 -8.45,-1.22 -16.69,2.94 -22.64,10.36 a 41.74,41.74 0 0 0 -8.5,20.2 z"
       transform="translate(-59,-87.5)"
       id="path30"
       inkscape:connector-curvature="0"
       style="fill:#3f3d56" />
    <ellipse
       cx="735.47998"
       cy="704.75"
       rx="34.66"
       ry="26.48"
       transform="rotate(-81.82,655.52604,695.04698)"
       id="ellipse32"
       style="fill:#3f3d56" />
    <ellipse
       cx="741.51001"
       cy="662.82001"
       rx="34.66"
       ry="26.48"
       transform="rotate(-81.82,661.55067,653.11782)"
       id="ellipse34"
       style="fill:#3f3d56" />
    <ellipse
       cx="747.53003"
       cy="620.89001"
       rx="34.66"
       ry="26.48"
       transform="rotate(-81.82,667.5753,611.18866)"
       id="ellipse36"
       style="fill:#3f3d56" />
    <ellipse
       cx="753.56"
       cy="578.96997"
       rx="34.66"
       ry="26.48"
       transform="rotate(-81.82,673.59993,569.25949)"
       id="ellipse38"
       style="fill:#3f3d56" />
    <path
       d="m 892.9,306.12 a 125.32,125.32 0 0 0 11.82,-13 L 837.49,272 l 74.39,11.25 a 127.08,127.08 0 0 0 16.69,-99.12 l -107.36,37.44 101.88,-54.5 A 126.83,126.83 0 1 0 695.57,277.77 127.08,127.08 0 0 0 678,298.6 L 760.71,357.88 670,312.2 a 126.9,126.9 0 0 0 3.26,120.8 126.82,126.82 0 1 0 197.33,28.36 126.84,126.84 0 0 0 22.31,-155.24 z"
       transform="translate(-59,-87.5)"
       id="path40"
       inkscape:connector-curvature="0"
       style="fill:#1877f2" />
    <path
       d="M 657.55,351.52 A 126.31,126.31 0 0 0 673.26,433 126.82,126.82 0 1 0 870.59,461.36 C 890.49,442.41 659.58,337.43 657.55,351.52 Z"
       transform="translate(-59,-87.5)"
       id="path42"
       inkscape:connector-curvature="0"
       style="opacity:0.1" />
  </g>
  <ellipse
     cx="287.97714"
     cy="383.49854"
     rx="287.97714"
     ry="16.501463"
     id="ellipse46"
     style="opacity:0.1;fill:#1877f2;stroke-width:0.53230524" />
  <ellipse
     cx="476.25351"
     cy="374.25772"
     rx="13.467322"
     ry="2.5923264"
     id="ellipse48"
     style="fill:#1877f2;stroke-width:0.53230524" />
  <ellipse
     cx="476.02994"
     cy="373.16119"
     rx="1.5703005"
     ry="2.0546982"
     id="ellipse50"
     style="fill:#3f3d56;stroke-width:0.53230524" />
  <ellipse
     cx="476.02994"
     cy="370.64868"
     rx="1.5703005"
     ry="2.0546982"
     id="ellipse52"
     style="fill:#3f3d56;stroke-width:0.53230524" />
  <ellipse
     cx="476.02994"
     cy="368.14154"
     rx="1.5703005"
     ry="2.0546982"
     id="ellipse54"
     style="fill:#3f3d56;stroke-width:0.53230524" />
  <ellipse
     cx="476.02994"
     cy="365.63437"
     rx="1.5703005"
     ry="2.0546982"
     id="ellipse56"
     style="fill:#3f3d56;stroke-width:0.53230524" />
  <ellipse
     cx="476.02994"
     cy="363.12189"
     rx="1.5703005"
     ry="2.0546982"
     id="ellipse58"
     style="fill:#3f3d56;stroke-width:0.53230524" />
  <ellipse
     cx="476.02994"
     cy="360.61475"
     rx="1.5703005"
     ry="2.0546982"
     id="ellipse60"
     style="fill:#3f3d56;stroke-width:0.53230524" />
  <ellipse
     cx="476.02994"
     cy="358.10757"
     rx="1.5703005"
     ry="2.0546982"
     id="ellipse62"
     style="fill:#3f3d56;stroke-width:0.53230524" />
  <path
     d="m 481.89593,340.94073 a 7.2287051,7.2287051 0 0 0 0.58554,-0.86233 l -4.12004,-0.67603 4.45539,0.0319 a 7.5374422,7.5374422 0 0 0 0.14372,-5.95117 l -5.97778,3.10334 5.51468,-4.05617 a 7.51615,7.51615 0 1 0 -12.40804,8.41042 7.6811646,7.6811646 0 0 0 -0.85701,1.36803 l 5.32305,2.77863 -5.70099,-1.9163 a 7.5001808,7.5001808 0 0 0 1.23495,7.05837 7.5108269,7.5108269 0 1 0 11.80653,0 7.5055039,7.5055039 0 0 0 0,-9.2834 z"
     id="path64"
     inkscape:connector-curvature="0"
     style="fill:#1877f2;stroke-width:0.53230524" />
  <path
     d="m 468.48184,345.58244 a 7.4788886,7.4788886 0 0 0 1.59692,4.6417 7.5108269,7.5108269 0 1 0 11.80653,0 c 1.0167,-1.27754 -13.40345,-5.48275 -13.40345,-4.6417 z"
     id="path66"
     inkscape:connector-curvature="0"
     style="opacity:0.1;stroke-width:0.53230524" />
  <ellipse
     cx="166.98416"
     cy="394.24045"
     rx="17.991917"
     ry="3.4599841"
     id="ellipse68"
     style="fill:#1877f2;stroke-width:0.53230524" />
  <ellipse
     cx="166.68074"
     cy="392.77127"
     rx="2.0972826"
     ry="2.7413721"
     id="ellipse70"
     style="fill:#3f3d56;stroke-width:0.53230524" />
  <ellipse
     cx="166.68074"
     cy="389.41776"
     rx="2.0972826"
     ry="2.7413721"
     id="ellipse72"
     style="fill:#3f3d56;stroke-width:0.53230524" />
  <ellipse
     cx="166.68074"
     cy="386.06424"
     rx="2.0972826"
     ry="2.7413721"
     id="ellipse74"
     style="fill:#3f3d56;stroke-width:0.53230524" />
  <ellipse
     cx="166.68074"
     cy="382.71606"
     rx="2.0972826"
     ry="2.7413721"
     id="ellipse76"
     style="fill:#3f3d56;stroke-width:0.53230524" />
  <ellipse
     cx="166.68074"
     cy="379.36252"
     rx="2.0972826"
     ry="2.7413721"
     id="ellipse78"
     style="fill:#3f3d56;stroke-width:0.53230524" />
  <ellipse
     cx="166.68074"
     cy="376.009"
     rx="2.0972826"
     ry="2.7413721"
     id="ellipse80"
     style="fill:#3f3d56;stroke-width:0.53230524" />
  <ellipse
     cx="166.68074"
     cy="372.6608"
     rx="2.0972826"
     ry="2.7413721"
     id="ellipse82"
     style="fill:#3f3d56;stroke-width:0.53230524" />
  <path
     d="m 174.52692,349.72377 a 10.614166,10.614166 0 0 0 0.77716,-1.14978 l -5.49871,-0.90492 5.95117,0.0479 a 10.028631,10.028631 0 0 0 0.19163,-7.95264 l -7.98458,4.14133 7.36179,-5.38693 a 10.033954,10.033954 0 1 0 -16.57599,11.23165 10.268168,10.268168 0 0 0 -1.14445,1.83113 l 7.14885,3.72613 -7.62261,-2.55506 a 10.055246,10.055246 0 0 0 1.59692,9.4218 10.033954,10.033954 0 1 0 15.77753,0 10.0446,10.0446 0 0 0 0,-12.40804 z"
     id="path84"
     inkscape:connector-curvature="0"
     style="fill:#1877f2;stroke-width:0.53230524" />
  <path
     d="m 156.6042,355.92513 a 10.023308,10.023308 0 0 0 2.12922,6.20668 10.033954,10.033954 0 1 0 15.77753,0 c 1.35738,-1.7087 -17.90675,-7.32985 -17.90675,-6.20668 z"
     id="path86"
     inkscape:connector-curvature="0"
     style="opacity:0.1;stroke-width:0.53230524" />
  <path
     d="m 261.71319,241.86808 c -1.35737,-7.10095 -2.87444,-14.21787 -3.12463,-21.44125 -0.14904,-4.25844 0.14905,-8.59141 -0.39923,-12.8392 -0.27147,-2.08664 -0.74522,-4.13602 -1.21365,-6.18539 l -1.88436,-8.20283 a 13.696214,13.696214 0 0 0 -0.18099,-4.72154 16.501462,16.501462 0 0 0 -0.75055,-2.4007 37.261367,37.261367 0 0 0 4.317,-7.98458 c 0.50036,-1.27753 0.93153,-2.63491 0.73458,-3.98696 -0.38326,-2.59233 -2.89574,-4.30103 -5.23256,-5.57856 -1.41593,-0.77185 -2.90639,-1.51707 -4.5246,-1.6395 a 7.3511353,7.3511353 0 0 0 -5.96181,2.66152 12.950986,12.950986 0 0 1 0.38326,-6.29717 c -1.38932,-0.6228 -2.78928,-1.20833 -4.19989,-1.7779 a 38.560191,38.560191 0 0 1 -0.21293,-5.54129 c 0.0319,-2.21972 0.0692,-4.46072 0.19696,-6.68576 a 19.748524,19.748524 0 0 0 12.9776,-18.43373 c 0,-0.22889 0,-0.45246 0,-0.67603 a 16.011742,16.011742 0 0 0 1.37335,-12.2856 c -1.55966,-5.32305 -5.63712,-9.70925 -10.55029,-12.41868 -4.91318,-2.70944 -10.60885,-3.85389 -16.24596,-4.05617 a 23.373523,23.373523 0 0 0 -5.65308,0.35665 27.27532,27.27532 0 0 0 -5.75954,2.12922 c -2.8159,1.29882 -5.65308,2.72008 -7.76101,4.96108 -3.65694,3.9018 -4.47669,9.63473 -4.07746,14.90455 0.5323,6.91997 2.84251,13.61637 5.51468,20.05726 0.88895,2.12922 1.83645,4.29038 3.30029,6.10554 1.13381,1.39996 3.10334,1.48513 4.66832,0.50569 a 51.101303,51.101303 0 0 0 -0.11711,5.11013 c -2.89041,-0.10114 -5.70631,0.37261 -8.02716,2.00147 -1.06461,0.7612 -2.07599,1.95888 -1.84178,3.24706 a 3.0181707,3.0181707 0 0 1 2.90639,2.58168 c 0.11711,1.13381 -0.45246,2.21439 -1.00606,3.19383 -0.23953,0.43649 -0.47907,0.87831 -0.72393,1.3148 -2.28891,2.4486 -4.63638,5.51468 -4.84398,8.55414 a 10.683366,10.683366 0 0 0 -1.11252,0.16502 c -2.07599,0.38326 -4.14133,1.09122 -6.18006,1.62353 l -14.7555,3.88583 -3.64629,1.01138 -5.85536,1.54368 c -3.72614,0.97944 -7.52147,1.9855 -10.82709,3.95503 -3.30561,1.96953 -6.11086,5.06222 -6.77625,8.78836 -0.33002,1.85242 -0.12775,3.77937 -0.5323,5.61582 0,0.0852 -0.0319,0.16501 -0.0532,0.24486 a 17.965302,17.965302 0 0 1 -1.35738,3.35884 c -3.30561,6.96788 -5.6584,14.56388 -5.21659,22.23439 0.27148,4.71091 1.59692,9.3047 2.88509,13.83994 q 2.02809,6.95723 4.00294,13.91446 a 73.053571,73.053571 0 0 0 3.29497,9.74119 37.527519,37.527519 0 0 0 9.86361,13.1852 17.417027,17.417027 0 0 0 3.93906,2.66152 14.324334,14.324334 0 0 0 6.91997,1.12317 c 0.63877,-0.0426 1.26689,-0.11179 1.88969,-0.21293 4.5725,-0.72393 8.83626,-2.92767 12.74871,-5.40822 q 2.45392,-1.55433 4.79074,-3.27367 a 30.389306,30.389306 0 0 0 1.06461,5.28046 c 0.346,1.18704 0.77185,2.40602 0.63345,3.63565 -0.19163,1.71402 -1.43723,3.11931 -2.08132,4.72687 -1.36802,3.39611 0.0373,7.1808 0.26616,10.82176 0.21824,3.41208 -0.61216,6.79754 -1.27754,10.15639 a 106.04053,106.04053 0 0 0 -1.9642,16.99118 51.394071,51.394071 0 0 1 -0.42585,6.46219 c -0.49504,3.02349 -1.65547,5.94052 -1.85774,8.99596 -0.30874,4.7588 1.74596,9.41648 1.55965,14.18061 -0.21824,5.59453 -3.50257,11.02936 -2.35811,16.50146 0.14372,0.68667 0.5323,1.47981 1.16042,1.65547 l -0.30873,0.28212 c -0.94218,0.87298 -1.85775,2.48587 -0.78781,3.19383 a 2.0919596,2.0919596 0 0 0 0.80378,0.2768 c 1.65547,0.346 3.32158,0.66006 4.9877,0.95283 a 15.436852,15.436852 0 0 0 0.57489,4.55653 c 0.30341,0.21825 0.61215,0.4152 0.92088,0.60151 -0.23421,0.62812 -0.21824,1.23494 0.33536,1.59691 a 2.0919596,2.0919596 0 0 0 0.80378,0.2768 173.78169,173.78169 0 0 0 41.70611,3.45998 c 2.50184,-0.0958 5.11546,-0.27679 7.25,-1.55433 2.13454,-1.27753 3.57709,-3.99761 2.56039,-6.23861 -0.8996,-1.98018 -3.25239,-2.83719 -5.36564,-3.49725 l -2.48054,-0.76652 a 4.2584419,4.2584419 0 0 0 0.22357,-3.72614 c -0.8996,-1.98017 -3.25239,-2.83718 -5.36564,-3.49724 l -5.71163,-1.77258 a 5.6051742,5.6051742 0 0 1 -2.07599,-0.97412 11.274225,11.274225 0 0 1 -1.12849,-1.30947 6.3876629,6.3876629 0 0 0 -3.11399,-1.95356 24.230534,24.230534 0 0 1 0.0798,-3.63032 l 1.59691,-19.27477 c 0.35665,-4.36491 0.70797,-8.81498 -0.30873,-13.07874 -0.40988,-1.72999 -1.06461,-3.50257 -0.66538,-5.23789 0.62279,-2.83186 3.6037,-4.40748 5.63711,-6.51009 3.06608,-3.19383 4.0189,-7.73439 4.72155,-12.05671 a 243.40722,243.40722 0 0 0 2.7254,-53.98108 86.233449,86.233449 0 0 1 19.59948,-3.15124 c 1.12848,-0.0479 1.68208,-0.58022 2.0334,-1.63418 0.35132,-1.05397 0.1384,-2.19842 -0.0692,-3.28965 z m -31.85846,0.94218 c 0.0373,-0.1863 0.0798,-0.37261 0.11178,-0.55892 l 0.44181,0.56425 z"
     id="path88"
     inkscape:connector-curvature="0"
     style="fill:url(#linearGradient1018);stroke-width:0.53230524" />
  <path
     d="m 219.47477,145.10564 c -0.1384,1.85242 -0.79313,3.63032 -1.03267,5.47742 -0.27147,2.0334 -0.0319,4.10407 -0.16501,6.15345 -0.13308,2.04937 -0.72394,4.20521 -2.28359,5.54129 a 107.60018,107.60018 0 0 1 26.57267,5.7489 c -2.59232,-3.19383 -2.66152,-7.65455 -2.59765,-11.7533 0.0852,-6.06296 0.19163,-12.24302 2.17181,-17.9653 a 43.723552,43.723552 0 0 0 -17.95998,-0.23422 c -1.28818,0.25551 -5.18997,0.0958 -5.77019,1.29883 -0.42052,0.88363 1.16043,4.39152 1.06461,5.73293 z"
     id="path90"
     inkscape:connector-curvature="0"
     style="fill:#a1616a;stroke-width:0.53230524" />
  <path
     d="m 219.47477,145.10564 c -0.1384,1.85242 -0.79313,3.63032 -1.03267,5.47742 -0.27147,2.0334 -0.0319,4.10407 -0.16501,6.15345 -0.13308,2.04937 -0.72394,4.20521 -2.28359,5.54129 a 107.60018,107.60018 0 0 1 26.57267,5.7489 c -2.59232,-3.19383 -2.66152,-7.65455 -2.59765,-11.7533 0.0852,-6.06296 0.19163,-12.24302 2.17181,-17.9653 a 43.723552,43.723552 0 0 0 -17.95998,-0.23422 c -1.28818,0.25551 -5.18997,0.0958 -5.77019,1.29883 -0.42052,0.88363 1.16043,4.39152 1.06461,5.73293 z"
     id="path92"
     inkscape:connector-curvature="0"
     style="opacity:0.1;stroke-width:0.53230524" />
  <path
     d="m 230.20605,365.69293 a 11.05598,11.05598 0 0 0 1.06461,1.33608 5.3549907,5.3549907 0 0 0 2.02808,0.97412 l 5.57856,1.77258 c 2.07067,0.66006 4.37022,1.51175 5.24853,3.49192 0.99009,2.23568 -0.42052,4.95576 -2.50716,6.22797 -2.08664,1.27221 -4.6417,1.45852 -7.08498,1.55433 a 166.68074,166.68074 0 0 1 -40.76926,-3.45466 2.129221,2.129221 0 0 1 -0.78249,-0.2768 c -1.06461,-0.71861 -0.15437,-2.32617 0.76652,-3.19383 3.59306,-3.40675 7.50018,-6.97852 12.39207,-7.76633 2.57103,-0.42052 5.15271,-0.25018 7.70778,-0.86234 1.83645,-0.44181 3.57176,-1.20301 5.40289,-1.65546 3.41208,-0.83572 8.51689,-1.13382 10.95485,1.85242 z"
     id="path94"
     inkscape:connector-curvature="0"
     style="fill:#46455b;stroke-width:0.53230524" />
  <path
     d="m 230.20605,365.69293 a 11.05598,11.05598 0 0 0 1.06461,1.33608 5.3549907,5.3549907 0 0 0 2.02808,0.97412 l 5.57856,1.77258 c 2.07067,0.66006 4.37022,1.51175 5.24853,3.49192 0.99009,2.23568 -0.42052,4.95576 -2.50716,6.22797 -2.08664,1.27221 -4.6417,1.45852 -7.08498,1.55433 a 166.68074,166.68074 0 0 1 -40.76926,-3.45466 2.129221,2.129221 0 0 1 -0.78249,-0.2768 c -1.06461,-0.71861 -0.15437,-2.32617 0.76652,-3.19383 3.59306,-3.40675 7.50018,-6.97852 12.39207,-7.76633 2.57103,-0.42052 5.15271,-0.25018 7.70778,-0.86234 1.83645,-0.44181 3.57176,-1.20301 5.40289,-1.65546 3.41208,-0.83572 8.51689,-1.13382 10.95485,1.85242 z"
     id="path96"
     inkscape:connector-curvature="0"
     style="opacity:0.1;stroke-width:0.53230524" />
  <path
     d="m 202.19614,245.29613 a 33.833321,33.833321 0 0 0 -0.47907,22.62829 c -1.85775,-0.20227 -2.66153,2.31021 -2.61362,4.18392 a 30.996134,30.996134 0 0 0 1.1764,7.70778 c 0.34067,1.19237 0.75587,2.40602 0.62279,3.63032 -0.19163,1.71403 -1.40528,3.11931 -2.03873,4.72155 -1.33076,3.39079 0.0373,7.17015 0.26616,10.8058 0.21292,3.41208 -0.60151,6.79221 -1.25624,10.14574 a 108.19636,108.19636 0 0 0 -1.9163,16.96456 51.175826,51.175826 0 0 1 -0.42052,6.45687 c -0.47908,3.02349 -1.59692,5.9352 -1.80984,8.98531 -0.30342,4.74816 1.70338,9.40583 1.52239,14.16464 -0.21292,5.58388 -3.42804,11.0134 -2.30488,16.50146 0.15969,0.77185 0.59086,1.68209 1.38399,1.69273 8.02717,0.10114 15.52735,-2.12922 23.46934,-0.96347 0.80911,-18.37517 1.59692,-36.83552 5.21659,-54.87534 3.19383,-16.05965 8.60738,-31.93832 8.10169,-48.31203 -0.29277,-9.36325 -2.51781,-18.54551 -3.86986,-27.81827 a 36.595985,36.595985 0 0 0 -25.05029,3.38014 z"
     id="path98"
     inkscape:connector-curvature="0"
     style="fill:#bbbdc8;stroke-width:0.53230524" />
  <path
     d="m 202.19614,245.29613 a 33.833321,33.833321 0 0 0 -0.47907,22.62829 c -1.85775,-0.20227 -2.66153,2.31021 -2.61362,4.18392 a 30.996134,30.996134 0 0 0 1.1764,7.70778 c 0.34067,1.19237 0.75587,2.40602 0.62279,3.63032 -0.19163,1.71403 -1.40528,3.11931 -2.03873,4.72155 -1.33076,3.39079 0.0373,7.17015 0.26616,10.8058 0.21292,3.41208 -0.60151,6.79221 -1.25624,10.14574 a 108.19636,108.19636 0 0 0 -1.9163,16.96456 51.175826,51.175826 0 0 1 -0.42052,6.45687 c -0.47908,3.02349 -1.59692,5.9352 -1.80984,8.98531 -0.30342,4.74816 1.70338,9.40583 1.52239,14.16464 -0.21292,5.58388 -3.42804,11.0134 -2.30488,16.50146 0.15969,0.77185 0.59086,1.68209 1.38399,1.69273 8.02717,0.10114 15.52735,-2.12922 23.46934,-0.96347 0.80911,-18.37517 1.59692,-36.83552 5.21659,-54.87534 3.19383,-16.05965 8.60738,-31.93832 8.10169,-48.31203 -0.29277,-9.36325 -2.51781,-18.54551 -3.86986,-27.81827 a 36.595985,36.595985 0 0 0 -25.05029,3.38014 z"
     id="path100"
     inkscape:connector-curvature="0"
     style="opacity:0.1;stroke-width:0.53230524" />
  <path
     d="m 237.65832,373.67751 a 11.05598,11.05598 0 0 0 1.06461,1.33608 5.3549907,5.3549907 0 0 0 2.02808,0.97412 l 5.57856,1.77258 c 2.07067,0.66006 4.37023,1.51174 5.24853,3.49192 0.99009,2.23568 -0.42052,4.95576 -2.50716,6.22797 -2.08663,1.27221 -4.6417,1.45852 -7.08498,1.55433 a 166.68074,166.68074 0 0 1 -40.76926,-3.45466 2.129221,2.129221 0 0 1 -0.78249,-0.2768 c -1.06461,-0.71861 -0.15436,-2.32617 0.76652,-3.19383 3.59306,-3.40675 7.50018,-6.97852 12.39207,-7.76633 2.57103,-0.42052 5.15271,-0.25019 7.70778,-0.86234 1.83645,-0.44181 3.57177,-1.20301 5.4029,-1.65547 3.41207,-0.83572 8.51688,-1.13381 10.95484,1.85243 z"
     id="path102"
     inkscape:connector-curvature="0"
     style="fill:#46455b;stroke-width:0.53230524" />
  <path
     d="m 204.96413,245.82311 c -2.0547,2.66153 -2.66152,6.17474 -2.38473,9.50697 0.2768,3.33223 1.39997,6.53139 2.50184,9.68796 -1.46384,1.34673 -1.16043,3.66758 -0.9688,5.64776 0.69732,7.35645 -1.85774,14.69694 -1.48513,22.07469 0.15437,3.10334 0.8304,6.1641 0.99009,9.26744 0.17566,3.39078 -0.25551,6.78157 -0.66006,10.15106 a 605.58238,605.58238 0 0 0 -4.25844,64.98915 c 0,2.00146 -0.0319,4.03487 0.5323,5.95117 3.86986,2.84783 8.72981,3.23109 13.4141,2.16648 4.68428,-1.06461 8.95869,-3.43869 13.15858,-5.78083 a 40.630859,40.630859 0 0 0 6.51542,-4.20522 3.4759532,3.4759532 0 0 0 1.30947,-1.79919 c 0.44714,-2.12922 -2.51248,-3.09269 -4.21054,-4.47136 -2.46989,-2.00679 -2.43263,-5.72228 -2.17712,-8.89482 l 1.54368,-19.24816 c 0.35132,-4.35958 0.692,-8.80433 -0.29809,-13.06277 -0.40455,-1.72467 -1.02735,-3.49724 -0.65473,-5.23256 0.60682,-2.82122 3.52386,-4.39684 5.50935,-6.49945 3.00221,-3.19383 3.92842,-7.72375 4.62041,-12.03542 a 248.76753,248.76753 0 0 0 2.06535,-61.86451 c -3.91245,1.35738 -8.54882,0.61747 -12.67419,0.93685 -4.12537,0.31939 -8.22412,1.69806 -12.40271,1.80984 -3.48128,0.0798 -7.84618,-1.84177 -9.98605,0.90492 z"
     id="path104"
     inkscape:connector-curvature="0"
     style="fill:#bbbdc8;stroke-width:0.53230524" />
  <circle
     cx="233.14969"
     cy="131.18585"
     r="19.695293"
     id="circle106"
     style="fill:#a1616a;stroke-width:0.53230524" />
  <path
     d="m 244.2802,163.58195 a 105.99794,105.99794 0 0 0 -19.64739,-6.78157 c -4.75881,-1.13381 -10.19364,-1.81516 -14.16996,1.03267 -1.06462,0.7612 -2.02809,1.95889 -1.7992,3.24707 a 2.9596171,2.9596171 0 0 1 2.83719,2.57635 c 0.11711,1.12849 -0.43649,2.20907 -0.97944,3.19384 l -4.5938,8.51688 a 33.285047,33.285047 0 0 0 -2.26229,4.79075 c -0.92621,2.70411 -1.12849,5.59985 -1.32544,8.453 l -0.53231,7.72908 c -0.33003,4.87059 -0.66538,9.76247 -0.22357,14.62242 0.33003,3.66758 1.09655,7.35114 0.57489,10.99743 -0.42052,2.933 -1.66079,5.68502 -2.35811,8.57011 -1.30947,5.42951 -0.71329,11.38069 -3.25238,16.36306 a 4.9291465,4.9291465 0 0 1 3.29497,-0.29809 c 7.70778,1.42126 13.77073,7.50551 21.25494,9.83168 1.88969,-2.75734 4.45008,-4.79075 6.56333,-7.35646 a 14.223196,14.223196 0 0 0 3.01817,-6.67511 c 1.59691,2.12923 2.95429,3.79002 3.90712,6.25991 a 4.2052114,4.2052114 0 0 0 0.85169,1.55966 c 1.00605,0.97944 2.66152,0.6015 4.00826,0.19163 a 82.613773,82.613773 0 0 1 20.31809,-3.44402 c 1.10719,-0.0479 1.64482,-0.58021 1.99082,-1.63417 0.346,-1.05397 0.15437,-2.1931 -0.0532,-3.279 -1.32544,-7.09563 -2.80525,-14.20191 -3.05011,-21.41464 -0.14905,-4.25845 0.14372,-8.57544 -0.39391,-12.82324 -0.26615,-2.08131 -0.72926,-4.13069 -1.18704,-6.17474 l -3.80066,-16.89004 c -0.21292,-0.94218 -1.2243,-1.55966 -1.65547,-2.42731 -1.74596,-3.53451 -5.08351,-6.08958 -6.80818,-9.63473 a 12.631603,12.631603 0 0 1 -0.52698,-9.10242 z"
     id="path108"
     inkscape:connector-curvature="0"
     style="fill:#46455b;stroke-width:0.53230524" />
  <path
     d="m 216.64823,139.0693 a 1.3041478,1.3041478 0 0 1 0.18631,-0.78782 1.7778995,1.7778995 0 0 1 0.76652,-0.47375 4.0401968,4.0401968 0 0 0 2.25165,-4.31699 l 1.86307,-0.38859 0.0585,-6.4888 c 2.76799,-1.53304 6.54203,-0.37261 9.14501,-2.17713 1.46383,-1.02202 2.21439,-2.75734 3.10866,-4.30102 0.89427,-1.54369 2.22503,-3.09802 4.00293,-3.22577 a 11.401978,11.401978 0 0 0 0.61215,9.65069 10.992103,10.992103 0 0 0 4.48734,-4.19456 l 0.92621,5.32305 a 1.320117,1.320117 0 0 0 0.3939,0.86766 c 0.4844,0.35664 1.13914,-0.0905 1.56498,-0.53231 l 2.41134,-2.36876 a 33.194555,33.194555 0 0 1 2.07067,7.92603 c 3.96035,-3.84325 5.18998,-10.01799 3.66759,-15.31975 -1.5224,-5.30176 -5.50936,-9.69328 -10.31076,-12.40271 -4.80139,-2.70943 -10.3693,-3.84857 -15.87866,-4.05084 a 22.580388,22.580388 0 0 0 -5.52533,0.35664 26.232002,26.232002 0 0 0 -5.63179,2.12922 c -2.75202,1.29351 -5.53065,2.71476 -7.58535,4.95044 -3.57709,3.89648 -4.38087,9.62408 -3.98697,14.90455 0.53231,6.91997 2.77864,13.6004 5.39226,20.03065 0.86765,2.12922 1.79386,4.28505 3.22577,6.10021 2.15583,2.73073 7.45227,0.46311 6.77624,-4.93447 -0.46843,-3.85389 -3.99229,-2.36875 -3.99229,-6.27587 z"
     id="path110"
     inkscape:connector-curvature="0"
     style="fill:#3f3d56;stroke-width:0.53230524" />
  <path
     d="m 224.10051,244.51364 a 83.518692,83.518692 0 0 1 -29.51633,33.32231 c -3.82727,2.47522 -7.98458,4.67896 -12.46127,5.4029 -0.61215,0.10113 -1.2243,0.17033 -1.84709,0.21292 a 13.786706,13.786706 0 0 1 -6.74431,-1.14446 17.033768,17.033768 0 0 1 -3.85389,-2.66152 37.426381,37.426381 0 0 1 -9.64005,-13.16391 74.123504,74.123504 0 0 1 -3.22045,-9.73054 Q 154.85824,249.79943 152.91,242.8422 c -1.27221,-4.53524 -2.55506,-9.12371 -2.82121,-13.83993 -0.43117,-7.65988 1.86839,-15.24523 5.09948,-22.20246 a 18.3113,18.3113 0 0 0 1.32544,-3.35352 c 0,-0.0798 0.0373,-0.15969 0.0532,-0.24486 0.38326,-1.83645 0.18631,-3.75807 0.53231,-5.6105 0.64941,-3.72613 3.3961,-6.8135 6.62187,-8.77771 3.22577,-1.96421 6.91997,-2.97026 10.58755,-3.94971 l 5.71164,-1.53836 3.54515,-0.95282 14.42015,-3.88051 c 1.99615,-0.5323 4.01358,-1.24027 6.04166,-1.59691 2.2623,-0.42585 2.24633,-0.20228 2.42199,2.01211 0.32471,4.01358 0.21825,7.95796 1.06461,11.93428 0.80379,3.79534 2.21972,7.45228 3.28433,11.17841 2.68814,9.40584 3.13528,19.30671 5.25385,28.86159 0.4844,2.17713 1.1551,4.49798 2.90639,5.85536 2.00679,1.59692 5.38693,1.99082 5.91923,4.49266 0.19695,1.11251 -0.29809,2.25165 -0.77716,3.28432 z"
     id="path112"
     inkscape:connector-curvature="0"
     style="fill:#1877f2;stroke-width:0.53230524" />
  <path
     d="m 182.12291,283.21755 c -0.61215,0.10114 -1.2243,0.17034 -1.84709,0.21293 a 13.786706,13.786706 0 0 1 -6.74431,-1.12317 17.033768,17.033768 0 0 1 -3.85389,-2.66152 37.426381,37.426381 0 0 1 -9.64005,-13.16391 74.123504,74.123504 0 0 1 -3.22045,-9.73054 Q 154.85824,249.79943 152.91,242.8422 c -1.27221,-4.53524 -2.55506,-9.12371 -2.82121,-13.83993 -0.43117,-7.65988 1.86839,-15.24523 5.09948,-22.20246 a 18.3113,18.3113 0 0 0 1.32544,-3.35352 c 0,-0.0798 0.0373,-0.15969 0.0532,-0.24486 8.68722,1.52772 19.10976,18.14629 24.48604,39.92289 3.96035,16.28322 4.13069,31.27826 1.06993,40.09323 z"
     id="path114"
     inkscape:connector-curvature="0"
     style="opacity:0.1;stroke-width:0.53230524" />
  <path
     d="m 197.82592,225.92022 -1.45319,0.25018 c -1.49578,-3.92841 -2.98624,-7.86215 -4.73752,-11.6841 -0.91024,-1.99614 -1.89501,-3.96567 -2.66153,-6.02569 -2.87445,-7.91006 -2.38472,-17.2946 -7.7131,-23.81002 a 8.1495932,8.1495932 0 0 0 -1.2935,-1.30947 l 3.54515,-0.95282 a 48.077809,48.077809 0 0 1 6.46219,16.02771 c 0.57489,2.77863 0.89959,5.62114 1.83645,8.29331 a 57.334597,57.334597 0 0 0 2.73073,5.92988 c 2.02276,4.14666 3.54515,8.67658 3.28432,13.28102 z"
     id="path116"
     inkscape:connector-curvature="0"
     style="opacity:0.1;stroke-width:0.53230524" />
  <path
     d="m 211.97459,165.94539 c 3.82728,-3.279 9.04919,-5.0782 14.00495,-4.25845 2.91704,0.47376 5.62647,1.78855 8.24009,3.19384 5.09416,2.70411 10.1138,5.81809 13.7867,10.26284 a 41.141872,41.141872 0 0 1 5.44016,9.15565 22.197128,22.197128 0 0 1 1.59692,4.47669 c 1.29882,6.01505 -1.88968,11.99284 -4.96109,17.32653 l -5.90858,10.2522 c -2.71476,4.7109 -5.45081,9.45374 -8.98532,13.58976 -1.62885,1.90565 -3.4174,3.66758 -5.20062,5.42951 l -7.83021,7.72907 a 1.1710715,1.1710715 0 0 1 -0.5323,0.35665 1.1817176,1.1817176 0 0 1 -0.92089,-0.3673 l -2.58701,-2.06002 a 44.005674,44.005674 0 0 0 6.61124,-5.60517 c 3.38546,-3.50257 6.16941,-7.53212 8.9374,-11.5457 l 8.6127,-12.48788 c 2.5178,-3.65694 5.14739,-7.68117 4.86527,-12.10995 -0.13308,-2.12922 -0.93153,-4.13068 -1.76725,-6.08425 q -2.21972,-5.21126 -4.82269,-10.25752 c -1.94824,-3.77404 -4.07746,-7.50018 -6.88271,-10.68869 -2.80524,-3.1885 -6.3504,-5.85535 -10.43318,-7.01046 a 8.6872215,8.6872215 0 0 0 -3.77937,-0.36196 c -2.79992,0.4631 -4.79074,2.86912 -6.56332,5.1048 l -5.39757,6.91997 c -1.22963,1.5703 -2.35812,3.39079 -2.43264,0.40988 -0.12775,-4.25312 4.17327,-8.63399 6.90932,-11.37004 z"
     id="path118"
     inkscape:connector-curvature="0"
     style="fill:#1877f2;stroke-width:0.53230524" />
  <path
     d="m 213.64603,212.62856 c 1.06461,4.09875 2.63491,8.75109 6.57929,10.30543 2.79461,1.10187 6.06828,0.20759 8.48495,-1.59692 2.41666,-1.80452 4.13069,-4.34893 5.70631,-6.91997 a 67.208859,67.208859 0 0 1 4.40217,-6.67511 c 3.15657,-3.96035 7.45227,-7.10095 9.58149,-11.71071 0.62812,-1.37335 1.06461,-2.84251 1.7779,-4.16263 a 26.013757,26.013757 0 0 1 2.57636,-3.44401 37.330566,37.330566 0 0 0 5.80745,-10.08186 c 0.48972,-1.27221 0.91024,-2.63492 0.71861,-3.98165 -0.37794,-2.59232 -2.83187,-4.2957 -5.11545,-5.56791 -1.38932,-0.77184 -2.84251,-1.52239 -4.42346,-1.6395 -2.31021,-0.18098 -4.58315,1.06461 -6.0044,2.89042 a 11.551024,11.551024 0 0 0 -2.1931,6.47815 c -0.15969,2.83719 0.3939,5.78616 -0.53231,8.46898 a 13.307631,13.307631 0 0 1 -2.00679,3.47063 40.694735,40.694735 0 0 1 -10.91758,10.07654 18.944743,18.944743 0 0 0 -1.2935,-5.87133 c -0.40455,-1.03267 -8.3359,0 -9.36857,0.17034 -2.04405,0.29809 -6.00441,0.5323 -7.29258,2.48054 -1.28818,1.94824 0.30873,5.22191 0.83039,7.18612 z"
     id="path120"
     inkscape:connector-curvature="0"
     style="fill:#a1616a;stroke-width:0.53230524" />
  <path
     d="m 213.4544,167.89895 a 28.025871,28.025871 0 0 0 -3.279,3.19383 c -2.36343,2.84783 -3.51854,6.55268 -3.81663,10.24155 -0.29809,3.68888 0.2076,7.39372 0.84104,11.04001 q 0.86234,4.90786 2.03873,9.74651 c 0.21825,-2.43263 2.18778,-4.44475 4.47137,-5.32305 2.28359,-0.87831 4.79074,-0.78249 7.22338,-0.42585 a 35.307806,35.307806 0 0 1 9.08113,2.62427 l 1.12316,-15.74027 a 27.424366,27.424366 0 0 0 -0.0373,-6.38766 14.079474,14.079474 0 0 0 -6.56865,-9.55488 c -4.26909,-2.59765 -7.24467,-2.76266 -11.07727,0.58554 z"
     id="path122"
     inkscape:connector-curvature="0"
     style="fill:#46455b;stroke-width:0.53230524" />
  <path
     d="m 414.54867,244.49235 a 37.170875,37.170875 0 0 0 -3.6729,-12.26964 c -1.1764,-2.34214 -2.6083,-4.58315 -3.3482,-7.0903 -0.60151,-2.03873 -0.71861,-4.18392 -1.19769,-6.25459 -0.47907,-2.07067 -1.32544,-4.05084 -2.00679,-6.0736 -4.81736,-14.37224 -1.19769,-30.09654 -2.75202,-45.16078 -0.58021,-5.55727 -2.28359,-11.65216 -7.10095,-14.5479 -2.8638,-1.71935 -6.30249,-1.9855 -9.67199,-2.12922 l -1.53836,-0.0692 -2.46989,-0.12243 c -3.5771,-0.17566 -7.16483,-0.30874 -10.64611,0.44181 -4.25844,0.93153 -9.30469,3.92841 -10.6461,8.27735 -0.73459,-0.37794 -1.47449,-0.71329 -2.15584,-1.02735 a 38.666653,38.666653 0 0 0 -8.56479,-2.66153 32.007514,32.007514 0 0 0 7.27129,-2.81057 c 5.32305,-3.09802 6.558,-12.14721 7.6439,-18.19952 1.0859,-6.05231 0.0958,-12.30689 -1.7087,-18.18887 a 31.272933,31.272933 0 0 0 -2.42199,-6.02569 21.020734,21.020734 0 0 0 -29.89426,-7.39904 c -4.96641,3.25238 -9.58149,7.98457 -13.37151,12.55708 -0.5323,0.62812 -2.75734,2.85315 -2.01743,3.79001 0.41519,0.53231 1.78322,0.10646 3.22044,-0.53231 a 19.530279,19.530279 0 0 0 -1.67144,7.93135 19.75917,19.75917 0 0 0 9.70393,16.99119 l 0.5323,4.8972 v 0.0373 c 0.0586,1.63417 0.0852,3.26835 0.10646,4.8972 0,1.14446 0,2.31553 -0.0319,3.4866 a 24.038905,24.038905 0 0 1 -7.942,5.90859 c 2.50184,0.4152 4.88656,-0.17034 7.20742,-1.17107 a 10.273491,10.273491 0 0 1 -1.86307,3.58774 c 0.63876,-0.22357 1.27753,-0.42585 1.9163,-0.63877 a 13.941074,13.941074 0 0 0 -0.88895,1.67144 12.935017,12.935017 0 0 0 -0.85702,2.84251 39.922893,39.922893 0 0 0 -3.50789,6.27055 v 0 c -0.44713,0.99542 -0.84636,2.0068 -1.20833,3.03414 v 0.0692 q -0.5323,1.53304 -0.94218,3.10867 v 0 q -0.19163,0.75587 -0.35132,1.51707 c 0,0.0373 0,0.0745 0,0.11178 -0.21292,1.02735 -0.38858,2.06002 -0.53231,3.10334 0,0.0692 0,0.1384 0,0.21292 -0.0585,0.4844 -0.11178,0.97412 -0.14904,1.46384 0,0 0,0.0479 0,0.0745 -0.0426,0.53231 -0.0745,1.038 -0.0905,1.55966 0,0.0692 0,0.13308 0,0.20227 0,0.44182 0,0.88895 0,1.33077 v 0.30341 c 0,1.00074 0.0639,2.00679 0.15969,3.01285 0,0.12243 0,0.25018 0.0373,0.37261 0.0426,0.40988 0.0905,0.81975 0.14904,1.23495 0,0.0958 0,0.19163 0.0373,0.28212 0.0692,0.49505 0.14904,0.98477 0.23953,1.47449 0,0.10646 0.0479,0.21824 0.0692,0.32471 0.0745,0.3939 0.15437,0.78248 0.24486,1.17639 l 0.0958,0.40455 c 0.11711,0.48972 0.23954,0.97412 0.37793,1.46384 0.0799,0.2768 0.1597,0.53231 0.24487,0.82507 a 20.759904,20.759904 0 0 1 0.5323,3.07141 l -2.91171,0.0958 q -9.34728,0.26615 -18.67859,0.84637 c -0.77717,-2.99688 -3.42805,-4.72687 -6.7656,-5.13675 a 13.350215,13.350215 0 0 0 -1.59692,-0.0958 v 0 a 8.8628822,8.8628822 0 0 0 1.5224,-1.65547 7.3351662,7.3351662 0 0 0 1.21365,-2.66153 7.2872587,7.2872587 0 0 0 -2.20374,1.93227 c -0.19695,0.26615 -0.37261,0.5323 -0.53231,0.77716 v -1.59691 a 0.25018346,0.25018346 0 0 0 -0.2555,-0.25551 h -0.53231 a 0.25018346,0.25018346 0 0 0 -0.2555,0.25551 v 3.25238 h -0.10646 -0.18099 c -0.35132,0.0319 -0.692,0.0745 -1.02735,0.1384 -3.625,0.67603 -6.2812,3.0022 -6.2812,6.91997 a 8.5168838,8.5168838 0 0 0 3.0022,6.48348 18.667945,18.667945 0 0 0 0.82508,3.58774 c 0.36729,1.1551 0.84636,2.41134 1.92162,2.98623 a 4.3915182,4.3915182 0 0 0 2.09728,0.38326 c 5.91923,0 11.51909,-2.73073 17.4117,-3.19383 3.64097,-0.29277 7.29791,0.27147 10.94952,0.15969 0.53231,0 1.06461,-0.0532 1.59692,-0.0958 -4.99302,24.72558 -11.03469,49.76522 -7.87812,74.74098 0.2076,1.66079 0.53231,3.45999 1.77258,4.58847 1.64482,1.5011 4.17859,1.25624 6.38766,1.06461 a 53.390215,53.390215 0 0 1 18.07176,1.44255 5.488067,5.488067 0 0 0 2.54442,0.0905 4.7162244,4.7162244 0 0 0 0.53231,-0.15437 l 0.14904,-0.0586 c 0.11179,-0.0426 0.21825,-0.0852 0.31939,-0.13308 l 0.15436,-0.0798 0.26083,-0.15969 c 0.0426,-0.0319 0.0905,-0.0586 0.12776,-0.0905 a 2.0653443,2.0653443 0 0 0 0.26083,-0.21292 l 0.0745,-0.0639 a 3.7953364,3.7953364 0 0 0 0.28212,-0.30874 l 0.0639,-0.0958 a 2.5923265,2.5923265 0 0 0 0.17034,-0.25018 c 0.0266,-0.0426 0.0532,-0.0852 0.0745,-0.12775 0.0213,-0.0426 0.0852,-0.15969 0.12243,-0.23954 0.0373,-0.0798 0.0426,-0.0958 0.0585,-0.14372 0.016,-0.0479 0.0692,-0.17566 0.10114,-0.26616 0.0319,-0.0905 0,-0.0852 0.0426,-0.13307 0.0426,-0.0479 0.0745,-0.26615 0.10114,-0.39923 v -0.0852 c 0,-0.11178 0.0426,-0.22889 0.0586,-0.34068 0.016,-0.11178 0,-0.1171 0,-0.17566 0,-0.0586 0,-0.17566 0,-0.26083 v -0.19163 c 0,-0.0852 0,-0.17033 0,-0.2555 v -0.47375 c 0,-0.0532 0,-0.11179 0,-0.17034 v 0 c 0,-0.47375 -0.0532,-0.95283 -0.10114,-1.41061 a 8.4263919,8.4263919 0 0 0 1.16042,0.25018 v 0 a 6.499447,6.499447 0 0 0 1.1072,0.0798 h 0.0532 c 0.17566,0 0.35132,0 0.5323,-0.0426 v 0 a 4.364903,4.364903 0 0 0 0.45779,-0.0958 h 0.0692 a 2.4592502,2.4592502 0 0 0 0.40455,-0.15969 l 0.0639,-0.0373 a 2.1664823,2.1664823 0 0 0 0.31406,-0.21293 l 0.0479,-0.0373 a 1.8524222,1.8524222 0 0 0 0.26616,-0.30873 l 0.0479,-0.0798 a 1.8098378,1.8098378 0 0 0 0.18631,-0.40987 c 0.30341,-1.02735 -0.38858,-2.18778 0.71861,-3.12996 1.06461,3.41208 2.12922,6.82948 2.30488,10.35866 0.0586,1.28818 0,2.66153 0.75588,3.72614 a 15.628482,15.628482 0 0 0 1.59691,1.62885 c 1.62886,1.76193 1.66612,4.41813 1.55433,6.80286 -0.0479,0.96347 -0.10113,1.92695 -0.17033,2.89042 a 142.92928,142.92928 0 0 1 -7.77166,37.69253 20.312768,20.312768 0 0 1 -1.62885,3.72614 18.039825,18.039825 0 0 1 -3.99762,4.39684 50.71272,50.71272 0 0 1 -7.10627,5.05158 21.744669,21.744669 0 0 0 -3.61435,2.4007 c -0.0426,-0.12244 -0.0905,-0.23954 -0.12243,-0.3673 -0.0586,-0.24486 -0.1384,-0.5323 -0.37794,-0.62279 a 0.72393512,0.72393512 0 0 0 -0.53231,0.0852 c -2.49651,1.09654 -4.99302,2.19309 -7.39372,3.47595 a 8.6286679,8.6286679 0 0 0 -3.1193,2.41134 c -0.76652,1.06461 -0.99542,2.66153 -0.20228,3.72614 0.69732,0.93153 1.94824,1.24027 3.10334,1.44787 1.47981,0.26083 2.96494,0.44714 4.45007,0.58553 a 6.7230152,6.7230152 0 0 0 -1.96421,1.74597 c -0.76652,1.06461 -0.99541,2.66152 -0.20227,3.72613 0.69732,0.93154 1.94824,1.24027 3.10334,1.44787 9.43777,1.66612 19.11508,0.53231 28.69657,0.25019 3.11399,-0.10114 6.29717,-0.12243 9.24615,-1.13381 a 4.6576708,4.6576708 0 0 0 1.59691,-0.83572 c 1.34141,-1.18172 1.20833,-3.25771 0.97412,-5.01964 l -0.97412,-7.19677 c -0.14372,0 -0.28212,0.0479 -0.42052,0.0798 a 106.36523,106.36523 0 0 1 4.37023,-19.90822 c 3.24706,-10.08718 8.08039,-20.02532 8.01651,-30.58093 0,-0.25551 0,-0.53231 0,-0.76652 -0.0905,-3.30562 -0.68135,-6.57397 -1.06461,-9.86362 -0.6015,-5.50404 -0.5323,-11.05598 -0.49504,-16.58663 a 35.664451,35.664451 0 0 1 0.45246,-6.47816 c 0,-0.0745 0.0319,-0.14372 0.0479,-0.21824 l 8.84159,-0.23422 a 6.2332943,6.2332943 0 0 0 2.85315,-0.5323 1.8737144,1.8737144 0 0 0 1.03267,-2.28359 c 3.76872,1.7087 8.80966,-0.61747 9.92217,-4.57783 a 8.032486,8.032486 0 0 0 0.18631,-0.84636 0.26615262,0.26615262 0 0 1 0,-0.0639 c 0.0373,-0.26615 0.0639,-0.5323 0.0745,-0.79313 0,-0.0426 0,-0.0905 0,-0.13308 v 0 a 14.84067,14.84067 0 0 0 -0.83572,-5.37628 c -1.80983,-5.1261 -4.68428,-9.79442 -7.38839,-14.51597 -1.39464,-2.44328 -2.7467,-4.9185 -4.06149,-7.40436 l 1.1551,1.48513 a 5.0302845,5.0302845 0 0 0 1.55965,1.49578 c 2.15584,1.11252 4.41282,-1.12849 6.60591,-2.16116 2.91171,-1.37335 6.31847,-0.56424 9.53359,-0.33535 3.21512,0.22889 7.09031,-0.60151 8.24008,-3.58242 a 7.8568253,7.8568253 0 0 0 0.2076,-3.75807 z m -55.42894,-80.00016 c 0,1.13914 0.0745,2.29424 0.16501,3.45466 a 32.27899,32.27899 0 0 0 -3.72613,-4.95043 z"
     id="path124"
     inkscape:connector-curvature="0"
     style="fill:url(#f59ba046-7ebe-407e-be3d-c62856fc1078);stroke-width:0.53230524" />
  <path
     d="m 289.57405,199.72548 a 7.2819357,7.2819357 0 0 1 2.17713,-1.92162 7.3032279,7.3032279 0 0 1 -1.19769,2.66152 c -0.92621,1.26156 -1.90033,2.12922 -2.1718,1.92162 -0.27148,-0.2076 0.2555,-1.39996 1.19236,-2.66152 z"
     id="path126"
     inkscape:connector-curvature="0"
     style="fill:#99d55c;stroke-width:0.53230524" />
  <path
     d="m 289.69116,199.82129 a 5.3709599,5.3709599 0 0 1 1.59691,-1.4319 5.4561287,5.4561287 0 0 1 -0.88895,1.96953 c -0.69199,0.93686 -1.41593,1.59692 -1.59691,1.4319 -0.18099,-0.16501 0.19695,-1.03267 0.88895,-1.96953 z"
     id="path128"
     inkscape:connector-curvature="0"
     style="opacity:0.1;stroke-width:0.53230524" />
  <path
     d="m 288.28055,198.66619 h 0.5323 a 0.25550651,0.25550651 0 0 1 0.25551,0.25551 v 6.03101 h -1.01138 v -6.03101 a 0.25550651,0.25550651 0 0 1 0.22357,-0.25551 z"
     id="path130"
     inkscape:connector-curvature="0"
     style="fill:#f6987e;stroke-width:0.53230524" />
  <path
     d="m 297.55863,209.21116 a 8.516885,8.516885 0 0 1 -17.03377,0 c 0,-3.9018 2.62427,-6.21201 6.20668,-6.88803 a 12.514496,12.514496 0 0 1 2.3102,-0.2076 13.062771,13.062771 0 0 1 1.59692,0.0958 c 3.93906,0.48972 6.91997,2.84251 6.91997,6.99982 z"
     id="path132"
     inkscape:connector-curvature="0"
     style="fill:#fc4a4a;stroke-width:0.53230524" />
  <path
     d="m 290.63866,202.21134 c -0.15437,0.29277 -0.99009,0.53231 -2.00147,0.53231 a 3.5291837,3.5291837 0 0 1 -1.90565,-0.39923 12.514496,12.514496 0 0 1 2.3102,-0.2076 13.062771,13.062771 0 0 1 1.59692,0.0745 z"
     id="path134"
     inkscape:connector-curvature="0"
     style="opacity:0.1;stroke-width:0.53230524" />
  <path
     d="m 290.463,217.52576 a 8.5168838,8.5168838 0 0 1 -8.51688,-8.51688 c 0,-3.8326 2.52845,-6.12683 6.00972,-6.84544 a 11.481824,11.481824 0 0 0 -1.2243,0.15969 c -3.58241,0.67602 -6.20668,2.98623 -6.20668,6.88803 a 8.5168838,8.5168838 0 0 0 8.51688,8.51688 8.3465461,8.3465461 0 0 0 1.91098,-0.21824 c -0.16501,0.0106 -0.31406,0.016 -0.48972,0.016 z"
     id="path136"
     inkscape:connector-curvature="0"
     style="opacity:0.1;stroke-width:0.53230524" />
  <path
     d="m 328.00649,375.16796 c 1.17639,1.06461 2.97558,1.038 4.5725,0.92089 l 7.27661,-0.53231 c 5.78084,-0.42584 11.75863,-0.90492 16.85811,-3.65693 a 4.0082584,4.0082584 0 0 0 1.39996,-1.06461 4.5086254,4.5086254 0 0 0 0.61215,-2.29424 106.2428,106.2428 0 0 1 4.67364,-23.20318 c 3.19383,-10.03396 7.98458,-19.92419 7.92071,-30.42657 0,-0.25551 0,-0.53231 0,-0.7612 -0.0905,-3.28965 -0.67071,-6.54203 -1.02735,-9.81571 -0.59086,-5.47742 -0.53231,-10.99742 -0.48972,-16.50146 a 35.808173,35.808173 0 0 1 0.44713,-6.44622 c 0.33535,-1.72999 1.59692,-3.4653 0.82507,-4.9877 -1.49577,-2.95429 -6.91996,-4.04019 -9.837,-4.14665 -3.92841,-0.1384 -7.79294,0.88895 -11.58828,1.91097 -1.1551,0.31406 -2.36344,0.64941 -3.23642,1.46384 -1.17107,1.09655 -1.50642,2.8159 -1.54901,4.41813 -0.20227,7.10628 3.89116,13.71751 4.21586,20.81314 0.0586,1.27753 0,2.66153 0.74523,3.72614 a 15.436852,15.436852 0 0 0 1.59692,1.62353 c 1.59691,1.75128 1.64482,4.39152 1.53303,6.7656 -0.0479,0.95815 -0.10113,1.9163 -0.16501,2.87444 a 143.11559,143.11559 0 0 1 -7.68116,37.50091 20.451167,20.451167 0 0 1 -1.59692,3.72614 18.055794,18.055794 0 0 1 -3.94971,4.37554 50.478506,50.478506 0 0 1 -7.0211,5.02497 c -1.65547,0.97944 -3.42272,1.91629 -4.55653,3.47063 -1.13381,1.55433 -1.384,3.91244 0.0213,5.22191 z"
     id="path138"
     inkscape:connector-curvature="0"
     style="fill:#fda8a8;stroke-width:0.53230524" />
  <path
     d="m 328.00649,375.16796 c 1.17639,1.06461 2.97558,1.038 4.5725,0.92089 l 7.27661,-0.53231 c 5.78084,-0.42584 11.75863,-0.90492 16.85811,-3.65693 a 4.0082584,4.0082584 0 0 0 1.39996,-1.06461 4.5086254,4.5086254 0 0 0 0.61215,-2.29424 106.2428,106.2428 0 0 1 4.67364,-23.20318 c 3.19383,-10.03396 7.98458,-19.92419 7.92071,-30.42657 0,-0.25551 0,-0.53231 0,-0.7612 -0.0905,-3.28965 -0.67071,-6.54203 -1.02735,-9.81571 -0.59086,-5.47742 -0.53231,-10.99742 -0.48972,-16.50146 a 35.808173,35.808173 0 0 1 0.44713,-6.44622 c 0.33535,-1.72999 1.59692,-3.4653 0.82507,-4.9877 -1.49577,-2.95429 -6.91996,-4.04019 -9.837,-4.14665 -3.92841,-0.1384 -7.79294,0.88895 -11.58828,1.91097 -1.1551,0.31406 -2.36344,0.64941 -3.23642,1.46384 -1.17107,1.09655 -1.50642,2.8159 -1.54901,4.41813 -0.20227,7.10628 3.89116,13.71751 4.21586,20.81314 0.0586,1.27753 0,2.66153 0.74523,3.72614 a 15.436852,15.436852 0 0 0 1.59692,1.62353 c 1.59691,1.75128 1.64482,4.39152 1.53303,6.7656 -0.0479,0.95815 -0.10113,1.9163 -0.16501,2.87444 a 143.11559,143.11559 0 0 1 -7.68116,37.50091 20.451167,20.451167 0 0 1 -1.59692,3.72614 18.055794,18.055794 0 0 1 -3.94971,4.37554 50.478506,50.478506 0 0 1 -7.0211,5.02497 c -1.65547,0.97944 -3.42272,1.91629 -4.55653,3.47063 -1.13381,1.55433 -1.384,3.91244 0.0213,5.22191 z"
     id="path140"
     inkscape:connector-curvature="0"
     style="opacity:0.1;stroke-width:0.53230524" />
  <path
     d="m 328.00649,375.16796 c 1.17639,1.06461 2.97558,1.038 4.5725,0.92089 l 7.27661,-0.53231 c 5.78084,-0.42584 11.75863,-0.90492 16.85811,-3.65693 a 4.0082584,4.0082584 0 0 0 1.39996,-1.06461 4.5086254,4.5086254 0 0 0 0.61215,-2.29424 106.2428,106.2428 0 0 1 4.67364,-23.20318 c 3.19383,-10.03396 7.98458,-19.92419 7.92071,-30.42657 a 152.7716,152.7716 0 0 1 -18.52955,0.91556 143.11559,143.11559 0 0 1 -7.68116,37.50091 20.451167,20.451167 0 0 1 -1.59692,3.72613 18.055794,18.055794 0 0 1 -3.94971,4.37555 50.478506,50.478506 0 0 1 -7.0211,5.02496 c -1.65547,0.97945 -3.42272,1.9163 -4.55653,3.47063 -1.13381,1.55434 -1.384,3.93374 0.0213,5.24321 z"
     id="path142"
     inkscape:connector-curvature="0"
     style="fill:#eeeff3;stroke-width:0.53230524" />
  <path
     d="m 328.00649,375.16796 c 1.17639,1.06461 2.97558,1.038 4.5725,0.92089 l 7.27661,-0.53231 c 5.78084,-0.42584 11.75863,-0.90492 16.85811,-3.65693 a 4.0082584,4.0082584 0 0 0 1.39996,-1.06461 4.5086254,4.5086254 0 0 0 0.61215,-2.29424 106.2428,106.2428 0 0 1 4.67364,-23.20318 c 3.19383,-10.03396 7.98458,-19.92419 7.92071,-30.42657 a 152.7716,152.7716 0 0 1 -18.52955,0.91556 143.11559,143.11559 0 0 1 -7.68116,37.50091 20.451167,20.451167 0 0 1 -1.59692,3.72613 18.055794,18.055794 0 0 1 -3.94971,4.37555 50.478506,50.478506 0 0 1 -7.0211,5.02496 c -1.65547,0.97945 -3.42272,1.9163 -4.55653,3.47063 -1.13381,1.55434 -1.384,3.93374 0.0213,5.24321 z"
     id="path144"
     inkscape:connector-curvature="0"
     style="opacity:0.1;stroke-width:0.53230524" />
  <path
     d="m 344.08211,372.92163 a 27.41372,27.41372 0 0 0 5.01431,-2.39537 l 8.02184,-4.5246 a 6.7975379,6.7975379 0 0 1 2.37941,-0.96347 l 0.95815,7.15951 c 0.23953,1.7566 0.36729,3.82195 -0.95815,4.99834 a 4.6629939,4.6629939 0 0 1 -1.59692,0.8304 c -2.91171,1.00606 -6.05231,1.02735 -9.13436,1.12316 -9.46438,0.30342 -19.02459,1.41061 -28.35057,-0.25018 -1.13914,-0.20228 -2.37409,-0.5323 -3.06076,-1.43722 -0.78249,-1.06461 -0.55892,-2.6083 0.19695,-3.68888 a 8.5594682,8.5594682 0 0 1 3.08205,-2.4007 c 2.37408,-1.27753 4.83866,-2.36343 7.30323,-3.45466 a 0.71328902,0.71328902 0 0 1 0.50569,-0.0852 c 0.23954,0.0799 0.31406,0.37262 0.37793,0.61748 0.43117,1.74596 1.83646,3.12463 3.4387,3.9497 0.0213,0 8.27734,1.65015 11.8225,0.52166 z"
     id="path146"
     inkscape:connector-curvature="0"
     style="fill:#bbbdc8;stroke-width:0.53230524" />
  <path
     d="m 344.08211,372.92163 a 27.41372,27.41372 0 0 0 5.01431,-2.39537 l 8.02184,-4.5246 a 6.7975379,6.7975379 0 0 1 2.37941,-0.96347 l 0.95815,7.15951 c 0.23953,1.7566 0.36729,3.82195 -0.95815,4.99834 a 4.6629939,4.6629939 0 0 1 -1.59692,0.8304 c -2.91171,1.00606 -6.05231,1.02735 -9.13436,1.12316 -9.46438,0.30342 -19.02459,1.41061 -28.35057,-0.25018 -1.13914,-0.20228 -2.37409,-0.5323 -3.06076,-1.43722 -0.78249,-1.06461 -0.55892,-2.6083 0.19695,-3.68888 a 8.5594682,8.5594682 0 0 1 3.08205,-2.4007 c 2.37408,-1.27753 4.83866,-2.36343 7.30323,-3.45466 a 0.71328902,0.71328902 0 0 1 0.50569,-0.0852 c 0.23954,0.0799 0.31406,0.37262 0.37793,0.61748 0.43117,1.74596 1.83646,3.12463 3.4387,3.9497 0.0213,0 8.27734,1.65015 11.8225,0.52166 z"
     id="path148"
     inkscape:connector-curvature="0"
     style="opacity:0.1;stroke-width:0.53230524" />
  <path
     d="m 333.32954,382.62023 c 1.17639,1.06461 2.97559,1.038 4.5725,0.92089 l 7.27661,-0.5323 c 5.78084,-0.42585 11.75863,-0.90492 16.85811,-3.65694 a 4.0082584,4.0082584 0 0 0 1.39996,-1.06461 4.5086254,4.5086254 0 0 0 0.61216,-2.29424 106.2428,106.2428 0 0 1 4.67364,-23.20318 c 3.19383,-10.03396 7.98457,-19.92419 7.9207,-30.42657 0,-0.25551 0,-0.5323 0,-0.7612 -0.0905,-3.28964 -0.67071,-6.54203 -1.02735,-9.8157 -0.59086,-5.47743 -0.53231,-10.99743 -0.48972,-16.50147 a 35.808173,35.808173 0 0 1 0.44713,-6.44621 c 0.33536,-1.72999 1.59692,-3.46531 0.82508,-4.9877 -1.49578,-2.9543 -6.91997,-4.0402 -9.837,-4.14666 -3.92842,-0.1384 -7.79295,0.88895 -11.58829,1.91097 -1.1551,0.31407 -2.36343,0.64942 -3.23641,1.46384 -1.17108,1.09655 -1.50643,2.8159 -1.54901,4.41814 -0.20228,7.10627 3.89115,13.7175 4.21585,20.81313 0.0586,1.27754 0,2.66153 0.74523,3.72614 a 15.436852,15.436852 0 0 0 1.59692,1.62353 c 1.59691,1.75128 1.64482,4.39152 1.53304,6.7656 -0.0479,0.95815 -0.10114,1.9163 -0.16502,2.87445 a 143.11559,143.11559 0 0 1 -7.68116,37.5009 20.451167,20.451167 0 0 1 -1.59692,3.72614 18.055794,18.055794 0 0 1 -3.9497,4.37555 50.478506,50.478506 0 0 1 -7.02111,5.02496 c -1.65547,0.97944 -3.42272,1.9163 -4.55653,3.47063 -1.13381,1.55433 -1.384,3.91244 0.0213,5.22191 z"
     id="path150"
     inkscape:connector-curvature="0"
     style="fill:#fda8a8;stroke-width:0.53230524" />
  <path
     d="m 333.32954,382.62023 c 1.17639,1.06461 2.97559,1.038 4.5725,0.92089 l 7.27661,-0.5323 c 5.78084,-0.42585 11.75863,-0.90492 16.85811,-3.65694 a 4.0082584,4.0082584 0 0 0 1.39996,-1.06461 4.5086254,4.5086254 0 0 0 0.61216,-2.29424 106.2428,106.2428 0 0 1 4.67364,-23.20318 c 3.19383,-10.03396 7.98457,-19.92419 7.9207,-30.42657 a 152.7716,152.7716 0 0 1 -18.52955,0.91557 143.11559,143.11559 0 0 1 -7.68116,37.5009 20.451167,20.451167 0 0 1 -1.59692,3.72614 18.055794,18.055794 0 0 1 -3.9497,4.37555 50.478506,50.478506 0 0 1 -7.02111,5.02496 c -1.65547,0.97944 -3.42272,1.9163 -4.55653,3.47063 -1.13381,1.55433 -1.384,3.93373 0.0213,5.2432 z"
     id="path152"
     inkscape:connector-curvature="0"
     style="fill:#eeeff3;stroke-width:0.53230524" />
  <path
     d="m 349.40516,380.37391 a 27.41372,27.41372 0 0 0 5.01431,-2.39538 l 8.02184,-4.52459 a 6.7975379,6.7975379 0 0 1 2.37941,-0.96347 l 0.95815,7.1595 c 0.23954,1.75661 0.36729,3.82195 -0.95815,4.99835 a 4.6629939,4.6629939 0 0 1 -1.59692,0.83039 c -2.91171,1.00606 -6.05231,1.02735 -9.13436,1.12317 -9.46438,0.30341 -19.02458,1.41061 -28.35057,-0.25019 -1.13914,-0.20227 -2.37408,-0.5323 -3.06076,-1.43722 -0.78249,-1.06461 -0.55892,-2.6083 0.19696,-3.68888 a 8.5594682,8.5594682 0 0 1 3.08204,-2.40069 c 2.37408,-1.27753 4.83866,-2.36344 7.30323,-3.45466 a 0.71328902,0.71328902 0 0 1 0.50569,-0.0852 c 0.23954,0.0798 0.31406,0.37261 0.37794,0.61747 0.43116,1.74596 1.83645,3.12463 3.43869,3.94971 0.0213,0 8.27735,1.65014 11.8225,0.52166 z"
     id="path154"
     inkscape:connector-curvature="0"
     style="fill:#bbbdc8;stroke-width:0.53230524" />
  <path
     d="m 323.00814,166.69594 c 2.59233,-3.19383 2.66153,-7.65455 2.59765,-11.7533 0,-1.59692 -0.0479,-3.24706 -0.10646,-4.8706 v -0.0373 a 54.907285,54.907285 0 0 0 -0.94218,-8.88949 v 0 a 32.305605,32.305605 0 0 0 -1.11784,-4.15199 c 0.35132,-0.0798 0.70264,-0.15436 1.06461,-0.21824 a 43.617091,43.617091 0 0 1 16.90069,0 c 0.96347,0.19163 3.40143,0.14905 4.79075,0.6228 a 1.5969157,1.5969157 0 0 1 0.96347,0.67602 c 0.27148,0.56957 -0.28744,2.21972 -0.692,3.68356 v 0 a 7.1967668,7.1967668 0 0 0 -0.37261,2.04405 14.036889,14.036889 0 0 0 0.29809,1.94291 c 0.25018,1.1764 0.58021,2.34215 0.73458,3.53451 0.27148,2.03341 0.0319,4.10407 0.16502,6.15345 0.13307,2.04937 0.72393,4.20521 2.28359,5.5413 a 107.60018,107.60018 0 0 0 -26.56736,5.72228 z"
     id="path156"
     inkscape:connector-curvature="0"
     style="fill:#fda8a8;stroke-width:0.53230524" />
  <path
     d="m 348.51621,145.51019 c -0.70797,0.0585 -1.41061,0.12775 -2.12922,0.2076 a 107.24886,107.24886 0 0 0 -20.88766,4.3649 v -0.0373 l -0.94218,-8.8895 v 0 c 0,-0.5323 0,-1.06461 0,-1.62353 0,-0.91024 -0.0266,-1.83113 -0.0479,-2.74669 a 43.617091,43.617091 0 0 1 16.90069,0 c 0.96348,0.19163 3.40143,0.14904 4.79075,0.62279 0,0.86766 0,1.73532 0.0319,2.60298 a 11.609577,11.609577 0 0 0 0.23954,1.7566 v 0 a 6.6857538,6.6857538 0 0 0 2.04405,3.74211 z"
     id="path158"
     inkscape:connector-curvature="0"
     style="opacity:0.1;stroke-width:0.53230524" />
  <circle
     cx="335.08615"
     cy="128.25818"
     r="19.695293"
     id="circle160"
     style="fill:#fda8a8;stroke-width:0.53230524" />
  <path
     d="m 317.78623,202.52008 c -3.49725,-12.3761 -0.30342,-25.66776 8.04845,-35.44088 1.85775,-2.17713 3.72614,-4.41281 6.1641,-5.71696 2.90106,-1.54369 6.33443,-1.59692 9.61875,-1.62886 2.90107,0 5.89262,0 8.55947,1.15511 3.60371,1.53836 6.08957,4.88124 8.18686,8.1975 2.23568,3.5345 4.25844,7.36178 4.59911,11.53505 0.18099,2.47522 -0.2555,4.9877 0.11179,7.45228 0.46843,3.12463 2.20906,5.92455 2.92235,9.00128 0.38859,1.66079 0.46843,3.38014 0.71861,5.07287 a 47.502919,47.502919 0 0 0 1.63951,6.8348 245.25964,245.25964 0 0 0 21.5903,50.41995 c 2.66152,4.70025 5.50935,9.34728 7.2979,14.44144 0.8091,2.30488 1.39464,4.79075 0.73458,7.16483 -1.10187,3.93906 -6.07892,6.25458 -9.79974,4.55653 a 1.8683914,1.8683914 0 0 1 -1.02202,2.26762 6.100218,6.100218 0 0 1 -2.82122,0.53231 l -32.87517,0.87298 a 11.859761,11.859761 0 0 0 -2.56039,0.34599 c -3.86454,0.99009 -2.41134,2.66153 -2.82654,4.05617 -0.50569,1.70338 -2.94897,1.56498 -4.65235,1.06461 0.26083,2.48587 0.31938,5.52533 -2.89042,6.24926 a 5.4241904,5.4241904 0 0 1 -2.51248,-0.0852 52.389482,52.389482 0 0 0 -17.85352,-1.43723 c -2.19309,0.20228 -4.70025,0.44714 -6.32378,-1.06461 -1.2243,-1.12316 -1.54369,-2.91171 -1.75129,-4.56186 -3.27367,-26.08295 3.45999,-52.20317 8.51689,-77.97207 0.68135,-3.47595 0.43649,-9.10774 -0.58554,-12.50385 z"
     id="path162"
     inkscape:connector-curvature="0"
     style="fill:#f75842;stroke-width:0.53230524" />
  <path
     d="m 361.43526,184.54413 c 0.77184,2.22504 1.73531,4.41281 1.99614,6.75496 0.2076,1.87371 -0.0426,3.76872 0.0692,5.64775 a 28.946759,28.946759 0 0 0 1.28286,6.13748 97.087152,97.087152 0 0 0 3.78469,11.4073 c 0.71329,1.67677 1.53836,3.52387 0.96347,5.25386 -0.57489,1.72999 -2.35811,2.79992 -2.86913,4.51927 -0.5323,1.81516 0.53231,3.72614 1.88969,5.05158 1.35738,1.32544 3.05543,2.26762 4.31167,3.67822 1.36802,1.53837 2.12922,3.50257 3.09269,5.32306 a 49.248881,49.248881 0 0 0 4.68961,6.84012 l 6.43557,8.35187 a 5.0249615,5.0249615 0 0 0 1.54369,1.49045 c 2.12922,1.1072 4.35958,-1.12316 6.52606,-2.12922 2.87445,-1.36802 6.23862,-0.56424 9.41648,-0.33535 3.17786,0.22889 7.00514,-0.59618 8.13895,-3.56645 a 7.8355331,7.8355331 0 0 0 0.22889,-3.72613 37.122967,37.122967 0 0 0 -3.63032,-12.20576 c -1.16043,-2.3315 -2.57636,-4.56186 -3.30562,-7.05837 -0.59618,-2.02808 -0.71329,-4.16263 -1.18704,-6.22265 -0.47375,-2.06002 -1.30947,-4.02955 -1.98017,-6.04166 -4.75881,-14.29772 -1.18172,-29.94217 -2.72008,-44.93189 -0.56957,-5.53065 -2.25698,-11.5936 -7.01579,-14.47338 -2.82654,-1.7087 -6.22265,-1.97485 -9.58149,-2.12922 l -1.51707,-0.0692 -2.44328,-0.12243 c -3.53451,-0.17566 -7.07966,-0.30873 -10.52368,0.44182 -4.84397,1.06461 -10.67272,4.82801 -10.86435,10.23623 a 63.051556,63.051556 0 0 0 3.26836,21.87774 z"
     id="path164"
     inkscape:connector-curvature="0"
     style="fill:#1877f2;stroke-width:0.53230524" />
  <path
     d="m 379.58154,151.96705 a 61.353502,61.353502 0 0 1 0.97412,10.97614 c 0.0958,10.5077 1.22963,20.97282 2.36876,31.406 l 0.75055,6.91997 c 0.1384,1.27753 0.30341,2.61894 1.06461,3.64629 0.7612,1.02735 2.35811,1.56498 3.36417,0.77185 0.61747,-2.44329 0.49504,-5.009 0.37261,-7.5268 q -0.39923,-8.03249 -0.79313,-16.0703 c -0.25551,-5.21659 -0.53231,-10.4385 -1.16575,-15.62315 a 103.34706,103.34706 0 0 0 -2.1931,-11.92896 14.079474,14.079474 0 0 0 -0.76119,-2.37941 l -1.51707,-0.0692 z"
     id="path166"
     inkscape:connector-curvature="0"
     style="opacity:0.1;stroke-width:0.53230524" />
  <path
     d="m 344.80072,156.47035 c -3.26303,-0.46843 -6.68043,-0.70796 -9.77845,0.42585 -2.95962,1.09122 -5.32305,3.33223 -7.45227,5.69034 a 19.780463,19.780463 0 0 0 -3.5558,5.15804 c -1.81516,4.17327 -1.1072,8.98531 0,13.40344 3.01817,12.1685 9.01193,23.90583 18.63068,31.93832 a 69.391311,69.391311 0 0 0 9.32067,6.38766 c 4.25844,2.49651 8.65528,4.79075 13.36618,6.2333 1.3148,0.40455 2.71476,0.74522 4.06149,0.45778 1.34673,-0.28745 2.61894,-1.37867 2.66153,-2.75734 -7.71843,-4.33829 -14.6384,-9.94346 -21.51046,-15.52202 a 44.45281,44.45281 0 0 1 -5.27514,-4.79075 c -2.43796,-2.74137 -4.15731,-6.05231 -6.52074,-8.85756 -2.12922,-2.5178 -4.79075,-4.6417 -6.38767,-7.52147 a 20.067907,20.067907 0 0 1 -1.98549,-6.27056 c -0.78782,-4.45539 -0.93686,-9.18759 0.83039,-13.35554 1.76726,-4.16795 5.8181,-7.59067 10.34269,-7.51615 2.32085,0.0373 4.52992,0.95815 6.66979,1.85775 l 13.46732,5.68502 c -0.16501,-0.0745 0.77184,-2.41134 0.72926,-2.73605 -0.12775,-1.0167 -0.30874,-1.03267 -1.06461,-1.80452 -1.28818,-1.28817 -3.28965,-2.19309 -4.92383,-2.94364 a 42.126637,42.126637 0 0 0 -11.62554,-3.1619 z"
     id="path168"
     inkscape:connector-curvature="0"
     style="fill:#1877f2;stroke-width:0.53230524" />
  <path
     d="m 317.99383,124.53204 a 22.798633,22.798633 0 0 0 10.3214,-5.32305 l -2.8159,14.77679 a 72.654342,72.654342 0 0 0 8.14427,-4.3862 c 0.37794,6.76028 -0.17034,13.67493 -2.66153,19.96677 -2.49118,6.29185 -7.08498,11.92364 -13.24907,14.71824 5.47209,0.91557 10.38527,-3.01284 15.25587,-5.66905 3.3961,-1.8471 9.19823,0.0532 12.91372,-1.06461 3.15125,-0.92621 6.38766,-1.73531 9.23017,-3.39078 5.28047,-3.08205 6.47816,-12.08333 7.54809,-18.09838 1.06993,-6.01505 0.0958,-12.24302 -1.68208,-18.09838 a 31.847822,31.847822 0 0 0 -2.39005,-5.99375 20.685382,20.685382 0 0 0 -29.53762,-7.35646 c -4.90786,3.23109 -9.45907,7.98458 -13.20649,12.4932 -0.53231,0.6228 -2.73073,2.83719 -2.00147,3.76872 0.88895,1.12849 6.10554,-2.08663 6.98917,-2.52312 -0.25551,0.96347 -1.84178,5.92988 -2.85848,6.18006 z"
     id="path170"
     inkscape:connector-curvature="0"
     style="fill:#ffd566;stroke-width:0.53230524" />
  <g
     id="g176"
     style="opacity:0.1"
     transform="matrix(0.53230524,0,0,0.53230524,0,14.078702)">
    <path
       d="m 698,618.43 a 10.19,10.19 0 0 1 -4.72,-0.16 98.42,98.42 0 0 0 -33.54,-2.7 c -4.12,0.38 -8.83,0.84 -11.88,-2 -2.3,-2.11 -2.9,-5.47 -3.29,-8.57 -6.15,-49 6.5,-98.07 16,-146.48 1.28,-6.53 0.82,-17.11 -1.1,-23.49 l -0.45,-1.55 a 70.85,70.85 0 0 1 0.63,-40.33 71.39,71.39 0 0 0 -3.65,48.36 l 0.45,1.55 c 1.92,6.38 2.38,17 1.1,23.49 -9.47,48.41 -22.12,97.51 -16,146.48 0.39,3.1 1,6.46 3.29,8.57 3,2.81 7.76,2.35 11.88,2 a 98.42,98.42 0 0 1 33.54,2.7 10.19,10.19 0 0 0 4.72,0.16 c 4.92,-1.11 5.75,-5.12 5.63,-9.09 a 7.83,7.83 0 0 1 -2.61,1.06 z"
       transform="translate(-59,-87.5)"
       id="path172"
       inkscape:connector-curvature="0" />
    <path
       d="m 791.26,589.52 a 3.51,3.51 0 0 1 -1.92,4.26 11.46,11.46 0 0 1 -5.3,1 l -61.76,1.64 a 22.28,22.28 0 0 0 -4.81,0.65 c -7.26,1.86 -4.53,5 -5.31,7.62 -0.95,3.2 -5.54,2.94 -8.74,2 0.3,2.85 0.45,6.08 -0.84,8.48 2.81,0.42 5.83,0.05 6.58,-2.48 0.75,-2.53 -1.95,-5.76 5.31,-7.62 a 22.28,22.28 0 0 1 4.81,-0.65 L 781,602.78 a 11.46,11.46 0 0 0 5.3,-1 3.51,3.51 0 0 0 1.92,-4.26 c 7,3.19 16.34,-1.16 18.41,-8.56 a 14.39,14.39 0 0 0 0.52,-3.44 c -3.74,4.48 -10.51,6.48 -15.89,4 z"
       transform="translate(-59,-87.5)"
       id="path174"
       inkscape:connector-curvature="0" />
  </g>
  <path
     d="m 345.68434,170.07608 a 184.13503,184.13503 0 0 1 7.48954,18.45502 c 1.74596,5.06222 3.28432,10.37995 2.70411,15.703 -0.58021,5.32305 -3.72614,10.69934 -8.83627,12.3761 -2.1718,0.71329 -4.49798,0.71861 -6.78157,0.77184 a 143.65321,143.65321 0 0 0 -16.34709,1.32012 71.98896,71.98896 0 0 1 -7.61729,0.84636 c -3.60903,0.11711 -7.21806,-0.44713 -10.81644,-0.15436 -5.82342,0.47375 -11.35407,3.19383 -17.19878,3.19383 a 4.364903,4.364903 0 0 1 -2.07599,-0.38326 c -1.06461,-0.57489 -1.53836,-1.82049 -1.90033,-2.97027 -0.81443,-2.59765 -1.4532,-5.57855 -0.0745,-7.92602 1.69805,-2.89042 5.55726,-3.47063 8.90546,-3.72614 q 11.30617,-0.79846 22.63894,-1.11784 c 6.44622,-0.18098 13.43006,-0.42584 18.42841,-4.5033 a 2.6295879,2.6295879 0 0 0 0.80378,-0.92621 2.9542941,2.9542941 0 0 0 -0.0639,-1.90033 82.784111,82.784111 0 0 1 -2.52313,-23.7142 3.5132146,3.5132146 0 0 1 0.5323,-2.03341 3.3375538,3.3375538 0 0 1 1.68741,-0.97944 24.704286,24.704286 0 0 1 13.77606,-0.38326"
     id="path178"
     inkscape:connector-curvature="0"
     style="fill:#fda8a8;stroke-width:0.53230524" />
  <path
     d="m 332.28622,175.4151 a 3.9976123,3.9976123 0 0 0 -1.92694,1.42125 c 0.21292,-2.21971 -0.0745,-4.46072 -0.0319,-6.6964 0.0426,-2.23568 0.45778,-4.56718 1.86839,-6.30249 1.79387,-2.21439 4.84398,-3.00753 7.69713,-3.08205 4.14134,-0.11178 8.4264,1.09123 11.46054,3.91244 a 11.710715,11.710715 0 0 1 3.59306,6.91997 c 0.0958,0.72926 0.41519,3.46531 -0.346,3.93374 -0.66538,0.4152 -3.19383,-1.01671 -4.00826,-1.2456 a 26.892061,26.892061 0 0 0 -18.30598,1.13914 z"
     id="path180"
     inkscape:connector-curvature="0"
     style="fill:#f75842;stroke-width:0.53230524" />
  <circle
     cx="251.78038"
     cy="46.017017"
     r="3.7261367"
     id="circle182"
     style="opacity:0.1;fill:#1877f2;stroke-width:0.53230524" />
  <circle
     cx="276.79874"
     cy="117.87823"
     r="3.7261367"
     id="circle184"
     style="opacity:0.1;fill:#1877f2;stroke-width:0.53230524" />
  <circle
     cx="206.00212"
     cy="49.743153"
     r="3.7261367"
     id="circle186"
     style="opacity:0.1;fill:#1877f2;stroke-width:0.53230524" />
  <circle
     cx="91.556503"
     cy="219.54852"
     r="9.5814943"
     id="circle188"
     style="opacity:0.1;fill:#1877f2;stroke-width:0.53230524" />
  <circle
     cx="477.47781"
     cy="67.309227"
     r="3.7261367"
     id="circle190"
     style="opacity:0.1;fill:#1877f2;stroke-width:0.53230524" />
  <circle
     cx="481.73624"
     cy="117.87823"
     r="12.24302"
     id="circle192"
     style="opacity:0.1;fill:#1877f2;stroke-width:0.53230524" />
  <circle
     cx="501.43155"
     cy="83.278381"
     r="3.7261367"
     id="circle194"
     style="opacity:0.1;fill:#1877f2;stroke-width:0.53230524" />
  <circle
     cx="468.42862"
     cy="151.41345"
     r="3.7261367"
     id="circle196"
     style="opacity:0.1;fill:#1877f2;stroke-width:0.53230524" />
  <circle
     cx="244.32811"
     cy="75.826111"
     r="3.7261367"
     id="circle198"
     style="opacity:0.1;fill:#1877f2;stroke-width:0.53230524" />
  <circle
     cx="104.86414"
     cy="264.26218"
     r="3.7261367"
     id="circle200"
     style="opacity:0.1;fill:#1877f2;stroke-width:0.53230524" />
  <circle
     cx="99.008774"
     cy="179.09332"
     r="3.7261367"
     id="circle202"
     style="opacity:0.1;fill:#1877f2;stroke-width:0.53230524" />
  <circle
     cx="303.41397"
     cy="42.290878"
     r="3.7261367"
     id="circle204"
     style="opacity:0.1;fill:#1877f2;stroke-width:0.53230524" />
  <circle
     cx="315.65701"
     cy="75.826111"
     r="3.7261367"
     id="circle206"
     style="opacity:0.1;fill:#1877f2;stroke-width:0.53230524" />
</svg>
