<?xml version="1.0" encoding="UTF-8" standalone="no"?>
<svg
   xmlns:dc="http://purl.org/dc/elements/1.1/"
   xmlns:cc="http://creativecommons.org/ns#"
   xmlns:rdf="http://www.w3.org/1999/02/22-rdf-syntax-ns#"
   xmlns:svg="http://www.w3.org/2000/svg"
   xmlns="http://www.w3.org/2000/svg"
   xmlns:sodipodi="http://sodipodi.sourceforge.net/DTD/sodipodi-0.dtd"
   xmlns:inkscape="http://www.inkscape.org/namespaces/inkscape"
   viewBox="0 0 300 600"
   height="600"
   width="300"
   xml:space="preserve"
   id="svg2"
   version="1.1"
   sodipodi:docname="man-pointing.svg"
   inkscape:version="0.92.4 (5da689c313, 2019-01-14)"><sodipodi:namedview
     pagecolor="#ffffff"
     bordercolor="#666666"
     borderopacity="1"
     objecttolerance="10"
     gridtolerance="10"
     guidetolerance="10"
     inkscape:pageopacity="0"
     inkscape:pageshadow="2"
     inkscape:window-width="1920"
     inkscape:window-height="1017"
     id="namedview106"
     showgrid="false"
     inkscape:zoom="0.70799998"
     inkscape:cx="-150.20871"
     inkscape:cy="311.0845"
     inkscape:window-x="-8"
     inkscape:window-y="-8"
     inkscape:window-maximized="1"
     inkscape:current-layer="svg2" /><metadata
     id="metadata8"><rdf:RDF><cc:Work
         rdf:about=""><dc:format>image/svg+xml</dc:format><dc:type
           rdf:resource="http://purl.org/dc/dcmitype/StillImage" /><dc:title></dc:title></cc:Work></rdf:RDF></metadata><defs
     id="defs6" /><g
     id="g985"><path
       inkscape:connector-curvature="0"
       d="m 259.30229,187.85446 c 0,0 0.50149,-7.34559 5.62825,-9.0378 l 7.33049,-7.27823 c 0,0 2.69934,1.98363 1.00768,4.94807 -1.69165,2.96443 -7.25043,13.32588 -7.25043,13.32588"
       style="fill:#f18850;fill-opacity:1;fill-rule:nonzero;stroke:none;stroke-width:0.1200606"
       id="path40" /><path
       inkscape:connector-curvature="0"
       d="m 270.63882,181.2558 c 0,0 25.38419,-1.82201 27.77274,-0.12734 2.38739,1.69344 1.88589,3.03912 1.88589,3.03912 l -20.53643,2.12935"
       style="fill:#e27648;fill-opacity:1;fill-rule:nonzero;stroke:none;stroke-width:0.1200606"
       id="path42" /><path
       inkscape:connector-curvature="0"
       d="m 270.86367,189.31402 -2.50981,-7.5366 -3.4763,1.25263 c -3.80121,1.36896 -7.32577,3.45912 -10.39594,6.16152 l -0.39908,0.35142 4.44632,9.56554 20.66829,-9.10269 -8.33348,-0.69182"
       style="fill:#f18850;fill-opacity:1;fill-rule:nonzero;stroke:none;stroke-width:0.1200606"
       id="path44" /><path
       inkscape:connector-curvature="0"
       d="m 257.39993,184.09411 c 0,0 -13.8593,2.69995 -13.89579,2.42812 -0.0495,-0.37101 3.93187,18.78945 3.93187,18.78945 l 12.60439,-1.87343 -2.64047,-19.34414"
       style="fill:#fafbea;fill-opacity:1;fill-rule:nonzero;stroke:none;stroke-width:0.1200606"
       id="path46" /><path
       inkscape:connector-curvature="0"
       d="M 129.18527,70.192957 H 117.52971 V 58.696436 h 7.05384 c 4.32272,0 7.82728,3.645238 7.82728,8.141482 0,1.852618 -1.44444,3.355039 -3.22556,3.355039"
       style="fill:#292321;fill-opacity:1;fill-rule:nonzero;stroke:none;stroke-width:0.1200606"
       id="path50" /><path
       inkscape:connector-curvature="0"
       d="m 80.088555,139.47331 3.100772,-11.87733 c 0,0 24.792043,-4.51094 32.684053,0 l 4.81244,12.26548 c 0,0 -22.594197,5.75133 -40.597265,-0.38815"
       style="fill:#ebecd4;fill-opacity:1;fill-rule:nonzero;stroke:none;stroke-width:0.1200606"
       id="path52" /><path
       inkscape:connector-curvature="0"
       d="m 67.791419,530.20322 -22.648582,8.93714 c -2.519465,0.99439 -4.534498,3.02333 -5.571968,5.61051 h 31.662707 11.672037 c 1.485642,0 2.691102,-1.25362 2.691102,-2.79902 v -16.42842 -5.64259 H 71.233576 v 5.72439 c 0,2.17245 -1.418533,4.06657 -3.442157,4.59799"
       style="fill:#121110;fill-opacity:1;fill-rule:nonzero;stroke:none;stroke-width:0.1200606"
       id="path54" /><path
       inkscape:connector-curvature="0"
       d="m 126.9674,525.6531 v -5.72438 h -14.36313 v 22.07102 c 0,1.54625 1.20546,2.799 2.6911,2.799 h 11.67203 31.66343 c 0,-1.84625 -1.08775,-3.50308 -2.74055,-4.17653 l -25.47954,-10.37026 c -2.02479,-0.5324 -3.44334,-2.4264 -3.44334,-4.59885"
       style="fill:#121110;fill-opacity:1;fill-rule:nonzero;stroke:none;stroke-width:0.1200606"
       id="path56" /><path
       inkscape:connector-curvature="0"
       d="m 58.097095,272.47861 v 45.51221 l 7.675406,212.74381 21.994993,3.71014 7.624789,-216.45395 h 7.525907 l 7.41524,216.45395 21.76897,-4.54632 8.11098,-211.90763 V 272.47861 H 58.097095"
       style="fill:#18171c;fill-opacity:1;fill-rule:nonzero;stroke:none;stroke-width:0.1200606"
       id="path58" /><path
       inkscape:connector-curvature="0"
       d="m 66.242208,179.2893 30.991229,57.83526 23.452383,-30.03373 14.52441,-22.65387 c 0,0 19.03902,-38.63193 5.47521,-41.03434 l -26.7521,-4.73746 H 84.65377 l -26.752098,4.73746 8.340536,35.88668"
       style="fill:#fafbea;fill-opacity:1;fill-rule:nonzero;stroke:none;stroke-width:0.1200606"
       id="path60" /><path
       inkscape:connector-curvature="0"
       d="m 95.31223,115.37579 c 4.135539,7.37497 10.37829,13.87077 17.82414,16.99561 v -19.92086 c -5.68121,1.25508 -11.44955,3.66116 -17.82414,2.92525"
       style="fill:#e27042;fill-opacity:1;fill-rule:nonzero;stroke:none;stroke-width:0.1200606"
       id="path62" /><path
       inkscape:connector-curvature="0"
       d="m 95.31223,115.37579 c 6.37459,0.73591 12.14293,-1.67017 17.82414,-2.92525 V 59.93927 H 88.529151 c -1.584527,0 -2.868866,1.335894 -2.868866,2.982802 v 79.076088 c 6.149751,10.9198 21.326335,10.9198 27.476085,0 v -9.62676 c -7.44585,-3.12484 -13.688601,-9.62064 -17.82414,-16.99561"
       style="fill:#f18850;fill-opacity:1;fill-rule:nonzero;stroke:none;stroke-width:0.1200606"
       id="path64" /><path
       inkscape:connector-curvature="0"
       d="M 125.0356,118.96716 H 85.660285 V 62.922072 c 0,-1.646908 1.284339,-2.982802 2.868866,-2.982802 h 28.298939 c 6.7207,0 12.22416,5.557856 12.42075,12.54589 l -0.2272,42.19269 c 0.0765,2.34486 -1.7305,4.28931 -3.98604,4.28931"
       style="fill:#f18850;fill-opacity:1;fill-rule:nonzero;stroke:none;stroke-width:0.1200606"
       id="path66" /><path
       inkscape:connector-curvature="0"
       d="m 120.74586,81.447034 2.65578,14.445036 c 0.15186,0.825294 -0.45558,1.589362 -1.26315,1.589362 h -4.19204"
       style="fill:#f18850;fill-opacity:1;fill-rule:nonzero;stroke:none;stroke-width:0.1200606"
       id="path68" /><path
       inkscape:connector-curvature="0"
       d="m 120.45744,81.504587 2.65578,14.445036 0.0177,0.197143 c -8.8e-4,0.553453 -0.43439,1.027322 -0.99239,1.028552 h -4.19204 c -0.16246,0 -0.2943,0.137137 -0.2943,0.306114 0,0.168976 0.13184,0.306114 0.2943,0.306114 h 4.19204 c 0.8888,-9.19e-4 1.581,-0.753048 1.581,-1.64078 l -0.0282,-0.312239 -2.65579,-14.445046 c -0.0306,-0.166524 -0.18483,-0.275505 -0.34375,-0.243665 -0.1601,0.03187 -0.26487,0.192238 -0.23426,0.358771"
       style="fill:#55262a;fill-opacity:1;fill-rule:nonzero;stroke:none;stroke-width:0.1200606"
       id="path70" /><path
       inkscape:connector-curvature="0"
       d="m 113.13637,87.601203 c 0,1.029783 -0.80168,1.864867 -1.79171,1.864867 -0.99004,0 -1.7929,-0.835084 -1.7929,-1.864867 0,-1.029773 0.80286,-1.864857 1.7929,-1.864857 0.99003,0 1.79171,0.835084 1.79171,1.864857"
       style="fill:#55262a;fill-opacity:1;fill-rule:nonzero;stroke:none;stroke-width:0.1200606"
       id="path72" /><path
       inkscape:connector-curvature="0"
       d="m 128.55546,87.601203 c 0,1.029783 -0.80285,1.864867 -1.79289,1.864867 -0.99003,0 -1.79171,-0.835084 -1.79171,-1.864867 0,-1.029773 0.80168,-1.864857 1.79171,-1.864857 0.99004,0 1.79289,0.835084 1.79289,1.864857"
       style="fill:#55262a;fill-opacity:1;fill-rule:nonzero;stroke:none;stroke-width:0.1200606"
       id="path74" /><path
       inkscape:connector-curvature="0"
       d="m 106.19437,82.12294 c 2.40974,-1.979963 5.02315,-3.634215 7.80018,-4.994604 1.01476,-0.495909 0.13067,-2.060779 -0.87937,-1.566091 -2.92066,1.430175 -5.62236,3.198312 -8.15454,5.277457 -0.88055,0.722429 0.36141,1.999552 1.23373,1.283238"
       style="fill:#3c3633;fill-opacity:1;fill-rule:nonzero;stroke:none;stroke-width:0.1200606"
       id="path76" /><path
       inkscape:connector-curvature="0"
       d="m 123.89607,75.725096 c 2.14017,0.757952 3.9566,2.082819 5.41987,3.870544 0.7287,0.890185 1.95652,-0.397949 1.23254,-1.282017 -1.65751,-2.026496 -3.77178,-3.481163 -6.18977,-4.338286 -1.0642,-0.377136 -1.52096,1.373851 -0.46264,1.749759"
       style="fill:#3c3633;fill-opacity:1;fill-rule:nonzero;stroke:none;stroke-width:0.1200606"
       id="path78" /><path
       inkscape:connector-curvature="0"
       d="m 82.650162,138.66516 11.6638,6.07091 c 3.14315,1.63588 6.834878,1.67629 10.009818,0.10898 l 13.98643,-6.90355 11.93573,6.35866 -28.36723,24.82852 -16.218425,-5.14766 -11.743845,-11.95937 8.733722,-13.35649"
       style="fill:#fafbea;fill-opacity:1;fill-rule:nonzero;stroke:none;stroke-width:0.1200606"
       id="path80" /><path
       inkscape:connector-curvature="0"
       d="m 103.07947,161.66065 h -7.362277 l -4.214409,-10.11899 2.828836,-6.45049 h 10.1346 l 2.82883,6.45049 -4.21558,10.11899"
       style="fill:#8b8a89;fill-opacity:1;fill-rule:nonzero;stroke:none;stroke-width:0.1200606"
       id="path82" /><path
       inkscape:connector-curvature="0"
       d="m 83.189327,127.59598 14.04411,14.91768 -6.947891,15.1638 c -0.622741,1.35916 -2.449777,1.45345 -3.199657,0.16531 l -10.340613,-17.77682 6.444051,-12.46997"
       style="fill:#fafbea;fill-opacity:1;fill-rule:nonzero;stroke:none;stroke-width:0.1200606"
       id="path84" /><path
       inkscape:connector-curvature="0"
       d="m 115.92165,127.59598 -14.04294,14.91768 6.94789,15.1638 c 0.62275,1.35916 2.44977,1.45345 3.19966,0.16531 l 10.34061,-17.77682 -6.44522,-12.46997"
       style="fill:#fafbea;fill-opacity:1;fill-rule:nonzero;stroke:none;stroke-width:0.1200606"
       id="path86" /><path
       inkscape:connector-curvature="0"
       d="m 95.76193,144.30261 -6.007303,13.11037 c -0.226024,0.48978 -0.658066,0.72611 -1.113646,0.72978 -0.413201,-0.004 -0.804029,-0.19592 -1.051243,-0.61713 L 77.247942,139.74881 c -0.168335,-0.28897 -0.529745,-0.38203 -0.80756,-0.20693 -0.278999,0.1751 -0.36729,0.55101 -0.198955,0.84121 l 10.341796,17.77681 c 0.464992,0.80325 1.273736,1.211 2.057758,1.20733 0.864075,0.005 1.748156,-0.48979 2.176667,-1.4265 l 6.007303,-13.11161 c 0.138907,-0.30611 0.01527,-0.671 -0.278999,-0.81671 -0.293125,-0.14572 -0.64394,-0.0159 -0.784022,0.2902"
       style="fill:#ebecd4;fill-opacity:1;fill-rule:nonzero;stroke:none;stroke-width:0.1200606"
       id="path88" /><path
       inkscape:connector-curvature="0"
       d="m 102.64036,145.5981 5.65414,12.34263 c 0.42733,0.93671 1.31259,1.43139 2.17666,1.4265 0.78402,0.004 1.59277,-0.40408 2.05777,-1.20733 l 10.34178,-17.77681 c 0.16835,-0.2902 0.0789,-0.66611 -0.19894,-0.84121 -0.27783,-0.1751 -0.63923,-0.082 -0.80757,0.20693 l -10.34179,17.77682 c -0.24721,0.42121 -0.63922,0.61346 -1.05125,0.61713 -0.45675,-0.004 -0.88761,-0.24 -1.11364,-0.72978 l -5.65414,-12.34141 c -0.14008,-0.30489 -0.49089,-0.43468 -0.78519,-0.28897 -0.29313,0.14571 -0.41791,0.5106 -0.27783,0.8155"
       style="fill:#ebecd4;fill-opacity:1;fill-rule:nonzero;stroke:none;stroke-width:0.1200606"
       id="path90" /><path
       inkscape:connector-curvature="0"
       d="m 103.17129,161.66065 h -7.454097 l -0.802854,11.71203 c 2.828835,-1.50854 5.696521,-2.96933 8.590101,-4.39094 l -0.33315,-7.32109"
       style="fill:#797979;fill-opacity:1;fill-rule:nonzero;stroke:none;stroke-width:0.1200606"
       id="path92" /><path
       inkscape:connector-curvature="0"
       d="m 94.914339,173.37268 -5.353952,89.18896 c -0.04,0.56816 0.04238,1.13876 0.237794,1.67018 l 6.014366,16.31357 c 0.908803,2.46608 4.261503,2.46608 5.170303,0 l 6.03085,-16.35888 c 0.186,-0.50326 0.26841,-1.03958 0.24369,-1.57711 l -3.75295,-93.62766 c -2.89358,1.42161 -5.761266,2.8824 -8.590101,4.39094"
       style="fill:#8b8a89;fill-opacity:1;fill-rule:nonzero;stroke:none;stroke-width:0.1200606"
       id="path94" /><path
       inkscape:connector-curvature="0"
       d="m 123.25802,531.62238 h 1.17721 v -179.1971 h -1.17721 z"
       style="fill:#242131;fill-opacity:1;fill-rule:nonzero;stroke:none;stroke-width:0.1200606"
       id="path96" /><path
       inkscape:connector-curvature="0"
       d="m 71.006377,531.62238 h 1.177207 v -179.1971 h -1.177207 z"
       style="fill:#242131;fill-opacity:1;fill-rule:nonzero;stroke:none;stroke-width:0.1200606"
       id="path98" /><path
       inkscape:connector-curvature="0"
       d="M 140.21338,293.60678 H 58.097095 v -6.16029 h 82.116285 v 6.16029"
       style="fill:#1a2c30;fill-opacity:1;fill-rule:nonzero;stroke:none;stroke-width:0.1200606"
       id="path100" /><path
       inkscape:connector-curvature="0"
       d="m 105.40445,294.33657 v -1.22448 H 91.40743 c -0.22485,0 -0.407321,-0.18978 -0.407321,-0.42488 v -4.32237 c 0,-0.23387 0.182471,-0.42367 0.407321,-0.42367 h 13.99702 c 0.22485,0 0.40732,0.1898 0.4085,0.42367 v 4.32237 c -8.8e-4,0.23387 -0.18365,0.42488 -0.4085,0.42488 v 1.22448 1.22446 c 1.52684,-9.2e-4 2.76174,-1.28569 2.76291,-2.87382 v -4.32237 c -8.8e-4,-1.58691 -1.23724,-2.8726 -2.76291,-2.8726 H 91.40743 c -1.525664,0 -2.761735,1.28569 -2.761735,2.8726 v 4.32237 c 0,1.58813 1.236071,2.8726 2.761735,2.87382 h 13.99702 v -1.22446"
       style="fill:#3e5d63;fill-opacity:1;fill-rule:nonzero;stroke:none;stroke-width:0.1200606"
       id="path102" /><path
       inkscape:connector-curvature="0"
       d="m 124.83902,58.696436 -38.824389,-0.0649 c -1.559806,0 -2.825304,1.315078 -2.825304,2.938721 v 45.717933 c 0,1.62242 1.265498,2.93749 2.825304,2.93749 h 1.256077 c 1.385582,0 2.566321,-1.04446 2.787639,-2.46729 l 2.93007,-18.768644 C 99.029862,87.39549 103.50444,81.717642 103.50444,74.937764 v -3.106473 h 5.69299 c 6.02496,0 11.63318,-3.199532 14.87169,-8.485557 l 1.73167,-2.827294 c 0.48266,-0.788557 -0.0612,-1.822007 -0.96177,-1.822007"
       style="fill:#3c3633;fill-opacity:1;fill-rule:nonzero;stroke:none;stroke-width:0.1200606"
       id="path104" /><path
       inkscape:connector-curvature="0"
       d="m 98.902723,90.699111 c 0,2.961983 -2.308511,5.361936 -5.15618,5.361936 -2.847668,0 -5.155005,-2.399953 -5.155005,-5.361936 0,-2.961992 2.307337,-5.363166 5.155005,-5.363166 2.847669,0 5.15618,2.401174 5.15618,5.363166"
       style="fill:#f18850;fill-opacity:1;fill-rule:nonzero;stroke:none;stroke-width:0.1200606"
       id="path106" /><path
       inkscape:connector-curvature="0"
       d="m 93.746543,94.337 c -1.92827,0 -3.497488,-1.632211 -3.497488,-3.637889 0,-2.005677 1.569218,-3.639119 3.497488,-3.639119 0.124782,0 0.247215,0.0073 0.368464,0.02085"
       style="fill:#f18850;fill-opacity:1;fill-rule:nonzero;stroke:none;stroke-width:0.1200606"
       id="path108" /><path
       inkscape:connector-curvature="0"
       d="m 93.746543,94.030887 c -1.765815,-0.0028 -3.199656,-1.495075 -3.203188,-3.331776 0.0035,-1.8367 1.437373,-3.329332 3.203188,-3.333005 0.114187,0 0.227199,0.0064 0.337863,0.01956 0.161272,0.01717 0.306068,-0.105308 0.323727,-0.273063 0.01651,-0.168976 -0.10006,-0.318355 -0.262515,-0.336722 -0.130671,-0.0135 -0.263698,-0.02204 -0.399075,-0.02204 -2.091899,9.19e-4 -3.791796,1.769349 -3.791796,3.945234 0,2.175875 1.699897,3.944002 3.791796,3.944002 0.16363,0 0.2943,-0.137137 0.2943,-0.306113 0,-0.168977 -0.13067,-0.306114 -0.2943,-0.306114"
       style="fill:#55262a;fill-opacity:1;fill-rule:nonzero;stroke:none;stroke-width:0.1200606"
       id="path110" /><path
       inkscape:connector-curvature="0"
       d="m 138.95965,140.06595 h -14.30781 l -25.496013,93.15991 v 57.30016 c 0,7.25987 5.656483,13.14466 12.636163,13.14466 h 28.68037 v -3.49464 h 0.003 V 140.11248 c -0.50149,-0.0282 -1.00652,-0.0466 -1.51507,-0.0466"
       style="fill:#242131;fill-opacity:1;fill-rule:nonzero;stroke:none;stroke-width:0.1200606"
       id="path112" /><path
       inkscape:connector-curvature="0"
       d="m 59.350823,140.06595 h 14.307808 l 25.497196,93.15991 v 57.30016 c 0,7.25987 -5.657672,13.14466 -12.637356,13.14466 H 57.839286 v -3.49464 h -0.0035 V 140.11248 c 0.501492,-0.0282 1.006515,-0.0466 1.515069,-0.0466"
       style="fill:#242131;fill-opacity:1;fill-rule:nonzero;stroke:none;stroke-width:0.1200606"
       id="path114" /><path
       inkscape:connector-curvature="0"
       d="m 123.14618,140.06595 h 15.22604 l -15.82406,24.32771 7.91203,4.58808 -27.46078,52.16843 20.14677,-81.08422"
       style="fill:#242131;fill-opacity:1;fill-rule:nonzero;stroke:none;stroke-width:0.1200606"
       id="path116" /><path
       inkscape:connector-curvature="0"
       d="m 137.88486,139.7231 -15.82406,24.32771 c -0.0918,0.14081 -0.12361,0.31959 -0.0859,0.48489 0.0388,0.16531 0.14361,0.30979 0.28606,0.39306 l 7.4023,4.29175 -27.17943,51.63578 c -0.15656,0.29632 -0.0518,0.66856 0.23309,0.83019 0.28489,0.16285 0.64276,0.0539 0.79932,-0.24244 l 27.46078,-52.16843 c 0.15421,-0.29509 0.0518,-0.66488 -0.23073,-0.82897 l -7.35168,-4.26236 15.46501,-23.77548 c 0.18246,-0.2804 0.11183,-0.66121 -0.15775,-0.84978 -0.2684,-0.18979 -0.63452,-0.11632 -0.81698,0.16408"
       style="fill:#3e3957;fill-opacity:1;fill-rule:nonzero;stroke:none;stroke-width:0.1200606"
       id="path118" /><path
       inkscape:connector-curvature="0"
       d="M 76.147256,140.06595 H 60.920041 l 15.825235,24.32771 -7.913209,4.58808 27.460782,52.16843 -20.145593,-81.08422"
       style="fill:#242131;fill-opacity:1;fill-rule:nonzero;stroke:none;stroke-width:0.1200606"
       id="path120" /><path
       inkscape:connector-curvature="0"
       d="m 60.432677,140.4088 15.465008,23.77548 -7.35168,4.26236 c -0.28253,0.16409 -0.384948,0.53388 -0.229556,0.82897 l 27.460782,52.16843 c 0.155391,0.29631 0.51326,0.40529 0.798148,0.24244 0.286062,-0.16163 0.389654,-0.53387 0.234262,-0.83019 l -27.1806,-51.63578 7.402297,-4.29175 c 0.143623,-0.0833 0.248388,-0.22775 0.286062,-0.39306 0.0377,-0.1653 0.0071,-0.34408 -0.08476,-0.48489 L 61.407406,139.7231 c -0.18247,-0.2804 -0.547402,-0.35387 -0.81698,-0.16408 -0.269587,0.18857 -0.34022,0.56938 -0.157749,0.84978"
       style="fill:#3e3957;fill-opacity:1;fill-rule:nonzero;stroke:none;stroke-width:0.1200606"
       id="path122" /><path
       inkscape:connector-curvature="0"
       d="M 58.685694,300.17604 V 183.45005 c 0,-0.33919 -0.263689,-0.61224 -0.588599,-0.61346 -0.32491,0 -0.588608,0.27427 -0.588608,0.61223 v 116.72722 c 0,0.33796 0.263698,0.61224 0.588608,0.61224 0.32491,0 0.588599,-0.27428 0.588599,-0.61224"
       style="fill:#3e3957;fill-opacity:1;fill-rule:nonzero;stroke:none;stroke-width:0.1200606"
       id="path124" /><path
       inkscape:connector-curvature="0"
       d="m 99.882159,294.33657 v -61.11071 c 0,-0.33918 -0.263689,-0.61224 -0.588599,-0.61224 -0.32491,0 -0.588608,0.27306 -0.588608,0.61224 v 61.11071 c 0,0.33795 0.263698,0.61222 0.588608,0.61222 0.32491,0 0.588599,-0.27427 0.588599,-0.61222"
       style="fill:#3e3957;fill-opacity:1;fill-rule:nonzero;stroke:none;stroke-width:0.1200606"
       id="path126" /><path
       inkscape:connector-curvature="0"
       d="m 129.08521,103.03072 c -2.52041,-0.75917 -4.36274,-3.177492 -4.36274,-6.042745 0,-2.889746 1.87411,-5.32399 4.42631,-6.059891 l -0.0636,12.102636"
       style="fill:#e57646;fill-opacity:1;fill-rule:nonzero;stroke:none;stroke-width:0.1200606"
       id="path128" /><path
       inkscape:connector-curvature="0"
       d="m 109.96849,99.555682 c 3.00778,1.961598 13.88755,2.087718 15.95591,0 0,0 -0.66277,9.321858 -7.97795,9.321858 -7.31518,0 -7.97796,-9.321858 -7.97796,-9.321858"
       style="fill:#f7f7ef;fill-opacity:1;fill-rule:nonzero;stroke:none;stroke-width:0.1200606"
       id="path130" /><path
       inkscape:connector-curvature="0"
       d="m 112.48066,96.987975 c 0,3.473805 -2.70758,6.288865 -6.04733,6.288865 -3.33856,0 -6.04615,-2.81506 -6.04615,-6.288865 0,-3.473817 2.70759,-6.288864 6.04615,-6.288864 3.33975,0 6.04733,2.815047 6.04733,6.288864"
       style="fill:#e57646;fill-opacity:1;fill-rule:nonzero;stroke:none;stroke-width:0.1200606"
       id="path132" /><path
       inkscape:connector-curvature="0"
       d="m 140.47472,140.11248 c 0,0 4.23678,-0.17633 7.33872,2.19425 4.83834,3.69544 39.72495,41.65759 39.72495,41.65759 0,0 48.65291,-0.21796 63.39394,-0.53999 l 5.56232,21.88735 c 0,0 -43.53676,9.27901 -53.39707,9.8986 -11.65438,0.73222 -13.16592,3.79339 -27.65502,-3.24974 -14.09827,-6.85335 -35.22918,-28.51049 -35.22918,-28.51049 l 0.26134,-43.33757"
       style="fill:#242131;fill-opacity:1;fill-rule:nonzero;stroke:none;stroke-width:0.1200606"
       id="path134" /><path
       inkscape:connector-curvature="0"
       d="m 140.26399,175.10652 -0.0506,8.34353 c 2.24729,2.24567 6.61357,6.44804 15.26018,14.25279 -3.86008,-4.87705 -14.40906,-23.76446 -15.20014,-24.28976 l -0.009,1.69344"
       style="fill:#1b1921;fill-opacity:1;fill-rule:nonzero;stroke:none;stroke-width:0.1200606"
       id="path136" /><path
       inkscape:connector-curvature="0"
       d="m 140.80198,183.45005 v -10.07737 c 0,-0.33796 -0.26369,-0.61223 -0.5886,-0.61223 -0.32491,0 -0.58861,0.27427 -0.58861,0.61223 v 10.07737 c 0,0.33795 0.2637,0.61222 0.58861,0.61222 0.32491,0 0.5886,-0.27427 0.5886,-0.61222"
       style="fill:#3e3957;fill-opacity:1;fill-rule:nonzero;stroke:none;stroke-width:0.1200606"
       id="path138" /><path
       inkscape:connector-curvature="0"
       d="m 23.655102,311.85869 c 0,0 3.941422,9.50186 3.255695,12.03896 -0.686081,2.5371 -4.349671,8.34597 -4.349671,8.34597 L 6.4273428,325.11844 c 0,0 0.7923803,-7.29047 0.7841402,-9.28146 -0.00786,-1.99098 5.730069,-6.49335 5.730069,-6.49335 l 10.71355,2.51506"
       style="fill:#f18850;fill-opacity:1;fill-rule:nonzero;stroke:none;stroke-width:0.1200606"
       id="path140" /><path
       inkscape:connector-curvature="0"
       d="m 20.672055,324.56253 c 1.549681,0.91958 2.503928,2.63628 2.482738,4.49135 -0.03673,3.28524 -0.643816,6.21049 -1.40618,6.61702 -1.782413,0.94652 -16.355449,-8.81004 -15.845011,-10.48021 1.5575672,-5.09256 4.962647,-6.44315 9.426038,-3.79585 l 5.342415,3.16769"
       style="fill:#f18850;fill-opacity:1;fill-rule:nonzero;stroke:none;stroke-width:0.1200606"
       id="path142" /><path
       inkscape:connector-curvature="0"
       d="M 25.147807,313.08928 56.386603,189.5785 37.588089,181.00233 10.869545,309.73791 l 14.278262,3.35137"
       style="fill:#fafbea;fill-opacity:1;fill-rule:nonzero;stroke:none;stroke-width:0.1200606"
       id="path144" /><path
       inkscape:connector-curvature="0"
       d="M 67.507706,182.34435 27.272789,309.66689 10.158157,305.64574 c 0,0 16.732041,-108.58207 34.741942,-153.77347 5.093317,-12.77977 8.178549,-11.80632 13.001573,-11.76347 l 9.606034,42.23555"
       style="fill:#242131;fill-opacity:1;fill-rule:nonzero;stroke:none;stroke-width:0.1200606"
       id="path146" /><path
       inkscape:connector-curvature="0"
       d="m 268.53397,194.7029 c 0,0 15.7346,-5.66928 18.27266,-6.68314 2.53924,-1.01386 15.07653,0 15.07653,0 0,0 0.63451,-2.7024 -1.11128,-3.01342 -1.74463,-0.31101 -14.44084,-0.96488 -16.66224,-1.13385 -2.22257,-0.16776 -19.60407,-7.65293 -24.06924,3.48115 -4.46633,11.13531 8.49357,7.34926 8.49357,7.34926"
       style="fill:#f18850;fill-opacity:1;fill-rule:nonzero;stroke:none;stroke-width:0.1200606"
       id="path148" /><path
       inkscape:connector-curvature="0"
       d="m 114.58669,92.690095 v -0.306123 h -3.6988 c -2.80882,0 -5.21856,-2.08404 -5.73182,-4.95664 l -0.62157,-3.478711 -0.0153,-0.177545 c 0,-0.513055 0.40261,-0.951411 0.91823,-0.952641 H 116.834 c 0.50738,9.18e-4 0.91705,0.427345 0.91822,0.955084 v 5.317864 c -0.004,1.818334 -1.41736,3.288916 -3.16551,3.292589 v 0.306123 0.306114 c 2.07306,0 3.75412,-1.747318 3.75412,-3.904826 v -5.317864 c 0,-0.865692 -0.67454,-1.567312 -1.50683,-1.567312 h -11.39657 c -0.84759,9.18e-4 -1.50682,0.717535 -1.50682,1.564869 l 0.0247,0.288968 0.62274,3.479942 c 0.56388,3.162799 3.21731,5.456223 6.30984,5.456223 h 3.6988 v -0.306114"
       style="fill:#494923;fill-opacity:1;fill-rule:nonzero;stroke:none;stroke-width:0.1200606"
       id="path150" /><path
       inkscape:connector-curvature="0"
       d="m 125.78784,92.690095 v 0.306114 h 2.66403 c 1.16308,0 2.23081,-0.601217 3.04308,-1.577111 0.81346,-0.977125 1.38559,-2.33384 1.58689,-3.895036 l 0.44733,-3.479933 0.0177,-0.273053 c -8.8e-4,-0.400401 -0.11065,-0.772645 -0.30725,-1.061613 -0.19424,-0.287756 -0.49913,-0.503256 -0.86053,-0.503256 h -8.21104 c -0.3567,0 -0.65925,0.210605 -0.85584,0.495909 -0.19895,0.288968 -0.31079,0.663655 -0.31196,1.071403 v 5.317864 c 8.8e-4,1.053045 0.2943,2.011803 0.78638,2.724442 0.48854,0.707736 1.19722,1.180384 2.00125,1.180384 v -0.306114 -0.306123 c -0.5733,0 -1.11128,-0.333049 -1.52448,-0.926919 -0.40967,-0.590196 -0.67454,-1.431405 -0.67454,-2.36567 v -5.317864 c 0,-0.288968 0.0836,-0.544885 0.2013,-0.71264 0.12008,-0.170198 0.2531,-0.242444 0.37789,-0.242444 h 8.21104 c 0.12831,0 0.26134,0.07347 0.38023,0.246118 0.11773,0.168976 0.19895,0.426114 0.19895,0.706523 l -0.013,0.192238 -0.44734,3.479933 c -0.18718,1.455898 -0.72163,2.703624 -1.44797,3.57422 -0.72869,0.873048 -1.63514,1.366505 -2.59809,1.366505 h -2.66404 v 0.306123"
       style="fill:#494923;fill-opacity:1;fill-rule:nonzero;stroke:none;stroke-width:0.1200606"
       id="path152" /><path
       inkscape:connector-curvature="0"
       d="m 123.53231,86.513876 c -0.0282,-0.04895 -0.72987,-0.985693 -2.3968,-0.983241 -0.83111,0 -1.88942,0.228973 -3.21614,0.887733 -0.14597,0.07347 -0.20837,0.255917 -0.13891,0.408978 0.0706,0.151831 0.24604,0.216731 0.39319,0.143263 1.26432,-0.628152 2.2367,-0.827746 2.96186,-0.827746 0.72516,0 1.20782,0.197142 1.51154,0.385707 0.15186,0.09429 0.25898,0.187344 0.32608,0.253465 l 0.0706,0.07595 0.0141,0.01837 v 0 c 0.0953,0.135916 0.28018,0.165303 0.41085,0.06493 0.13185,-0.09918 0.1601,-0.290199 0.0636,-0.427345"
       style="fill:#494923;fill-opacity:1;fill-rule:nonzero;stroke:none;stroke-width:0.1200606"
       id="path154" /></g></svg>