<?xml version="1.0" encoding="UTF-8" standalone="no"?>
<svg
   xmlns:dc="http://purl.org/dc/elements/1.1/"
   xmlns:cc="http://creativecommons.org/ns#"
   xmlns:rdf="http://www.w3.org/1999/02/22-rdf-syntax-ns#"
   xmlns:svg="http://www.w3.org/2000/svg"
   xmlns="http://www.w3.org/2000/svg"
   xmlns:sodipodi="http://sodipodi.sourceforge.net/DTD/sodipodi-0.dtd"
   xmlns:inkscape="http://www.inkscape.org/namespaces/inkscape"
   id="9af98f83-10c5-4067-bc84-20554b2827d8"
   data-name="Layer 1"
   width="300"
   height="250"
   viewBox="0 0 300.00001 250"
   version="1.1"
   sodipodi:docname="no_notes.svg"
   inkscape:version="0.92.4 (5da689c313, 2019-01-14)">
  <metadata
     id="metadata208">
    <rdf:RDF>
      <cc:Work
         rdf:about="">
        <dc:format>image/svg+xml</dc:format>
        <dc:type
           rdf:resource="http://purl.org/dc/dcmitype/StillImage" />
        <dc:title>empty</dc:title>
      </cc:Work>
    </rdf:RDF>
  </metadata>
  <sodipodi:namedview
     pagecolor="#ffffff"
     bordercolor="#666666"
     borderopacity="1"
     objecttolerance="10"
     gridtolerance="10"
     guidetolerance="10"
     inkscape:pageopacity="0"
     inkscape:pageshadow="2"
     inkscape:window-width="1920"
     inkscape:window-height="1017"
     id="namedview206"
     showgrid="false"
     inkscape:zoom="1.125265"
     inkscape:cx="146.54127"
     inkscape:cy="164.22289"
     inkscape:window-x="-8"
     inkscape:window-y="-8"
     inkscape:window-maximized="1"
     inkscape:current-layer="9af98f83-10c5-4067-bc84-20554b2827d8" />
  <defs
     id="defs9">
    <linearGradient
       id="07c62293-c0d3-4921-8e06-4e39241449cd"
       x1="318.22"
       y1="488.45001"
       x2="630.34998"
       y2="488.45001"
       gradientUnits="userSpaceOnUse"
       gradientTransform="matrix(0.26649002,0,0,0.26649002,-8.4959474,14.162445)">
      <stop
         offset="0"
         stop-color="gray"
         stop-opacity="0.25"
         id="stop2" />
      <stop
         offset="0.54"
         stop-color="gray"
         stop-opacity="0.12"
         id="stop4" />
      <stop
         offset="1"
         stop-color="gray"
         stop-opacity="0.1"
         id="stop6" />
    </linearGradient>
  </defs>
  <title
     id="title11">empty</title>
  <ellipse
     cx="111.25401"
     cy="226.36845"
     rx="46.928894"
     ry="8.8901072"
     id="ellipse13"
     style="opacity:0.1;fill:#1877f2;stroke-width:0.26649001" />
  <path
     d="M 173.19161,58.514386 C 155.94438,57.917448 139.51794,52.347807 123.83233,46.255845 108.14673,40.163883 92.610365,33.416356 75.776191,30.189162 64.948701,28.113205 52.56491,27.817401 43.842692,33.616223 c -8.3971,5.596291 -11.109969,15.229905 -12.567669,24.175975 -1.097939,6.731538 -1.742845,13.817507 1.263163,20.119996 2.089281,4.375766 5.793493,8.053328 8.357127,12.245221 8.91942,14.582335 2.614267,32.565085 -7.048661,46.803645 -4.530331,6.67824 -9.793509,13.05801 -13.292523,20.15997 -3.499014,7.10195 -5.116608,15.26721 -2.054638,22.53173 3.032657,7.19523 10.262531,12.58899 18.094673,16.38647 15.906789,7.71488 34.643702,9.92142 52.927582,11.17393 40.461174,2.76616 81.135544,1.56962 121.703324,0.36775 15.01405,-0.44237 30.09205,-0.89274 44.86093,-3.21387 8.20256,-1.28981 16.66895,-3.33645 22.625,-8.27718 7.55766,-6.27051 9.43108,-16.88747 4.36511,-24.74893 -8.4957,-13.19125 -31.9788,-16.46641 -37.9242,-30.6197 -3.26716,-7.79217 0.088,-16.46908 4.83946,-23.69363 10.19058,-15.50172 27.26993,-29.100711 28.168,-46.816967 0.61825,-12.167935 -7.5923,-24.354523 -20.28789,-30.113372 -13.30584,-6.035999 -31.76028,-5.276503 -41.57244,4.714208 -10.1133,10.275855 -27.87752,14.233232 -43.10743,13.702917 z"
     id="path15"
     inkscape:connector-curvature="0"
     style="opacity:0.1;fill:#1877f2;stroke-width:0.26649001" />
  <path
     d="m 159.48603,125.2275 -8.16259,-5.50302 v 0 l 4.11727,-6.12927 -21.55904,-1.71886 -7.74686,5.9907 -9.69757,-5.4364 -8.08797,0.97269 -0.0959,-2.13192 a 60.168116,60.168116 0 0 0 -0.66889,-6.6356 c 0.0346,-0.66623 0.0586,-1.43105 0.056,-2.2625 0,-3.504355 -0.47436,-8.149275 -2.55831,-11.245885 l 0.47968,-4.31181 -3.89075,-4.596952 a 29.412503,29.412503 0 0 1 2.13192,-3.586956 c 0.13324,-0.191873 0.26649,-0.378416 0.41039,-0.559629 5.04999,-0.365091 9.03402,-4.517006 9.03402,-9.593641 0,-0.234511 0,-0.469022 -0.0267,-0.700868 0,-0.09327 -0.0186,-0.189208 -0.0293,-0.28248 0.493,0.26649 0.99134,0.53298 1.48967,0.79947 0.0933,0.133245 0.19987,0.26649 0.31713,0.423719 v 0 l 0.024,0.02931 0.14923,0.183878 0.048,0.05596 c 0.0533,0.06396 0.10926,0.125251 0.16523,0.189208 l 0.0373,0.04264 c 0.14124,0.157229 0.29047,0.317123 0.45036,0.474352 a 0.47968203,0.47968203 0 0 1 0.0533,0.05063 l 0.19987,0.186543 0.056,0.05063 c 0.17056,0.151899 0.35177,0.298469 0.53298,0.437044 l 0.0586,0.04264 0.22918,0.157229 0.0746,0.04797 c 0.0879,0.0533 0.17855,0.109261 0.26649,0.159894 l 0.032,0.01865 c 0.10393,0.05596 0.21053,0.109261 0.31712,0.159894 l 0.0533,0.02132 q 0.13591,0.05863 0.26649,0.111926 l 0.0826,0.02931 c 0.0933,0.03198 0.18388,0.06129 0.27982,0.08794 l 0.0586,0.01599 c 0.11725,0.02931 0.23451,0.0533 0.35443,0.07195 h 0.0133 a 2.8994114,2.8994114 0 0 0 0.34111,0.03464 h 0.0773 a 2.9313902,2.9313902 0 0 0 0.30646,0 h 0.0666 a 3.1579067,3.1579067 0 0 0 0.38108,-0.0453 4.2052125,4.2052125 0 0 0 1.67889,-0.602267 1.4656951,1.4656951 0 0 0 0.3411,-0.317123 c 0.53298,-0.698204 -0.0533,-1.46303 -0.0533,-1.46303 v 0 c -0.20786,-0.495672 -1.5563,-0.844774 -1.5563,-0.844774 0,0 -4.26384,-1.780153 -4.26384,-3.19788 0,-1.417727 -1.06596,-8.772851 -12.06933,-10.454403 0,0 -7.157923,-0.4024 -9.169923,3.429726 l -0.04264,0.447704 c -0.591608,0.370421 -1.08195,1.113928 -1.665563,1.33245 a 2.7208631,2.7208631 0 0 0 -0.722188,0.26649 v -0.05063 0 a 0.68754424,0.68754424 0 0 0 -0.162559,0.210527 2.1319201,2.1319201 0 0 0 -0.221186,0.79947 3.0113372,3.0113372 0 0 1 -0.349102,0.967358 2.1505744,2.1505744 0 0 1 -0.159894,0.245171 v 0 l -0.0453,0.07195 a 1.9453771,1.9453771 0 0 0 0.906066,-0.14657 4.511676,4.511676 0 0 1 -0.26649,1.06596 0.88474686,0.88474686 0 0 0 0.82079,-0.490341 v -0.02132 l 0.03464,-0.04797 a 2.2491757,2.2491757 0 0 0 0.165224,-0.38641 l -0.02931,0.03198 c 0.0533,-0.173218 0.101266,-0.349102 0.159894,-0.519655 a 0.81545945,0.81545945 0 0 1 0.13058,-0.26649 0.64490584,0.64490584 0 0 1 0.551635,-0.183878 l -0.109261,2.310468 h 0.04797 a 3.1525769,3.1525769 0 0 1 -0.234511,0.485012 c -0.378416,0.612927 -1.06596,1.031316 -1.319126,1.702871 a 2.5050062,2.5050062 0 0 0 -0.122585,1.007332 c 0,0.199868 0.02398,0.4024 0.03997,0.602268 v -0.01599 c 0.03731,0.53298 0.04797,1.039311 -0.239841,1.46836 -0.197202,0.293139 -0.514325,0.514325 -0.623586,0.847438 a 0.82611905,0.82611905 0 0 0 -0.03997,0.287809 3.2325239,3.2325239 0 0 0 0.181213,0.855433 0.0373086,0.0373086 0 0 0 0,-0.01599 1.3004713,1.3004713 0 0 1 0.0453,0.628916 c -0.119921,0.53298 -0.767492,0.978018 -0.735513,1.487014 a 0.57295354,0.57295354 0 0 0 0.02931,0.197203 1.0792846,1.0792846 0 0 0 0.602268,0.53298 2.3451121,2.3451121 0 0 0 1.353769,0.298469 1.7801533,1.7801533 0 0 0 0.506331,-0.173219 c -0.186543,0.429049 -0.378416,0.852768 -0.572954,1.255168 -0.02931,0.06396 -0.06129,0.127915 -0.09327,0.191873 0,0 -1.646908,-1.100604 -2.582288,1.143242 a 4.9780335,4.9780335 0 0 0 -0.578284,1.503004 3.576296,3.576296 0 0 1 -0.197202,0.618257 3.978696,3.978696 0 0 1 -1.780154,1.59894 c -1.908068,0.874087 -9.61496,10.486386 -9.750869,12.975396 a 14.521041,14.521041 0 0 1 -0.490342,2.87277 17.095335,17.095335 0 0 0 -0.458363,6.792835 12.996718,12.996718 0 0 0 0.471687,2.16656 c 0.818125,2.48635 1.364429,7.12594 1.364429,7.12594 l 0.884747,8.05333 a 22.918141,22.918141 0 0 0 0.143905,3.32846 c -0.903401,1.03132 -4.53033,5.3298 -3.144582,6.49969 1.06596,0.92206 2.93139,0.77016 3.978696,0.58095 -0.882082,2.18256 -2.270495,5.97737 -2.454374,8.58365 -0.26649,3.85611 0.455698,8.96472 1.598941,10.92609 1.143242,1.96136 4.954049,6.99269 4.954049,6.99269 0,0 -0.178548,6.90209 1.183216,9.40977 1.361764,2.50767 1.910733,7.70955 1.910733,7.70955 0,0 1.271157,4.39176 0.634246,6.00669 -0.636911,1.61493 1.180551,2.95804 -0.727517,4.03199 -1.908069,1.07396 -4.349117,25.27924 -4.349117,25.27924 0,0 -0.983349,15.86416 0,16.67162 a 0.99933756,0.99933756 0 0 0 0.167888,0.0986 v 5.3298 c 0,0 -0.682214,1.11926 2.091947,1.34578 1.900074,0.1519 7.285837,0.49567 10.481052,0.69554 l 2.475692,0.15456 c 0,0 5.862776,1.16723 8.453066,0 2.59028,-1.16723 7.1819,-1.14058 6.49969,-4.22387 a 8.7728514,8.7728514 0 0 0 -0.36243,-1.23385 c -0.74883,-1.91339 -2.01999,-2.13192 -4.36244,-2.6649 -0.13591,-0.0293 -0.26649,-0.056 -0.38641,-0.0773 -2.4677,-0.42905 -3.27783,0.71952 -4.66091,-0.77548 -1.20187,-1.29248 -5.028666,-2.73952 -6.331802,-3.19788 0.03198,-0.0959 0.07195,-0.18921 0.103931,-0.28781 a 1.9507069,1.9507069 0 0 1 -0.988678,-0.48235 l 3.530989,0.22385 2.10261,0.13058 c 0,0 4.98336,0.99401 7.19523,0 2.21187,-0.99401 6.10262,-0.96736 5.52167,-3.58695 a 7.5176834,7.5176834 0 0 0 -0.30646,-1.04998 c -0.63691,-1.62558 -1.71886,-1.80413 -3.70954,-2.2545 -0.11459,-0.024 -0.22119,-0.048 -0.32778,-0.0666 -2.09728,-0.36509 -2.78483,0.61026 -3.96005,-0.65823 -1.00733,-1.08195 -4.18655,-2.29448 -5.3298,-2.70754 0,-0.59161 -0.79947,-1.43372 -1.303132,-2.27849 -0.591608,-0.98601 0.501002,-4.43706 0.501002,-4.43706 l 0.62359,-14.31851 a 2.7661664,2.7661664 0 0 1 0.74617,-0.21319 c 0,0 2.81946,-2.69155 2.18255,-5.55898 a 18.422455,18.422455 0 0 1 -0.20253,-2.6196 c 0.92738,-0.86076 2.20387,-2.13192 2.5663,-2.9154 0.5916,-1.27649 0,-7.46172 0,-7.46172 v -23.65099 l 4.71687,0.47702 4.27983,0.4397 1.30314,0.13325 4.27983,0.43171 9.83614,0.99401 8.86346,-1.67889 3.83479,-0.72485 7.88544,-1.49234 V 126.57594 Z M 94.566402,61.293877 94.017433,61.235249 c 0.181213,0.008 0.373086,0.04264 0.548969,0.05863 z"
     id="path17"
     inkscape:connector-curvature="0"
     style="fill:url(#07c62293-c0d3-4921-8e06-4e39241449cd);stroke-width:0.26649001" />
  <path
     d="m 140.35471,137.7552 c -2.6649,3.81347 -12.24521,1.79347 -12.24521,1.79347 l -7.42441,-6.94739 -0.99934,-0.94071 1.67622,-3.56031 c 0,0 0.53298,0.14657 1.44704,0.40773 4.79949,1.39375 19.79488,6.04133 17.5457,9.24721 z"
     id="path19"
     inkscape:connector-curvature="0"
     style="fill:#efb7b9;stroke-width:0.26649001" />
  <path
     d="m 122.80368,128.50799 c -0.32778,1.14058 -1.22585,2.84878 -2.11859,4.09329 l -0.99934,-0.94071 1.67622,-3.56031 c 0,0 0.53831,0.14657 1.44171,0.40773 z"
     id="path21"
     inkscape:connector-curvature="0"
     style="opacity:0.1;stroke-width:0.26649001" />
  <path
     d="m 97.340563,88.358603 c 0,0 -6.843464,3.035322 -6.507686,10.489042 a 122.88921,122.88921 0 0 0 1.566961,14.326515 c 0,0 -1.399072,11.21656 4.426399,14.10798 5.825473,2.89142 11.216563,5.26851 11.216563,5.26851 0,0 9.11396,0.98068 10.24654,1.38575 1.13258,0.40506 4.67157,-5.78817 4.01867,-6.75286 -0.6529,-0.9647 -9.01802,-2.98735 -10.08398,-4.59695 -1.06596,-1.6096 -3.53099,-2.60361 -3.53099,-2.60361 0,0 -2.54498,-1.54031 -2.7182,-2.93139 -0.17322,-1.39108 0.49834,-2.42773 0.66889,-3.03799 0.17055,-0.61026 0.60227,-6.50235 0.60227,-6.50235 0,0 2.87276,-20.972774 -9.905437,-19.152647 z"
     id="path23"
     inkscape:connector-curvature="0"
     style="fill:#dce6f2;stroke-width:0.26649001" />
  <path
     d="m 101.85757,112.86769 c 0,0 -9.388444,1.5723 -8.479714,4.85812 0,0 3.408408,-3.54698 8.479714,-4.85812 z"
     id="path25"
     inkscape:connector-curvature="0"
     style="opacity:0.1;stroke-width:0.26649001" />
  <path
     d="m 101.92952,114.19748 c 0,0 -5.161911,4.21321 -4.151913,4.42906 1.009997,0.21586 4.151913,-4.42906 4.151913,-4.42906 z"
     id="path27"
     inkscape:connector-curvature="0"
     style="opacity:0.1;stroke-width:0.26649001" />
  <path
     d="m 104.41054,115.66584 c 0,0 -1.38308,2.83279 -0.53298,2.64092 0.85011,-0.19188 0.53298,-2.64092 0.53298,-2.64092 z"
     id="path29"
     inkscape:connector-curvature="0"
     style="opacity:0.1;stroke-width:0.26649001" />
  <path
     d="m 123.15012,128.80913 -0.57029,-0.16256 c 0.16256,-0.53298 0.20786,-0.9647 0.0746,-1.16456 -0.6529,-0.9647 -9.01269,-2.98469 -10.07599,-4.59696 -1.06329,-1.61226 -3.53099,-2.6036 -3.53099,-2.6036 0,0 -2.54498,-1.54032 -2.7182,-2.93139 -0.17322,-1.39108 0.49834,-2.42773 0.66889,-3.03799 0.17055,-0.61026 0.60227,-6.50502 0.60227,-6.50502 0,0 2.86477,-20.970105 -9.91343,-19.149979 0,0 -6.843464,3.037984 -6.510351,10.491714 a 122.54543,122.54543 0 0 0 1.569626,14.326505 c 0,0 -1.399072,11.21657 4.426399,14.10798 5.825476,2.89142 11.216566,5.26851 11.216566,5.26851 0,0 9.11129,0.97802 10.24654,1.38575 0.42905,0.15456 1.20453,-0.64224 1.96403,-1.73752 l 0.43171,0.4024 7.42442,6.94473 c 0,0 9.58031,2.02266 12.24521,-1.79081 2.25184,-3.20854 -12.74089,-7.85612 -17.55103,-9.2472 z"
     id="path31"
     inkscape:connector-curvature="0"
     style="opacity:0.1;stroke-width:0.26649001" />
  <path
     d="m 93.401841,60.382481 a 2.2651651,2.2651651 0 0 0 -0.738178,0.285144 c -0.26649,0.221187 -0.26649,0.599603 -0.333112,0.93005 a 3.0593054,3.0593054 0 0 1 -0.53298,1.273822 1.9160632,1.9160632 0 0 0 0.887411,-0.146569 4.5676389,4.5676389 0 0 1 -0.26649,1.06596 0.86342765,0.86342765 0 0 0 0.79947,-0.487677 5.1325977,5.1325977 0 0 0 0.333113,-0.93538 0.77015615,0.77015615 0 0 1 0.127915,-0.26649 c 0.245171,-0.290474 0.700869,-0.159894 1.079285,-0.122585 a 1.7721586,1.7721586 0 0 0 1.620259,-0.778151 c 0.4024,-0.610262 0.426384,-2.171894 -0.53298,-2.337117 -1.002002,-0.165224 -1.625589,1.215194 -2.443713,1.518993 z"
     id="path33"
     inkscape:connector-curvature="0"
     style="fill:#965d7b;stroke-width:0.26649001" />
  <g
     id="g41"
     style="opacity:0.1"
     transform="matrix(0.26649002,0,0,0.26649002,16.881897,28.827398)">
    <path
       d="m 379.5,175.74 c 0.09,-0.49 0.15,-1 0.26,-1.49 v 0 c -0.95,0.83 -1,2.24 -1.25,3.49 a 11,11 0 0 1 -0.59,2.11 11.46,11.46 0 0 0 1.58,-4.11 z"
       transform="translate(-95.23,-55.03)"
       id="path35"
       inkscape:connector-curvature="0" />
    <path
       d="m 379.82,184 a 16.63,16.63 0 0 0 1,-4 7.16,7.16 0 0 1 -3.17,0.55 11.57,11.57 0 0 1 -1.15,2 7.12,7.12 0 0 0 3.32,-0.54 16.63,16.63 0 0 1 -1,4 3.25,3.25 0 0 0 3,-1.83 7.46,7.46 0 0 0 0.6,-1.43 3,3 0 0 1 -2.6,1.25 z"
       transform="translate(-95.23,-55.03)"
       id="path37"
       inkscape:connector-curvature="0" />
    <path
       d="m 388.6,177.2 c -1.42,-0.14 -3.14,-0.63 -4.06,0.46 a 3.09,3.09 0 0 0 -0.48,1 c -0.09,0.26 -0.17,0.53 -0.24,0.8 0.95,-0.75 2.49,-0.35 3.78,-0.22 a 6.68,6.68 0 0 0 6.08,-2.92 5.54,5.54 0 0 0 0.67,-1.57 6.66,6.66 0 0 1 -5.75,2.45 z"
       transform="translate(-95.23,-55.03)"
       id="path39"
       inkscape:connector-curvature="0" />
  </g>
  <polygon
     points="317.24,201 332.49,219.34 330.5,237.85 312.07,209 "
     id="polygon43"
     style="fill:#dce6f2"
     transform="matrix(0.26649002,0,0,0.26649002,16.881897,28.827398)" />
  <polygon
     points="332.48,219.34 330.61,236.75 330.49,237.85 313.86,211.81 312.07,209 312.59,208.19 317.23,201 318.26,202.24 "
     id="polygon45"
     style="opacity:0.1"
     transform="matrix(0.26649002,0,0,0.26649002,16.881897,28.827398)" />
  <path
     d="m 107.5951,75.774944 c -1.37509,0.394405 -2.68889,1.748175 -3.83213,3.392418 a 28.95414,28.95414 0 0 0 -2.06796,3.554977 c -0.37575,0.751502 -0.7062,1.47369 -0.98068,2.102606 l -0.19188,0.447703 c -0.46369,1.095274 -0.722184,1.828122 -0.722184,1.828122 0,0 -10.526356,-7.914754 -8.860793,-8.447734 0.559629,-0.178548 1.295141,-1.377753 2.022659,-2.888752 l 0.09061,-0.191872 c 0.461027,-0.970024 0.91406,-2.051973 1.31646,-3.069965 0.823454,-2.091947 1.433717,-3.909409 1.433717,-3.909409 0,0 15.989401,5.982701 11.792181,7.181906 z"
     id="path47"
     inkscape:connector-curvature="0"
     style="fill:#efb7b9;stroke-width:0.26649001" />
  <path
     d="m 113.89226,68.148 c 0,0 2.43039,4.397085 5.69489,3.797483 3.2645,-0.599603 1.92139,-2.361102 1.92139,-2.361102 z"
     id="path49"
     inkscape:connector-curvature="0"
     style="fill:#444053;stroke-width:0.26649001" />
  <path
     d="m 109.18338,220.35378 c -2.15324,0.98335 -7.02201,0 -7.02201,0 l -2.05198,-0.12792 c -2.664896,-0.17055 -7.125939,-0.45836 -8.70356,-0.58628 -2.302473,-0.1892 -1.737515,-1.13258 -1.737515,-1.13258 v -5.70022 l 11.171265,-2.83012 c 0,0 4.41574,1.511 5.6256,2.83012 1.14857,1.25783 1.82013,0.29047 3.86944,0.6529 0.10126,0.0187 0.20786,0.04 0.31978,0.0666 1.94538,0.44504 3.00068,0.62093 3.62427,2.23319 a 7.4883695,7.4883695 0 0 1 0.30113,1.03931 c 0.57562,2.59561 -3.24585,2.57696 -5.39642,3.55498 z"
     id="path51"
     inkscape:connector-curvature="0"
     style="fill:#a36468;stroke-width:0.26649001" />
  <path
     d="m 114.27867,215.75949 a 8.3517971,8.3517971 0 0 1 -1.25783,0.64491 c -1.4657,0.66889 -2.85944,1.48435 -4.34113,2.11593 -1.48168,0.63158 -3.07796,1.08195 -4.68223,0.96203 -0.83944,-0.0613 -1.69754,-0.26649 -2.49967,-0.0267 a 5.7721738,5.7721738 0 0 0 -1.38842,0.77015 c -2.664896,-0.17055 -7.125939,-0.45836 -8.70356,-0.58628 -2.302473,-0.1892 -1.737515,-1.13258 -1.737515,-1.13258 v -0.66622 c 0.08261,0 0.175884,-0.024 0.28248,-0.032 a 5.0313315,5.0313315 0 0 1 1.625589,0.2425 c 1.156567,0.31446 2.307803,0.62359 3.46437,0.93272 a 2.7368525,2.7368525 0 0 1 1.33245,-1.70021 4.2478509,4.2478509 0 0 1 2.14791,-0.493 c 1.793476,0.024 3.491016,0.87408 5.281836,0.95936 a 2.910071,2.910071 0 0 0 1.46303,-0.24517 c 0.24517,-0.12259 0.46102,-0.30113 0.70086,-0.43704 a 5.1166083,5.1166083 0 0 1 1.2072,-0.40773 26.585044,26.585044 0 0 0 3.45105,-1.11393 c 0.31979,-0.12525 0.69287,-0.35177 0.65024,-0.69288 -0.056,-0.45303 -0.7675,-0.50633 -0.95404,-0.92205 a 0.53298003,0.53298003 0 0 1 0.0213,-0.47169 c 0.10127,0.0187 0.20786,0.04 0.31979,0.0666 1.93738,0.44504 2.99268,0.62093 3.61627,2.23319 z"
     id="path53"
     inkscape:connector-curvature="0"
     style="opacity:0.1;stroke-width:0.26649001" />
  <path
     d="m 106.90755,232.82551 c -2.53165,1.15657 -8.261186,0 -8.261186,0 l -2.411735,-0.14124 c -3.123263,-0.19987 -8.383775,-0.53298 -10.241211,-0.69021 -2.710203,-0.22385 -2.043978,-1.33245 -2.043978,-1.33245 v -6.71821 l 13.145952,-3.33113 c 0,0 5.196558,1.77749 6.619608,3.33113 1.35111,1.47902 2.13192,0.34111 4.55432,0.76749 0.11992,0.0213 0.24517,0.048 0.37575,0.0773 2.28915,0.53298 3.53099,0.73285 4.26384,2.63026 a 8.5543295,8.5543295 0 0 1 0.35443,1.22319 c 0.6609,3.05397 -3.82413,3.02999 -6.35579,4.18389 z"
     id="path55"
     inkscape:connector-curvature="0"
     style="fill:#a36468;stroke-width:0.26649001" />
  <path
     d="m 112.90358,227.41843 a 9.9214233,9.9214233 0 0 1 -1.47902,0.75949 c -1.72419,0.78615 -3.36577,1.74551 -5.10861,2.48902 -1.74285,0.74351 -3.6216,1.27116 -5.51102,1.13258 -0.98601,-0.072 -1.996007,-0.31978 -2.931387,-0.032 a 6.7954954,6.7954954 0 0 0 -1.638914,0.91672 c -3.123263,-0.19987 -8.383775,-0.53298 -10.241211,-0.69021 -2.710203,-0.22385 -2.043978,-1.33245 -2.043978,-1.33245 v -0.78348 a 3.3311252,3.3311252 0 0 1 0.333112,-0.0373 5.846791,5.846791 0 0 1 1.913399,0.28515 l 4.074632,1.09794 a 3.2245292,3.2245292 0 0 1 1.580286,-2.00134 4.9727037,4.9727037 0 0 1 2.52899,-0.58095 c 2.110601,0.0293 4.106611,1.02865 6.214551,1.12992 a 3.4403861,3.4403861 0 0 0 1.71619,-0.28515 c 0.29048,-0.14657 0.53298,-0.3571 0.82612,-0.51432 a 5.7961579,5.7961579 0 0 1 1.42039,-0.47969 31.89619,31.89619 0 0 0 4.03999,-1.31113 c 0.37575,-0.14923 0.81546,-0.41572 0.76483,-0.81546 -0.0666,-0.53298 -0.9034,-0.59693 -1.12459,-1.08728 a 0.64224094,0.64224094 0 0 1 0.0267,-0.5543 c 0.11992,0.0213 0.24517,0.048 0.37575,0.0773 2.28915,0.51166 3.53099,0.71952 4.26384,2.61693 z"
     id="path57"
     inkscape:connector-curvature="0"
     style="opacity:0.1;stroke-width:0.26649001" />
  <path
     d="m 101.17802,186.7254 -0.71153,16.74357 c 0,0 -1.065959,3.41907 -0.487676,4.39709 0.578286,0.97801 1.553636,1.95337 1.199206,2.53165 -0.35443,0.57828 -4.618273,6.83014 -5.996026,4.43173 -1.377754,-2.39841 -2.736853,-12.79152 -2.736853,-12.79152 l 1.271158,-12.83683 z"
     id="path59"
     inkscape:connector-curvature="0"
     style="fill:#444053;stroke-width:0.26649001" />
  <path
     d="m 104.26397,145.00906 1.97736,2.64358 v 22.99275 c 0,0 0.57828,6.12927 0,7.3951 -0.57828,1.26583 -3.50967,3.79748 -3.50967,3.79748 l -2.46504,-12.65827 0.53298,-13.39112 z"
     id="path61"
     inkscape:connector-curvature="0"
     style="fill:#444053;stroke-width:0.26649001" />
  <path
     d="m 101.17802,186.7254 -0.71153,16.74357 c 0,0 -1.065959,3.41907 -0.487676,4.39709 0.578286,0.97801 1.553636,1.95337 1.199206,2.53165 -0.35443,0.57828 -4.618273,6.83014 -5.996026,4.43173 -1.377754,-2.39841 -2.736853,-12.79152 -2.736853,-12.79152 l 1.271158,-12.83683 z"
     id="path63"
     inkscape:connector-curvature="0"
     style="opacity:0.1;stroke-width:0.26649001" />
  <path
     d="m 104.26397,145.00906 1.97736,2.64358 v 22.99275 c 0,0 0.57828,6.12927 0,7.3951 -0.57828,1.26583 -3.50967,3.79748 -3.50967,3.79748 l -2.46504,-12.65827 0.53298,-13.39112 z"
     id="path65"
     inkscape:connector-curvature="0"
     style="opacity:0.1;stroke-width:0.26649001" />
  <path
     d="m 106.24133,135.20222 v 12.43709 l -2.21986,9.68158 c 0,0 -0.71153,23.36318 -0.0906,26.20397 0.62092,2.84078 -2.13192,5.50835 -2.13192,5.50835 0,0 -1.59894,0.17854 -1.59894,1.42039 0,1.24184 -2.664902,4.79682 -2.664902,4.79682 l 0.08794,6.92874 c 0,0 1.156567,12.97007 -0.620921,15.45642 -1.777489,2.48635 0.620921,2.84345 0.620921,2.84345 -2.219861,7.28317 -12.879462,5.59629 -13.841491,4.79682 -0.962029,-0.79947 0,-16.52238 0,-16.52238 0,0 2.382421,-23.9841 4.247851,-25.05006 1.86543,-1.06597 0.09061,-2.39842 0.711528,-3.99736 0.620922,-1.59894 -0.620922,-5.95072 -0.620922,-5.95072 0,0 -0.53298,-5.15391 -1.86543,-7.64027 -1.33245,-2.48635 -1.156566,-9.32715 -1.156566,-9.32715 0,0 -3.730861,-4.97537 -4.839459,-6.92874 -1.108599,-1.95337 -1.822792,-7.01668 -1.556302,-10.83815 0.181213,-2.58228 1.537648,-6.34246 2.39841,-8.50636 0.41306,-1.03664 0.711529,-1.7082 0.711529,-1.7082 l 0.253165,0.0666 14.555685,3.81081 z"
     id="path67"
     inkscape:connector-curvature="0"
     style="fill:#444053;stroke-width:0.26649001" />
  <path
     d="m 107.5951,75.774944 c -1.37509,0.394405 -2.68889,1.748175 -3.83213,3.392418 h -0.29847 a 9.5190234,9.5190234 0 0 1 -8.261187,-4.778166 9.3751188,9.3751188 0 0 1 -0.836779,-1.905404 c 0.823455,-2.091946 1.433717,-3.909408 1.433717,-3.909408 0,0 15.992069,6.001355 11.794849,7.20056 z"
     id="path69"
     inkscape:connector-curvature="0"
     style="opacity:0.1;stroke-width:0.26649001" />
  <path
     d="m 112.99152,69.112694 a 9.5270181,9.5270181 0 1 1 -17.822851,-4.668905 9.3084963,9.3084963 0 0 1 1.007333,-1.455036 9.6416088,9.6416088 0 0 1 2.190548,-1.924058 9.5270181,9.5270181 0 0 1 14.61165,7.349795 c 0.005,0.234511 0.0133,0.466357 0.0133,0.698204 z"
     id="path71"
     inkscape:connector-curvature="0"
     style="fill:#efb7b9;stroke-width:0.26649001" />
  <path
     d="m 104.98616,91.918905 -0.032,0.29314 -4.43173,-6.928737 c -0.46369,1.095274 -0.722185,1.828121 -0.722185,1.828121 0,0 -10.526356,-7.925413 -8.860793,-8.458393 0.559629,-0.178548 1.295141,-1.377753 2.022659,-2.888752 l 0.09061,-0.191872 c 0.772821,2.302473 5.263177,6.904756 7.131269,8.748867 0.21586,0.213192 0.39441,0.389075 0.53298,0.516991 l 0.28515,0.26649 0.14923,0.149234 c 0.67955,0.700869 3.54698,3.792153 3.83479,6.664911 z"
     id="path73"
     inkscape:connector-curvature="0"
     style="opacity:0.1;stroke-width:0.26649001" />
  <path
     d="m 108.29863,115.42866 -0.48501,15.60832 -0.0853,2.77949 c 0,0 -5.74552,-0.53298 -11.107303,-1.11925 -4.317138,-0.47169 -8.386441,-0.98069 -9.012692,-1.27916 -0.79947,-0.37575 -2.513001,-0.66622 -3.864106,-0.8501 -1.044641,-0.14124 -1.86543,-0.21586 -1.86543,-0.21586 0,0 -0.306463,0.0906 -0.778151,0.17589 -1.028651,0.18654 -2.835453,0.33844 -3.888089,-0.57562 -1.345775,-1.16989 2.190548,-5.42041 3.07263,-6.44106 l 0.194538,-0.22119 -0.333113,-3.07796 -0.866092,-7.98138 c 0,0 -0.53298,-4.59695 -1.332451,-7.06198 a 13.026032,13.026032 0 0 1 -0.461027,-2.14525 17.183276,17.183276 0 0 1 0.447703,-6.731535 14.67827,14.67827 0 0 0 0.479682,-2.84878 c 0.133245,-2.46504 7.661588,-11.992054 9.527018,-12.858146 A 3.9547118,3.9547118 0 0 0 89.849526,78.68235 3.6349238,3.6349238 0 0 0 90.14,77.853566 c 0.79947,-3.46437 2.822129,-2.089282 2.822129,-2.089282 0.487677,2.710204 8.037341,9.884115 8.037341,9.884115 l 0.14923,0.149235 c 0.74884,0.767491 4.08529,4.370431 3.84812,7.445731 a 9.0260169,9.0260169 0 0 0 0.50366,3.36843 56.962241,56.962241 0 0 1 2.62493,14.923445 z"
     id="path75"
     inkscape:connector-curvature="0"
     style="fill:#dce6f2;stroke-width:0.26649001" />
  <path
     d="m 97.601723,96.894275 c 0,0 -1.86543,4.530335 -3.264502,5.263185 -1.399073,0.73285 3.930727,1.54564 3.264502,-5.263185 z"
     id="path77"
     inkscape:connector-curvature="0"
     style="opacity:0.1;stroke-width:0.26649001" />
  <path
     d="m 99.000796,105.35534 c 0,0 -4.26384,0.53298 -4.26384,1.33245 0,0.79947 4.26384,-1.33245 4.26384,-1.33245 z"
     id="path79"
     inkscape:connector-curvature="0"
     style="opacity:0.1;stroke-width:0.26649001" />
  <path
     d="m 103.4645,110.5519 c 0,0 -6.195889,13.19125 -7.928074,13.59099 -1.732186,0.39973 7.928074,-13.59099 7.928074,-13.59099 z"
     id="path81"
     inkscape:connector-curvature="0"
     style="opacity:0.1;stroke-width:0.26649001" />
  <path
     d="m 100.88221,86.317289 -5.124598,2.227857 -6.185233,-9.34314 a 3.6349238,3.6349238 0 0 0 0.290474,-0.828784 c 0.79947,-3.46437 2.822129,-2.089282 2.822129,-2.089282 0.487677,2.710203 8.037338,9.884115 8.037338,9.884115 z"
     id="path83"
     inkscape:connector-curvature="0"
     style="opacity:0.1;stroke-width:0.26649001" />
  <path
     d="m 101.1487,85.784309 -5.124598,2.227857 -6.185233,-9.34314 a 3.6349238,3.6349238 0 0 0 0.290474,-0.828784 c 0.79947,-3.464371 2.822129,-2.089282 2.822129,-2.089282 0.487677,2.710203 8.037338,9.884115 8.037338,9.884115 z"
     id="path85"
     inkscape:connector-curvature="0"
     style="fill:#dce6f2;stroke-width:0.26649001" />
  <path
     d="m 107.72834,133.81647 c 0,0 -5.74552,-0.53298 -11.1073,-1.11925 l 9.62029,2.51833 v 2.93139 c -0.42106,0.38108 -0.78615,0.57828 -1.02332,0.47701 -1.1086,-0.46635 -10.155937,-1.93205 -10.155937,-1.93205 0,0 -5.255183,-2.6649 -10.92609,-5.86278 a 4.378431,4.378431 0 0 1 -0.399735,-0.2505 6.299824,6.299824 0 0 1 -1.678887,-1.68155 c -1.047306,-1.51633 -1.558967,-3.46437 -1.780154,-5.3751 a 23.243259,23.243259 0 0 1 -0.138575,-3.29915 27.051402,27.051402 0 0 1 0.341108,-3.7282 122.60673,122.60673 0 0 1 -0.79947,-14.39046 c 0.06662,-7.461725 7.061985,-10.126625 7.061985,-10.126625 12.858143,-1.13258 8.871453,19.653645 8.871453,19.653645 0,0 -0.743507,5.86278 -0.94604,6.46238 -0.202532,0.59961 -0.93005,1.59894 -0.831449,2.99802 0.0986,1.39907 2.55564,3.07263 2.55564,3.07263 0,0 2.39841,1.12458 3.387088,2.79015 0.719523,1.22852 5.393753,2.89408 8.034673,4.08262 z"
     id="path87"
     inkscape:connector-curvature="0"
     style="opacity:0.1;stroke-width:0.26649001" />
  <path
     d="m 112.03482,63.196615 a 3.016667,3.016667 0 0 1 -0.26649,1.273823 7.87478,7.87478 0 0 1 -0.47435,0.948704 4.3704363,4.3704363 0 0 1 -1.16723,1.449706 c -0.61559,0.439708 -1.39374,0.562294 -2.13192,0.740842 -0.73817,0.178548 -1.50567,0.463693 -1.92672,1.092609 a 3.8214668,3.8214668 0 0 0 -0.45037,1.305801 2.8088048,2.8088048 0 0 1 -0.53298,1.263163 1.0473058,1.0473058 0 0 1 -1.24717,0.298469 1.2604978,1.2604978 0 0 1 -0.48235,-0.620922 c -0.3038,-0.684879 -0.38108,-1.444376 -0.50366,-2.182553 -0.12259,-0.738178 -0.29581,-1.497674 -0.74884,-2.091947 -0.45303,-0.594273 -1.25517,-0.986013 -1.9667,-0.754167 a 1.894744,1.894744 0 0 0 -1.065957,1.033982 5.926738,5.926738 0 0 0 -0.4024,1.471024 q -0.495671,2.712869 -1.169891,5.393758 a 0.49567143,0.49567143 0 0 1 -0.08794,0.202533 0.38374562,0.38374562 0 0 1 -0.26649,0.111926 c -0.596937,0.07995 -1.169891,-0.338443 -1.772158,-0.293139 a 1.0179919,1.0179919 0 0 0 -0.183878,0.02931 9.5216883,9.5216883 0 0 1 0.962029,-10.872792 l 0.04797,-0.01333 a 2.8727624,2.8727624 0 0 0 1.06596,-0.671555 11.251209,11.251209 0 0 0 1.06596,-1.233848 l 0.213192,-0.26649 a 12.15461,12.15461 0 0 1 2.078623,-1.974691 2.1319201,2.1319201 0 0 1 0.70886,-0.383746 2.0999413,2.0999413 0 0 1 0.67156,-0.02132 16.94077,16.94077 0 0 0 2.77416,0.103931 17.798868,17.798868 0 0 1 1.94804,-0.197203 c 1.68688,0.04797 3.12593,1.239179 4.19189,2.54498 0.57295,0.66889 1.08461,1.439046 1.11926,2.313133 z"
     id="path89"
     inkscape:connector-curvature="0"
     style="opacity:0.1;stroke-width:0.26649001" />
  <path
     d="m 93.924161,64.696954 c -0.370421,0.607597 -1.039311,1.020657 -1.289812,1.686882 -0.367756,0.967359 0.253166,2.171894 -0.317123,3.035321 -0.189208,0.290474 -0.501001,0.506331 -0.607597,0.839444 -0.181213,0.562294 0.314458,1.161896 0.186543,1.74018 -0.127915,0.578283 -0.890077,1.06596 -0.687544,1.630918 a 1.0659601,1.0659601 0 0 0 0.586278,0.53298 2.2918141,2.2918141 0 0 0 1.33245,0.295804 c 0.727518,-0.11992 1.268492,-0.834113 2.00667,-0.887411 0.599602,-0.04264 1.172556,0.373086 1.769493,0.295804 a 0.39973503,0.39973503 0 0 0 0.26649,-0.114591 0.46102773,0.46102773 0 0 0 0.08794,-0.202533 q 0.671555,-2.678224 1.172556,-5.393758 A 5.8094824,5.8094824 0 0 1 98.83024,66.68497 1.9107334,1.9107334 0 0 1 99.8962,65.650988 c 0.71153,-0.229181 1.511,0.159894 1.9667,0.754167 0.45569,0.594273 0.62891,1.353769 0.7515,2.091947 0.12258,0.738177 0.19987,1.497674 0.501,2.182553 a 1.2738223,1.2738223 0 0 0 0.48501,0.623587 c 0.39974,0.231846 0.93805,0.04797 1.24451,-0.298469 a 2.7794909,2.7794909 0 0 0 0.53298,-1.265828 3.8054774,3.8054774 0 0 1 0.45037,-1.303136 c 0.42105,-0.628916 1.19121,-0.914061 1.92672,-1.092609 0.73551,-0.178548 1.511,-0.303799 2.13192,-0.743507 a 4.3864257,4.3864257 0 0 0 1.16723,-1.447041 c 0.3944,-0.687544 0.76216,-1.433716 0.73018,-2.225192 -0.0346,-0.863427 -0.54631,-1.633583 -1.09261,-2.305138 -1.06596,-1.305801 -2.50767,-2.497012 -4.19455,-2.542315 a 16.575679,16.575679 0 0 0 -1.94804,0.197203 16.67428,16.67428 0 0 1 -2.77417,-0.106596 2.1798883,2.1798883 0 0 0 -0.67155,0.02398 2.0093347,2.0093347 0 0 0 -0.7062,0.383745 12.159939,12.159939 0 0 0 -2.081286,1.972026 15.272543,15.272543 0 0 1 -1.284481,1.492344 2.8914167,2.8914167 0 0 1 -1.06596,0.67422 c -0.26649,0.07462 -0.532981,0.02132 -0.786146,0.103931 -0.786146,0.247836 -0.890077,1.273823 -1.255168,1.87609 z"
     id="path91"
     inkscape:connector-curvature="0"
     style="fill:#965d7b;stroke-width:0.26649001" />
  <path
     d="m 119.58715,71.942818 c -2.13192,0.39174 -3.89875,-1.33245 -4.87677,-2.590283 A 10.451738,10.451738 0 0 1 113.89226,68.148 l 7.31781,1.380418 0.29581,0.05596 c 0,0 1.34577,1.761499 -1.91873,2.358437 z"
     id="path93"
     inkscape:connector-curvature="0"
     style="opacity:0.1;stroke-width:0.26649001" />
  <g
     id="g101"
     style="opacity:0.1"
     transform="matrix(0.26649002,0,0,0.26649002,16.881897,28.827398)">
    <path
       d="m 376.72,214.17 a 8.33,8.33 0 0 0 -0.58,-3.84 c 0,0.1 -0.09,0.2 -0.12,0.3 -0.43,1.34 0.15,2.73 0.52,4.12 a 3,3 0 0 0 0.18,-0.58 z"
       transform="translate(-95.23,-55.03)"
       id="path95"
       inkscape:connector-curvature="0" />
    <path
       d="m 379.1,197.8 a 22.22,22.22 0 0 0 0.08,4.15 22.28,22.28 0 0 0 -0.08,-4.15 z"
       transform="translate(-95.23,-55.03)"
       id="path97"
       inkscape:connector-curvature="0" />
    <path
       d="m 448.55,188.45 a 16.4,16.4 0 0 1 -4.38,5.44 c -2.31,1.65 -5.22,2.11 -8,2.78 -2.78,0.67 -5.65,1.74 -7.23,4.1 a 14.41,14.41 0 0 0 -1.69,4.9 10.47,10.47 0 0 1 -2,4.75 c -1.15,1.3 -3.17,2 -4.67,1.12 a 4.78,4.78 0 0 1 -1.82,-2.34 c -1.13,-2.57 -1.43,-5.41 -1.88,-8.19 -0.45,-2.78 -1.12,-5.62 -2.82,-7.85 -1.7,-2.23 -4.71,-3.7 -7.38,-2.83 a 7.14,7.14 0 0 0 -4,3.88 21.8,21.8 0 0 0 -1.5,5.52 q -1.87,10.19 -4.4,20.24 a 1.73,1.73 0 0 1 -0.33,0.76 1.5,1.5 0 0 1 -1,0.43 c -2.24,0.29 -4.39,-1.27 -6.64,-1.11 -2.77,0.2 -4.8,2.88 -7.53,3.32 a 8.45,8.45 0 0 1 -5,-1.11 5.35,5.35 0 0 1 -1.83,-1.3 2.7,2.7 0 0 0 -0.37,2.33 3.9,3.9 0 0 0 2.2,2 8.45,8.45 0 0 0 5,1.11 c 2.73,-0.44 4.76,-3.12 7.53,-3.32 2.25,-0.16 4.4,1.4 6.64,1.11 a 1.5,1.5 0 0 0 1,-0.43 1.73,1.73 0 0 0 0.33,-0.76 q 2.52,-10 4.4,-20.24 a 21.8,21.8 0 0 1 1.5,-5.52 7.14,7.14 0 0 1 4,-3.88 c 2.67,-0.87 5.67,0.6 7.38,2.83 1.71,2.23 2.36,5.08 2.82,7.85 0.46,2.77 0.75,5.62 1.88,8.19 a 4.78,4.78 0 0 0 1.82,2.34 c 1.5,0.87 3.52,0.18 4.67,-1.12 a 10.47,10.47 0 0 0 2,-4.75 14.41,14.41 0 0 1 1.69,-4.9 c 1.58,-2.36 4.47,-3.42 7.23,-4.1 2.76,-0.68 5.67,-1.13 8,-2.78 a 16.4,16.4 0 0 0 4.38,-5.44 c 1.48,-2.57 2.86,-5.37 2.74,-8.34 a 10.74,10.74 0 0 0 -0.12,-1.14 19.65,19.65 0 0 1 -2.62,6.45 z"
       transform="translate(-95.23,-55.03)"
       id="path99"
       inkscape:connector-curvature="0" />
  </g>
  <path
     d="m 111.77899,64.462443 a 9.4150923,9.4150923 0 0 1 1.18588,3.957377 c -2.37442,-1.33245 -4.60761,-2.795481 -5.73486,-3.304477 -1.96403,-0.887411 -9.308499,-0.754166 -12.069335,-0.671554 a 9.3084963,9.3084963 0 0 1 1.007332,-1.455036 9.6416088,9.6416088 0 0 1 2.198543,-1.924058 9.5323479,9.5323479 0 0 1 13.42577,3.392418 z"
     id="path103"
     inkscape:connector-curvature="0"
     style="opacity:0.1;stroke-width:0.26649001" />
  <path
     d="m 120.25337,70.8129 c -1.28181,0.394405 -3.37376,-0.367756 -5.54299,-1.460365 A 10.451738,10.451738 0 0 1 113.89226,68.148 l 7.31781,1.380418 c 0.48501,0.330448 0.6076,0.802135 -0.9567,1.284482 z"
     id="path105"
     inkscape:connector-curvature="0"
     style="opacity:0.1;stroke-width:0.26649001" />
  <path
     d="m 104.03213,55.223234 c 0,0 -6.995366,-0.399735 -8.962062,3.397748 l -0.317123,3.365769 -0.53298,-0.05863 -0.106596,2.289149 c 0,0 10.691581,-0.466357 13.124631,0.631581 2.43306,1.097939 9.99338,6.630272 13.02337,5.697557 3.02999,-0.932715 -0.26649,-1.798808 -0.26649,-1.798808 0,0 -4.17057,-1.766828 -4.17057,-3.152577 0,-1.385748 -1.03398,-8.706228 -11.79218,-10.371791 z"
     id="path107"
     inkscape:connector-curvature="0"
     style="fill:#444053;stroke-width:0.26649001" />
  <path
     d="m 90.539738,179.99386 c 0,0 4.463708,4.33047 6.39576,3.99735 0,0 -5.463045,-0.46635 -6.39576,-3.99735 z"
     id="path109"
     inkscape:connector-curvature="0"
     style="opacity:0.1;stroke-width:0.26649001" />
  <path
     d="m 89.607023,182.00053 c 0,0 0.399735,2.22786 1.465695,2.00934 1.06596,-0.21852 -1.465695,-2.00934 -1.465695,-2.00934 z"
     id="path111"
     inkscape:connector-curvature="0"
     style="opacity:0.1;stroke-width:0.26649001" />
  <path
     d="m 96.602386,219.23452 c 0,0 -6.337133,4.93007 -5.268508,5.06331 1.068625,0.13325 5.268508,-5.06331 5.268508,-5.06331 z"
     id="path113"
     inkscape:connector-curvature="0"
     style="opacity:0.1;stroke-width:0.26649001" />
  <polygon
     points="330.96,347.33 407.96,334.8 407.96,407.7 334.8,403.87 "
     id="polygon115"
     style="fill:#1877f2"
     transform="matrix(0.26649002,0,0,0.26649002,16.881897,28.827398)" />
  <polygon
     points="330.96,347.33 407.96,334.8 407.96,407.7 334.8,403.87 "
     id="polygon117"
     style="opacity:0.05"
     transform="matrix(0.26649002,0,0,0.26649002,16.881897,28.827398)" />
  <polygon
     points="407.96,334.8 500.3,341.71 495.19,405.15 407.96,407.7 "
     id="polygon119"
     style="fill:#1877f2"
     transform="matrix(0.26649002,0,0,0.26649002,16.881897,28.827398)" />
  <polygon
     points="407.96,334.8 500.3,341.71 495.19,405.15 407.96,407.7 "
     id="polygon121"
     style="opacity:0.1"
     transform="matrix(0.26649002,0,0,0.26649002,16.881897,28.827398)" />
  <polygon
     points="436.35,312.55 407.96,334.8 500.3,341.71 515.39,318.94 "
     id="polygon123"
     style="fill:#1877f2"
     transform="matrix(0.26649002,0,0,0.26649002,16.881897,28.827398)" />
  <polygon
     points="303.08,323.03 372.4,314.59 407.96,334.8 330.96,347.33 "
     id="polygon125"
     style="fill:#1877f2"
     transform="matrix(0.26649002,0,0,0.26649002,16.881897,28.827398)" />
  <polygon
     points="407.95,352.57 424.84,353.73 424.84,453.4 388.77,449.7 373.08,448.1 368.3,447.6 352.62,445.99 330.96,443.77 330.96,347.33 "
     id="polygon127"
     style="fill:#1877f2"
     transform="matrix(0.26649002,0,0,0.26649002,16.881897,28.827398)" />
  <polygon
     points="471.39,444.46 457.33,447.16 424.84,453.4 424.84,353.73 500.3,341.71 500.3,438.91 "
     id="polygon129"
     style="fill:#1877f2"
     transform="matrix(0.26649002,0,0,0.26649002,16.881897,28.827398)" />
  <polygon
     points="471.39,444.46 457.33,447.16 424.84,453.4 424.84,353.73 500.3,341.71 500.3,438.91 "
     id="polygon131"
     style="opacity:0.05"
     transform="matrix(0.26649002,0,0,0.26649002,16.881897,28.827398)" />
  <polygon
     points="303.08,368.31 330.96,347.33 424.84,353.73 411.02,377.01 "
     id="polygon133"
     style="fill:#1877f2"
     transform="matrix(0.26649002,0,0,0.26649002,16.881897,28.827398)" />
  <polygon
     points="303.08,368.31 330.96,347.33 424.84,353.73 411.02,377.01 "
     id="polygon135"
     style="opacity:0.1;fill:#ffffff"
     transform="matrix(0.26649002,0,0,0.26649002,16.881897,28.827398)" />
  <polygon
     points="500.3,341.71 424.84,353.73 449.4,375.73 530.23,362.17 "
     id="polygon137"
     style="fill:#1877f2"
     transform="matrix(0.26649002,0,0,0.26649002,16.881897,28.827398)" />
  <polygon
     points="500.3,341.71 424.84,353.73 449.4,375.73 530.23,362.17 "
     id="polygon139"
     style="opacity:0.1;fill:#ffffff"
     transform="matrix(0.26649002,0,0,0.26649002,16.881897,28.827398)" />
  <polygon
     points="471.39,444.46 457.33,447.16 457.33,426.39 470.5,423.07 "
     id="polygon141"
     style="opacity:0.1;fill:#ffffff"
     transform="matrix(0.26649002,0,0,0.26649002,16.881897,28.827398)" />
  <polygon
     points="388.77,435.96 388.77,449.7 373.08,448.1 373.08,435.96 "
     id="polygon143"
     style="opacity:0.1;fill:#ffffff"
     transform="matrix(0.26649002,0,0,0.26649002,16.881897,28.827398)" />
  <polygon
     points="368.3,440.29 368.3,447.6 352.62,445.99 352.62,440.29 "
     id="polygon145"
     style="opacity:0.1;fill:#ffffff"
     transform="matrix(0.26649002,0,0,0.26649002,16.881897,28.827398)" />
  <path
     d="m 127.58185,143.06368 c -2.86477,3.66424 -12.32516,1.13258 -12.32516,1.13258 l -7.03001,-7.3338 -0.95403,-0.99401 1.86543,-3.46437 c 0,0 0.53298,0.17588 1.42305,0.48501 4.71155,1.64691 19.43245,7.0913 17.02072,10.17459 z"
     id="path147"
     inkscape:connector-curvature="0"
     style="opacity:0.1;stroke-width:0.26649001" />
  <path
     d="m 127.31536,142.5307 c -2.86477,3.66424 -12.32516,1.13258 -12.32516,1.13258 l -7.03001,-7.3338 -0.95403,-0.99401 1.86543,-3.46437 c 0,0 0.53298,0.17588 1.42305,0.48501 4.71155,1.64691 19.43245,7.0913 17.02072,10.17459 z"
     id="path149"
     inkscape:connector-curvature="0"
     style="fill:#efb7b9;stroke-width:0.26649001" />
  <path
     d="m 110.28398,132.35611 c -0.38907,1.11926 -1.37775,2.77683 -2.33445,3.97337 l -0.95403,-0.99401 1.86543,-3.46437 c 0,0 0.53564,0.17588 1.42305,0.48501 z"
     id="path151"
     inkscape:connector-curvature="0"
     style="opacity:0.1;stroke-width:0.26649001" />
  <path
     d="m 87.008745,90.911575 c 0,0 -6.995363,2.6649 -7.061985,10.126625 a 122.60673,122.60673 0 0 0 0.79947,14.39046 c 0,0 -1.998675,11.12596 3.664237,14.32384 5.662913,3.19788 10.926091,5.86278 10.926091,5.86278 0,0 9.047332,1.4657 10.158602,1.93205 1.11126,0.46636 4.9727,-5.52966 4.3731,-6.529 -0.5996,-0.99934 -8.83681,-3.46437 -9.81483,-5.12993 -0.978017,-1.66557 -3.387087,-2.78749 -3.387087,-2.78749 0,0 -2.457038,-1.67622 -2.555639,-3.07529 -0.0986,-1.39908 0.626252,-2.39841 0.831449,-2.99802 0.205197,-0.5996 0.948704,-6.46238 0.948704,-6.46238 0,0 3.976031,-20.799555 -8.882112,-19.653645 z"
     id="path153"
     inkscape:connector-curvature="0"
     style="fill:#dce6f2;stroke-width:0.26649001" />
  <path
     d="m 90.206625,115.61521 c 0,0 -9.460395,1.06596 -8.727548,4.39708 0,0 3.594951,-3.36044 8.727548,-4.39708 z"
     id="path155"
     inkscape:connector-curvature="0"
     style="opacity:0.1;stroke-width:0.26649001" />
  <path
     d="m 90.206625,116.94766 c 0,0 -5.369774,3.93072 -4.383761,4.19721 0.986014,0.26649 4.383761,-4.19721 4.383761,-4.19721 z"
     id="path157"
     inkscape:connector-curvature="0"
     style="opacity:0.1;stroke-width:0.26649001" />
  <path
     d="m 92.605035,118.5466 c 0,0 -1.532317,2.7555 -0.666225,2.6116 0.866093,-0.14391 0.666225,-2.6116 0.666225,-2.6116 z"
     id="path159"
     inkscape:connector-curvature="0"
     style="opacity:0.1;stroke-width:0.26649001" />
  <path
     d="m 191.10507,58.778211 c 0,0 -10.12662,-0.610262 -8.9434,6.494362 0,0 -0.23718,1.255167 0.90073,1.825456 0,0 0.0187,-0.53298 1.03932,-0.349102 a 4.6662402,4.6662402 0 0 0 1.1006,0.0533 2.2838194,2.2838194 0 0 0 1.34844,-0.556964 v 0 c 0,0 2.84878,-1.175221 3.95738,-5.833466 0,0 0.82079,-1.017992 0.79947,-1.279152 l -1.71087,0.732847 c 0,0 0.58361,1.233849 0.12259,2.259835 0,0 -0.0533,-2.214532 -0.38375,-2.163899 -0.0666,0 -0.88741,0.429049 -0.88741,0.429049 0,0 1.00467,2.14791 0.24517,3.712206 0,0 0.28781,-2.64891 -0.55963,-3.557641 l -1.20454,0.703533 c 0,0 1.17523,2.219862 0.37842,4.031994 0,0 0.2052,-2.779491 -0.63158,-3.86144 l -1.09261,0.850103 c 0,0 1.10593,2.190548 0.43171,3.693552 0,0 -0.0879,-3.235189 -0.66889,-3.48036 0,0 -0.95403,0.842108 -1.09793,1.188545 0,0 0.75416,1.598941 0.28514,2.427725 0,0 -0.28781,-2.155905 -0.53298,-2.166564 0,0 -0.95137,1.428386 -1.04997,2.39841 a 5.1858957,5.1858957 0 0 1 0.81812,-2.542315 2.8541081,2.8541081 0 0 0 -1.45503,0.754167 c 0,0 0.14657,-1.009997 1.68954,-1.097939 0,0 0.79947,-1.084614 0.99668,-1.151237 0,0 -1.53499,-0.127915 -2.46504,0.285144 0,0 0.81813,-0.951369 2.74752,-0.53298 l 1.06596,-0.879417 c 0,0 -2.02,-0.26649 -2.8781,0.02931 0,0 0.98602,-0.842108 3.16857,-0.229181 l 1.17256,-0.700869 c 0,0 -1.72153,-0.373086 -2.74752,-0.237176 0,0 1.08195,-0.583613 3.09129,0.04797 l 0.83944,-0.375751 c 0,0 -1.26316,-0.247835 -1.63092,-0.287809 -0.36775,-0.03997 -0.38907,-0.14124 -0.38907,-0.14124 a 4.3597767,4.3597767 0 0 1 2.36909,0.26649 c 0,0 1.79881,-0.64757 1.7615,-0.759496 z"
     id="path161"
     inkscape:connector-curvature="0"
     style="fill:#1877f2;stroke-width:0.26649001" />
  <path
     d="m 221.87401,94.311985 c 0,0 -10.12662,-0.61026 -8.9434,6.494375 0,0 -0.23718,1.25516 0.90073,1.82545 0,0 0.0187,-0.53298 1.04198,-0.3491 a 4.6662402,4.6662402 0 0 0 1.1006,0.0533 2.2811545,2.2811545 0 0 0 1.33245,-0.5543 v 0 c 0,0 2.85145,-1.17789 3.96004,-5.836135 0,0 0.81813,-1.01533 0.78615,-1.27649 l -1.71087,0.73018 c 0,0 0.58362,1.23385 0.12525,2.25984 0,0 -0.056,-2.21453 -0.38374,-2.1639 -0.0666,0 -0.89008,0.42905 -0.89008,0.42905 0,0 1.00733,2.15057 0.24784,3.71221 0,0 0.28781,-2.64892 -0.5623,-3.55765 l -1.19121,0.69554 c 0,0 1.17522,2.21986 0.37842,4.032005 0,0 0.2052,-2.779495 -0.63158,-3.861445 l -1.08995,0.85276 c 0,0 1.10327,2.18789 0.43172,3.690895 0,0 -0.0879,-3.235195 -0.66889,-3.480365 0,0 -0.95404,0.84211 -1.10061,1.18855 0,0 0.75683,1.598945 0.28781,2.427725 0,0 -0.28781,-2.155905 -0.53298,-2.166565 0,0 -0.95137,1.428385 -1.04997,2.398415 a 5.2018851,5.2018851 0 0 1 0.82079,-2.542325 2.8674326,2.8674326 0 0 0 -1.4577,0.754175 c 0,0 0.14923,-1.010005 1.69221,-1.097945 0,0 0.78615,-1.08461 0.99667,-1.15124 0,0 -1.53498,-0.12791 -2.46503,0.28515 0,0 0.81813,-0.95137 2.74485,-0.51966 l 1.06596,-0.87942 c 0,0 -2.02266,-0.26649 -2.87809,0.0293 0,0 0.98601,-0.84211 3.16856,-0.22918 l 1.17256,-0.70087 c 0,0 -1.72419,-0.37042 -2.75018,-0.23718 0,0 1.08462,-0.58361 3.09395,0.048 l 0.83945,-0.37575 c 0,0 -1.26317,-0.24784 -1.63359,-0.28781 -0.37042,-0.04 -0.38907,-0.14124 -0.38907,-0.14124 a 4.3677714,4.3677714 0 0 1 2.37176,0.26649 c 0,0 1.80147,-0.6529 1.76949,-0.76483 z"
     id="path163"
     inkscape:connector-curvature="0"
     style="opacity:0.1;fill:#1877f2;stroke-width:0.26649001" />
  <path
     d="m 160.35479,88.004171 c 0,0 2.33179,-9.884115 -4.8741,-9.918758 0,0 -1.19654,-0.447704 -1.95071,0.575618 0,0 0.51433,0.109261 0.16522,1.084614 a 4.7435223,4.7435223 0 0 0 -0.23984,1.06596 2.2891492,2.2891492 0 0 0 0.31713,1.420392 v 0 c 0,0 0.67422,3.011337 5.06331,4.898087 0,0 0.86342,0.980683 1.12459,0.991343 L 159.534,86.311959 c 0,0 -1.31646,0.365092 -2.24917,-0.26649 0,0 2.19321,0.322453 2.19587,0 0,-0.06662 -0.26649,-0.948704 -0.26649,-0.948704 0,0 -2.28915,0.623586 -3.70154,-0.39174 0,0 2.56097,0.735512 3.60294,0.05596 l -0.47968,-1.31113 c 0,0 -2.39841,0.780815 -4.03999,-0.314459 0,0 2.70487,0.676885 3.91474,0.03731 l -0.6529,-1.220524 c 0,0 -2.34511,0.714193 -3.71221,-0.205198 0,0 3.19788,0.463693 3.54432,-0.06396 0,0 -0.66622,-1.084615 -0.98335,-1.287147 0,0 -1.69487,0.474352 -2.44105,-0.13058 0,0 2.1719,0.08261 2.22253,-0.14657 0,0 -1.24451,-1.18055 -2.19321,-1.44704 a 5.2232043,5.2232043 0 0 1 2.36909,1.241843 2.8754273,2.8754273 0 0 0 -0.49567,-1.564296 c 0,0 0.97003,0.319788 0.79947,1.86543 0,0 0.93272,0.959364 0.96203,1.177886 0,0 0.38641,-1.48968 0.13858,-2.478358 0,0 0.79947,0.970024 0.0453,2.795481 l 0.68221,1.212529 c 0,0 0.61826,-1.945377 0.46103,-2.840783 0,0 0.66356,1.113928 -0.31446,3.160571 l 0.49301,1.276488 c 0,0 0.65823,-1.636249 0.70087,-2.664901 0,0 0.39174,1.167227 -0.57562,3.040651 l 0.22918,0.890077 c 0,0 0.45836,-1.20187 0.55963,-1.558967 0.10127,-0.357096 0.2052,-0.359761 0.2052,-0.359761 a 4.3651065,4.3651065 0 0 1 -0.66356,2.291814 c 0,0 0.3491,1.8601 0.46369,1.846776 z"
     id="path165"
     inkscape:connector-curvature="0"
     style="opacity:0.1;fill:#1877f2;stroke-width:0.26649001" />
  <path
     d="m 138.17749,91.372605 c 0,0 -8.13327,-6.083967 -11.04068,0.50633 0,0 -0.88741,0.91939 -0.2505,2.02 0,0 0.3038,-0.42905 1.06596,0.28247 a 4.6662402,4.6662402 0 0 0 0.89008,0.65024 2.2864843,2.2864843 0 0 0 1.43105,0.26649 v 0 c 0,0 3.02732,0.58361 6.51301,-2.69688 0,0 1.24451,-0.39973 1.36177,-0.63425 l -1.83612,-0.32245 c 0,0 -0.19187,1.35111 -1.13791,1.95604 0,0 1.16989,-1.88142 0.86609,-2.01733 -0.0613,-0.0293 -0.97802,-0.13325 -0.97802,-0.13325 0,0 -0.3411,2.35045 -1.83345,3.23786 0,0 1.69754,-2.05464 1.48702,-3.28049 l -1.39375,-0.0746 c 0,0 -0.23717,2.50234 -1.90007,3.57896 0,0 1.69754,-2.2092 1.59894,-3.57363 l -1.38042,0.11192 c 0,0 -0.27981,2.43306 -1.66823,3.31781 0,0 1.70287,-2.75018 1.35377,-3.2725 0,0 -1.26049,0.17855 -1.57229,0.38641 0,0 -0.2425,1.74284 -1.09527,2.18522 0,0 0.94604,-1.95871 0.75416,-2.09462 0,0 -1.58028,0.66889 -2.2012,1.43106 a 5.20455,5.20455 0 0 1 2.08395,-1.67356 2.8700975,2.8700975 0 0 0 -1.63092,-0.17055 c 0,0 0.67688,-0.76217 2.01466,0.0133 0,0 1.25251,-0.47169 1.4657,-0.41306 0,0 -1.21253,-0.95137 -2.2172,-1.11659 0,0 1.20987,-0.34644 2.58229,1.06596 l 1.38308,-0.14124 c 0,0 -1.53764,-1.33245 -2.41973,-1.556304 0,0 1.28715,-0.162559 2.7715,1.548304 l 1.36443,0.0613 c 0,0 -1.23385,-1.25784 -2.1639,-1.71087 0,0 1.22319,0.106596 2.55564,1.74018 l 0.90873,0.14657 c 0,0 -0.91939,-0.90074 -1.2072,-1.13525 -0.28781,-0.23451 -0.24783,-0.33311 -0.24783,-0.33311 a 4.378431,4.378431 0 0 1 1.83611,1.52432 c 0,0 1.85211,0.42905 1.88675,0.31979 z"
     id="path167"
     inkscape:connector-curvature="0"
     style="opacity:0.1;fill:#1877f2;stroke-width:0.26649001" />
  <path
     d="m 165.25554,34.847407 c 0,0 -8.13327,-6.086632 -11.04068,0.506331 0,0 -0.88741,0.919391 -0.2505,2.019995 0,0 0.3038,-0.429049 1.06596,0.282479 a 4.7408574,4.7408574 0 0 0 0.89274,0.647571 2.2838194,2.2838194 0 0 0 1.43105,0.26649 v 0 c 0,0 3.02733,0.583613 6.51302,-2.699544 0,0 1.24451,-0.39707 1.3591,-0.634246 l -1.83612,-0.317123 c 0,0 -0.18921,1.351104 -1.13791,1.956036 0,0 1.17256,-1.881419 0.86876,-2.017329 -0.0613,-0.02931 -0.97802,-0.133245 -0.97802,-0.133245 0,0 -0.35177,2.355772 -1.84411,3.237854 0,0 1.69487,-2.054638 1.48701,-3.280493 l -1.39374,-0.07462 c 0,0 -0.23984,2.502342 -1.90007,3.576296 0,0 1.69754,-2.209202 1.59894,-3.573631 l -1.37776,0.111926 c 0,0 -0.28248,2.435719 -1.67089,3.320466 0,0 1.70554,-2.750177 1.35643,-3.272498 0,0 -1.26049,0.178548 -1.57229,0.386411 0,0 -0.2425,1.742844 -1.09527,2.185218 0,0 0.94604,-1.958702 0.75417,-2.097277 0,0 -1.58029,0.671555 -2.20121,1.433717 a 5.1805659,5.1805659 0 0 1 2.08395,-1.673558 2.8514432,2.8514432 0 0 0 -1.63358,-0.170553 c 0,0 0.67955,-0.762162 2.01733,0.01332 0,0 1.2525,-0.474352 1.46569,-0.413059 0,0 -1.21253,-0.95137 -2.2172,-1.119258 0,0 1.2072,-0.343772 2.57963,1.06596 l 1.38308,-0.14124 c 0,0 -1.53498,-1.33245 -2.41973,-1.558967 0,0 1.28715,-0.159894 2.77416,1.550972 l 1.36443,0.05863 c 0,0 -1.23385,-1.257833 -2.16656,-1.708201 0,0 1.22585,0.106596 2.5583,1.74018 l 0.90607,0.146569 c 0,0 -0.92206,-0.890076 -1.20987,-1.119258 -0.28781,-0.229181 -0.24783,-0.330447 -0.24783,-0.330447 a 4.3704363,4.3704363 0 0 1 1.83611,1.524323 c 0,0 1.85211,0.405064 1.89741,0.303798 z"
     id="path169"
     inkscape:connector-curvature="0"
     style="opacity:0.1;fill:#1877f2;stroke-width:0.26649001" />
  <path
     d="m 196.33361,42.556963 c 0,0 -3.25118,-9.622954 -9.38312,-5.841461 0,0 -1.2525,0.26649 -1.3511,1.521658 0,0 0.49301,-0.181213 0.71153,0.831449 a 4.7968203,4.7968203 0 0 0 0.36509,1.041976 2.3078035,2.3078035 0 0 0 1.02332,1.036646 v 0 c 0,0 2.1639,2.198543 6.89676,1.471025 0,0 1.24984,0.378416 1.47902,0.247836 l -1.33245,-1.308466 c 0,0 -0.92205,1.004667 -2.04664,0.964694 0,0 2.03332,-0.884747 1.86543,-1.169891 -0.0346,-0.05596 -0.73018,-0.660896 -0.73018,-0.660896 0,0 -1.61493,1.74018 -3.34712,1.625589 0,0 2.56097,-0.730182 3.08329,-1.86543 l -1.10327,-0.850103 c 0,0 -1.61493,1.924058 -3.59495,1.86543 0,0 2.6649,-0.855433 3.33912,-2.038648 l -1.1992,-0.690209 c 0,0 -1.59894,1.846775 -3.25651,1.788148 0,0 2.96337,-1.297807 2.97136,-1.926723 0,0 -1.13791,-0.567624 -1.51366,-0.572954 0,0 -1.18855,1.297807 -2.13192,1.180551 0,0 1.88675,-1.079285 1.8068,-1.300471 0,0 -1.67889,-0.343772 -2.62493,-0.06662 a 5.1938904,5.1938904 0 0 1 2.66491,-0.199867 2.8754273,2.8754273 0 0 0 -1.24984,-1.06596 c 0,0 0.99134,-0.242506 1.6549,1.153901 0,0 1.30047,0.322453 1.43905,0.490342 0,0 -0.45837,-1.46836 -1.19121,-2.177223 0,0 1.19121,0.402399 1.51632,2.350442 l 1.22053,0.666225 c 0,0 -0.50367,-1.974691 -1.11127,-2.664901 0,0 1.15391,0.596938 1.40441,2.848779 l 1.09261,0.823454 c 0,0 -0.3038,-1.737515 -0.81546,-2.638251 0,0 0.9487,0.78348 1.11925,2.886087 l 0.66356,0.634246 c 0,0 -0.24517,-1.263163 -0.34643,-1.62026 -0.10127,-0.357096 -0.0187,-0.38108 -0.0187,-0.38108 a 4.3944204,4.3944204 0 0 1 0.64757,2.297144 c 0,0 1.28982,1.383083 1.38309,1.313795 z"
     id="path171"
     inkscape:connector-curvature="0"
     style="opacity:0.1;fill:#1877f2;stroke-width:0.26649001" />
  <path
     d="m 175.11567,43.031316 c 0,0 -10.09997,-1.124588 -9.26586,6.041328 0,0 -0.30113,1.241844 0.79947,1.86543 0,0 0.0453,-0.53298 1.06596,-0.293139 a 4.9034163,4.9034163 0 0 0 1.09794,0.109261 2.2918141,2.2918141 0 0 0 1.37243,-0.487676 v 0 c 0,0 2.9074,-1.031317 4.26384,-5.628269 0,0 0.86875,-0.972689 0.8501,-1.236514 l -1.74551,0.644906 c 0,0 0.53298,1.260497 0,2.2625 0,0 0.056,-2.214532 -0.26649,-2.179888 -0.0666,0 -0.90873,0.383745 -0.90873,0.383745 0,0 0.89541,2.198543 0.0586,3.73086 0,0 0.42105,-2.632921 -0.38108,-3.581625 l -1.23918,0.639576 c 0,0 1.06596,2.278489 0.17322,4.047983 0,0 0.34643,-2.766166 -0.43438,-3.888089 l -1.13258,0.79947 c 0,0 0.99134,2.241181 0.2425,3.709541 0,0 0.0773,-3.235189 -0.49034,-3.509674 0,0 -0.99667,0.79947 -1.15923,1.129918 0,0 0.67422,1.625589 0.16522,2.438384 0,0 -0.17855,-2.166564 -0.41306,-2.187883 0,0 -1.02332,1.377753 -1.17255,2.350441 a 5.1885606,5.1885606 0 0 1 0.9487,-2.499676 2.8674326,2.8674326 0 0 0 -1.49234,0.67955 c 0,0 0.1972,-0.999338 1.74284,-1.009998 0,0 0.83945,-1.041975 1.06596,-1.097938 0,0 -1.52699,-0.205198 -2.47836,0.159894 0,0 0.8661,-0.911396 2.76884,-0.381081 l 1.12192,-0.823454 c 0,0 -2.02799,-0.410395 -2.88609,-0.143905 0,0 1.02865,-0.79947 3.17656,-0.06662 l 1.2072,-0.642241 c 0,0 -1.70287,-0.458363 -2.73418,-0.375751 0,0 1.11126,-0.53298 3.08595,0.205197 l 0.8581,-0.333112 c 0,0 -1.24984,-0.311794 -1.6176,-0.370422 -0.36775,-0.05863 -0.38108,-0.159894 -0.38108,-0.159894 a 4.3837608,4.3837608 0 0 1 2.35577,0.383746 c 0,0 1.79615,-0.572953 1.77749,-0.684879 z"
     id="path173"
     inkscape:connector-curvature="0"
     style="opacity:0.1;fill:#1877f2;stroke-width:0.26649001" />
  <path
     d="m 263.48376,121.42469 c 0,0 -10.09464,-1.12459 -9.26053,6.03333 0,0 -0.30113,1.24185 0.79947,1.86543 0,0 0.0453,-0.53298 1.06596,-0.2958 a 4.6102773,4.6102773 0 0 0 1.09794,0.10926 2.2731598,2.2731598 0 0 0 1.37243,-0.48768 v 0 c 0,0 2.9074,-1.03131 4.25051,-5.6256 0,0 0.86876,-0.97535 0.85011,-1.23651 l -1.74551,0.64224 c 0,0 0.53298,1.26316 0,2.26516 0,0 0.056,-2.2172 -0.26649,-2.17989 -0.0666,0 -0.90874,0.38108 -0.90874,0.38108 0,0 0.89541,2.19855 0.0586,3.73086 0,0 0.42106,-2.63025 -0.38108,-3.58162 l -1.23918,0.64224 c 0,0 1.06596,2.27849 0.17589,4.04798 0,0 0.34377,-2.76616 -0.43705,-3.89075 l -1.13258,0.79947 c 0,0 0.99134,2.24118 0.24251,3.70687 0,0 0.0773,-3.23518 -0.49035,-3.507 0,0 -0.994,0.79947 -1.15923,1.12991 0,0 0.67689,1.62559 0.16523,2.43839 0,0 -0.17855,-2.16657 -0.41306,-2.18789 0,0 -1.02332,1.37776 -1.17256,2.35045 a 5.1885606,5.1885606 0 0 1 0.94871,-2.49968 2.8434485,2.8434485 0 0 0 -1.49235,0.67955 c 0,0 0.1972,-1.002 1.74285,-1.01266 0,0 0.8421,-1.04198 1.06596,-1.09528 0,0 -1.52699,-0.20786 -2.47836,0.15723 0,0 0.86609,-0.90873 2.7715,-0.37841 l 1.11925,-0.82346 c 0,0 -2.004,-0.37841 -2.87542,-0.11725 0,0 1.02865,-0.79947 3.17656,-0.0693 l 1.2072,-0.63958 c 0,0 -1.70287,-0.45836 -2.73419,-0.37575 0,0 1.11126,-0.53298 3.08595,0.2052 l 0.8581,-0.33578 c 0,0 -1.24984,-0.31179 -1.61759,-0.36775 -0.36776,-0.056 -0.38108,-0.1599 -0.38108,-0.1599 a 4.3677714,4.3677714 0 0 1 2.35577,0.38108 c 0,0 1.80147,-0.58361 1.77482,-0.6982 z"
     id="path175"
     inkscape:connector-curvature="0"
     style="opacity:0.1;fill:#1877f2;stroke-width:0.26649001" />
  <path
     d="m 278.9162,130.85311 c 0,0 -10.09464,-1.12193 -9.26053,6.03333 0,0 -0.29847,1.24184 0.79947,1.86543 0,0 0.0453,-0.53298 1.06596,-0.29314 a 4.7035488,4.7035488 0 0 0 1.09527,0.1066 2.3024737,2.3024737 0 0 0 1.3671,-0.48502 v 0 c 0,0 2.90474,-1.03131 4.24785,-5.62826 0,0 0.87142,-0.97269 0.8501,-1.23652 l -1.74551,0.64224 c 0,0 0.53298,1.26317 0,2.26517 0,0 0.056,-2.21453 -0.26649,-2.17989 -0.0666,0 -0.90873,0.38108 -0.90873,0.38108 0,0 0.89541,2.19854 0.0586,3.73086 0,0 0.42105,-2.63026 -0.38108,-3.57896 l -1.23918,0.63958 c 0,0 1.06596,2.27849 0.17588,4.04798 0,0 0.34378,-2.76617 -0.43704,-3.88809 l -1.13258,0.79947 c 0,0 0.99134,2.24118 0.24517,3.70954 0,0 0.0746,-3.23785 -0.49301,-3.50967 0,0 -0.99401,0.79947 -1.15923,1.12992 0,0 0.67689,1.62558 0.16522,2.43838 0,0 -0.17854,-2.16656 -0.41306,-2.18788 0,0 -1.02332,1.37775 -1.16989,2.35044 a 5.2018851,5.2018851 0 0 1 0.94604,-2.49968 2.8674326,2.8674326 0 0 0 -1.49234,0.67955 c 0,0 0.19987,-1.002 1.74551,-1.01 0,0 0.83944,-1.04197 1.06596,-1.09794 0,0 -1.52699,-0.20519 -2.47836,0.1599 0,0 0.86609,-0.9114 2.7715,-0.38108 l 1.11926,-0.82346 c 0,0 -2.00401,-0.37841 -2.87543,-0.11725 0,0 1.02865,-0.79947 3.17656,-0.0666 l 1.2072,-0.64224 c 0,0 -1.70287,-0.45837 -2.73419,-0.37576 0,0 1.11127,-0.53298 3.08596,0.2052 l 0.85809,-0.33311 c 0,0 -1.24983,-0.31179 -1.61493,-0.37042 -0.36509,-0.0586 -0.38374,-0.1599 -0.38374,-0.1599 a 4.3837608,4.3837608 0 0 1 2.35577,0.38375 c 0,0 1.80947,-0.58894 1.78282,-0.70353 z"
     id="path177"
     inkscape:connector-curvature="0"
     style="opacity:0.1;fill:#1877f2;stroke-width:0.26649001" />
  <path
     d="m 244.65358,51.436411 c 0,0 -8.13328,-6.083967 -11.04068,0.506331 0,0 -0.88742,0.91939 -0.2505,2.019994 0,0 0.30379,-0.429049 1.06596,0.28248 a 4.6662402,4.6662402 0 0 0 0.89007,0.650235 2.2891492,2.2891492 0 0 0 1.43105,0.26649 v 0 c 0,0 3.02733,0.583613 6.51568,-2.696879 0,0 1.24185,-0.399735 1.3591,-0.634246 l -1.83078,-0.330448 c 0,0 -0.19188,1.351105 -1.13792,1.956037 0,0 1.1699,-1.881419 0.8661,-2.017329 -0.0613,-0.02931 -0.97536,-0.133245 -0.97536,-0.133245 0,0 -0.34377,2.350442 -1.83611,3.237853 0,0 1.69754,-2.054638 1.48701,-3.280492 l -1.39374,-0.07462 c 0,0 -0.23718,2.502341 -1.90007,3.578961 0,0 1.7002,-2.209202 1.59894,-3.573631 l -1.38042,0.111926 c 0,0 -0.26649,2.433054 -1.66823,3.3178 0,0 1.70554,-2.750177 1.35377,-3.272497 0,0 -1.2605,0.178548 -1.57229,0.386411 0,0 -0.23984,1.742844 -1.09261,2.185218 0,0 0.94337,-1.958702 0.7515,-2.094612 0,0 -1.58029,0.66889 -2.20121,1.431052 a 5.20455,5.20455 0 0 1 2.08395,-1.673558 2.8700975,2.8700975 0 0 0 -1.63091,-0.170553 c 0,0 0.67955,-0.762162 2.01733,0.01332 0,0 1.24983,-0.471687 1.46303,-0.413059 0,0 -1.21253,-0.95137 -2.2172,-1.116594 0,0 1.20986,-0.346437 2.58229,1.06596 l 1.38308,-0.141239 c 0,0 -1.53498,-1.33245 -2.41973,-1.556302 0,0 1.28715,-0.162559 2.7715,1.548307 l 1.36709,0.06129 c 0,0 -1.23651,-1.257833 -2.16656,-1.710866 0,0 1.22585,0.106596 2.55564,1.74018 l 0.90873,0.146569 c 0,0 -0.91939,-0.900736 -1.2072,-1.135247 -0.28781,-0.234511 -0.24517,-0.311794 -0.24517,-0.311794 a 4.3810959,4.3810959 0 0 1 1.83345,1.524323 c 0,0 1.84677,0.415725 1.88142,0.306464 z"
     id="path179"
     inkscape:connector-curvature="0"
     style="opacity:0.1;fill:#1877f2;stroke-width:0.26649001" />
  <path
     d="m 250.93741,95.359295 c 0,0 -2.80347,-9.761529 -9.10863,-6.257185 0,0 -1.26316,0.194538 -1.42039,1.457705 0,0 0.501,-0.15723 0.67422,0.86342 a 4.724868,4.724868 0 0 0 0.31979,1.06596 2.2891492,2.2891492 0 0 0 0.97535,1.08728 v 0 c 0,0 2.06264,2.29182 6.82215,1.78016 0,0 1.23118,0.43171 1.46569,0.31445 l -1.2605,-1.36975 c 0,0 -0.96735,0.96469 -2.08661,0.87408 0,0 2.06796,-0.79947 1.90807,-1.08461 -0.032,-0.0586 -0.69821,-0.69554 -0.69821,-0.69554 0,0 -1.68954,1.66823 -3.4164,1.47369 0,0 2.59295,-0.61293 3.16324,-1.7162 l -1.06596,-0.90073 c 0,0 -1.70021,1.84944 -3.6749,1.70553 0,0 2.68622,-0.73817 3.42706,-1.88675 l -1.16723,-0.7435 c 0,0 -1.69221,1.77216 -3.33379,1.63891 0,0 3.01934,-1.16456 3.05665,-1.79081 0,0 -1.11393,-0.61826 -1.48968,-0.63958 0,0 -1.24451,1.24184 -2.19055,1.08195 0,0 1.93472,-0.99401 1.86543,-1.21786 0,0 -1.6629,-0.41839 -2.6196,-0.18654 a 5.1992202,5.1992202 0 0 1 2.6649,-0.0773 2.8594379,2.8594379 0 0 0 -1.1992,-1.119262 c 0,0 1.002,-0.199868 1.59894,1.225852 0,0 1.28181,0.37842 1.41506,0.5543 0,0 -0.39174,-1.489678 -1.09261,-2.227855 0,0 1.17256,0.453033 1.40973,2.414395 l 1.18855,0.72219 c 0,0 -0.41573,-1.99867 -0.99135,-2.702207 0,0 1.12459,0.647567 1.27649,2.907407 l 1.06596,0.87142 c 0,0 -0.22652,-1.74817 -0.69554,-2.6649 0,0 0.91406,0.82612 0.98868,2.93139 l 0.63425,0.66623 c 0,0 -0.18655,-1.27383 -0.26649,-1.63625 -0.0799,-0.36243 0,-0.41306 0,-0.41306 a 4.3677714,4.3677714 0 0 1 0.5463,2.32379 c 0,0 1.2152,1.43372 1.31113,1.36976 z"
     id="path181"
     inkscape:connector-curvature="0"
     style="opacity:0.1;fill:#1877f2;stroke-width:0.26649001" />
  <path
     d="m 188.46682,117.35539 c 0,0 -5.44439,-8.57565 -10.4997,-3.44305 0,0 -1.15657,0.53298 -0.95404,1.7988 0,0 0.43971,-0.29314 0.89274,0.63958 a 4.5623091,4.5623091 0 0 0 0.60227,0.92205 2.2758247,2.2758247 0 0 0 1.23918,0.7675 v 0 c 0,0 2.62493,1.62026 7.04866,-0.2132 0,0 1.30314,0.0693 1.49501,-0.10926 l -1.59894,-0.95936 c 0,0 -0.65823,1.1992 -1.75884,1.42572 0,0 1.76417,-1.33245 1.52699,-1.57762 -0.0453,-0.048 -0.86609,-0.46902 -0.86609,-0.46902 0,0 -1.1539,2.07329 -2.86477,2.37442 0,0 2.3158,-1.31912 2.55564,-2.53965 l -1.27649,-0.56229 c 0,0 -1.11126,2.25184 -3.04598,2.6649 0,0 2.37176,-1.46303 2.75818,-2.77416 l -1.33246,-0.38375 c 0,0 -1.12458,2.17723 -2.73685,2.51034 0,0 2.56897,-1.9667 2.42773,-2.57962 0,0 -1.24185,-0.27982 -1.59894,-0.19454 0,0 -0.84478,1.54297 -1.79881,1.6549 0,0 1.57762,-1.49767 1.44704,-1.69488 0,0 -1.71353,0.0666 -2.5663,0.55963 a 5.1858957,5.1858957 0 0 1 2.54232,-0.82612 2.8594379,2.8594379 0 0 0 -1.46303,-0.73817 c 0,0 0.9034,-0.47169 1.86543,0.72751 0,0 1.33245,0 1.51632,0.13325 0,0 -0.79947,-1.33245 -1.67622,-1.83079 0,0 1.2525,0.1066 2.03066,1.9214 l 1.34577,0.35709 c 0,0 -0.96203,-1.7988 -1.71087,-2.31313 0,0 1.2605,0.3038 2.04132,2.43305 l 1.25783,0.53298 c 0,0 -0.70886,-1.61226 -1.42039,-2.36643 0,0 1.1086,0.53298 1.77216,2.53432 l 0.79947,0.46103 c 0,0 -0.53298,-1.16989 -0.72219,-1.49234 -0.18921,-0.32246 -0.11459,-0.39707 -0.11459,-0.39707 a 4.3704363,4.3704363 0 0 1 1.17522,2.07595 c 0,0 1.59361,1.06063 1.66556,0.97003 z"
     id="path183"
     inkscape:connector-curvature="0"
     style="opacity:0.1;fill:#1877f2;stroke-width:0.26649001" />
  <path
     d="m 224.24844,73.539093 c 0,0 -5.1779,-8.738208 -10.39311,-3.765504 0,0 -1.17256,0.506331 -1.00734,1.769494 0,0 0.44504,-0.28248 0.87143,0.66356 a 4.6049475,4.6049475 0 0 0 0.57295,0.943374 2.2625002,2.2625002 0 0 0 1.21519,0.79947 v 0 c 0,0 2.57163,1.700207 7.05133,0 0,0 1.30047,0.109261 1.49767,-0.06396 l -1.56429,-1.007332 c 0,0 -0.69288,1.175221 -1.80147,1.369758 0,0 1.80413,-1.287147 1.57762,-1.529652 -0.048,-0.05063 -0.85277,-0.498337 -0.85277,-0.498337 0,0 -1.21786,2.038649 -2.93139,2.286485 0,0 2.35577,-1.247174 2.63025,-2.457038 l -1.25783,-0.591608 c 0,0 -1.18055,2.219862 -3.12859,2.574293 0,0 2.41706,-1.388413 2.84345,-2.686219 l -1.31646,-0.426384 c 0,0 -1.19388,2.13192 -2.81414,2.425059 0,0 2.62759,-1.886749 2.50501,-2.502341 0,0 -1.23119,-0.319788 -1.59894,-0.245171 0,0 -0.89274,1.516328 -1.84944,1.59894 0,0 1.62292,-1.444376 1.50034,-1.646908 0,0 -1.7162,0.01332 -2.58229,0.479682 a 5.2018851,5.2018851 0 0 1 2.5663,-0.746172 2.8647677,2.8647677 0 0 0 -1.44171,-0.783481 c 0,0 0.91939,-0.445038 1.86543,0.783481 0,0 1.33245,0.0453 1.51099,0.181213 0,0 -0.75416,-1.33245 -1.61759,-1.881419 0,0 1.24717,0.143904 1.96936,1.982685 l 1.33245,0.399735 c 0,0 -0.9034,-1.828121 -1.63891,-2.366431 0,0 1.2525,0.343772 1.96669,2.494346 l 1.23918,0.578284 c 0,0 -0.65823,-1.633584 -1.33245,-2.39841 0,0 1.08995,0.567623 1.69488,2.587618 l 0.78081,0.485012 c 0,0 -0.501,-1.185881 -0.67688,-1.513664 -0.17588,-0.327782 -0.10127,-0.399735 -0.10127,-0.399735 a 4.378431,4.378431 0 0 1 1.11127,2.110601 c 0,0 1.52698,1.084615 1.60427,0.996673 z"
     id="path185"
     inkscape:connector-curvature="0"
     style="fill:#1877f2;stroke-width:0.26649001" />
  <path
     d="m 191.48882,91.913575 c 0,0 0.26649,-10.153265 -6.7875,-8.722214 0,0 -1.26316,-0.194537 -1.79614,0.962029 0,0 0.53298,0 0.38374,1.025987 a 4.6795647,4.6795647 0 0 0 -0.016,1.103268 2.2784896,2.2784896 0 0 0 0.5996,1.332451 v 0 c 0,0 1.27116,2.808809 5.96405,3.762839 0,0 1.04198,0.78615 1.30314,0.74351 l -0.79947,-1.68422 c 0,0 -1.21253,0.62359 -2.25451,0.19987 0,0 2.21187,-0.13058 2.15058,-0.4557 0,-0.0666 -0.45837,-0.876753 -0.45837,-0.876753 0,0 -2.11593,1.079283 -3.70154,0.370423 0,0 2.6649,0.19987 3.53632,-0.676886 l -0.74351,-1.180551 c 0,0 -2.17989,1.247173 -4.01867,0.511661 0,0 2.78482,0.111926 3.84012,-0.759497 l -0.88741,-1.06596 c 0,0 -2.15057,1.177886 -3.6749,0.554299 0,0 3.22986,-0.194537 3.46437,-0.78348 0,0 -0.87408,-0.924721 -1.22585,-1.06596 0,0 -1.56163,0.79947 -2.4144,0.367756 0,0 2.13192,-0.357097 2.14525,-0.594273 0,0 -1.4577,-0.903401 -2.44105,-0.970024 a 5.1885606,5.1885606 0 0 1 2.57163,0.735513 2.8647677,2.8647677 0 0 0 -0.79947,-1.431051 c 0,0 1.01532,0.11459 1.1539,1.652238 0,0 1.11126,0.751501 1.18321,0.959364 0,0 0.0773,-1.537648 -0.36775,-2.454373 0,0 0.98068,0.786145 0.61292,2.726193 l 0.91407,1.04997 c 0,0 0.20786,-2.030654 -0.12526,-2.875427 0,0 0.87409,0.956699 0.33578,3.157907 l 0.73818,1.148572 c 0,0 0.31446,-1.73485 0.14657,-2.755507 0,0 0.61826,1.06596 0.0533,3.093949 l 0.40506,0.826117 c 0,0 0.2052,-1.271155 0.23185,-1.641577 0.0266,-0.370421 0.12791,-0.394405 0.12791,-0.394405 a 4.3757661,4.3757661 0 0 1 -0.18387,2.379752 c 0,0 0.71685,1.75884 0.83411,1.72419 z"
     id="path187"
     inkscape:connector-curvature="0"
     style="fill:#1877f2;stroke-width:0.26649001" />
  <ellipse
     cx="203.15042"
     cy="219.71419"
     rx="7.1765761"
     ry="1.2125297"
     id="ellipse189"
     style="opacity:0.1;fill:#1877f2;stroke-width:0.26649001" />
  <ellipse
     cx="176.98911"
     cy="238.12332"
     rx="7.1765761"
     ry="1.2125297"
     id="ellipse191"
     style="opacity:0.1;fill:#1877f2;stroke-width:0.26649001" />
  <ellipse
     cx="41.702778"
     cy="228.69225"
     rx="7.1765761"
     ry="1.2125297"
     id="ellipse193"
     style="opacity:0.1;fill:#1877f2;stroke-width:0.26649001" />
  <ellipse
     cx="231.42235"
     cy="236.9108"
     rx="7.1765761"
     ry="1.2125297"
     id="ellipse195"
     style="opacity:0.1;fill:#1877f2;stroke-width:0.26649001" />
  <ellipse
     cx="238.89473"
     cy="221.52632"
     rx="10.715564"
     ry="1.8121321"
     id="ellipse197"
     style="fill:#1877f2;stroke-width:0.26649001" />
  <path
     d="m 243.33712,218.5603 a 3.0939491,3.0939491 0 0 0 1.02065,-1.54031 c 0.13325,-0.61293 -0.12791,-1.34578 -0.71152,-1.56963 -0.65557,-0.2505 -1.35644,0.20253 -1.88942,0.6609 -0.53298,0.45836 -1.13791,0.98334 -1.83345,0.88741 a 2.7981452,2.7981452 0 0 0 0.86343,-2.61427 1.095274,1.095274 0 0 0 -0.23984,-0.53298 c -0.3651,-0.38907 -1.02333,-0.22119 -1.46037,0.0853 -1.38575,0.97535 -1.77216,2.85677 -1.78015,4.55165 -0.13858,-0.61026 -0.0213,-1.24718 -0.024,-1.86543 -0.003,-0.61826 -0.17588,-1.33245 -0.7062,-1.65757 a 2.107936,2.107936 0 0 0 -1.06596,-0.26649 c -0.62358,-0.0213 -1.31912,0.04 -1.74284,0.49567 -0.53298,0.56496 -0.39174,1.51633 0.0666,2.13192 0.45837,0.61559 1.15923,1.01266 1.80414,1.44438 a 4.031994,4.031994 0 0 1 1.28981,1.22852 1.2525031,1.2525031 0 0 1 0.0933,0.21852 h 3.90675 a 10.776856,10.776856 0 0 0 2.40907,-1.65757 z"
     id="path199"
     inkscape:connector-curvature="0"
     style="fill:#1877f2;stroke-width:0.26649001" />
  <path
     d="m 36.884638,223.05599 c 0,0 4.090622,-0.12525 5.3298,-1.00467 1.239179,-0.87942 6.297159,-1.92672 6.603623,-0.51699 0.306463,1.40973 6.150589,7.00602 1.529652,7.04333 -4.620936,0.0373 -10.736882,-0.71952 -11.968066,-1.47103 -1.231184,-0.7515 -1.495009,-4.05064 -1.495009,-4.05064 z"
     id="path201"
     inkscape:connector-curvature="0"
     style="fill:#a8a8a8;stroke-width:0.26649001" />
  <path
     d="m 50.424996,228.08732 c -4.620937,0.0373 -10.736883,-0.71952 -11.968067,-1.47103 -0.938045,-0.57029 -1.311131,-2.61959 -1.436381,-3.56563 h -0.13591 c 0,0 0.26649,3.30181 1.489679,4.05065 1.223189,0.74883 7.34713,1.50833 11.968067,1.47102 1.33245,0 1.793477,-0.48501 1.769493,-1.18855 -0.186543,0.42905 -0.695539,0.69554 -1.686881,0.70354 z"
     id="path203"
     inkscape:connector-curvature="0"
     style="opacity:0.2;stroke-width:0.26649001" />
</svg>
