<?xml version="1.0" encoding="UTF-8" standalone="no"?>
<svg
   xmlns:dc="http://purl.org/dc/elements/1.1/"
   xmlns:cc="http://creativecommons.org/ns#"
   xmlns:rdf="http://www.w3.org/1999/02/22-rdf-syntax-ns#"
   xmlns:svg="http://www.w3.org/2000/svg"
   xmlns="http://www.w3.org/2000/svg"
   viewBox="0 0 858.49335 580.09332"
   height="580.09332"
   width="858.49335"
   xml:space="preserve"
   id="svg2"
   version="1.1"><metadata
     id="metadata8"><rdf:RDF><cc:Work
         rdf:about=""><dc:format>image/svg+xml</dc:format><dc:type
           rdf:resource="http://purl.org/dc/dcmitype/StillImage" /></cc:Work></rdf:RDF></metadata><defs
     id="defs6"><clipPath
       id="clipPath22"
       clipPathUnits="userSpaceOnUse"><path
         id="path20"
         d="m 4351.93,1044.65 c 0,-515.252 417.7,-932.951 932.96,-932.951 515.25,0 932.95,417.699 932.95,932.951 0,515.26 -417.7,932.95 -932.95,932.95 -515.26,0 -932.96,-417.69 -932.96,-932.95" /></clipPath><clipPath
       id="clipPath62"
       clipPathUnits="userSpaceOnUse"><path
         id="path60"
         d="m 4351.93,1044.65 c 0,-515.252 417.7,-932.951 932.96,-932.951 515.25,0 932.95,417.699 932.95,932.951 0,515.26 -417.7,932.95 -932.95,932.95 -515.26,0 -932.96,-417.69 -932.96,-932.95" /></clipPath><clipPath
       id="clipPath68"
       clipPathUnits="userSpaceOnUse"><path
         id="path66"
         d="m 5090.5,849.41 c 0,0 156.4,-85.199 336.99,4.07 0,0 107.96,44.161 223.01,59.571 83.48,11.187 244.79,3.929 333.99,16.41 0,0 10.82,-288.402 -10.39,-373.25 l -119,-19.781 c 0,0 11.4,-264.961 2.92,-371.02 C 5849.53,59.3516 5089.23,-17.5313 4855.89,54.6016 l -22.96,354.0394 -266.7,118.16 c 0,0 37.15,173.687 171.6,262.23 101.46,66.821 352.67,60.379 352.67,60.379" /></clipPath><clipPath
       id="clipPath88"
       clipPathUnits="userSpaceOnUse"><path
         id="path86"
         d="m 4351.93,1044.65 c 0,-515.252 417.7,-932.951 932.96,-932.951 515.25,0 932.95,417.699 932.95,932.951 0,515.26 -417.7,932.95 -932.95,932.95 -515.26,0 -932.96,-417.69 -932.96,-932.95" /></clipPath><clipPath
       id="clipPath252"
       clipPathUnits="userSpaceOnUse"><path
         id="path250"
         d="m 2072.86,3387.24 c 0,-515.25 417.69,-932.95 932.95,-932.95 515.25,0 932.95,417.7 932.95,932.95 0,515.26 -417.7,932.95 -932.95,932.95 -515.26,0 -932.95,-417.69 -932.95,-932.95" /></clipPath><clipPath
       id="clipPath290"
       clipPathUnits="userSpaceOnUse"><path
         id="path288"
         d="m 2072.86,3387.24 c 0,-515.25 417.69,-932.95 932.95,-932.95 515.25,0 932.95,417.7 932.95,932.95 0,515.26 -417.7,932.95 -932.95,932.95 -515.26,0 -932.95,-417.69 -932.95,-932.95" /></clipPath><clipPath
       id="clipPath296"
       clipPathUnits="userSpaceOnUse"><path
         id="path294"
         d="m 3174.33,3000.14 c 0,0 198.22,43.09 324.62,91.93 0,0 17.24,-51.71 57.45,-71.82 40.22,-20.11 275.78,-2.87 359.09,-106.29 83.31,-103.42 37.35,-416.55 37.35,-416.55 0,0 -709.56,-106.29 -1215.16,-2.87 0,0 -5.74,327.49 114.91,382.07 120.65,54.58 336.11,17.24 321.74,123.53" /></clipPath><clipPath
       id="clipPath314"
       clipPathUnits="userSpaceOnUse"><path
         id="path312"
         d="m 2072.86,3387.24 c 0,-515.25 417.69,-932.95 932.95,-932.95 515.25,0 932.95,417.7 932.95,932.95 0,515.26 -417.7,932.95 -932.95,932.95 -515.26,0 -932.95,-417.69 -932.95,-932.95" /></clipPath><clipPath
       id="clipPath336"
       clipPathUnits="userSpaceOnUse"><path
         id="path334"
         d="m 2072.86,3387.24 c 0,-515.25 417.69,-932.95 932.95,-932.95 515.25,0 932.95,417.7 932.95,932.95 0,515.26 -417.7,932.95 -932.95,932.95 -515.26,0 -932.95,-417.69 -932.95,-932.95" /></clipPath><clipPath
       id="clipPath342"
       clipPathUnits="userSpaceOnUse"><path
         id="path340"
         d="m 2331.14,2933.85 222.17,65.64 c 0,0 237.31,-666.5 176.72,-716.99 -60.59,-50.49 -166.62,-161.58 -267.61,45.44 -100.98,207.02 -131.28,605.91 -131.28,605.91" /></clipPath><clipPath
       id="clipPath380"
       clipPathUnits="userSpaceOnUse"><path
         id="path378"
         d="m 1240.66,2927.64 c -15.08,52.46 -148.84,99.91 -221.77,115.91 C 960.547,2940.96 898.262,2886.63 782.004,2876.02 487.91,2869.85 415.988,3128.05 415.988,3128.05 22.207,3082.74 115.738,2724.52 115.738,2724.52 l 367.375,-29.14 93.539,-288.36 c 0,0 375.067,331.73 688.228,299.66 0.07,64.09 -4.28,151.62 -24.22,220.96" /></clipPath></defs><g
     transform="matrix(1.3333333,0,0,-1.3333333,0,580.09333)"
     id="g10"><g
       transform="scale(0.1)"
       id="g12"><path
         id="path14"
         style="fill:#d9e9ef;fill-opacity:1;fill-rule:nonzero;stroke:none"
         d="m 5861.01,310.801 c -0.91,109.34 -5.91,225.629 -5.91,225.629 l 119,19.781 c 21.21,84.848 10.39,373.25 10.39,373.25 -89.2,-12.481 -250.51,-5.223 -333.99,-16.41 -115.05,-15.41 -223.01,-59.571 -223.01,-59.571 -62.09,-30.691 -121.3,-40.761 -172.3,-40.761 -97.33,0 -164.69,36.691 -164.69,36.691 0,0 -6.54,0.168 -17.97,0.168 -59.28,0 -249.63,-4.527 -334.7,-60.547 -134.45,-88.543 -171.6,-262.23 -171.6,-262.23 l 28.56,-12.66 c -1.99,-18.969 -5.25,-50.52 -8.83,-87.481 -145.62,164.57 -234.03,380.961 -234.03,617.99 0,515.26 417.7,932.95 932.96,932.95 515.25,0 932.95,-417.69 932.95,-932.95 0,-297.822 -139.55,-563.041 -356.83,-733.849" /><g
         id="g16"><g
           clip-path="url(#clipPath22)"
           id="g18"><path
             id="path24"
             style="fill:#a1444b;fill-opacity:1;fill-rule:nonzero;stroke:none"
             d="m 5363.42,1060.01 -281.12,227.08 c 0,0 65.85,-327.871 3.02,-460.891 115.11,-60.828 232.18,-34.14 342.17,27.281 -30.38,80.168 -42.89,243.01 -42.89,243.01 l -21.18,-36.48" /><path
             id="path26"
             style="fill:#762c33;fill-opacity:1;fill-rule:nonzero;stroke:none"
             d="m 5112.67,1080.48 c 11.07,-75.18 70.06,-181.25 151.64,-196.64 43.53,-8.211 102.31,-8.508 151.68,6.699 -22.06,84.762 -31.39,205.951 -31.39,205.951 l -21.18,-36.48 -281.12,227.08 c 0,0 18.62,-92.73 26.61,-199.57 1.88,-1.5 3.28,-3.78 3.76,-7.04" /><path
             id="path28"
             style="fill:#a1444b;fill-opacity:1;fill-rule:nonzero;stroke:none"
             d="m 5398.67,1708.69 c -155.15,31.16 -308.07,-44.7 -347.64,-193.06 0,0 -0.47,-33.33 3.47,-82.48 -41.85,16.03 -51.02,-14.71 -36.9,-120.94 15.82,-119.02 66.77,-105.3 80.06,-98.05 18.26,-51.39 42.25,-124.48 74.39,-162.03 147.2,-171.939 420.11,-103.732 420.47,211.63 0.36,307.17 -81.73,422.41 -193.85,444.93" /><path
             id="path30"
             style="fill:#29202e;fill-opacity:1;fill-rule:nonzero;stroke:none"
             d="m 5012.72,1351.44 c 0,0 25.46,90.51 65.05,39.6 39.6,-50.91 -37.94,-423.56 161.21,-458.188 325.26,-56.571 379,50.91 350.72,347.878 0,0 -2.83,-161.21 -42.43,-169.7 -39.59,-8.48 -19.8,93.34 -67.88,107.48 -48.08,14.14 -218.07,22.62 -214.95,-67.88 2.83,-82.02 -50.91,-84.85 -73.54,-53.74 -26.82,36.88 -76.36,342.23 -48.08,364.86 28.29,22.62 67.88,42.42 42.43,166.86 0,0 127.27,-65.05 195.15,-56.56 67.88,8.48 -19.8,59.39 -19.8,59.39 0,0 223.44,-93.33 257.38,16.97 33.94,110.31 -186.67,101.82 -186.67,101.82 0,0 152.73,0 135.76,48.08 -16.97,48.08 -166.87,-8.48 -166.87,-8.48 0,0 101.82,79.19 67.88,90.51 -33.94,11.31 -118.79,-76.37 -118.79,-76.37 0,0 39.6,67.88 -25.46,67.88 -65.05,0 -203.63,-110.3 -226.26,-169.7 l 67.88,22.63 c 0,0 -107.66,95.86 -183.84,-31.11 -59.4,-98.99 -33.94,-229.1 31.11,-342.23" /><path
             id="path32"
             style="fill:#762c33;fill-opacity:1;fill-rule:nonzero;stroke:none"
             d="m 5076.95,1249.19 c -4.03,2.24 -7.61,5.12 -10.95,8.37 -3.24,3.33 -6.37,7 -8.4,11.83 -1,2.4 -1.87,5.14 -1.78,8.29 0.06,3.12 1.26,6.59 3.33,9.16 4.23,5.28 9.83,6.74 14.58,8.04 l -4.57,-5.5 c -0.01,8.09 0.05,16.46 -0.44,24.66 -0.33,8.23 -0.96,16.42 -2.05,24.48 -1.18,7.96 -2.63,16.12 -6.23,22.74 -1.79,3.27 -4.32,5.95 -7.88,6.67 -3.57,0.76 -7.77,-0.54 -11.56,-2.35 3.08,2.84 6.87,5.53 11.81,5.74 5.01,0.22 9.65,-3.05 12.51,-6.62 5.85,-7.41 8.46,-16.01 10.62,-24.4 2.07,-8.45 3.21,-17 4.01,-25.53 0.59,-8.57 1.1,-17.01 0.78,-25.71 l -0.17,-4.7 -4.4,-0.8 c -3.75,-0.69 -7.14,-2.16 -8.78,-3.69 -1.61,-1.38 -2.16,-3.95 -1.43,-7.72 1.66,-7.38 6.44,-15.2 11,-22.96" /><path
             id="path34"
             style="fill:#29202e;fill-opacity:1;fill-rule:nonzero;stroke:none"
             d="m 5233.19,1348.92 c 3.38,-19.73 13.12,-34.51 21.75,-33.04 8.62,1.48 12.88,18.67 9.5,38.39 -3.38,19.72 -13.11,34.51 -21.74,33.03 -8.63,-1.48 -12.88,-18.66 -9.51,-38.38" /><path
             id="path36"
             style="fill:#29202e;fill-opacity:1;fill-rule:nonzero;stroke:none"
             d="m 5471.52,1375.14 c 2.16,-19.9 10.97,-35.25 19.68,-34.31 8.7,0.95 14,17.85 11.83,37.74 -2.16,19.89 -10.97,35.25 -19.68,34.3 -8.7,-0.95 -14,-17.84 -11.83,-37.73" /><path
             id="path38"
             style="fill:#29202e;fill-opacity:1;fill-rule:nonzero;stroke:none"
             d="m 5303.21,1434.93 c 0,0 -2.58,-0.12 -6.62,-0.22 -3.81,-0.05 -9.26,-0.12 -15.81,-0.2 -6.22,-0.14 -13.03,0 -19.89,-0.3 -3.44,0.03 -6.85,-0.49 -10.26,-0.45 -3.31,-0.66 -6.8,-0.27 -9.99,-1.13 l -4.91,-0.57 -4.75,-1 c -3.25,-0.43 -6.25,-1.44 -9.37,-2.2 -3.24,-0.51 -6.04,-1.97 -9.1,-2.83 -3.15,-0.74 -5.88,-2.12 -8.65,-3.24 -2.67,-1.22 -5.76,-1.83 -7.96,-3.11 -2.24,-1.21 -4.52,-2.09 -6.37,-2.9 -3.74,-1.59 -6.3,-2.39 -6.3,-2.39 0,0 0.09,2.46 1.01,6.6 0.48,2.05 1.04,4.64 2.04,7.42 0.78,2.95 2.55,5.72 4.36,8.94 1.9,3.16 4.02,6.66 7.17,9.59 3.08,2.97 6.2,6.54 10.4,8.88 4.05,2.58 8.34,5.31 13.24,6.75 2.4,0.82 4.8,1.84 7.31,2.41 l 7.58,1.31 c 5.11,0.9 10.14,0.47 15.1,0.34 4.85,-0.65 9.66,-1.3 14,-2.76 8.82,-2.52 16.19,-6.74 21.93,-10.93 5.68,-4.4 9.77,-8.77 12.27,-12.24 2.57,-3.39 3.57,-5.77 3.57,-5.77" /><path
             id="path40"
             style="fill:#29202e;fill-opacity:1;fill-rule:nonzero;stroke:none"
             d="m 5556.93,1456.06 c 0,0 -2.58,0.04 -6.62,0.18 -3.81,0.19 -9.26,0.45 -15.79,0.77 -6.22,0.25 -13.01,0.8 -19.88,0.92 -3.43,0.24 -6.86,-0.07 -10.26,0.18 -3.35,-0.46 -6.81,0.14 -10.04,-0.52 l -4.94,-0.26 -4.8,-0.71 c -3.27,-0.23 -6.33,-1.06 -9.49,-1.63 -3.27,-0.3 -6.15,-1.6 -9.26,-2.26 -3.19,-0.55 -6,-1.76 -8.83,-2.71 -2.74,-1.05 -5.85,-1.48 -8.14,-2.61 -2.31,-1.07 -4.63,-1.81 -6.53,-2.51 -3.83,-1.36 -6.44,-2 -6.44,-2 0,0 0.25,2.45 1.42,6.52 0.61,2.02 1.32,4.58 2.49,7.29 0.96,2.9 2.89,5.55 4.9,8.66 2.09,3.03 4.42,6.39 7.74,9.13 3.26,2.77 6.59,6.14 10.93,8.22 4.2,2.33 8.65,4.8 13.62,5.93 2.45,0.67 4.91,1.55 7.45,1.96 l 7.64,0.84 c 5.16,0.59 10.16,-0.15 15.1,-0.59 4.8,-0.93 9.56,-1.88 13.8,-3.6 8.65,-3.06 15.74,-7.72 21.22,-12.25 5.4,-4.74 9.21,-9.35 11.5,-12.98 2.36,-3.54 3.21,-5.97 3.21,-5.97" /><path
             id="path42"
             style="fill:#762c33;fill-opacity:1;fill-rule:nonzero;stroke:none"
             d="m 5400.2,1439.12 c 4.13,-7.86 8.29,-15.69 11.64,-23.86 3.6,-8.08 6.86,-16.31 10.22,-24.51 3.39,-8.21 6.3,-16.57 8.99,-24.98 l 7.82,-25.34 7.28,-25.51 c 2.16,-8.59 3.5,-17.37 5.28,-26.05 3.39,-17.39 6.36,-34.87 8.84,-52.36 l 0.98,-6.87 -6.48,-0.52 c -10.92,-0.88 -21.88,-1.37 -32.84,-1.84 -10.99,-0.33 -21.97,-0.62 -33.05,-0.28 10.62,3.16 21.32,5.69 32.02,8.19 10.71,2.36 21.43,4.7 32.2,6.65 l -5.5,-7.39 c -4.56,16.94 -8.64,33.89 -12.31,50.92 l -5.47,25.56 -6.55,25.35 -5.99,25.53 -2.71,12.86 -3.2,12.71 c -1.98,8.54 -4.05,17.05 -5.8,25.71 -1.75,8.64 -3.76,17.29 -5.37,26.03" /><path
             id="path44"
             style="fill:#ffffff;fill-opacity:1;fill-rule:nonzero;stroke:none"
             d="m 5298.38,1144.97 183.84,22.63 c 0,0 -45.25,-79.19 -183.84,-22.63" /><path
             id="path46"
             style="fill:#a1444b;fill-opacity:1;fill-rule:nonzero;stroke:none"
             d="m 5933.58,597.141 c 0,0 477.98,33.929 500.61,115.961 30.54,110.718 -104.65,933.338 -124.45,941.818 -35.31,15.14 -19.79,-107.47 -19.79,-107.47 0,0 -15.56,159.8 -45.26,155.55 -29.69,-4.24 -11.31,-166.86 -11.31,-166.86 0,0 -26.87,135.75 -39.6,135.75 -12.72,0 -8.48,-149.9 -8.48,-149.9 0,0 -12.73,98.99 -42.43,98.99 -29.69,0 8.49,-692.929 8.49,-692.929 l -268.69,-33.942 33.94,-301.218" /><path
             id="path48"
             style="fill:#762c33;fill-opacity:1;fill-rule:nonzero;stroke:none"
             d="m 6002.92,909.301 -120.25,-15.192 33.94,-301.218 16.97,4.25 c 0,0 30.48,2.16 76.39,6.718 24.7,98.34 8.21,204.731 -7.05,305.442" /><path
             id="path50"
             style="fill:#a1444b;fill-opacity:1;fill-rule:nonzero;stroke:none"
             d="m 4596.82,533.25 c 0,0 -29.51,-272.172 -29.51,-363.988 l 291.46,-16.91 0.39,256.289 -262.34,124.609" /><path
             id="path52"
             style="fill:#762c33;fill-opacity:1;fill-rule:nonzero;stroke:none"
             d="m 4799.78,389.059 c 19.61,-7.77 39.41,-14.911 59.32,-21.649 l 0.06,41.231 -262.34,124.609 c 0,0 -2.13,-19.691 -5.24,-50.129 70.78,-28.031 137.31,-65.992 208.2,-94.062" /><path
             id="path54"
             style="fill:#f78f50;fill-opacity:1;fill-rule:nonzero;stroke:none"
             d="m 5090.5,849.41 c 0,0 156.4,-85.199 336.99,4.07 0,0 107.96,44.161 223.01,59.571 83.48,11.187 244.79,3.929 333.99,16.41 0,0 10.82,-288.402 -10.39,-373.25 l -119,-19.781 c 0,0 11.4,-264.961 2.92,-371.02 C 5849.53,59.3516 5089.23,-17.5313 4855.89,54.6016 l -22.96,354.0394 -266.7,118.16 c 0,0 37.15,173.687 171.6,262.23 101.46,66.821 352.67,60.379 352.67,60.379" /></g></g><g
         id="g56"><g
           clip-path="url(#clipPath62)"
           id="g58"><g
             clip-path="url(#clipPath68)"
             id="g64"><path
               id="path70"
               style="fill:#ffffff;fill-opacity:1;fill-rule:nonzero;stroke:none"
               d="m 4250.59,666.719 1853.33,220 -1.18,9.929 -1853.33,-220" /><path
               id="path72"
               style="fill:#ffffff;fill-opacity:1;fill-rule:nonzero;stroke:none"
               d="m 4250.59,533.379 1853.33,220 -1.18,9.93 -1853.33,-220" /><path
               id="path74"
               style="fill:#ffffff;fill-opacity:1;fill-rule:nonzero;stroke:none"
               d="m 4250.59,400.051 1853.33,220 -1.18,9.929 -1853.33,-220" /><path
               id="path76"
               style="fill:#ffffff;fill-opacity:1;fill-rule:nonzero;stroke:none"
               d="m 4250.59,266.719 1853.33,220 -1.18,9.929 -1853.33,-220 1.18,-9.929" /><path
               id="path78"
               style="fill:#ffffff;fill-opacity:1;fill-rule:nonzero;stroke:none"
               d="m 4250.59,133.379 1853.33,220 -1.18,9.93 -1853.33,-220 1.18,-9.93" /><path
               id="path80"
               style="fill:#ffffff;fill-opacity:1;fill-rule:nonzero;stroke:none"
               d="M 4250.59,0.0507813 6103.92,220.051 6102.74,229.98 4249.41,9.98047 l 1.18,-9.9296887" /></g></g></g><g
         id="g82"><g
           clip-path="url(#clipPath88)"
           id="g84"><path
             id="path90"
             style="fill:#893c44;fill-opacity:1;fill-rule:nonzero;stroke:none"
             d="m 4845.06,221.68 v 0 l -10,154.101 v 0 l 1.91,-29.39 0.64,-9.993 7.45,-114.718" /><path
             id="path92"
             style="fill:#662831;fill-opacity:1;fill-rule:nonzero;stroke:none"
             d="m 4835.06,375.781 v 0 l -1.37,21.059 v 0 l 1.37,-21.059" /><path
             id="path94"
             style="fill:#ef7f44;fill-opacity:1;fill-rule:nonzero;stroke:none"
             d="m 5284.89,111.699 c -23.94,0 -47.7,0.91 -71.18,2.68 l 359.23,42.641 c -90.71,-29.411 -187.54,-45.321 -288.05,-45.321 m -117.16,7.289 c -104.57,13.102 -203.8,43.532 -294.65,88.293 l 443.73,52.668 c 98.63,-14.211 198.18,-24.328 296.55,-36.398 30.97,-3.801 62.11,-7.66 93.32,-11.281 -29.34,-14.899 -59.53,-28.27 -90.55,-40.051 l -448.4,-53.231 m -310.8,96.442 c -3.97,2.05 -7.94,4.14 -11.87,6.25 l -7.45,114.718 105.23,12.493 C 5051.13,308.059 5164.4,283.5 5279.32,265.57 l -422.39,-50.14 m -19.96,130.961 -1.91,29.39 -1.37,21.059 c 29.3,-14.891 59.06,-28.219 89.25,-40.238 l -85.97,-10.211" /><path
             id="path96"
             style="fill:#d1cecf;fill-opacity:1;fill-rule:nonzero;stroke:none"
             d="m 4837.61,336.398 -0.64,9.993 85.97,10.211 c 6.61,-2.633 13.25,-5.204 19.9,-7.711 l -105.23,-12.493" /><path
             id="path98"
             style="fill:#d1cecf;fill-opacity:1;fill-rule:nonzero;stroke:none"
             d="m 4873.08,207.281 c -5.42,2.66 -10.79,5.379 -16.15,8.149 l 422.39,50.14 c 12.47,-1.949 24.98,-3.82 37.49,-5.621 l -443.73,-52.668" /><path
             id="path100"
             style="fill:#d1cecf;fill-opacity:1;fill-rule:nonzero;stroke:none"
             d="m 5213.71,114.379 c -15.46,1.16 -30.75,2.703 -45.98,4.609 l 448.4,53.231 c -14.24,-5.41 -28.63,-10.481 -43.19,-15.199 l -359.23,-42.641" /></g></g><path
         id="path102"
         style="fill:#a1444b;fill-opacity:1;fill-rule:nonzero;stroke:none"
         d="m 6151.36,1352.3 c 0,0 -4.48,5.75 -11.34,14.82 -36.46,48.19 -140.41,190.07 0.02,61.54 166.88,-152.73 22.63,-82.02 22.63,-82.02" /><path
         id="path104"
         style="fill:#a1444b;fill-opacity:1;fill-rule:nonzero;stroke:none"
         d="m 6309.74,1654.93 c -29.13,12.48 -23.67,-68.73 -20.87,-97.56 -3.97,34.78 -18.98,149.24 -44.18,145.64 -29.7,-4.25 -11.31,-166.87 -11.31,-166.87 0,0 -26.87,135.75 -39.6,135.75 -12.72,0 -8.48,-149.9 -8.48,-149.9 0,0 -12.73,98.99 -42.43,98.99 -29.69,0 8.49,-692.929 8.49,-692.929 l -166.15,-20.992 c 1.69,-57.887 5.09,-214.77 -4.13,-305.957 121.38,11.078 434.89,45.937 453.11,112 30.54,110.718 -104.65,933.338 -124.45,941.828" /><path
         id="path106"
         style="fill:#762c33;fill-opacity:1;fill-rule:nonzero;stroke:none"
         d="m 6002.92,909.301 -17.71,-2.242 c 1.69,-57.887 5.09,-214.77 -4.13,-305.95 8.71,0.789 18.37,1.7 28.89,2.75 24.7,98.34 8.21,204.731 -7.05,305.442" /><path
         id="path108"
         style="fill:#d9e9ef;fill-opacity:1;fill-rule:nonzero;stroke:none"
         d="m 3885.51,168.43 h -379.34 c 91.09,5.601 151.49,15.082 155.35,29.711 v 0 c 0.01,0.039 0.02,0.078 0.03,0.121 0,0.008 0.01,0.019 0.01,0.039 0.01,0.031 0.02,0.07 0.03,0.097 v 0.012 c 0.02,0.082 0.05,0.168 0.07,0.262 v 0.008 c 17.06,66.172 91.92,619.351 -4.33,729.379 -62.74,71.722 -208.82,84.271 -303.39,84.271 -50.92,0 -86.9,-3.63 -86.9,-3.63 0,0 -321.1,-23.47 -532.97,-101.848 -70.53,-26.102 -121.3,-146.332 -154.95,-280.883 l 8.25,-3.758 c -21.5,-79.602 -91.28,-343.59 -72.57,-348.93 16.05,-4.59 78.86,-30.883 111.79,-44.832 l -4.78,-40.148 -70.19,0.379 v 0 c 45.26,-7.469 165.51,-15.039 311,-20.25 H 2275.89 V 1985.59 H 3885.51 V 168.43" /><path
         id="path110"
         style="fill:#f2515a;fill-opacity:1;fill-rule:nonzero;stroke:none"
         d="m 2593.48,644.68 c 0,0 -100.71,-365.11 -78.68,-371.399 22.03,-6.301 132.19,-53.511 132.19,-53.511 l 103.87,409.171 -157.38,15.739" /><path
         id="path112"
         style="fill:#5b94c0;fill-opacity:1;fill-rule:nonzero;stroke:none"
         d="m 3657.33,928.059 c -96.53,110.341 -390.29,80.641 -390.29,80.641 0,0 -321.1,-23.47 -532.97,-101.848 -70.53,-26.102 -121.3,-146.332 -154.95,-280.883 l 89.9,-41.09 -47.21,-396.578 -70.19,0.379 c 147.71,-24.371 1094.24,-49.91 1109.9,9.461 16.79,63.66 92.33,619.589 -4.19,729.918" /><path
         id="path114"
         style="fill:#b4bdc6;fill-opacity:1;fill-rule:nonzero;stroke:none"
         d="m 3506.17,168.43 v 0 c 91.09,5.601 151.49,15.082 155.35,29.711 v 0 0 c -3.86,-14.629 -64.26,-24.11 -155.35,-29.711 m 155.38,29.832 c 0,0.008 0.01,0.019 0.01,0.039 0,-0.02 -0.01,-0.031 -0.01,-0.039 m 0.04,0.136 v 0.012 -0.012 m 0.07,0.274 v 0.008 -0.008" /><path
         id="path116"
         style="fill:#527ea4;fill-opacity:1;fill-rule:nonzero;stroke:none"
         d="m 3226.21,161.73 c -275.33,0 -593.96,13.649 -674.59,26.95 l 70.19,-0.379 20.27,170.238 c 116.69,6.41 232.65,22.84 348.31,43.332 151.6,26.859 301.57,61.219 413.28,173.469 53.36,-10.371 96.12,-48.192 138.09,-80.559 46.07,-35.519 97.64,-61.929 149.12,-88.64 -10.3,-102.059 -23.27,-184.379 -29.22,-207.461 v -0.008 c -0.02,-0.094 -0.05,-0.172 -0.07,-0.262 v -0.012 c -0.01,-0.027 -0.02,-0.066 -0.03,-0.097 0,-0.02 -0.01,-0.031 -0.01,-0.039 -0.01,-0.043 -0.02,-0.082 -0.03,-0.121 v 0 c -3.86,-14.629 -64.26,-24.11 -155.35,-29.711 -76.72,-4.719 -175.22,-6.7 -279.96,-6.7" /><path
         id="path118"
         style="fill:#f6826f;fill-opacity:1;fill-rule:nonzero;stroke:none"
         d="m 3402.38,575.441 299.01,3.137 c 0,0 -6.3,-424.898 -78.69,-443.789 -72.39,-18.879 -840.37,18.891 -840.37,18.891 l -280.12,6.289 c 0,0 -56.66,6.301 -22.03,34.621 0,0 -53.51,31.48 6.29,50.359 0,0 -62.95,18.891 9.44,37.77 0,0 -66.09,-9.438 6.3,37.769 0,0 75.54,37.774 113.31,18.891 37.77,-18.891 173.11,-47.219 173.11,-47.219 0,0 506.74,72.391 582.28,69.25 l 31.47,214.031" /><path
         id="path120"
         style="fill:#f2515a;fill-opacity:1;fill-rule:nonzero;stroke:none"
         d="m 3700.74,551.891 c 0.5,16.75 0.65,26.687 0.65,26.687 l -299.01,-3.137 -3.98,-27.07 c 100.79,0.309 201.58,1.399 302.34,3.52" /><path
         id="path122"
         style="fill:#f6826f;fill-opacity:1;fill-rule:nonzero;stroke:none"
         d="m 2908.23,1062.24 c 0,0 31.47,-107.01 50.36,-182.549 18.88,-75.543 308.45,-62.953 308.45,119.598 0,0 -56.65,69.251 -25.18,270.681 31.48,201.44 -333.63,-207.73 -333.63,-207.73" /><path
         id="path124"
         style="fill:#f2515a;fill-opacity:1;fill-rule:nonzero;stroke:none"
         d="m 3124.84,1240.7 c -7.29,5.01 -14.67,9.88 -22.04,14.78 -91.79,-78.06 -194.57,-193.24 -194.57,-193.24 0,0 30.22,-102.771 49.2,-177.99 76.82,-1.16 251.1,114.512 264.8,268.55 -3.33,13 -7.92,10.67 -10.18,23.9 -24.26,26.15 -58.34,44.18 -87.21,64" /><path
         id="path126"
         style="fill:#f6826f;fill-opacity:1;fill-rule:nonzero;stroke:none"
         d="m 3172.62,1716.91 c 0,0 -295.86,75.54 -371.4,-207.73 -75.54,-283.27 -44.07,-566.539 188.84,-522.481 232.92,44.071 566.55,553.961 182.56,730.211" /><path
         id="path128"
         style="fill:#f6826f;fill-opacity:1;fill-rule:nonzero;stroke:none"
         d="m 3229.27,1217.95 c 0,0 75.54,169.79 138.49,120.27 62.95,-49.52 -44.07,-247.61 -138.49,-120.27" /><path
         id="path130"
         style="fill:#a1444b;fill-opacity:1;fill-rule:nonzero;stroke:none"
         d="m 3334.19,1345.51 c 0,0 -51.72,-8.72 -81.84,-100.71 l -41.96,14.68 52.45,132.2 c 0,0 -86.03,56.65 -48.26,193.04 0,0 -121.7,-96.52 -289.56,-58.75 l 88.13,39.87 c 0,0 -132.2,-44.07 -266.49,35.67 0,0 90.23,216.12 375.6,180.45 0,0 -167.87,31.48 -268.59,-29.38 0,0 134.3,117.51 318.95,86.04 201.25,-34.31 176.25,-130.1 176.25,-130.1 l -33.57,14.69 c 0,0 31.48,23.08 92.33,-10.49 60.85,-33.58 92.32,-268.59 -29.38,-377.7 0,0 -20.98,10.49 -44.06,10.49" /><path
         id="path132"
         style="fill:#f2515a;fill-opacity:1;fill-rule:nonzero;stroke:none"
         d="m 2929.21,1211.22 c 0,0 -3.76,0.8 -10.02,3.44 -6.09,2.82 -15.17,7.11 -23.44,16.63 -4.06,4.73 -7.99,10.98 -9.49,18.81 -0.24,1.98 -0.48,3.97 -0.72,6 0.1,2.04 0.2,4.1 0.3,6.19 l 0.05,0.79 0.27,1.18 0.28,1.25 0.62,2.5 1.29,5.08 c 1.51,6.75 4.1,14.06 6.79,21.28 2.65,7.4 5.55,14.37 8.45,21.34 3.08,6.91 6.11,13.87 9.32,20.56 3.06,6.77 6.58,13.2 9.71,19.54 6.57,12.53 12.98,24.08 18.98,33.73 11.68,19.44 21.19,31.51 21.19,31.51 0,0 -3.8,-14.87 -11.4,-36.17 -3.77,-10.66 -8.32,-23.01 -13.66,-36.01 -2.67,-6.49 -5.14,-13.33 -8.17,-20.04 -3,-6.73 -5.74,-13.65 -8.61,-20.53 -3.08,-6.82 -6.14,-13.63 -8.67,-20.1 -2.54,-6.61 -5.88,-12.63 -7.95,-19.53 -2.46,-7.29 -4.67,-11.47 -4.14,-16.71 0.28,-5.01 1.95,-9.99 4.36,-14.41 4.95,-8.88 11.89,-15.37 16.64,-19.73 4.89,-4.34 8.02,-6.6 8.02,-6.6" /><path
         id="path134"
         style="fill:#f2515a;fill-opacity:1;fill-rule:nonzero;stroke:none"
         d="m 3271.24,1202.83 c 3.13,1.03 6.1,2.45 9.04,3.78 2.9,1.43 5.72,2.98 8.31,4.73 2.6,1.72 5,3.71 6.91,5.89 0.97,1.08 1.97,2.13 2.54,3.38 0.74,1.17 1.4,2.34 1.61,3.63 0.45,1.21 0.72,2.44 0.6,3.73 0.09,1.25 0.19,2.49 -0.29,3.79 -0.43,1.28 -0.3,2.55 -1.09,3.81 l -1.82,3.77 c -0.58,1.25 -1.68,2.4 -2.43,3.63 -0.87,1.2 -1.6,2.45 -2.56,3.61 l -6.18,6.77 -2.39,2.62 1.13,3.42 c 1.91,5.76 4.25,11.07 6.67,16.49 2.54,5.33 5.03,10.72 8.23,15.81 3.1,5.13 6.51,10.15 10.68,14.87 1.99,2.4 4.36,4.6 7.02,6.64 1.17,1.1 2.81,1.93 4.31,2.81 1.48,0.92 3.03,1.74 4.97,2.19 3.44,1.3 7.87,1.35 11.54,0.27 1.94,-0.84 3.32,-1.24 5.59,-2.61 l 3.37,-2.69 c 2.51,-2.32 5.08,-5.41 6.46,-8.39 1.48,-3.08 2.28,-6.39 2.6,-9.61 0.63,-6.5 -0.8,-12.61 -2.84,-18.2 -2.13,-5.59 -5.02,-10.76 -8.54,-15.39 3.88,10.77 6.49,22.46 4.14,32.42 -0.62,2.44 -1.59,4.68 -2.91,6.6 -1.36,2.1 -2.71,3.31 -4.48,4.8 l -3.65,2.3 -2.4,0.6 c -1.78,0.23 -3.43,0.28 -5.3,-0.63 -0.9,-0.18 -1.84,-0.78 -2.76,-1.48 -0.92,-0.66 -1.89,-1.11 -2.75,-2.08 -1.82,-1.59 -3.53,-3.43 -5.2,-5.48 -3.37,-3.97 -6.37,-8.55 -9.1,-13.31 -5.55,-9.46 -10.44,-19.76 -14.64,-29.94 l -1.27,6.04 6.54,-8.17 c 1.03,-1.43 1.89,-3.06 2.84,-4.59 0.88,-1.59 1.92,-2.99 2.56,-4.78 l 1.87,-5.32 c 0.75,-1.68 0.66,-3.85 0.97,-5.73 0.38,-1.92 0.11,-3.94 -0.25,-5.94 -0.14,-2.04 -0.89,-3.9 -1.82,-5.68 -0.73,-1.89 -1.9,-3.42 -3.15,-4.88 -1.12,-1.58 -2.56,-2.73 -3.97,-3.89 -2.81,-2.34 -5.99,-3.93 -9.14,-5.27 -3.14,-1.39 -6.43,-2.28 -9.69,-3.02 -3.26,-0.73 -6.58,-1.15 -9.88,-1.32" /><path
         id="path136"
         style="fill:#29202e;fill-opacity:1;fill-rule:nonzero;stroke:none"
         d="m 3065.6,1351.81 c -4.06,-18.09 -13.77,-31.32 -21.69,-29.54 -7.91,1.78 -11.03,17.89 -6.97,35.98 4.07,18.09 13.78,31.31 21.69,29.53 7.92,-1.77 11.04,-17.88 6.97,-35.97" /><path
         id="path138"
         style="fill:#29202e;fill-opacity:1;fill-rule:nonzero;stroke:none"
         d="m 2886.89,1384.26 c -4.07,-18.09 -13.78,-31.31 -21.69,-29.54 -7.92,1.78 -11.04,17.89 -6.97,35.98 4.06,18.09 13.78,31.31 21.69,29.54 7.91,-1.78 11.03,-17.89 6.97,-35.98" /><path
         id="path140"
         style="fill:#f2515a;fill-opacity:1;fill-rule:nonzero;stroke:none"
         d="m 2855.77,1152.47 c 0,0 2.65,-0.47 7.17,-0.99 4.4,-0.76 10.8,-1.28 18.2,-2.42 3.68,-0.61 7.84,-0.63 12.03,-1.26 4.25,-0.41 8.63,-1.16 13.27,-1.36 4.6,-0.37 9.37,-0.48 14.15,-1.09 4.76,-0.79 9.69,-0.46 14.58,-0.61 4.89,-0.27 9.78,-0.54 14.6,-0.81 4.83,0.06 9.58,0.12 14.18,0.18 4.61,0.14 9.12,-0.06 13.41,-0.2 4.32,-0.31 8.3,0.35 12.07,0.38 14.98,0.8 25.81,-0.21 25.81,-0.21 0,0 -9.08,-5.12 -23.96,-10.47 -3.73,-1.24 -7.71,-3.16 -12.16,-3.69 -4.42,-0.83 -9.09,-1.77 -13.98,-2.39 -4.88,-0.56 -9.93,-1.76 -15.11,-1.83 -5.18,0.06 -10.45,0.13 -15.72,0.19 -5.26,0.38 -10.54,0.31 -15.65,1.34 -5.14,0.73 -10.13,1.94 -14.96,2.85 -4.88,0.7 -9.36,2.66 -13.66,4.03 -4.28,1.47 -8.31,2.78 -11.87,4.58 -3.6,1.66 -6.8,3.38 -9.61,4.89 -2.84,1.38 -5.16,3.24 -7.08,4.46 -3.82,2.57 -5.71,4.43 -5.71,4.43" /><path
         id="path142"
         style="fill:#29202e;fill-opacity:1;fill-rule:nonzero;stroke:none"
         d="m 3022.48,1428.19 c 0,0 1.18,1.91 3.83,4.59 2.61,2.77 6.72,6.2 12.21,9.59 5.54,3.2 12.48,6.38 20.58,8.04 3.99,1.02 8.34,1.29 12.72,1.61 4.44,-0.18 8.98,-0.02 13.48,-1.08 l 6.72,-1.49 c 2.2,-0.62 4.3,-1.62 6.42,-2.44 4.31,-1.46 8.04,-4.03 11.59,-6.44 3.7,-2.19 6.39,-5.44 9.11,-8.14 2.79,-2.67 4.65,-5.81 6.35,-8.64 1.61,-2.89 3.25,-5.34 3.97,-7.96 0.91,-2.48 1.47,-4.76 1.95,-6.57 0.92,-3.65 1.13,-5.8 1.13,-5.8 0,0 -2.09,1.01 -5.21,2.88 -1.54,0.95 -3.44,2.02 -5.33,3.39 -1.84,1.43 -4.54,2.34 -6.86,3.77 -2.42,1.35 -4.82,2.96 -7.68,4 -2.79,1.13 -5.33,2.81 -8.38,3.61 -2.93,1.02 -5.77,2.27 -8.91,2.92 l -4.57,1.3 -4.77,0.84 c -3.08,0.95 -6.47,0.76 -9.66,1.47 -3.3,0.07 -6.56,0.61 -9.83,0.62 -6.53,0.36 -12.92,0.18 -18.64,0.2 -12.13,-0.16 -20.22,-0.27 -20.22,-0.27" /><path
         id="path144"
         style="fill:#29202e;fill-opacity:1;fill-rule:nonzero;stroke:none"
         d="m 2825.24,1463.86 c 0,0 1.18,1.91 3.83,4.6 2.61,2.76 6.72,6.19 12.21,9.58 5.54,3.2 12.48,6.38 20.57,8.05 4,1.01 8.35,1.29 12.73,1.6 4.44,-0.18 8.97,-0.02 13.48,-1.08 l 6.71,-1.49 c 2.21,-0.62 4.31,-1.62 6.43,-2.43 4.31,-1.47 8.04,-4.04 11.59,-6.45 3.7,-2.19 6.39,-5.44 9.11,-8.14 2.79,-2.67 4.65,-5.81 6.35,-8.64 1.61,-2.89 3.24,-5.34 3.97,-7.96 0.91,-2.48 1.47,-4.76 1.95,-6.57 0.92,-3.65 1.13,-5.79 1.13,-5.79 0,0 -2.1,1.01 -5.21,2.87 -1.54,0.95 -3.44,2.02 -5.33,3.39 -1.85,1.43 -4.54,2.34 -6.87,3.77 -2.41,1.35 -4.81,2.96 -7.68,4 -2.78,1.13 -5.32,2.81 -8.37,3.61 -2.93,1.03 -5.77,2.27 -8.91,2.92 l -4.57,1.3 -4.77,0.84 c -3.08,0.95 -6.47,0.77 -9.66,1.47 -3.3,0.08 -6.56,0.61 -9.83,0.62 -6.53,0.36 -12.92,0.18 -18.64,0.2 -12.13,-0.16 -20.22,-0.27 -20.22,-0.27" /><path
         id="path146"
         style="fill:#d9e9ef;fill-opacity:1;fill-rule:nonzero;stroke:none"
         d="M 0,0 H 751.813 V 1836.41 H 0 Z" /><path
         id="path148"
         style="fill:#f78e92;fill-opacity:1;fill-rule:nonzero;stroke:none"
         d="m 1023.34,1377.83 c 0,0 104.08,-73.46 146.93,-45.91 l 266.32,-217.34 c 0,0 -370.4,39.79 -413.25,263.25" /><path
         id="path150"
         style="fill:#f78e92;fill-opacity:1;fill-rule:nonzero;stroke:none"
         d="m 1478.38,1320.72 c 0,0 -85.95,-173.9 -115.26,-233.7 -29.31,-59.79 -280.61,27.94 -247.95,180.61 0,0 111.64,112.42 121.36,286.51 9.72,174.09 241.85,-233.42 241.85,-233.42" /><path
         id="path152"
         style="fill:#f47074;fill-opacity:1;fill-rule:nonzero;stroke:none"
         d="m 1329.16,1508.72 c 6.99,2.88 14.03,5.64 21.07,8.42 62.8,-81.7 128.15,-196.42 128.15,-196.42 0,0 -43.66,-80.54 -73,-140.05 -64.45,12.77 -189.51,140.69 -173.4,271.97 5.11,10.27 8.54,7.5 12.79,18.16 24.97,17.53 56.69,26.51 84.39,37.92" /><path
         id="path154"
         style="fill:#fcd0b0;fill-opacity:1;fill-rule:nonzero;stroke:none"
         d="m 1666.79,1885.81 c 0,0 19.14,-103.05 10.31,-225.23 -5.71,-78.92 -80.96,229.64 -80.96,229.64 l 70.65,-4.41" /><path
         id="path156"
         style="fill:#f78e92;fill-opacity:1;fill-rule:nonzero;stroke:none"
         d="m 1389.31,1950.7 c 0,0 274.87,10.79 288.03,-253 13.16,-263.78 -67.96,-507.4 -264.84,-424.68 -196.87,82.72 -394.69,594.78 -23.19,677.68" /><path
         id="path158"
         style="fill:#f78e92;fill-opacity:1;fill-rule:nonzero;stroke:none"
         d="m 1245.36,1521.82 c 0,0 -34.55,163.82 -99.33,132.05 -64.79,-31.76 -7.85,-226.44 99.33,-132.05" /><path
         id="path160"
         style="fill:#fcd0b0;fill-opacity:1;fill-rule:nonzero;stroke:none"
         d="m 1312.03,1809.26 c -3.41,29.65 -0.78,47.04 -1.47,47.11 -74.33,7.2 -133.5,-28.94 -208.2,-32.17 -5.41,-59.62 4.18,-124.17 40.39,-173.92 0,0 13.89,8.04 34.23,3.69 0,0 43.91,-17.43 53.1,-104.15 l 39.74,5.03 -21.3,126.34 c 0,0 57.03,25.72 63.51,128.07" /><path
         id="path162"
         style="fill:#fcd0b0;fill-opacity:1;fill-rule:nonzero;stroke:none"
         d="m 1300.26,1849.01 c 0,0 161.92,-82.44 285.57,-23.56 l -80.96,13.25 c 0,0 182.53,-1.47 206.09,82.44 l -22.08,-11.78 c 0,0 35.32,44.16 -1.48,114.82 0,0 -10.3,-42.69 -73.6,-35.33 -63.3,7.36 -183.71,149.81 -337.1,57.41 -122.18,-73.6 -79.49,-195.78 -79.49,-195.78 l 54.47,50.05 c 0,0 -47.11,108.93 -97.16,72.13 -41.37,-30.42 -105.32,-169.46 -8.49,-318.79 l 154.23,195.14" /><path
         id="path164"
         style="fill:#f47074;fill-opacity:1;fill-rule:nonzero;stroke:none"
         d="m 1505.48,1491.72 c 0,0 3.22,1.23 8.45,3.92 5.12,2.76 12.63,6.88 19.04,13.76 3.14,3.44 5.81,7.59 7.2,12.23 1.67,4.75 0.61,9.39 -0.14,16.12 -0.46,6.44 -2.16,12.5 -3.15,18.87 -1.01,6.27 -2.4,12.87 -3.8,19.46 -2.36,13.24 -5.27,26.42 -7.39,38.91 -2.4,12.43 -4.29,24.13 -5.87,34.17 -3.15,20.09 -4.37,33.74 -4.37,33.74 0,0 5.43,-12.59 11.58,-32.03 6.26,-19.41 13.46,-45.58 18.7,-72.32 1.26,-6.67 2.52,-13.35 3.47,-20.26 1.01,-6.8 2.03,-13.61 2.14,-19.87 0.09,-3.39 0.44,-5.79 0.29,-9.83 -0.27,-1.77 -0.53,-3.53 -0.79,-5.26 -0.55,-1.67 -1.1,-3.31 -1.63,-4.93 -2.61,-6.35 -6.98,-11.03 -11.26,-14.43 -8.71,-6.84 -17.34,-9.2 -23.13,-10.72 -5.91,-1.37 -9.34,-1.53 -9.34,-1.53" /><path
         id="path166"
         style="fill:#f47074;fill-opacity:1;fill-rule:nonzero;stroke:none"
         d="m 1205.54,1516.41 c -5.8,1.45 -11.46,3.79 -16.62,7.29 -2.55,1.76 -5.11,3.75 -7.19,6.35 -2.1,2.52 -4.02,5.63 -4.78,9.22 -0.51,1.79 -0.83,3.61 -0.59,5.48 0.06,1.88 0.21,3.76 0.9,5.41 0.63,1.64 0.97,3.63 1.95,4.99 l 2.68,4.43 c 0.91,1.48 2.09,2.54 3.18,3.79 1.12,1.18 2.21,2.48 3.39,3.56 l 7.34,6.05 -2.56,-5.77 c -1.81,9.68 -4.19,19.66 -7.27,28.98 -1.5,4.68 -3.25,9.25 -5.43,13.33 -1.08,2.09 -2.2,4 -3.46,5.71 -0.56,1 -1.29,1.56 -1.94,2.29 l -2.04,1.75 c -1.38,1.11 -2.67,1.33 -4.16,1.5 h -2.01 l -3.66,-1.32 c -1.79,-0.93 -3.1,-1.64 -4.69,-3.18 -1.5,-1.38 -2.77,-3.11 -3.78,-5.09 -4,-8.13 -4.08,-18.91 -2.89,-29.17 -2.32,4.71 -3.99,9.81 -4.89,15.15 -0.81,5.33 -0.99,11.04 0.78,16.74 0.87,2.84 2.21,5.67 4.12,8.17 1.79,2.42 4.73,4.75 7.43,6.36 l 3.47,1.77 c 2.4,0.83 3.68,0.93 5.63,1.32 3.56,0.29 7.62,-0.63 10.5,-2.47 1.68,-0.79 2.93,-1.83 4.09,-2.93 1.19,-1.09 2.51,-2.16 3.35,-3.36 2,-2.34 3.72,-4.75 5.03,-7.27 2.82,-4.99 4.9,-10.09 6.68,-15.22 1.89,-5.12 3.05,-10.36 4.28,-15.56 1.11,-5.25 2.18,-10.37 2.75,-15.85 l 0.38,-3.71 -2.94,-2.08 -6.68,-4.71 c -1.06,-0.82 -1.92,-1.77 -2.9,-2.64 -0.89,-0.92 -2.08,-1.71 -2.81,-2.68 l -2.29,-2.88 c -0.93,-0.94 -1.04,-2.02 -1.66,-3.03 -0.67,-1.02 -0.81,-2.08 -0.98,-3.15 -0.35,-1.07 -0.37,-2.16 -0.22,-3.27 -0.08,-1.13 0.26,-2.26 0.66,-3.4 0.24,-1.18 0.89,-2.28 1.52,-3.41 1.21,-2.26 2.91,-4.48 4.84,-6.5 3.88,-4.06 8.48,-7.77 13.49,-10.99" /><path
         id="path168"
         style="fill:#29202e;fill-opacity:1;fill-rule:nonzero;stroke:none"
         d="m 1378.31,1644.12 c 0.17,-16.7 6.23,-30.18 13.54,-30.11 7.31,0.08 13.09,13.68 12.92,30.38 -0.17,16.71 -6.23,30.19 -13.54,30.11 -7.31,-0.08 -13.09,-13.68 -12.92,-30.38" /><path
         id="path170"
         style="fill:#29202e;fill-opacity:1;fill-rule:nonzero;stroke:none"
         d="m 1562.13,1642.07 c 0.17,-16.7 6.24,-30.18 13.54,-30.1 7.31,0.07 13.1,13.67 12.92,30.38 -0.17,16.7 -6.23,30.18 -13.54,30.1 -7.31,-0.07 -13.09,-13.67 -12.92,-30.38" /><path
         id="path172"
         style="fill:#ffffff;fill-opacity:1;fill-rule:nonzero;stroke:none"
         d="m 1571.11,1438.31 c 0,0 -85.38,-103.05 -179.59,14.72" /><path
         id="path174"
         style="fill:#29202e;fill-opacity:1;fill-rule:nonzero;stroke:none"
         d="m 1464.21,1700.44 c 0,0 -7.11,1.62 -17.76,4.05 -5.05,1.06 -10.64,2.42 -16.46,3.34 -2.88,0.6 -5.86,0.75 -8.77,1.3 -2.95,-0.02 -5.9,0.79 -8.8,0.53 -2.92,0.19 -5.8,0.15 -8.63,-0.12 -2.88,0.01 -5.62,-0.55 -8.39,-0.9 -2.84,-0.13 -5.4,-1.13 -8.06,-1.6 -2.73,-0.38 -5.14,-1.34 -7.52,-2.07 -2.32,-0.83 -4.87,-1.12 -6.76,-2.04 -1.93,-0.84 -3.8,-1.43 -5.34,-1.97 -3.11,-1.04 -5.13,-1.56 -5.13,-1.56 0,0 0.61,1.83 2.09,4.89 0.77,1.51 1.68,3.41 2.96,5.42 1.13,2.18 3.03,4.02 5,6.27 2.02,2.17 4.26,4.59 7.22,6.41 2.9,1.87 5.89,4.23 9.56,5.46 3.58,1.45 7.35,3.01 11.43,3.49 4.03,0.95 8.17,1.09 12.3,0.98 4.18,0.09 8.14,-0.91 12.09,-1.59 3.8,-1.1 7.58,-2.16 10.9,-3.81 6.82,-2.99 12.34,-7.1 16.61,-10.96 4.2,-4.03 7.17,-7.82 8.95,-10.75 1.83,-2.87 2.51,-4.77 2.51,-4.77" /><path
         id="path176"
         style="fill:#29202e;fill-opacity:1;fill-rule:nonzero;stroke:none"
         d="m 1644.69,1694.69 c 0,0 -7.1,1.62 -17.76,4.05 -5.04,1.06 -10.64,2.42 -16.45,3.34 -2.89,0.61 -5.87,0.75 -8.78,1.3 -2.95,-0.02 -5.9,0.79 -8.79,0.53 -2.92,0.19 -5.81,0.15 -8.63,-0.13 -2.89,0.02 -5.62,-0.54 -8.4,-0.89 -2.84,-0.13 -5.39,-1.13 -8.06,-1.6 -2.72,-0.38 -5.14,-1.34 -7.52,-2.08 -2.32,-0.82 -4.86,-1.11 -6.76,-2.03 -1.92,-0.84 -3.8,-1.43 -5.33,-1.97 -3.12,-1.04 -5.14,-1.56 -5.14,-1.56 0,0 0.61,1.83 2.1,4.89 0.76,1.51 1.68,3.41 2.95,5.42 1.13,2.18 3.04,4.03 5,6.27 2.03,2.17 4.26,4.59 7.22,6.41 2.9,1.87 5.89,4.23 9.56,5.46 3.58,1.45 7.35,3.01 11.43,3.49 4.03,0.95 8.17,1.09 12.31,0.98 4.17,0.09 8.14,-0.91 12.08,-1.59 3.8,-1.1 7.58,-2.16 10.91,-3.81 6.81,-2.99 12.33,-7.1 16.61,-10.96 4.19,-4.03 7.17,-7.82 8.94,-10.75 1.84,-2.87 2.51,-4.77 2.51,-4.77" /><path
         id="path178"
         style="fill:#458582;fill-opacity:1;fill-rule:nonzero;stroke:none"
         d="m 1430.47,1132.94 c -2.54,1.99 -4.77,3.97 -6.81,5.93 -134.29,-30.14 -308.63,81.29 -335.67,214.61 -30.81,13.21 -71.71,35.58 -122.814,54.96 -88.774,33.68 -211.215,-42.85 -211.215,-42.85 V 49.3008 c 0,0 808.139,593.8592 850.989,749.9802 42.86,156.117 -131.63,299.989 -174.48,333.659" /><path
         id="path180"
         style="fill:#d0c7c5;fill-opacity:1;fill-rule:nonzero;stroke:none"
         d="m 753.961,49.3008 v 0 0 m 0,0 c 0.004,0.0078 0.004,0.0078 0.008,0.0078 -0.004,0 -0.004,0 -0.008,-0.0078 m 0.008,0.0078 h 0.004 -0.004 m 0.015,0.0117 c 0.004,0 0.004,0.0117 0.008,0.0117 -0.004,0 -0.004,-0.0117 -0.008,-0.0117 m 0.024,0.0195 c 0.004,0 0.008,0 0.008,0.0118 0,-0.0118 -0.004,-0.0118 -0.008,-0.0118 m 0.07,0.0508 v 0 0 m 0.043,0.0313 c 0.004,0 0.004,0.0078 0.004,0.0078 0,0 0,-0.0078 -0.004,-0.0078 m 0.039,0.0273 c 0.008,0.0117 0.016,0.0117 0.02,0.0196 -0.004,-0.0079 -0.012,-0.0079 -0.02,-0.0196 M 753.961,1365.59 v 0 c 0,0 0.348,0.22 1.019,0.62 -0.671,-0.41 -1.019,-0.62 -1.019,-0.62" /><path
         id="path182"
         style="fill:#3f6966;fill-opacity:1;fill-rule:nonzero;stroke:none"
         d="M 753.961,49.3008 V 1365.59 c 0,0 0.348,0.21 1.019,0.62 3.079,1.86 12.942,7.67 27.274,14.72 26.851,-112.92 72.816,-219.61 128.598,-321.82 C 980.074,932.25 1068.55,818.789 1145.12,696.781 1189,626.852 1234.32,544.039 1288.2,468.969 1049.81,267.16 763.285,56.1602 754.18,49.4688 c -0.004,-0.0079 -0.012,-0.0079 -0.02,-0.0196 -0.012,-0.0078 -0.023,-0.0195 -0.035,-0.0195 0,0 0,-0.0078 -0.004,-0.0078 -0.016,-0.0117 -0.027,-0.0235 -0.043,-0.0313 v 0 c -0.023,-0.0195 -0.047,-0.0312 -0.062,-0.039 0,-0.0118 -0.004,-0.0118 -0.008,-0.0118 -0.008,-0.0078 -0.012,-0.0078 -0.016,-0.0078 -0.004,0 -0.004,-0.0117 -0.008,-0.0117 -0.004,0 -0.007,0 -0.011,-0.0117 h -0.004 v 0 c -0.004,0 -0.004,0 -0.008,-0.0078 v 0 0 0 0" /><path
         id="path184"
         style="fill:#458582;fill-opacity:1;fill-rule:nonzero;stroke:none"
         d="M 1240.68,738.059 1507,532.961 c 0,0 235.7,244.891 21.42,508.149 -214.27,263.26 -287.74,-303.051 -287.74,-303.051" /><path
         id="path186"
         style="fill:#f78e92;fill-opacity:1;fill-rule:nonzero;stroke:none"
         d="m 1259.05,722.75 238.76,-177.551 c 0,0 -284.68,-330.597 -410.19,-309.168 -91.624,15.641 -1102.0028,820.379 -655.077,532.641 0,0 -293.871,247.948 0,55.098 0,0 -293.871,235.7 33.672,36.73 0,0 -257.137,211.22 85.711,-3.059 0,0 -76.531,195.909 48.976,-18.371 0,0 459.168,-272.441 471.418,-284.679 12.24,-12.25 186.73,168.359 186.73,168.359" /><path
         id="path188"
         style="fill:#f47074;fill-opacity:1;fill-rule:nonzero;stroke:none"
         d="m 1386.6,559.84 c 22.39,-19.129 45.96,-39.711 70.63,-59.641 25.12,27.082 40.58,45 40.58,45 L 1259.05,722.75 c 0,0 -5.92,-6.121 -15.59,-15.98 50.06,-45.579 91.85,-103.122 143.14,-146.93" /><path
         id="path190"
         style="fill:#f78e92;fill-opacity:1;fill-rule:nonzero;stroke:none"
         d="m 774.77,1748.09 c 0,0 -184.668,6.15 -153.891,-22.57 30.777,-28.73 123.113,-22.57 123.113,-22.57 0,0 -166.203,-12.32 -149.789,-30.78 16.418,-18.47 155.945,-16.42 155.945,-16.42 0,0 -180.566,-16.41 -137.476,-43.09 43.09,-26.67 141.578,-12.31 141.578,-12.31 0,0 -155.859,-4.92 -121.059,-26.67 32.829,-20.52 223.653,-43.09 176.461,12.31 0,0 36.934,47.19 8.207,88.23 0,0 22.571,47.19 -43.089,73.87" /><path
         id="path192"
         style="fill:#f78e92;fill-opacity:1;fill-rule:nonzero;stroke:none"
         d="m 756.305,1559.32 -4.106,-67.72 c 0,0 80.024,12.31 75.918,135.43 -4.101,123.11 -71.812,-67.71 -71.812,-67.71" /><path
         id="path194"
         style="fill:#d9e9ef;fill-opacity:1;fill-rule:nonzero;stroke:none"
         d="M 6105.01,2496 H 5890.4 c 21.79,84.01 34.38,168.1 41.1,223.7 0.18,0 0.38,0 0.56,0 1.05,9.43 1.93,18.04 2.68,25.69 20.61,153.98 21.37,298.93 3.38,362.91 -31.93,113.53 -122.93,135.78 -165.3,139.88 -47.57,18.79 -98.6,33.03 -144.12,52.34 -129.06,54.72 -79.7,424.28 -79.7,424.28 l -101.66,-101.65 c -47.02,209.24 -128.06,570.47 -128.06,570.47 0,0 -67.64,45.08 -151.74,45.08 -54.19,0 -115.21,-18.7 -169.4,-80.25 -138.3,-157.05 -46.89,-311.76 -107.83,-548.51 -48.91,-189.99 -46.48,-352.82 89.64,-417 -4.87,-5.64 -9.37,-11.56 -13.55,-17.7 -8.98,-10.35 -16.45,-22.07 -21.99,-35.36 -9.91,-23.78 -19.37,-49.59 -28.32,-75.85 v 0 0 c -19.78,-52.99 -87.44,-307.84 -126.42,-456.61 -29.92,-9 -53.47,-18.09 -61.1,-24.2 -23.45,-18.75 -60.95,-84.39 -60.95,-84.39 L 4800.04,2496 H 4495.39 V 4350.67 H 6105.01 V 2496" /><path
         id="path196"
         style="fill:#7a3134;fill-opacity:1;fill-rule:nonzero;stroke:none"
         d="m 5319.28,4193.62 c 0,0 -182.84,121.89 -321.14,-35.17 -138.3,-157.05 -46.89,-311.76 -107.83,-548.51 -60.95,-236.76 -42.2,-431.32 215.65,-445.38 257.85,-14.07 389.12,246.13 342.24,454.75 -46.88,208.63 -128.92,574.31 -128.92,574.31" /><path
         id="path198"
         style="fill:#7a3134;fill-opacity:1;fill-rule:nonzero;stroke:none"
         d="m 5320.85,4184.83 c 0,0 -4.91,3.36 -14.69,8.66 -9.76,5.3 -24.39,12.61 -43.88,19.69 -19.43,7.07 -43.87,13.87 -72.52,16.51 -28.55,2.45 -61.53,0.22 -94.72,-11.67 -33.17,-11.84 -65.24,-34.2 -92.39,-63.98 -27,-30.43 -50.36,-66.28 -64.8,-107.92 -14.66,-41.49 -19.79,-87.27 -21.54,-133.71 -1.7,-46.52 -1.17,-94.1 -4.03,-141.7 -2.88,-47.58 -9.66,-95.07 -20.93,-140.71 -5.34,-22.96 -11.88,-45.1 -17.09,-67.28 -5.25,-22.19 -9.69,-44.29 -13.24,-66.13 -6.92,-43.69 -10.12,-86.59 -6.78,-126.89 3.45,-40.21 14.19,-77.72 32.64,-107.72 18.66,-29.87 43.97,-51.35 68.89,-65.45 25.12,-13.99 49.34,-21.59 69.38,-26.66 20.19,-4.68 36.35,-7.12 47.39,-8.35 11.06,-1.2 16.96,-1.84 16.96,-1.84 0,0 -5.91,0.49 -17,1.43 -11.09,0.96 -27.32,3.01 -47.71,7.22 -20.24,4.62 -44.81,11.64 -70.66,25.24 -25.64,13.64 -52.21,35.03 -71.72,65.61 -19.4,30.59 -30.92,68.95 -34.98,109.88 -3.96,41.03 -1.4,84.63 5.55,128.79 3.49,22.1 7.87,44.41 13.07,66.81 5.16,22.43 11.66,44.81 16.79,67.4 10.94,45.13 17.41,92.04 20.09,139.23 3.05,47.19 2.73,94.62 4.66,141.48 1.97,46.76 7.35,93.48 22.59,136.03 14.75,42.66 39.94,79.73 67.46,109.85 28.18,30.1 61.45,52.65 95.65,64.33 34.19,11.87 67.97,13.26 96.8,10.06 28.96,-3.37 53.39,-10.83 72.75,-18.39 19.4,-7.58 33.88,-15.26 43.53,-20.8 9.65,-5.55 14.48,-9.02 14.48,-9.02" /><path
         id="path200"
         style="fill:#f6826f;fill-opacity:1;fill-rule:nonzero;stroke:none"
         d="m 5944.29,3039.33 c -13.23,192.43 -186.53,206.46 -315.59,261.19 -129.06,54.72 -79.7,424.28 -79.7,424.28 l -253.24,-253.22 c 11.32,-65.56 22.21,-161.75 -5.76,-185.97 -43.47,-37.64 -290.27,-13.03 -345.59,-145.73 -9.91,-23.78 -19.37,-49.59 -28.32,-75.85 393.49,-96.68 620.51,-96.21 1024.79,-76.16 3.11,20.08 4.37,37.49 3.41,51.46" /><path
         id="path202"
         style="fill:#d44749;fill-opacity:1;fill-rule:nonzero;stroke:none"
         d="m 5300.93,3303.61 c 12.94,36.92 4.69,109.63 -4.45,163.77 9.13,-54.06 17.45,-126.74 4.6,-163.71 -0.05,-0.02 -0.1,-0.04 -0.15,-0.06 m -4.46,163.81 c -0.01,0.05 -0.01,0.1 -0.02,0.14 0.01,-0.04 0.01,-0.09 0.02,-0.14" /><path
         id="path204"
         style="fill:#f46765;fill-opacity:1;fill-rule:nonzero;stroke:none"
         d="m 5301.08,3303.67 c 12.85,36.97 4.53,109.65 -4.6,163.71 0,0.01 -0.01,0.03 -0.01,0.04 -0.01,0.05 -0.01,0.1 -0.02,0.14 -0.23,1.35 -0.46,2.69 -0.69,4.02 v 0 l 220.35,220.33 c -0.46,-84.45 -4.45,-170.48 -43.07,-247.26 -33.86,-67.31 -100.11,-114.15 -171.96,-140.98" /><path
         id="path206"
         style="fill:#f6826f;fill-opacity:1;fill-rule:nonzero;stroke:none"
         d="m 5218.6,4142.5 c 161.21,19.94 317.28,-38 361.67,-189.22 0,0 -15.89,-105.49 -18.68,-156.02 18.05,46.27 69.96,57.51 58.19,-51.87 -13.19,-122.54 -65.83,-109.76 -79.65,-102.66 -17.42,-53.21 -42.2,-103 -77.56,-139.38 -142.03,-146.1 -425.85,-142.82 -456.59,170.97 -30.75,313.79 61.79,449.52 212.62,468.18" /><path
         id="path208"
         style="fill:#7a3134;fill-opacity:1;fill-rule:nonzero;stroke:none"
         d="m 5230.2,4144.39 c 0,0 18.13,-193.22 133.62,-288.32 119.54,-98.46 175.8,-63.3 175.8,-63.3 0,0 51.57,37.51 70.33,-9.37 18.75,-46.88 -1.33,-157.1 -69.82,-140.67 0,0 -61.45,-332.84 11.21,-375.03 72.67,-42.2 100.8,28.13 227.38,-21.1 0,0 246.13,75.01 124.24,325.83 -64.32,132.34 -174.65,213.3 -189.87,393.81 -16.41,194.56 -253.17,400.84 -482.89,178.15" /><path
         id="path210"
         style="fill:#7a3134;fill-opacity:1;fill-rule:nonzero;stroke:none"
         d="m 5230.2,4144.39 c 0,0 0.37,-8.13 1.76,-22.27 1.24,-14.15 4.1,-34.26 8.49,-58.12 4.31,-23.9 11.45,-51.34 21.26,-79.9 4.89,-14.29 10.74,-28.76 17.64,-42.98 6.76,-14.3 14.88,-28.16 23.77,-41.45 8.99,-13.2 18.72,-25.97 29.83,-37.08 l 8.26,-8.33 c 2.96,-2.53 5.89,-5.05 8.81,-7.55 5.65,-5.26 12.14,-9.28 18.15,-13.73 6.07,-4.36 12.74,-7.55 18.81,-11.44 6.37,-3.35 12.83,-6.21 19.01,-9.24 6.45,-2.38 12.74,-4.7 18.81,-6.94 6.17,-1.99 12.32,-3.31 18.13,-4.9 5.79,-1.79 11.59,-2.26 16.99,-3.32 5.44,-0.82 10.56,-2.17 15.48,-2.36 9.81,-0.67 18.38,-1.95 25.47,-1.8 14.22,-0.13 22.34,-0.21 22.34,-0.21 0,0 -8.12,-0.58 -22.33,-1.61 -7.13,-0.61 -15.79,0.1 -25.77,0.14 -5.01,-0.12 -10.24,0.89 -15.83,1.37 -5.55,0.72 -11.47,1.08 -17.45,2.63 -6,1.39 -12.35,2.49 -18.76,4.28 -6.34,2.06 -12.89,4.19 -19.63,6.37 -6.49,2.86 -13.28,5.56 -20.01,8.77 -6.49,3.67 -13.36,7.1 -19.75,11.48 -6.3,4.53 -13.09,8.64 -19.03,14.01 -3.07,2.56 -6.15,5.13 -9.25,7.72 l -8.68,8.52 c -11.67,11.39 -21.94,24.44 -31.37,37.99 -9,13.84 -17.15,28.2 -23.89,42.94 -6.88,14.65 -12.65,29.51 -17.44,44.11 -5.01,14.55 -8.53,29 -11.64,42.71 -2.99,13.73 -5.37,26.8 -7.11,38.93 -3.6,24.24 -4.63,44.64 -5.12,58.87 -0.4,14.26 0.05,22.39 0.05,22.39" /><path
         id="path212"
         style="fill:#7a3134;fill-opacity:1;fill-rule:nonzero;stroke:none"
         d="m 5680.27,3265.35 c 0,0 -2.09,-0.49 -6.02,-1.42 -3.9,-0.97 -9.64,-2.23 -16.85,-4.24 -7.2,-2.02 -15.94,-4.46 -25.97,-7.27 -10.02,-2.9 -21.38,-6.34 -34.48,-8.22 -12.94,-1.9 -28.28,-2.42 -43.01,3.14 -14.74,5.43 -27.88,14.86 -39.96,26.31 -12.32,13.3 -16.06,30.83 -18.71,47.6 -2.39,17.02 -2.7,34.35 -2.25,51.58 1,34.47 5.28,68.61 10.18,100.4 5.06,31.78 11.04,61.19 16.52,86.31 10.95,50.24 20.41,83.19 20.41,83.19 0,0 -8.1,-33.3 -17.89,-83.71 -4.85,-25.21 -9.97,-54.73 -14.31,-86.49 -4.38,-31.73 -8.1,-65.78 -8.55,-99.83 -0.18,-16.99 0.42,-34.03 2.98,-50.39 2.63,-16.07 7.11,-32.63 17.18,-43.02 11.37,-10.34 24.34,-18.93 37.44,-23.29 13.1,-4.58 26.48,-5.07 38.85,-3.48 12.36,1.65 23.83,4.2 34.11,6.1 10.25,2 19.24,3.82 26.74,4.66 14.96,2.04 23.59,2.07 23.59,2.07" /><path
         id="path214"
         style="fill:#7a3134;fill-opacity:1;fill-rule:nonzero;stroke:none"
         d="m 5499.77,3820.91 c 0,0 -11.72,-60.95 7.04,-119.55 0,0 4.68,77.35 44.53,107.82 39.85,30.48 -51.57,11.73 -51.57,11.73" /><path
         id="path216"
         style="fill:#29202e;fill-opacity:1;fill-rule:nonzero;stroke:none"
         d="m 5264.97,3813.13 c 0,0 0.39,-2.35 0.86,-6.43 0.36,-1.98 0.19,-4.65 1.01,-7.22 0.81,-2.6 1.39,-5.44 2.35,-8.38 0.68,-1.42 1.39,-2.89 2.13,-4.42 0.63,-1.54 1.31,-3.08 2.5,-4.37 1.01,-1.36 2.05,-2.74 3.11,-4.17 1.41,-1.09 2.68,-2.31 3.99,-3.52 1.14,-1.41 3.1,-1.89 4.58,-2.92 1.51,-1.05 3.26,-1.71 5.09,-2.26 3.45,-1.51 7.41,-1.94 11.26,-2.42 l 5.92,-0.1 5.9,0.76 c 1.99,0.11 3.84,0.84 5.74,1.3 1.87,0.56 3.84,0.85 5.51,1.81 1.75,0.78 3.44,1.64 5.2,2.31 1.67,0.83 3.14,1.92 4.69,2.84 3.22,1.72 5.57,4.23 8.14,6.23 2.62,1.99 4.16,4.58 6.13,6.51 1.95,1.96 3.12,4.03 4.23,5.7 2.22,3.34 3.66,5.32 3.66,5.32 0,0 -0.28,-2.28 -1.08,-6.42 -0.45,-2.05 -0.77,-4.69 -2.15,-7.31 -1.32,-2.61 -2.23,-6.08 -4.58,-8.96 -2.21,-2.97 -4.36,-6.6 -7.8,-9.28 -1.63,-1.43 -3.22,-3.06 -5.06,-4.44 -1.91,-1.29 -3.97,-2.43 -6.04,-3.68 -2.01,-1.37 -4.37,-2.09 -6.67,-3.04 -2.33,-0.9 -4.66,-1.96 -7.22,-2.27 -2.52,-0.44 -5.05,-1.07 -7.64,-1.29 l -7.88,-0.02 c -5.23,0.67 -10.56,1.43 -15.36,3.82 -2.5,0.9 -4.83,2.1 -6.88,3.8 -2.03,1.65 -4.42,2.76 -5.97,4.84 -1.68,1.9 -3.37,3.74 -4.84,5.64 -1.18,2.1 -2.18,4.24 -3.19,6.26 -2.3,3.94 -2.31,8.36 -3.26,11.98 -0.37,3.8 0.03,7.36 0.13,10.32 0.02,3.01 1.17,5.23 1.58,7.27 1.13,3.96 1.91,6.21 1.91,6.21" /><path
         id="path218"
         style="fill:#29202e;fill-opacity:1;fill-rule:nonzero;stroke:none"
         d="m 5057.29,3831.2 c 0,0 0.4,-2.35 0.86,-6.43 0.36,-1.98 0.19,-4.64 1.01,-7.22 0.81,-2.6 1.39,-5.44 2.35,-8.38 0.68,-1.42 1.39,-2.89 2.13,-4.42 0.63,-1.54 1.32,-3.08 2.51,-4.37 1.01,-1.35 2.04,-2.74 3.1,-4.17 1.42,-1.09 2.68,-2.31 4,-3.52 1.14,-1.4 3.09,-1.89 4.58,-2.92 1.5,-1.05 3.25,-1.71 5.08,-2.26 3.45,-1.51 7.42,-1.94 11.26,-2.42 l 5.93,-0.1 5.89,0.76 c 1.99,0.11 3.84,0.84 5.74,1.3 1.87,0.56 3.84,0.85 5.52,1.81 1.75,0.78 3.43,1.64 5.2,2.31 1.66,0.83 3.13,1.92 4.69,2.84 3.22,1.72 5.56,4.23 8.14,6.23 2.61,1.99 4.16,4.58 6.13,6.51 1.95,1.96 3.11,4.03 4.22,5.7 2.22,3.34 3.66,5.33 3.66,5.33 0,0 -0.28,-2.29 -1.08,-6.42 -0.45,-2.06 -0.76,-4.7 -2.15,-7.31 -1.32,-2.62 -2.22,-6.09 -4.58,-8.97 -2.21,-2.97 -4.35,-6.6 -7.8,-9.28 -1.63,-1.43 -3.22,-3.06 -5.06,-4.44 -1.91,-1.29 -3.97,-2.43 -6.03,-3.68 -2.02,-1.37 -4.37,-2.09 -6.68,-3.04 -2.32,-0.9 -4.65,-1.96 -7.22,-2.27 -2.52,-0.44 -5.04,-1.07 -7.64,-1.28 l -7.88,-0.03 c -5.22,0.67 -10.56,1.43 -15.36,3.82 -2.5,0.91 -4.83,2.11 -6.88,3.8 -2.03,1.65 -4.42,2.76 -5.97,4.84 -1.68,1.91 -3.36,3.74 -4.84,5.64 -1.18,2.1 -2.18,4.24 -3.18,6.26 -2.31,3.94 -2.32,8.37 -3.27,11.98 -0.37,3.8 0.04,7.36 0.14,10.32 0.01,3.01 1.17,5.23 1.57,7.27 1.13,3.96 1.91,6.21 1.91,6.21" /><path
         id="path220"
         style="fill:#7a3134;fill-opacity:1;fill-rule:nonzero;stroke:none"
         d="m 5440.2,3897.23 c 0,0 -12.08,5.27 -30.21,13.18 -4.48,1.72 -9.1,3.88 -14.12,5.73 -4.99,1.91 -10.14,4.01 -15.56,5.71 -5.31,2.07 -10.92,3.4 -16.47,5.12 -5.59,1.5 -11.28,2.62 -16.92,3.75 -5.65,0.44 -11.33,2 -16.85,1.73 -2.77,0.02 -5.54,0.13 -8.29,0.33 -2.74,0.04 -5.36,-0.55 -8.04,-0.63 -2.69,-0.2 -5.34,-0.4 -7.93,-0.59 -2.55,-0.56 -5.05,-1.1 -7.48,-1.63 -2.53,-0.46 -4.98,-0.91 -7.35,-1.34 -2.31,-0.79 -4.53,-1.55 -6.67,-2.28 -4.27,-1.57 -8.71,-2.39 -12.24,-3.96 -3.43,-1.71 -6.68,-2.99 -9.35,-4.12 -5.38,-2.25 -8.81,-3.38 -8.81,-3.38 0,0 1.61,2.96 5.07,7.89 1.75,2.45 3.87,5.53 6.6,8.82 2.7,3.31 6.5,6.24 10.56,9.73 2.11,1.67 4.3,3.42 6.57,5.22 2.57,1.37 5.23,2.78 7.96,4.23 2.82,1.39 5.71,2.81 8.68,4.26 3.07,1.19 6.38,1.88 9.7,2.84 3.33,0.86 6.75,1.91 10.26,2.37 3.52,0.35 7.11,0.63 10.74,0.81 7.33,0.93 14.49,-0.72 21.79,-1.27 7.05,-1.54 14.17,-3.11 20.72,-5.62 6.52,-2.55 12.91,-5.15 18.52,-8.57 5.84,-3.04 10.98,-6.73 15.76,-10.25 4.8,-3.5 8.88,-7.39 12.67,-10.83 7.27,-7.35 12.64,-14 15.91,-19.07 3.38,-4.98 4.78,-8.18 4.78,-8.18" /><path
         id="path222"
         style="fill:#7a3134;fill-opacity:1;fill-rule:nonzero;stroke:none"
         d="m 5184,3911.16 c 0,0 -9.86,3.77 -24.65,9.41 -3.68,1.11 -7.46,2.64 -11.55,3.82 -4.04,1.34 -8.26,2.65 -12.64,3.72 -4.3,1.4 -8.85,1.94 -13.31,3.08 -4.51,0.53 -9.06,1.51 -13.56,1.64 -4.51,0.16 -9.03,0.59 -13.38,0.02 -2.18,-0.23 -4.41,-0.18 -6.56,-0.42 -2.11,-0.45 -4.2,-0.92 -6.31,-1.25 -4.31,-0.42 -8.16,-2.03 -12.05,-3.18 -4,-0.94 -7.55,-2.57 -10.91,-4.12 -3.24,-1.68 -6.82,-2.56 -9.41,-4.25 -2.63,-1.62 -5.15,-2.88 -7.21,-3.98 -4.15,-2.18 -6.82,-3.33 -6.82,-3.33 0,0 1.06,2.51 3.43,6.71 1.2,2.1 2.65,4.71 4.56,7.54 1.72,3.02 4.61,5.56 7.55,8.64 1.52,1.52 3.11,3.11 4.75,4.75 1.67,1.65 3.84,2.74 5.87,4.2 4.2,2.69 8.63,5.78 13.97,7.42 2.58,1.03 5.27,1.94 8,2.88 2.76,0.77 5.65,1.11 8.55,1.59 5.82,1.28 11.74,0.91 17.67,0.77 5.88,-0.36 11.62,-1.61 17.16,-2.93 5.39,-1.77 10.78,-3.33 15.47,-5.85 4.86,-2.17 9.23,-4.81 13.21,-7.48 4.08,-2.52 7.43,-5.65 10.64,-8.22 6.18,-5.55 10.68,-10.78 13.46,-14.74 2.87,-3.9 4.07,-6.44 4.07,-6.44" /><path
         id="path224"
         style="fill:#f2515a;fill-opacity:1;fill-rule:nonzero;stroke:none"
         d="m 5182.13,3829.76 c -1.12,-13.65 -3.54,-26.87 -6.16,-40.03 -2.8,-13.11 -6.09,-26.06 -9.67,-38.91 l -5.78,-19.15 c -1.99,-6.37 -4.25,-12.64 -6.36,-18.96 -2.05,-6.35 -4.6,-12.53 -6.92,-18.79 -2.27,-6.27 -5.01,-12.39 -7.56,-18.58 l -2.69,7.7 c 7.58,-5.9 15.05,-11.94 22.41,-18.16 7.36,-6.21 14.61,-12.59 21.6,-19.36 -8.93,3.86 -17.6,8.11 -26.16,12.53 -8.57,4.4 -17.01,9 -25.36,13.73 l -3.97,2.25 1.28,5.45 c 1.53,6.51 2.86,13.09 4.66,19.51 1.76,6.44 3.28,12.95 5.31,19.3 1.96,6.37 3.78,12.79 5.86,19.12 l 6.44,18.94 c 4.57,12.54 9.43,24.98 14.78,37.27 5.52,12.23 11.26,24.39 18.29,36.14" /><path
         id="path226"
         style="fill:#f2515a;fill-opacity:1;fill-rule:nonzero;stroke:none"
         d="m 5562.93,3686.98 c 2.42,4.29 4.87,8.19 6.94,12.13 0.97,1.98 2.13,3.79 2.83,5.71 0.41,0.93 0.79,1.88 1.05,2.75 l 0.77,2.57 c 0.42,1.63 0.37,2.99 0.2,3.85 l -0.46,0.84 -0.55,0.48 -0.89,0.65 -1.62,0.88 -2.1,0.85 -2.26,0.96 -5.59,2.35 -0.69,5.45 c -0.4,3.2 -0.44,5.75 -0.43,8.6 -0.01,2.79 0.23,5.56 0.54,8.34 0.66,5.55 1.97,11.14 4.3,16.5 0.55,1.33 1.12,2.67 1.91,3.95 0.78,1.29 1.35,2.59 2.29,3.8 1.74,2.45 3.76,4.69 6.01,6.69 1.04,1.05 2.52,1.74 3.72,2.56 1.22,0.83 2.56,1.46 3.99,1.89 1.42,0.43 2.69,1 4.17,1.06 l 4.16,0.18 -2.82,-2.86 c -0.97,-0.75 -1.63,-1.92 -2.33,-2.87 -0.71,-0.96 -1.42,-1.81 -1.88,-2.92 -0.5,-1.06 -1.09,-1.92 -1.44,-3.03 -0.89,-2.01 -1.54,-4.08 -1.95,-6.26 -0.35,-0.98 -0.42,-2.17 -0.65,-3.22 -0.21,-1.06 -0.41,-2.14 -0.5,-3.27 -0.55,-4.38 -0.81,-8.9 -0.83,-13.48 -0.05,-2.29 0.04,-4.59 0.06,-6.89 l 0.33,-6.61 -6.27,7.8 3.99,-1.76 c 1.33,-0.7 2.56,-1.1 3.96,-2.22 1.35,-0.98 2.69,-1.98 3.96,-3.04 1.26,-1.32 2.45,-2.99 3.52,-4.53 1.1,-1.54 1.67,-3.78 2.23,-5.7 0.54,-1.97 0.28,-3.95 0.27,-5.89 -0.49,-3.66 -1.83,-6.73 -3.37,-9.2 -0.73,-1.36 -1.69,-2.27 -2.52,-3.4 -0.81,-1.13 -1.84,-1.97 -2.78,-2.87 -1.9,-1.82 -3.84,-3.36 -5.93,-4.73 -4.18,-2.68 -8.54,-4.85 -13.34,-6.09" /><path
         id="path228"
         style="fill:#ffffff;fill-opacity:1;fill-rule:nonzero;stroke:none"
         d="m 5120.03,3600.56 194.56,2.34 c 0,0 -135.11,-98.45 -194.56,-2.34" /><path
         id="path230"
         style="fill:#f2515a;fill-opacity:1;fill-rule:nonzero;stroke:none"
         d="m 5089.56,3248.94 c 0,0 304.73,-192.21 661.03,0 0,0 145.33,9.38 187.53,-140.64 42.19,-150.02 -18.75,-745.42 -196.9,-857.94 -178.16,-112.52 -782.9,247.34 -782.9,247.34 l -196.94,1.13 c 0,0 126.39,489.35 154.71,565.2 28.32,75.85 56.26,170.85 173.47,184.91" /><path
         id="path232"
         style="fill:#df7462;fill-opacity:1;fill-rule:nonzero;stroke:none"
         d="m 4916.09,3064.03 c 1.15,3.08 2.31,6.24 3.47,9.38 v 0 c -1.16,-3.16 -2.31,-6.28 -3.47,-9.38" /><path
         id="path234"
         style="fill:#f14b4f;fill-opacity:1;fill-rule:nonzero;stroke:none"
         d="m 5525.56,2517.59 c 0,0 -506.33,103.14 -553.21,117.2 -5.96,1.79 -13.97,2.59 -23.47,2.59 -40.81,0 -108.98,-14.85 -159.21,-29.96 38.98,148.77 106.64,403.62 126.42,456.61 v 0 c 1.16,3.1 2.31,6.22 3.47,9.37 78.51,-163.93 305.04,-250.2 461.14,-318.2 63.93,-27.85 127.64,-48.91 192.08,-62.21 l -47.22,-175.4" /><path
         id="path236"
         style="fill:#f6826f;fill-opacity:1;fill-rule:nonzero;stroke:none"
         d="m 5591.19,2761.37 346.93,23.44 c 0,0 -38.97,-546.71 -240.57,-574.84 -201.59,-28.13 -662.39,208.29 -770.22,283.3 l -259.71,5.56 c 0,0 37.5,65.64 60.95,84.39 23.44,18.75 196.9,65.64 243.78,51.57 46.88,-14.06 553.21,-117.2 553.21,-117.2 l 65.63,243.78" /><path
         id="path238"
         style="fill:#f7909b;fill-opacity:1;fill-rule:nonzero;stroke:none"
         d="m 5932.06,2719.7 c -0.18,0 -0.38,0 -0.56,0 0.59,4.89 1.13,9.55 1.64,13.98 0.54,3.91 1.08,7.81 1.6,11.71 -0.75,-7.65 -1.63,-16.26 -2.68,-25.69" /><path
         id="path240"
         style="fill:#f2515a;fill-opacity:1;fill-rule:nonzero;stroke:none"
         d="m 5582.24,2728.12 v 0 l 8.95,33.25 -8.95,-33.25 m 350.9,5.56 c 3.59,31.71 4.98,51.13 4.98,51.13 v 0 c 0,0 -0.96,-14.67 -3.38,-39.42 -0.52,-3.9 -1.06,-7.8 -1.6,-11.71" /><path
         id="path242"
         style="fill:#f46765;fill-opacity:1;fill-rule:nonzero;stroke:none"
         d="m 5931.5,2719.7 c -116.42,1.47 -232.99,6.85 -349.26,8.42 l 8.95,33.25 346.93,23.44 c 0,0 -1.39,-19.42 -4.98,-51.13 -0.51,-4.43 -1.05,-9.09 -1.64,-13.98" /><path
         id="path244"
         style="fill:#d9e9ef;fill-opacity:1;fill-rule:nonzero;stroke:none"
         d="m 3005.81,2454.29 c -515.26,0 -932.95,417.7 -932.95,932.95 0,515.26 417.69,932.95 932.95,932.95 515.25,0 932.95,-417.69 932.95,-932.95 0,-150.95 -35.84,-293.49 -99.49,-419.65 -103.98,43.88 -251.78,37.12 -282.87,52.66 -40.21,20.11 -57.45,71.82 -57.45,71.82 -3.15,-1.22 -6.37,-2.44 -9.61,-3.65 -24.77,43.98 -44.6,99.38 -60.13,154.5 -33.05,117.39 -46.63,233.44 -46.82,235.12 v 0 c 0,0.01 0,0.02 0,0.02 v 0 l -189.64,-266.5 c -82.8,231.23 -354.52,598.68 -354.52,598.68 0,0 -140.77,-22.98 -149.38,-206.83 -8.62,-183.86 77.56,-548.69 298.76,-611.89 v 22.98 c 0,0 14.36,-23.57 59.6,-23.58 30.49,0 75,10.71 138.61,46.56 2.42,1.36 4.67,2.86 6.78,4.49 2.58,-13.26 3.99,-25.8 3.69,-36.88 -13.9,-3.2 -21.96,-4.95 -21.96,-4.95 2.26,-16.7 -1.15,-29.85 -8.98,-40.37 -2.21,-0.8 -4.55,-1.57 -7,-2.33 1.47,-0.3 2.93,-0.6 4.4,-0.89 -45.97,-52.51 -210.44,-34.83 -310.16,-79.94 -119.82,-54.2 -114.98,-377.56 -114.91,-382.02 v 0 c 0,-0.01 0,-0.02 0,-0.03 v 0 c 0,-0.01 0,-0.01 0,-0.01 v 0 c 0,0 0,0 0,-0.01 v 0 0 0 0 c 0.43,-0.08 0.86,-0.17 1.29,-0.26 1.08,-0.22 2.19,-0.44 3.28,-0.66 18.96,-3.83 38.19,-7.35 57.67,-10.61 v 0 c 9.5,-1.59 19.03,-3.1 28.63,-4.56 v 0 c 72.68,-11.03 148.19,-18.42 224.19,-23 -15.53,-0.77 -31.21,-1.16 -46.93,-1.16" /><g
         id="g246"><g
           clip-path="url(#clipPath252)"
           id="g248"><path
             id="path254"
             style="fill:#fcd0b0;fill-opacity:1;fill-rule:nonzero;stroke:none"
             d="m 2838.23,3810.24 c 0,0 -140.77,-22.98 -149.38,-206.83 -8.62,-183.86 77.56,-548.69 298.76,-611.89 v 22.98 c 0,0 40.22,-66.07 198.21,22.98 158,89.06 -347.59,772.76 -347.59,772.76" /><path
             id="path256"
             style="fill:#f78e92;fill-opacity:1;fill-rule:nonzero;stroke:none"
             d="m 3185.82,2971.41 c -4.88,-5.45 -14.49,-9.97 -27.47,-13.97 136.69,-27.88 269.81,-19.66 371.04,75.93 -108.21,109 -147,444.69 -147,444.69 l -216.34,-304.03 -33.76,28.69 c 0,0 95.25,-184.74 53.53,-231.31" /><path
             id="path258"
             style="fill:#b4bdc6;fill-opacity:1;fill-rule:nonzero;stroke:none"
             d="m 3196.29,3005.09 c 0.3,11.08 -1.11,23.62 -3.69,36.88 0.02,0.02 0.02,0.02 0.04,0.03 2.59,-13.26 4.01,-25.81 3.71,-36.9 -0.02,0 -0.04,-0.01 -0.06,-0.01 m 232.92,237.83 c -33.08,117.38 -46.63,233.44 -46.82,235.12 0.19,-1.68 13.77,-117.73 46.82,-235.12 m -46.82,235.12 c 0,0.01 0,0.02 0,0.02 0,0 0,-0.01 0,-0.02" /><path
             id="path260"
             style="fill:#d9ac95;fill-opacity:1;fill-rule:nonzero;stroke:none"
             d="m 3192.6,3041.97 c -13.54,69.53 -59.32,158.83 -60.29,160.72 0.97,-1.9 46.76,-91.16 60.33,-160.69 -0.02,-0.01 -0.02,-0.01 -0.04,-0.03 m -60.3,160.73 c 0,0 0,0.01 -0.01,0.01 0.01,0 0.01,-0.01 0.01,-0.01 m -0.01,0.01 v 0 0 m 0,0.01 v 0 0 0" /><path
             id="path262"
             style="fill:#ee7c7e;fill-opacity:1;fill-rule:nonzero;stroke:none"
             d="m 3196.35,3005.1 c 0.3,11.09 -1.12,23.64 -3.71,36.9 -13.57,69.53 -59.36,158.79 -60.33,160.69 -0.01,0 -0.01,0.01 -0.01,0.01 0,0 0,0.01 -0.01,0.01 v 0 0 c 0,0.01 0,0.01 0,0.01 v 0 l 33.76,-28.69 216.34,304.03 v 0 c 0,0 0,-0.01 0,-0.02 v 0 c 0.19,-1.68 13.74,-117.74 46.82,-235.12 1.73,-6.15 3.51,-12.3 5.35,-18.45 -32.05,-99.55 -110.99,-171.21 -205.55,-211.68 -12.83,-3.09 -23.9,-5.67 -32.66,-7.69" /><path
             id="path264"
             style="fill:#f78e92;fill-opacity:1;fill-rule:nonzero;stroke:none"
             d="m 2894.51,3818.36 c 157.39,86.75 348.93,56.82 442.46,-90.33 0,0 11.9,-35.94 24.41,-90.52 39.86,31.66 60.29,1.51 81.29,-118.37 23.52,-134.32 -36.35,-136.86 -53.22,-133.54 -2.21,-61.9 -12.15,-92.51 -34.13,-144.15 -100.69,-236.51 -381.64,-223.77 -502.73,8.61 -161.19,309.35 -71.82,505.6 41.92,568.3" /><path
             id="path266"
             style="fill:#fcd0b0;fill-opacity:1;fill-rule:nonzero;stroke:none"
             d="m 2786.52,3721.19 c 0,0 8.62,-149.38 226.94,-158 l -51.71,51.71 c 0,0 97.68,-43.09 278.66,-2.87 l -17.24,28.72 c 0,0 172.36,-255.67 112.04,-496.98 0,0 132.14,68.95 28.72,396.44 0,0 46.24,71.63 71.82,0 28.73,-80.44 5.75,-112.04 -37.34,-158 0,0 20.1,-163.74 -8.62,-224.07 0,0 146.51,68.94 160.87,195.34 14.36,126.4 -31.6,459.63 -261.42,571.67 -229.81,112.04 -482.61,22.98 -502.72,-203.96" /><path
             id="path268"
             style="fill:#f47074;fill-opacity:1;fill-rule:nonzero;stroke:none"
             d="m 2990.95,3423.68 c 1.85,-9.28 2.33,-18.52 2.44,-27.7 0.02,-9.19 -0.71,-18.3 -1.66,-27.4 l -2.14,-13.56 c -0.71,-4.51 -1.95,-8.96 -2.96,-13.44 -2.04,-8.92 -5.2,-17.72 -8.57,-26.31 l -3.62,7.42 c 10.74,-5.04 21.43,-10.22 32.04,-15.59 10.62,-5.36 21.16,-10.89 31.55,-16.81 -11.58,2.97 -23.01,6.33 -34.36,9.86 -11.36,3.52 -22.64,7.24 -33.87,11.09 l -4.46,1.53 0.84,5.89 c 0.63,4.44 1.07,8.9 1.96,13.24 0.92,4.31 1.23,8.82 2.18,13.16 1.6,8.74 3.2,17.53 5.11,26.27 1.87,8.76 4.05,17.49 6.45,26.22 2.62,8.72 5.28,17.43 9.07,26.13" /><path
             id="path270"
             style="fill:#f47074;fill-opacity:1;fill-rule:nonzero;stroke:none"
             d="m 3412,3426.9 c 0.89,5.21 1.89,10.16 2.47,15.04 0.23,2.43 0.67,4.79 0.64,7.1 0.05,1.14 0.07,2.3 0,3.35 -0.09,1.05 0.06,2.2 -0.2,3.11 -0.24,2 -0.91,3.61 -1.53,4.73 l -1.08,1.21 -1.23,0.72 -1.67,0.55 -2.4,0.27 c -0.69,0.25 -1.85,-0.02 -2.79,-0.03 l -2.95,-0.07 -5.26,-0.13 -2.45,4.02 c -1.77,2.91 -2.97,5.45 -4.25,8.26 -1.26,2.74 -2.29,5.59 -3.26,8.46 -1.87,5.76 -3.2,11.81 -3.39,18.08 -0.1,1.55 -0.11,3.12 0.01,4.71 0.13,1.6 0.05,3.13 0.38,4.73 0.5,3.16 1.37,6.25 2.57,9.23 0.49,1.5 1.56,2.85 2.31,4.22 0.74,1.38 1.73,2.62 2.87,3.73 1.13,1.1 2.05,2.29 3.41,3.08 l 3.84,2.31 -1.83,-3.94 c -0.72,-1.15 -0.94,-2.59 -1.33,-3.85 -0.38,-1.26 -0.79,-2.45 -0.85,-3.79 -0.1,-1.31 -0.41,-2.47 -0.34,-3.77 -0.13,-2.51 0.02,-4.97 0.46,-7.46 0.03,-1.2 0.43,-2.47 0.62,-3.69 0.19,-1.22 0.5,-2.44 0.89,-3.66 1.34,-4.86 3.04,-9.71 5.11,-14.48 0.99,-2.39 2.12,-4.74 3.21,-7.1 1.12,-2.28 2.39,-4.79 3.46,-6.73 l -7.7,3.89 4.59,0.05 c 1.57,-0.08 2.96,0.1 4.72,-0.36 l 5.02,-1.14 c 1.71,-0.68 3.48,-1.71 5.13,-2.66 1.66,-0.94 3.06,-2.74 4.4,-4.22 1.33,-1.55 1.9,-3.49 2.73,-5.25 0.7,-1.78 0.7,-3.51 0.97,-5.25 0.19,-1.72 -0.09,-3.22 -0.15,-4.81 -0.05,-1.6 -0.53,-2.93 -0.78,-4.4 -0.24,-1.45 -0.82,-2.75 -1.3,-4.06 -0.95,-2.65 -2.1,-5.08 -3.43,-7.42 -2.68,-4.64 -5.79,-8.92 -9.64,-12.58" /><path
             id="path272"
             style="fill:#29202e;fill-opacity:1;fill-rule:nonzero;stroke:none"
             d="m 3196.63,3485.24 c 3.08,-22.51 -2.41,-41.86 -12.26,-43.2 -9.85,-1.35 -20.33,15.81 -23.41,38.32 -3.08,22.52 2.41,41.86 12.26,43.21 9.85,1.34 20.33,-15.82 23.41,-38.33" /><path
             id="path274"
             style="fill:#29202e;fill-opacity:1;fill-rule:nonzero;stroke:none"
             d="m 2929.56,3432.22 c 4.45,-22.28 0.16,-41.92 -9.59,-43.87 -9.75,-1.95 -21.26,14.54 -25.71,36.82 -4.45,22.28 -0.15,41.93 9.59,43.87 9.75,1.95 21.26,-14.54 25.71,-36.82" /><path
             id="path276"
             style="fill:#29202e;fill-opacity:1;fill-rule:nonzero;stroke:none"
             d="m 3091.42,3554.48 c 0,0 3.42,9.92 13.75,21.29 2.64,2.74 5.42,5.92 8.96,8.56 3.35,2.9 7.14,5.71 11.35,8.22 4.1,2.69 8.86,4.69 13.62,6.81 5.02,1.55 9.99,3.62 15.41,4.27 l 8.02,1.15 c 2.69,0.22 5.42,0.03 8.09,0.02 5.36,0.22 10.54,-0.99 15.48,-2.07 5.02,-0.72 9.38,-3.19 13.57,-4.89 4.3,-1.52 7.75,-4.15 10.93,-6.43 3.14,-2.32 6.14,-4.15 8.18,-6.62 2.2,-2.24 3.95,-4.36 5.38,-6.06 2.85,-3.41 4.22,-5.51 4.22,-5.51 0,0 -2.62,0.53 -6.78,1.72 -2.06,0.61 -4.57,1.28 -7.25,2.26 -2.63,1.09 -6.04,1.25 -9.27,2.22 -3.34,0.76 -6.81,1.75 -10.59,2.06 -3.77,0.35 -7.54,1.31 -11.55,1.12 -3.97,0.09 -7.97,0.45 -12.06,-0.09 l -6.14,-0.4 -6.15,-1.09 c -4.17,-0.29 -8.15,-2.01 -12.27,-2.72 -3.95,-1.44 -8.05,-2.4 -11.86,-3.97 -3.83,-1.51 -7.69,-2.78 -11.21,-4.45 -3.6,-1.63 -7,-3.16 -10.15,-4.57 -6.42,-3.19 -11.77,-5.85 -15.52,-7.71 -3.92,-1.99 -6.16,-3.12 -6.16,-3.12" /><path
             id="path278"
             style="fill:#29202e;fill-opacity:1;fill-rule:nonzero;stroke:none"
             d="m 2809.41,3490.69 c 0,0 2.81,10.11 12.42,22.09 2.47,2.9 5.06,6.24 8.43,9.09 3.16,3.1 6.77,6.14 10.82,8.91 3.93,2.92 8.56,5.22 13.18,7.62 4.91,1.85 9.75,4.23 15.12,5.21 l 7.94,1.64 c 2.67,0.38 5.4,0.35 8.06,0.51 5.34,0.55 10.59,-0.34 15.58,-1.11 5.06,-0.42 9.56,-2.63 13.85,-4.06 4.38,-1.25 7.99,-3.67 11.3,-5.75 3.27,-2.12 6.38,-3.76 8.58,-6.11 2.33,-2.09 4.2,-4.11 5.73,-5.71 3.05,-3.23 4.55,-5.25 4.55,-5.25 0,0 -2.65,0.37 -6.87,1.31 -2.1,0.48 -4.64,1 -7.37,1.8 -2.7,0.93 -6.11,0.89 -9.4,1.66 -3.38,0.55 -6.9,1.33 -10.7,1.41 -3.77,0.12 -7.6,0.84 -11.59,0.41 -3.97,-0.16 -7.98,-0.04 -12.03,-0.83 l -6.11,-0.78 -6.07,-1.46 c -4.14,-0.55 -8.01,-2.51 -12.08,-3.46 -3.86,-1.68 -7.88,-2.89 -11.59,-4.7 -3.73,-1.74 -7.51,-3.25 -10.91,-5.13 -3.5,-1.84 -6.8,-3.57 -9.86,-5.18 -6.21,-3.58 -11.39,-6.56 -15.02,-8.64 -3.79,-2.22 -5.96,-3.49 -5.96,-3.49" /><path
             id="path280"
             style="fill:#f47074;fill-opacity:1;fill-rule:nonzero;stroke:none"
             d="m 3013.57,3224.86 c 0,0 3.12,0.3 8.46,1.07 5.33,0.71 12.87,1.83 21.76,3.42 4.46,0.73 9.22,1.78 14.24,2.78 5.04,0.88 10.21,2.58 15.64,3.6 10.64,3.11 22.06,6.01 32.87,10.54 5.57,1.85 10.94,4.16 16.14,6.64 5.3,2.27 10.32,4.88 15.2,7.45 4.98,2.41 9.43,5.33 13.83,7.89 4.45,2.52 8.47,5.18 12.11,7.8 3.6,2.64 7.27,4.73 10.19,6.98 2.83,2.33 5.45,4.26 7.6,5.89 4.32,3.23 6.97,5.02 6.97,5.02 0,0 -1.51,-2.7 -4.44,-7.33 -1.48,-2.29 -3.27,-5.13 -5.49,-8.26 -2.22,-3.14 -5.18,-6.27 -8.36,-9.79 -1.6,-1.75 -3.27,-3.59 -5,-5.48 -1.81,-1.8 -3.91,-3.4 -5.96,-5.2 -4.18,-3.48 -8.42,-7.49 -13.58,-10.5 -5.03,-3.17 -10.03,-6.93 -15.79,-9.43 -5.58,-2.88 -11.34,-5.62 -17.33,-7.79 -5.93,-2.34 -12.07,-4 -18.09,-5.68 -5.98,-1.85 -12.16,-2.41 -17.95,-3.6 -5.89,-0.7 -11.57,-1.39 -17,-1.47 -5.4,-0.31 -10.51,-0.22 -15.22,0.1 -18.87,0.85 -30.8,5.35 -30.8,5.35" /><path
             id="path282"
             style="fill:#458582;fill-opacity:1;fill-rule:nonzero;stroke:none"
             d="m 3174.33,3000.14 c 0,0 198.22,43.09 324.62,91.93 0,0 17.24,-51.71 57.45,-71.82 40.22,-20.11 275.78,-2.87 359.09,-106.29 83.31,-103.42 37.35,-416.55 37.35,-416.55 0,0 -709.56,-106.29 -1215.16,-2.87 0,0 -5.74,327.49 114.91,382.07 120.65,54.58 336.11,17.24 321.74,123.53" /></g></g><g
         id="g284"><g
           clip-path="url(#clipPath290)"
           id="g286"><g
             clip-path="url(#clipPath296)"
             id="g292"><path
               id="path298"
               style="fill:#29202e;fill-opacity:1;fill-rule:nonzero;stroke:none"
               d="m 2736.65,2939.91 0.18,-0.01 c 7.87,0.01 222.52,4.46 486.09,31.74 263.57,27.29 575.85,77.32 779.15,168.83 l -2.36,5.24 c -202.06,-91.01 -514.11,-141.13 -777.38,-168.36 -263.27,-27.25 -477.97,-31.7 -485.5,-31.7 h -0.1 l -0.08,-5.74" /><path
               id="path300"
               style="fill:#29202e;fill-opacity:1;fill-rule:nonzero;stroke:none"
               d="m 2734.94,2823.71 h 0.18 c 7.87,0.01 222.52,4.46 486.09,31.73 263.57,27.3 575.85,77.33 779.15,168.84 l -2.36,5.23 c -202.06,-91 -514.11,-141.12 -777.38,-168.35 -263.27,-27.25 -477.97,-31.7 -485.5,-31.7 h -0.1 l -0.08,-5.75" /><path
               id="path302"
               style="fill:#29202e;fill-opacity:1;fill-rule:nonzero;stroke:none"
               d="m 2733.23,2707.52 h 0.18 c 7.87,0 222.52,4.45 486.09,31.73 263.57,27.3 575.85,77.33 779.15,168.83 l -2.36,5.24 c -202.06,-91 -514.11,-141.12 -777.38,-168.35 -263.26,-27.26 -477.97,-31.71 -485.5,-31.7 h -0.1 l -0.08,-5.75" /><path
               id="path304"
               style="fill:#29202e;fill-opacity:1;fill-rule:nonzero;stroke:none"
               d="m 2731.52,2591.33 h 0.18 c 7.87,0 222.52,4.45 486.09,31.73 263.57,27.29 575.85,77.33 779.15,168.83 l -2.36,5.24 c -202.07,-91 -514.11,-141.13 -777.38,-168.36 -263.27,-27.25 -477.97,-31.7 -485.5,-31.7 h -0.11 l -0.07,-5.74" /><path
               id="path306"
               style="fill:#29202e;fill-opacity:1;fill-rule:nonzero;stroke:none"
               d="m 2729.81,2475.14 0.17,-0.01 c 7.87,0.01 222.52,4.46 486.1,31.74 263.56,27.29 575.85,77.33 779.15,168.83 l -2.36,5.24 c -202.07,-91.01 -514.11,-141.13 -777.38,-168.36 -263.27,-27.25 -477.97,-31.7 -485.51,-31.7 h -0.1 l -0.07,-5.74" /></g></g></g><g
         id="g308"><g
           clip-path="url(#clipPath314)"
           id="g310"><path
             id="path316"
             style="fill:#b4b7bc;fill-opacity:1;fill-rule:nonzero;stroke:none"
             d="m 2742.25,2493.62 c -1.09,0.22 -2.2,0.44 -3.28,0.66 1.08,-0.22 2.19,-0.44 3.28,-0.66 m -4.57,0.92 v 0 0 m 0,0.01 v 0 0 m 0,0.01 v 0 0 m 0,0.03 v 0 0" /><path
             id="path318"
             style="fill:#3f6966;fill-opacity:1;fill-rule:nonzero;stroke:none"
             d="m 3052.76,2455.45 c -76,4.58 -151.53,11.97 -224.2,23 88.82,3.9 229.36,12.05 387.52,28.42 46.46,4.81 94.44,10.33 143.06,16.65 -95.24,-39 -198.42,-62.71 -306.38,-68.07 m -252.84,27.56 c -19.47,3.26 -38.71,6.78 -57.67,10.61 -1.09,0.22 -2.2,0.44 -3.28,0.66 -0.43,0.09 -0.86,0.18 -1.29,0.26 v 0 0 0 0 c 0,0.01 0,0.01 0,0.01 v 0 c 0,0 0,0 0,0.01 v 0 c 0,0.01 0,0.02 0,0.03 v 0 c -0.02,1.56 -0.63,42.31 3.76,96.92 45.51,1.06 241.51,7.24 476.35,31.55 11.94,1.24 23.96,2.52 36.08,3.85 34.96,-5.45 69.08,-10.09 101.61,-14.42 46.35,-6.18 92.87,-13.09 139.49,-19.83 -37,-22.82 -75.73,-43.15 -115.93,-60.71 -55.63,-7.48 -110.57,-13.89 -163.55,-19.37 -176.05,-18.22 -330.38,-26.25 -415.57,-29.57 m -58,114.26 c 2.9,34.02 7.75,72.89 15.82,110.82 31.43,0.9 91.3,3.06 169.51,7.64 94.42,-44.1 202.53,-68.54 305.05,-85.37 -5.04,-0.54 -10.09,-1.07 -15.1,-1.59 -233.59,-24.18 -428.95,-30.41 -475.28,-31.5 m 17.08,116.6 c 7.34,33.01 17.19,65.09 30.39,92.32 37.11,-34.51 80.3,-62.45 127.12,-85.32 -71.93,-4.11 -127.25,-6.12 -157.51,-7" /><path
             id="path320"
             style="fill:#291b24;fill-opacity:1;fill-rule:nonzero;stroke:none"
             d="m 2757.74,2708.09 c 0.41,1.93 0.83,3.85 1.26,5.78 30.26,0.88 85.58,2.89 157.51,7 3.56,-1.75 7.14,-3.45 10.74,-5.14 -78.21,-4.58 -138.08,-6.74 -169.51,-7.64" /><path
             id="path322"
             style="fill:#291b24;fill-opacity:1;fill-rule:nonzero;stroke:none"
             d="m 2741.44,2591.51 c 0.15,1.9 0.31,3.83 0.48,5.76 46.33,1.09 241.69,7.32 475.28,31.5 5.01,0.52 10.06,1.05 15.1,1.59 7.22,-1.19 14.42,-2.34 21.57,-3.45 -12.12,-1.33 -24.14,-2.61 -36.08,-3.85 -234.84,-24.31 -430.84,-30.49 -476.35,-31.55" /><path
             id="path324"
             style="fill:#291b24;fill-opacity:1;fill-rule:nonzero;stroke:none"
             d="m 2828.56,2478.45 c -9.61,1.46 -19.14,2.97 -28.64,4.56 85.19,3.32 239.52,11.35 415.57,29.57 52.98,5.48 107.92,11.89 163.55,19.37 -6.61,-2.89 -13.21,-5.69 -19.9,-8.43 -48.62,-6.32 -96.6,-11.84 -143.06,-16.65 -158.16,-16.37 -298.7,-24.52 -387.52,-28.42" /><path
             id="path326"
             style="fill:#f78e92;fill-opacity:1;fill-rule:nonzero;stroke:none"
             d="m 2453.6,2444.75 c 0,0 -171.64,721.09 -154.17,748.04 15.27,23.56 52.99,-108.91 52.99,-108.91 0,0 -45.32,212.25 -22.92,216.02 22.39,3.77 60.15,-191.93 60.15,-191.93 0,0 -34.29,226.71 -16.73,215.33 17.56,-11.39 64.62,-208.13 64.62,-208.13 0,0 -30.88,172.96 -12.28,170.88 18.6,-2.08 61.28,-177.78 61.28,-177.78 0,0 18.01,103.54 43.84,81.82 14.32,-12.05 -4.23,-141.17 -4.23,-141.17 0,0 190.06,-608.99 191.28,-687.03 2.31,-147.8 -177.57,-212.44 -263.83,82.86" /><path
             id="path328"
             style="fill:#458582;fill-opacity:1;fill-rule:nonzero;stroke:none"
             d="m 2331.14,2933.85 222.17,65.64 c 0,0 237.31,-666.5 176.72,-716.99 -60.59,-50.5 -166.62,-161.58 -267.61,45.44 -100.98,207.02 -131.28,605.91 -131.28,605.91" /></g></g><g
         id="g330"><g
           clip-path="url(#clipPath336)"
           id="g332"><g
             clip-path="url(#clipPath342)"
             id="g338"><path
               id="path344"
               style="fill:#29202e;fill-opacity:1;fill-rule:nonzero;stroke:none"
               d="m 2296.51,2855.32 338.29,85.84 -1.41,5.57 -338.3,-85.84" /><path
               id="path346"
               style="fill:#29202e;fill-opacity:1;fill-rule:nonzero;stroke:none"
               d="m 2316.7,2734.14 338.3,85.84 -1.41,5.57 -338.3,-85.84" /><path
               id="path348"
               style="fill:#29202e;fill-opacity:1;fill-rule:nonzero;stroke:none"
               d="m 2336.9,2612.96 338.3,85.84 -1.42,5.57 -338.29,-85.84" /><path
               id="path350"
               style="fill:#29202e;fill-opacity:1;fill-rule:nonzero;stroke:none"
               d="m 2357.1,2491.78 338.29,85.84 -1.41,5.57 -338.3,-85.84" /></g></g></g><path
         id="path352"
         style="fill:#d9e9ef;fill-opacity:1;fill-rule:nonzero;stroke:none"
         d="m 1621.47,2587.41 h -168.53 c 2.64,4.28 -21.74,10.61 -90.6,19.95 0,0 305.72,7.85 -14.7,29.24 0,0 30.6,-0.95 62.15,-0.95 66.68,0 137.62,4.25 -66.89,30.67 0,0 229.38,4.24 -71.76,39.85 -6.81,0.8 -13.64,1.43 -20.51,1.9 -9.04,62.42 -23.43,146.6 -43.01,214.68 -8.46,29.44 -30.83,50.99 -60.53,67.24 104.89,6.36 151.81,70.14 129.43,140.1 -42.14,131.77 94.76,106.53 36.96,200.27 -53.14,86.17 103.47,124.69 16.26,213.71 -87.22,89.02 -7.91,183.73 -111.92,308.56 -44.85,53.83 -110.38,69.13 -170.42,69.13 -79.173,0 -148.787,-26.62 -148.787,-26.62 0,0 -109.367,-214.04 -170.609,-415.91 -40.914,29.37 -153.555,95.53 -153.555,95.53 0,0 -368.668,-148.3 -287.363,-207.73 71.234,-52.07 34.859,-150.28 119.113,-172.9 17.586,-4.72 34.153,-6.21 49.926,-6.21 13.34,0 26.109,1.06 38.465,2.12 12.348,1.07 24.277,2.13 35.926,2.13 8.925,0 17.691,-0.63 26.351,-2.35 -18.496,-25.36 -40,-44.2 -64.84,-51.51 -121.41,-35.7 -324.226,-38.68 -356.023,-209.87 -11.082,-59.65 14.484,-193.5 58.473,-341.03 H 11.8516 V 4292.06 H 1621.47 V 2587.41 m -650.747,451.18 c -57.493,9.28 -106.18,15.87 -119.391,30.27 -1.191,1.3 -2.281,2.73 -3.281,4.28 0.012,0 0.019,0 0.031,-0.01 -7.144,11.04 -9.617,28.21 -9.309,47.75 61.25,-16.18 95.36,-52.82 131.95,-82.29" /><path
         id="path354"
         style="fill:#29202e;fill-opacity:1;fill-rule:nonzero;stroke:none"
         d="m 287.086,3367.03 c 71.234,-52.07 34.859,-150.28 119.113,-172.9 32.457,-8.71 61.43,-6.4 88.391,-4.09 43.019,3.7 80.922,7.39 119.687,-33.72 63.067,-66.88 128.828,300.01 128.356,309.97 -0.477,9.96 -168.184,108.47 -168.184,108.47 0,0 -368.668,-148.3 -287.363,-207.73" /><path
         id="path356"
         style="fill:#29202e;fill-opacity:1;fill-rule:nonzero;stroke:none"
         d="m 898.613,3895.14 c 0,0 215.207,82.31 319.207,-42.51 104.01,-124.83 24.7,-219.54 111.92,-308.56 87.21,-89.02 -69.4,-127.54 -16.26,-213.71 57.8,-93.74 -79.1,-68.5 -36.96,-200.27 28.66,-89.59 -56.3,-169.04 -231.13,-130.76 -93.363,20.45 -116.749,123.11 -261.234,129.56 -270.867,12.09 114.457,766.25 114.457,766.25" /><path
         id="path358"
         style="fill:#a1444b;fill-opacity:1;fill-rule:nonzero;stroke:none"
         d="m 1207.62,2922.75 c -35.86,124.73 -321.198,107.85 -356.288,146.11 -35.09,38.27 14.254,190.33 14.254,190.33 L 321.41,2807.48 565.098,2300.01 1261.96,2619.23 c 0,0 -18.47,178.79 -54.34,303.52" /><path
         id="path360"
         style="fill:#a1444b;fill-opacity:1;fill-rule:nonzero;stroke:none"
         d="m 467.152,2751.18 109.5,-344.16 c 0,0 380.094,336.33 694.488,299.15 301.14,-35.61 71.76,-39.85 71.76,-39.85 301.29,-38.93 4.74,-29.72 4.74,-29.72 320.42,-21.39 14.7,-29.24 14.7,-29.24 217.43,-29.48 -8.55,-29 -128.78,-28.53 -20.49,0.08 -37.91,0.17 -49.54,0.1 -79.83,-0.47 -527.114,-530.76 -668.442,-567.41 -141.332,-36.66 -411.375,745.72 -379.574,916.92 31.797,171.19 234.613,174.17 356.023,209.87 121.411,35.71 163.192,347.12 163.192,347.12 l 185.07,-254.06 -282.086,-505.81 -91.051,25.62" /><path
         id="path362"
         style="fill:#b4bdc6;fill-opacity:1;fill-rule:nonzero;stroke:none"
         d="m 848.082,3073.13 c -0.012,0.01 -0.019,0.01 -0.031,0.01 -7.133,11.04 -9.606,28.21 -9.289,47.74 0.004,0 0.008,0 0.011,0 -0.308,-19.54 2.165,-36.71 9.309,-47.75" /><path
         id="path364"
         style="fill:#29202e;fill-opacity:1;fill-rule:nonzero;stroke:none"
         d="m 581.68,3230.71 c -0.012,0.02 -0.024,0.04 -0.035,0.06 52.847,102.92 73.242,252.21 73.57,254.63 -0.332,-2.43 -20.684,-151.78 -73.535,-254.69 m 127.554,180.57 -54.015,74.15 54.015,-74.15 v 0 m -54.019,74.13 c 0,0 0,0.01 0,0.01 0,0 0,-0.01 0,-0.01 m 0,0.02 v 0 0 m 0.004,0 v 0 0" /><path
         id="path366"
         style="fill:#29202e;fill-opacity:1;fill-rule:nonzero;stroke:none"
         d="m 838.773,3120.88 c -0.003,0 -0.007,0 -0.011,0 0.922,57.7 26.097,136.06 26.808,138.26 -0.715,-2.22 -25.879,-80.58 -26.797,-138.26 m -1.582,114.74 -127.957,175.66 v 0 l 127.961,-175.66 28.391,23.57 -28.395,-23.57 m 28.383,23.53 c 0,0 0,0.01 0.004,0.01 -0.004,0 -0.004,-0.01 -0.004,-0.01 m 0.004,0.01 c 0,0.01 0,0.01 0.004,0.01 -0.004,0 -0.004,0 -0.004,-0.01 m 0.004,0.02 v 0 0 m 0.004,0 c 0,0.01 0,0.01 0,0.01 v 0 c 0,0 0,0 0,-0.01" /><path
         id="path368"
         style="fill:#893c44;fill-opacity:1;fill-rule:nonzero;stroke:none"
         d="m 848.051,3073.14 c -28.668,2.97 -57.762,9.02 -85.903,18.12 l 78.141,140.11 -3.098,4.25 28.395,23.57 c 0,0 0,0 0,-0.01 0,0 0,0 -0.004,0 v 0 c 0,0 0,0 0,-0.01 -0.004,0 -0.004,0 -0.004,-0.01 v 0 c -0.004,0 -0.004,-0.01 -0.004,-0.01 0,0 -0.004,0 -0.004,-0.01 -0.711,-2.2 -25.886,-80.56 -26.808,-138.26 -0.317,-19.53 2.156,-36.7 9.289,-47.74" /><path
         id="path370"
         style="fill:#893c44;fill-opacity:1;fill-rule:nonzero;stroke:none"
         d="m 762.148,3091.26 c -75.937,24.54 -145,71.25 -180.468,139.45 52.851,102.91 73.203,252.26 73.535,254.69 v 0.01 c 0,0 0,0.01 0,0.01 0,0.01 0,0.01 0,0.01 v 0 h 0.004 v 0 0 0 l 54.015,-74.15 127.957,-175.66 3.098,-4.25 -78.141,-140.11" /><path
         id="path372"
         style="fill:#f78f50;fill-opacity:1;fill-rule:nonzero;stroke:none"
         d="m 1240.66,2927.64 c -15.08,52.46 -148.84,99.91 -221.77,115.91 C 960.547,2940.96 898.262,2886.63 782.004,2876.02 487.91,2869.85 415.988,3128.05 415.988,3128.05 22.207,3082.74 115.738,2724.52 115.738,2724.52 l 367.371,-29.14 93.543,-288.36 c 0,0 375.067,331.73 688.228,299.66 0.07,64.09 -4.28,151.62 -24.22,220.96" /><g
         id="g374"><g
           clip-path="url(#clipPath380)"
           id="g376"><path
             id="path382"
             style="fill:#29202e;fill-opacity:1;fill-rule:nonzero;stroke:none"
             d="m 192.898,3019.67 43.129,-20.22 c 3.575,-1.67 7.817,-0.37 9.828,3.03 l 21.567,36.39 c 2.152,3.63 0.949,8.32 -2.684,10.48 -3.633,2.15 -8.324,0.95 -10.476,-2.68 l -18.028,-30.42 -36.839,17.27 c -3.829,1.79 -8.379,0.15 -10.172,-3.68 -1.793,-3.82 -0.149,-8.38 3.675,-10.17" /><path
             id="path384"
             style="fill:#29202e;fill-opacity:1;fill-rule:nonzero;stroke:none"
             d="m 407.195,3019.67 43.129,-20.22 c 3.574,-1.67 7.817,-0.37 9.828,3.03 l 21.567,36.39 c 2.152,3.63 0.953,8.32 -2.684,10.48 -3.633,2.15 -8.324,0.95 -10.476,-2.68 l -18.028,-30.42 -36.84,17.27 c -3.828,1.79 -8.378,0.15 -10.171,-3.68 -1.793,-3.82 -0.149,-8.38 3.675,-10.17" /><path
             id="path386"
             style="fill:#29202e;fill-opacity:1;fill-rule:nonzero;stroke:none"
             d="m 621.492,3019.67 43.133,-20.22 c 3.57,-1.67 7.813,-0.37 9.824,3.03 l 21.567,36.39 c 2.152,3.63 0.953,8.32 -2.68,10.48 -3.637,2.15 -8.328,0.95 -10.481,-2.68 l -18.027,-30.42 -36.84,17.27 c -3.828,1.79 -8.379,0.15 -10.172,-3.68 -1.793,-3.82 -0.148,-8.38 3.676,-10.17" /><path
             id="path388"
             style="fill:#29202e;fill-opacity:1;fill-rule:nonzero;stroke:none"
             d="m 835.793,3019.67 43.129,-20.22 c 3.57,-1.67 7.812,-0.37 9.824,3.03 l 21.567,36.39 c 2.152,3.63 0.953,8.32 -2.68,10.48 -3.637,2.15 -8.328,0.95 -10.481,-2.68 l -18.027,-30.42 -36.84,17.27 c -3.824,1.79 -8.379,0.15 -10.172,-3.68 -1.793,-3.82 -0.148,-8.38 3.68,-10.17" /><path
             id="path390"
             style="fill:#29202e;fill-opacity:1;fill-rule:nonzero;stroke:none"
             d="m 1050.09,3019.67 43.13,-20.22 c 3.57,-1.67 7.81,-0.37 9.82,3.03 l 21.57,36.39 c 2.15,3.63 0.95,8.32 -2.68,10.48 -3.64,2.15 -8.33,0.95 -10.48,-2.68 l -18.03,-30.42 -36.84,17.27 c -3.82,1.79 -8.38,0.15 -10.17,-3.68 -1.79,-3.82 -0.15,-8.38 3.68,-10.17" /><path
             id="path392"
             style="fill:#29202e;fill-opacity:1;fill-rule:nonzero;stroke:none"
             d="m 289.941,2894.33 43.129,-20.22 c 3.571,-1.68 7.813,-0.37 9.825,3.03 l 21.566,36.39 c 2.152,3.63 0.953,8.32 -2.68,10.47 -3.636,2.16 -8.328,0.96 -10.48,-2.68 l -18.028,-30.41 -36.839,17.27 c -3.825,1.79 -8.379,0.14 -10.172,-3.68 -1.793,-3.83 -0.149,-8.38 3.679,-10.17" /><path
             id="path394"
             style="fill:#29202e;fill-opacity:1;fill-rule:nonzero;stroke:none"
             d="m 504.238,2894.33 43.129,-20.22 c 3.571,-1.68 7.813,-0.37 9.824,3.03 l 21.567,36.39 c 2.152,3.63 0.953,8.32 -2.68,10.47 -3.637,2.16 -8.328,0.96 -10.48,-2.68 l -18.028,-30.41 -36.84,17.27 c -3.824,1.79 -8.378,0.14 -10.171,-3.68 -1.793,-3.83 -0.149,-8.38 3.679,-10.17" /><path
             id="path396"
             style="fill:#29202e;fill-opacity:1;fill-rule:nonzero;stroke:none"
             d="m 718.535,2894.33 43.129,-20.22 c 3.57,-1.68 7.813,-0.37 9.824,3.03 l 21.567,36.39 c 2.152,3.63 0.953,8.32 -2.68,10.47 -3.637,2.16 -8.328,0.96 -10.48,-2.68 l -18.028,-30.41 -36.84,17.27 c -3.824,1.79 -8.379,0.14 -10.172,-3.68 -1.792,-3.83 -0.144,-8.38 3.68,-10.17" /><path
             id="path398"
             style="fill:#29202e;fill-opacity:1;fill-rule:nonzero;stroke:none"
             d="m 932.832,2894.33 43.129,-20.22 c 3.57,-1.68 7.812,-0.37 9.824,3.03 l 21.565,36.39 c 2.15,3.63 0.95,8.32 -2.68,10.47 -3.63,2.16 -8.326,0.96 -10.479,-2.68 l -18.023,-30.41 -36.844,17.27 c -3.828,1.79 -8.379,0.14 -10.172,-3.68 -1.793,-3.83 -0.144,-8.38 3.68,-10.17" /><path
             id="path400"
             style="fill:#29202e;fill-opacity:1;fill-rule:nonzero;stroke:none"
             d="m 1147.13,2894.33 43.13,-20.22 c 3.57,-1.68 7.81,-0.37 9.82,3.03 l 21.57,36.39 c 2.15,3.63 0.95,8.32 -2.68,10.47 -3.64,2.16 -8.33,0.96 -10.48,-2.68 l -18.03,-30.41 -36.84,17.27 c -3.82,1.79 -8.38,0.14 -10.17,-3.68 -1.79,-3.83 -0.15,-8.38 3.68,-10.17" /><path
             id="path402"
             style="fill:#29202e;fill-opacity:1;fill-rule:nonzero;stroke:none"
             d="m 192.898,2752.81 43.129,-20.22 c 3.575,-1.67 7.817,-0.37 9.828,3.03 l 21.567,36.39 c 2.152,3.63 0.949,8.32 -2.684,10.48 -3.633,2.15 -8.324,0.95 -10.476,-2.68 l -18.028,-30.42 -36.843,17.27 c -3.825,1.79 -8.375,0.14 -10.168,-3.68 -1.793,-3.82 -0.149,-8.38 3.675,-10.17" /><path
             id="path404"
             style="fill:#29202e;fill-opacity:1;fill-rule:nonzero;stroke:none"
             d="m 407.195,2752.81 43.129,-20.22 c 3.574,-1.67 7.817,-0.37 9.828,3.03 l 21.567,36.39 c 2.152,3.63 0.953,8.32 -2.684,10.48 -3.633,2.15 -8.324,0.95 -10.476,-2.68 l -18.028,-30.42 -36.843,17.27 c -3.825,1.79 -8.375,0.14 -10.168,-3.68 -1.793,-3.82 -0.149,-8.38 3.675,-10.17" /><path
             id="path406"
             style="fill:#29202e;fill-opacity:1;fill-rule:nonzero;stroke:none"
             d="m 621.492,2752.81 43.133,-20.22 c 3.57,-1.67 7.813,-0.37 9.824,3.03 l 21.567,36.39 c 2.152,3.63 0.953,8.32 -2.68,10.48 -3.637,2.15 -8.328,0.95 -10.481,-2.68 l -18.027,-30.42 -36.844,17.27 c -3.824,1.79 -8.375,0.14 -10.168,-3.68 -1.793,-3.82 -0.148,-8.38 3.676,-10.17" /><path
             id="path408"
             style="fill:#29202e;fill-opacity:1;fill-rule:nonzero;stroke:none"
             d="m 835.793,2752.81 43.129,-20.22 c 3.57,-1.67 7.812,-0.37 9.824,3.03 l 21.567,36.39 c 2.152,3.63 0.953,8.32 -2.68,10.48 -3.637,2.15 -8.328,0.95 -10.481,-2.68 l -18.027,-30.42 -36.844,17.27 c -3.82,1.79 -8.375,0.14 -10.168,-3.68 -1.793,-3.82 -0.148,-8.38 3.68,-10.17" /><path
             id="path410"
             style="fill:#29202e;fill-opacity:1;fill-rule:nonzero;stroke:none"
             d="m 1050.09,2752.81 43.13,-20.22 c 3.57,-1.67 7.81,-0.37 9.82,3.03 l 21.57,36.39 c 2.15,3.63 0.95,8.32 -2.68,10.48 -3.64,2.15 -8.33,0.95 -10.48,-2.68 l -18.03,-30.42 -36.84,17.27 c -3.82,1.79 -8.38,0.15 -10.17,-3.68 -1.79,-3.82 -0.15,-8.38 3.68,-10.17" /><path
             id="path412"
             style="fill:#29202e;fill-opacity:1;fill-rule:nonzero;stroke:none"
             d="m 289.941,2627.47 43.129,-20.22 c 3.571,-1.68 7.813,-0.37 9.825,3.02 l 21.566,36.39 c 2.152,3.64 0.953,8.33 -2.68,10.48 -3.636,2.16 -8.328,0.96 -10.48,-2.68 l -18.028,-30.41 -36.839,17.27 c -3.825,1.79 -8.379,0.14 -10.172,-3.68 -1.793,-3.83 -0.149,-8.38 3.679,-10.17" /><path
             id="path414"
             style="fill:#29202e;fill-opacity:1;fill-rule:nonzero;stroke:none"
             d="m 504.238,2627.47 43.129,-20.22 c 3.571,-1.68 7.813,-0.37 9.824,3.02 l 21.567,36.39 c 2.152,3.64 0.953,8.33 -2.68,10.48 -3.637,2.16 -8.328,0.96 -10.48,-2.68 l -18.028,-30.41 -36.84,17.27 c -3.824,1.79 -8.378,0.14 -10.171,-3.68 -1.793,-3.83 -0.149,-8.38 3.679,-10.17" /><path
             id="path416"
             style="fill:#29202e;fill-opacity:1;fill-rule:nonzero;stroke:none"
             d="m 718.535,2627.47 43.129,-20.22 c 3.57,-1.68 7.813,-0.37 9.824,3.02 l 21.567,36.39 c 2.152,3.64 0.953,8.33 -2.68,10.48 -3.637,2.16 -8.328,0.96 -10.48,-2.68 l -18.028,-30.41 -36.84,17.27 c -3.824,1.79 -8.379,0.14 -10.172,-3.68 -1.792,-3.83 -0.144,-8.38 3.68,-10.17" /><path
             id="path418"
             style="fill:#29202e;fill-opacity:1;fill-rule:nonzero;stroke:none"
             d="m 932.832,2627.47 43.129,-20.22 c 3.57,-1.68 7.812,-0.37 9.824,3.02 l 21.565,36.39 c 2.15,3.64 0.95,8.33 -2.68,10.48 -3.63,2.16 -8.326,0.96 -10.479,-2.68 l -18.023,-30.41 -36.844,17.27 c -3.824,1.79 -8.379,0.14 -10.172,-3.68 -1.793,-3.83 -0.144,-8.38 3.68,-10.17" /><path
             id="path420"
             style="fill:#29202e;fill-opacity:1;fill-rule:nonzero;stroke:none"
             d="m 1147.13,2627.47 43.13,-20.22 c 3.57,-1.68 7.81,-0.37 9.82,3.02 l 21.57,36.39 c 2.15,3.64 0.95,8.33 -2.68,10.48 -3.64,2.16 -8.33,0.96 -10.48,-2.68 l -18.03,-30.41 -36.84,17.27 c -3.82,1.79 -8.38,0.14 -10.17,-3.68 -1.79,-3.83 -0.15,-8.38 3.68,-10.17" /><path
             id="path422"
             style="fill:#29202e;fill-opacity:1;fill-rule:nonzero;stroke:none"
             d="m 192.898,2485.95 43.129,-20.22 c 3.575,-1.67 7.817,-0.37 9.828,3.03 l 21.567,36.39 c 2.152,3.63 0.949,8.32 -2.684,10.48 -3.633,2.15 -8.324,0.95 -10.476,-2.68 l -18.028,-30.42 -36.839,17.27 c -3.829,1.79 -8.379,0.15 -10.172,-3.68 -1.793,-3.82 -0.149,-8.38 3.675,-10.17" /><path
             id="path424"
             style="fill:#29202e;fill-opacity:1;fill-rule:nonzero;stroke:none"
             d="m 407.195,2485.95 43.129,-20.22 c 3.574,-1.67 7.817,-0.37 9.828,3.03 l 21.567,36.39 c 2.152,3.63 0.953,8.32 -2.684,10.48 -3.633,2.15 -8.324,0.95 -10.476,-2.68 l -18.028,-30.42 -36.84,17.27 c -3.828,1.79 -8.378,0.15 -10.171,-3.68 -1.793,-3.82 -0.149,-8.38 3.675,-10.17" /><path
             id="path426"
             style="fill:#29202e;fill-opacity:1;fill-rule:nonzero;stroke:none"
             d="m 621.492,2485.95 43.133,-20.22 c 3.57,-1.67 7.813,-0.37 9.824,3.03 l 21.567,36.39 c 2.152,3.63 0.953,8.32 -2.68,10.48 -3.637,2.15 -8.328,0.95 -10.481,-2.68 l -18.027,-30.42 -36.84,17.27 c -3.828,1.79 -8.379,0.15 -10.172,-3.68 -1.793,-3.82 -0.148,-8.38 3.676,-10.17" /><path
             id="path428"
             style="fill:#29202e;fill-opacity:1;fill-rule:nonzero;stroke:none"
             d="m 835.793,2485.95 43.129,-20.22 c 3.57,-1.67 7.812,-0.37 9.824,3.03 l 21.567,36.39 c 2.152,3.63 0.953,8.32 -2.68,10.48 -3.637,2.15 -8.328,0.95 -10.481,-2.68 l -18.027,-30.42 -36.84,17.27 c -3.824,1.79 -8.379,0.15 -10.172,-3.68 -1.793,-3.82 -0.148,-8.38 3.68,-10.17" /><path
             id="path430"
             style="fill:#29202e;fill-opacity:1;fill-rule:nonzero;stroke:none"
             d="m 1050.09,2485.95 43.13,-20.22 c 3.57,-1.67 7.81,-0.37 9.82,3.03 l 21.57,36.39 c 2.15,3.63 0.95,8.32 -2.68,10.48 -3.64,2.15 -8.33,0.95 -10.48,-2.68 l -18.03,-30.42 -36.84,17.27 c -3.82,1.79 -8.38,0.15 -10.17,-3.68 -1.79,-3.82 -0.15,-8.38 3.68,-10.17" /></g></g><path
         id="path432"
         style="fill:#a1444b;fill-opacity:1;fill-rule:nonzero;stroke:none"
         d="m 1037.7,3763.11 c -134.856,57.61 -284.72,46.37 -361.044,-73.7 0,0 -9.707,-29.34 -19.922,-73.86 -32.523,25.83 -49.191,1.22 -66.324,-96.6 -19.199,-109.59 29.656,-111.67 43.418,-108.97 1.813,-50.5 10.852,-99.89 32.434,-140.29 86.672,-162.24 333.687,-230.37 438.808,34.14 105.13,264.51 58.8,405.38 -67.37,459.28" /><path
         id="path434"
         style="fill:#29202e;fill-opacity:1;fill-rule:nonzero;stroke:none"
         d="m 1031.28,3810.5 c 0,0 19.36,-115.52 -118.842,-136.52 -148.649,-22.58 -85.227,-167.07 -239.196,-147.77 -153.965,19.31 -54.722,-178.93 -147.515,-186.67 -92.793,-7.73 -22.731,-128.62 -130.219,-107.1 -107.492,21.51 -19.637,114.56 -148.469,137.13 -109.601,19.19 -112.949,183.18 -25.105,201.76 62.543,13.24 -1.754,186.72 191.57,216.49 229.008,35.27 139.672,235.1 397.336,204.08 257.67,-31.02 220.44,-181.4 220.44,-181.4" /><path
         id="path436"
         style="fill:#29202e;fill-opacity:1;fill-rule:nonzero;stroke:none"
         d="m 687.156,3536.86 c 0,0 -36.16,-79.35 -4.859,-84.52 31.297,-5.17 53.23,93.47 53.23,93.47 l -48.371,-8.95" /><path
         id="path438"
         style="fill:#29202e;fill-opacity:1;fill-rule:nonzero;stroke:none"
         d="m 831.973,3495.68 c 0,0 -0.098,2.89 0.55,7.91 0.715,5 2.129,12.21 5.957,20.37 1.946,4.04 4.387,8.44 8.043,12.47 3.61,4.01 8.168,8.07 13.973,10.6 5.762,2.54 12.406,3.8 18.899,3.49 6.543,-0.39 12.636,-1.99 18.617,-4.32 2.379,-0.82 5.804,-2.59 8.531,-4.32 2.746,-1.75 5.383,-3.74 7.754,-6.04 4.844,-4.52 8.34,-10.36 10.351,-16.23 4.02,-11.91 2.375,-23.14 -0.023,-31.62 -2.41,-8.63 -5.957,-15.06 -8.594,-19.36 -2.683,-4.31 -4.613,-6.47 -4.613,-6.47 0,0 0.742,2.79 1.723,7.62 0.976,4.82 2.187,11.71 2.672,19.72 0.367,7.98 -0.219,17.21 -3.805,25.16 -1.856,3.93 -4.531,7.36 -7.797,10.39 -1.645,1.5 -3.523,2.83 -5.539,4.01 -2.059,1.16 -3.649,1.98 -6.504,3.21 -9.078,3.87 -18.75,5.18 -26.77,2.53 -8.125,-2.63 -14.82,-8.95 -19.656,-15.23 -4.847,-6.33 -8.195,-12.48 -10.429,-16.84 -2.235,-4.38 -3.34,-7.05 -3.34,-7.05" /><path
         id="path440"
         style="fill:#29202e;fill-opacity:1;fill-rule:nonzero;stroke:none"
         d="m 1036.42,3441.07 c 0,0 -0.1,2.88 0.55,7.9 0.71,5 2.13,12.21 5.95,20.37 1.95,4.04 4.39,8.45 8.05,12.48 3.6,4 8.16,8.06 13.97,10.59 5.76,2.54 12.41,3.8 18.9,3.49 6.54,-0.39 12.64,-1.99 18.62,-4.32 2.37,-0.83 5.8,-2.59 8.53,-4.32 2.74,-1.75 5.38,-3.74 7.75,-6.05 4.84,-4.51 8.34,-10.35 10.35,-16.22 4.02,-11.91 2.38,-23.14 -0.02,-31.62 -2.41,-8.63 -5.96,-15.06 -8.6,-19.37 -2.68,-4.3 -4.61,-6.46 -4.61,-6.46 0,0 0.74,2.79 1.72,7.62 0.98,4.82 2.19,11.71 2.68,19.72 0.36,7.98 -0.22,17.21 -3.81,25.16 -1.86,3.94 -4.53,7.36 -7.8,10.39 -1.64,1.5 -3.52,2.82 -5.54,4.01 -2.05,1.17 -3.65,1.98 -6.5,3.21 -9.08,3.87 -18.75,5.18 -26.77,2.53 -8.13,-2.63 -14.82,-8.95 -19.65,-15.23 -4.85,-6.33 -8.2,-12.48 -10.43,-16.84 -2.24,-4.38 -3.34,-7.04 -3.34,-7.04" /><path
         id="path442"
         style="fill:#29202e;fill-opacity:1;fill-rule:nonzero;stroke:none"
         d="m 822.074,3619.29 c 0,0 2.293,2.16 6.864,5.1 4.519,3.04 11.304,6.75 19.964,10.15 4.368,1.52 9.114,3.41 14.344,4.59 5.219,1.23 10.789,2.48 16.715,2.94 5.875,0.86 12.098,0.76 18.418,0.57 6.324,-0.23 12.793,-1.44 19.191,-2.66 6.262,-2.12 12.793,-3.29 18.547,-6.65 2.953,-1.43 5.84,-2.93 8.637,-4.46 2.754,-1.62 5.226,-3.71 7.691,-5.6 2.414,-1.98 4.922,-3.72 7.051,-5.79 1.949,-2.25 3.852,-4.46 5.703,-6.61 1.75,-2.17 3.453,-4.29 5.102,-6.33 1.234,-2.32 2.426,-4.55 3.57,-6.7 2.199,-4.28 4.32,-8.06 5.391,-11.77 1.093,-3.7 1.769,-7.01 2.355,-9.66 1.133,-5.32 1.426,-8.35 1.426,-8.35 0,0 -2.453,2.16 -6.125,5.92 -1.816,1.89 -4.059,4.11 -6.309,6.73 -2.379,2.56 -5.777,4.8 -8.711,7.66 -1.531,1.35 -3.125,2.76 -4.777,4.22 -1.82,1.19 -3.703,2.43 -5.641,3.71 -1.835,1.29 -3.718,2.63 -5.644,3.99 -2.082,1.08 -4.207,2.18 -6.371,3.3 -2.199,1.01 -4.168,2.43 -6.457,3.36 -2.36,0.82 -4.695,1.69 -7.004,2.66 -4.492,2.18 -9.762,2.89 -14.609,4.52 -5.082,1.06 -10.207,2.14 -15.379,2.87 -5.219,0.53 -10.352,1.41 -15.493,1.57 -5.101,0.5 -10.121,0.58 -14.941,0.76 -4.816,0.2 -9.441,0.14 -13.773,0.3 -8.817,-0.11 -16.161,-0.2 -21.301,-0.26 -5.367,-0.05 -8.434,-0.08 -8.434,-0.08" /><path
         id="path444"
         style="fill:#29202e;fill-opacity:1;fill-rule:nonzero;stroke:none"
         d="m 1042.64,3552.13 c 0,0 2.29,2.16 6.86,5.1 4.52,3.03 11.31,6.75 19.97,10.15 4.36,1.52 9.11,3.41 14.34,4.59 5.22,1.23 10.79,2.48 16.71,2.94 5.88,0.86 12.1,0.76 18.42,0.57 6.33,-0.23 12.8,-1.44 19.19,-2.66 6.27,-2.12 12.8,-3.29 18.55,-6.65 2.95,-1.43 5.84,-2.93 8.64,-4.47 2.75,-1.61 5.22,-3.7 7.69,-5.59 2.41,-1.98 4.92,-3.72 7.05,-5.79 1.95,-2.26 3.85,-4.46 5.7,-6.61 1.76,-2.17 3.46,-4.29 5.11,-6.33 1.23,-2.32 2.42,-4.56 3.57,-6.7 2.19,-4.28 4.31,-8.07 5.38,-11.78 1.1,-3.7 1.78,-7 2.36,-9.65 1.13,-5.32 1.43,-8.36 1.43,-8.36 0,0 -2.45,2.16 -6.13,5.93 -1.81,1.89 -4.06,4.1 -6.31,6.73 -2.38,2.55 -5.77,4.8 -8.71,7.66 -1.53,1.35 -3.12,2.75 -4.78,4.21 -1.82,1.2 -3.7,2.44 -5.64,3.71 -1.83,1.3 -3.71,2.64 -5.64,4 -2.08,1.08 -4.21,2.17 -6.37,3.29 -2.2,1.02 -4.17,2.44 -6.46,3.37 -2.36,0.81 -4.69,1.69 -7,2.66 -4.49,2.17 -9.76,2.89 -14.61,4.52 -5.08,1.05 -10.21,2.14 -15.38,2.87 -5.22,0.53 -10.35,1.41 -15.49,1.57 -5.11,0.5 -10.12,0.57 -14.94,0.76 -4.82,0.2 -9.44,0.13 -13.78,0.29 -8.81,-0.1 -16.16,-0.19 -21.3,-0.25 -5.36,-0.05 -8.43,-0.08 -8.43,-0.08" /><path
         id="path446"
         style="fill:#762c33;fill-opacity:1;fill-rule:nonzero;stroke:none"
         d="m 1022.8,3475.16 c 0.24,-12.32 -0.2,-24.46 -0.58,-36.58 l -1.63,-36.15 c -0.6,-11.98 -1.02,-23.94 -1.15,-35.79 l 0.14,-8.82 c -0.06,-2.97 0.31,-5.79 0.44,-8.71 0.06,-2.96 0.72,-5.6 0.98,-8.44 0.23,-2.92 1.29,-5.11 1.85,-7.81 l 1.33,-6.4 -4.86,-0.39 c -13.38,-1.06 -26.793,-1.89 -40.379,-1.61 12.829,4.49 25.829,7.88 38.879,11.02 l -3.54,-6.78 c -1.24,3.08 -3.06,6.36 -3.73,9.48 -0.82,3.12 -1.79,6.36 -2.11,9.47 -1.04,6.3 -1.64,12.52 -1.86,18.76 -0.06,6.2 -0.27,12.41 0.06,18.55 0.22,6.17 0.79,12.27 1.23,18.39 1.28,12.2 3.08,24.3 5.46,36.29 2.5,11.98 5.39,23.88 9.47,35.52" /><path
         id="path448"
         style="fill:#ffffff;fill-opacity:1;fill-rule:nonzero;stroke:none"
         d="m 821.598,3321.43 168.925,-54.09 c 0,0 -107.925,-62.8 -168.925,54.09" /><path
         id="path450"
         style="fill:#762c33;fill-opacity:1;fill-rule:nonzero;stroke:none"
         d="m 623.59,3427.37 c -3.141,2.99 -5.676,6.47 -7.867,10.26 -1.082,1.91 -2.024,3.9 -2.801,6.06 -0.383,1.07 -0.863,2.12 -1.055,3.32 -0.211,1.19 -0.601,2.28 -0.637,3.58 -0.269,2.48 -0.253,5.3 0.684,8.21 0.684,1.43 1.16,3 2.25,4.25 1.106,1.19 2.227,2.68 3.57,3.44 1.336,0.79 2.778,1.64 4.172,2.21 1.344,0.35 2.719,0.62 4.094,0.89 1.441,0.37 2.574,0.21 3.852,0.27 l 3.742,-0.01 -6.254,-3.16 2.836,5.49 c 0.937,1.91 1.808,3.85 2.594,5.81 1.726,3.87 3.109,7.84 4.16,11.81 0.64,2 0.933,4 1.226,6.01 0.36,2.03 0.481,4.04 0.379,6.08 0.059,1.06 -0.199,2.01 -0.285,3.08 -0.043,1.09 -0.379,2.06 -0.687,3.09 -0.446,2.19 -1.575,4.08 -2.579,6.36 2.016,-1.17 4.321,-2.42 5.914,-4.4 0.93,-0.91 1.735,-1.92 2.344,-3.05 0.61,-1.11 1.485,-2.22 1.883,-3.43 0.98,-2.44 1.691,-4.96 2.102,-7.54 0.261,-1.31 0.195,-2.56 0.3,-3.86 0.102,-1.3 0.09,-2.57 0.012,-3.84 0.012,-2.59 -0.512,-5.04 -0.918,-7.52 -0.547,-2.44 -1.035,-4.9 -1.863,-7.23 -0.809,-2.34 -1.707,-4.63 -2.688,-6.89 -1.004,-2.3 -1.972,-4.39 -3.457,-6.74 l -2.101,-3.32 -4.157,0.16 -2.41,0.09 -2.277,-0.01 -1.957,-0.24 -1.387,-0.42 -1.019,-0.59 -0.848,-1.02 c -0.488,-0.93 -1.051,-2.23 -1.234,-3.86 -0.356,-3.24 -0.196,-7.15 0.355,-11.07 0.473,-3.98 1.285,-8.01 2.012,-12.27" /></g></g></svg>