<?xml version="1.0" encoding="UTF-8" standalone="no"?>
<svg
   xmlns:dc="http://purl.org/dc/elements/1.1/"
   xmlns:cc="http://creativecommons.org/ns#"
   xmlns:rdf="http://www.w3.org/1999/02/22-rdf-syntax-ns#"
   xmlns:svg="http://www.w3.org/2000/svg"
   xmlns="http://www.w3.org/2000/svg"
   xmlns:sodipodi="http://sodipodi.sourceforge.net/DTD/sodipodi-0.dtd"
   xmlns:inkscape="http://www.inkscape.org/namespaces/inkscape"
   id="Capa_1"
   enable-background="new 0 0 512 512"
   height="512px"
   viewBox="0 0 512 512"
   width="512px"
   class=""
   version="1.1"
   sodipodi:docname="ACCOUNT.svg"
   inkscape:version="0.92.4 (5da689c313, 2019-01-14)">
  <metadata
     id="metadata37">
    <rdf:RDF>
      <cc:Work
         rdf:about="">
        <dc:format>image/svg+xml</dc:format>
        <dc:type
           rdf:resource="http://purl.org/dc/dcmitype/StillImage" />
      </cc:Work>
    </rdf:RDF>
  </metadata>
  <defs
     id="defs35" />
  <sodipodi:namedview
     pagecolor="#ffffff"
     bordercolor="#666666"
     borderopacity="1"
     objecttolerance="10"
     gridtolerance="10"
     guidetolerance="10"
     inkscape:pageopacity="0"
     inkscape:pageshadow="2"
     inkscape:window-width="1920"
     inkscape:window-height="1017"
     id="namedview33"
     showgrid="false"
     inkscape:zoom="0.4609375"
     inkscape:cx="-827.66102"
     inkscape:cy="256"
     inkscape:window-x="-8"
     inkscape:window-y="-8"
     inkscape:window-maximized="1"
     inkscape:current-layer="Capa_1" />
  <g
     id="g6"
     style="fill:#1877f2;fill-opacity:1">
    <path
       d="m 459.085,296.827 c -4.15,-1.004 -8.323,1.544 -9.327,5.691 -16.055,66.316 -64.087,119.194 -128.485,141.45 -1.37,0.473 -2.748,0.925 -4.128,1.368 l 8.731,-17.953 c 1.866,-3.838 0.268,-8.462 -3.569,-10.328 -3.839,-1.867 -8.462,-0.267 -10.328,3.569 l -16.219,33.352 c -0.895,1.843 -1.023,3.967 -0.354,5.903 0.67,1.937 2.081,3.528 3.924,4.425 l 33.351,16.218 c 1.089,0.529 2.239,0.78 3.373,0.78 2.865,0 5.618,-1.601 6.955,-4.349 1.866,-3.838 0.268,-8.462 -3.569,-10.328 l -15.165,-7.374 c 0.682,-0.228 1.367,-0.444 2.046,-0.678 69.397,-23.984 121.157,-80.963 138.456,-152.42 1.003,-4.146 -1.545,-8.322 -5.692,-9.326 z"
       data-original="#E2DFE3"
       class=""
       style="fill:#1877f2;fill-opacity:1"
       data-old_color="#E2DFE3"
       id="path2"
       inkscape:connector-curvature="0" />
    <path
       d="M 196.174,52.11 162.822,35.89 c -3.838,-1.866 -8.462,-0.267 -10.328,3.569 -1.866,3.838 -0.268,8.462 3.569,10.328 l 17.099,8.315 c -30.094,12.642 -56.993,32 -78.405,56.533 -23.721,27.179 -40.345,60.179 -48.074,95.434 -0.913,4.168 1.724,8.288 5.892,9.202 0.558,0.122 1.114,0.181 1.662,0.181 3.55,0 6.748,-2.463 7.54,-6.073 7.174,-32.724 22.605,-63.355 44.622,-88.582 19.434,-22.268 43.758,-39.923 70.959,-51.662 l -7.731,15.897 c -1.866,3.838 -0.268,8.462 3.569,10.328 1.089,0.529 2.239,0.78 3.373,0.78 2.865,0 5.618,-1.601 6.955,-4.349 l 16.219,-33.352 c 1.867,-3.839 0.268,-8.463 -3.569,-10.329 z"
       data-original="#E2DFE3"
       class=""
       style="fill:#1877f2;fill-opacity:1"
       data-old_color="#E2DFE3"
       id="path4"
       inkscape:connector-curvature="0" />
  </g>
  <path
     inkscape:connector-curvature="0"
     id="path8"
     data-old_color="#655e67"
     style="fill:#c8c8c8;fill-opacity:1"
     class=""
     data-original="#655E67"
     d="m 512,153.044 v -36.449 c 0,-3.983 -3.229,-7.211 -7.211,-7.211 H 488.4 c -3.228,0 -6.027,-2.156 -6.936,-5.253 -2.197,-7.48 -5.176,-14.625 -8.844,-21.34 -1.549,-2.836 -1.097,-6.342 1.188,-8.627 l 11.591,-11.591 c 2.816,-2.816 2.816,-7.382 0,-10.198 L 459.625,26.601 c -2.816,-2.816 -7.382,-2.816 -10.198,0 l -11.591,11.591 c -2.285,2.285 -5.791,2.737 -8.627,1.188 -6.715,-3.668 -13.861,-6.647 -21.341,-8.844 -3.097,-0.91 -5.253,-3.709 -5.253,-6.936 V 7.211 C 402.615,3.228 399.386,0 395.404,0 h -36.449 c -3.983,0 -7.211,3.229 -7.211,7.211 V 23.6 c 0,3.228 -2.156,6.027 -5.253,6.936 -7.48,2.197 -14.625,5.176 -21.341,8.844 -2.836,1.549 -6.342,1.097 -8.627,-1.188 L 304.932,26.601 c -2.816,-2.816 -7.382,-2.816 -10.198,0 l -25.773,25.774 c -2.816,2.816 -2.816,7.382 0,10.198 l 11.591,11.591 c 2.285,2.285 2.737,5.791 1.188,8.627 -3.668,6.715 -6.647,13.86 -8.844,21.34 -0.91,3.097 -3.709,5.253 -6.936,5.253 h -16.389 c -3.983,0 -7.211,3.229 -7.211,7.211 v 36.449 c 0,3.983 3.229,7.211 7.211,7.211 h 16.389 c 3.228,0 6.027,2.156 6.936,5.253 2.197,7.48 5.176,14.625 8.844,21.34 1.549,2.836 1.097,6.342 -1.188,8.627 l -11.591,11.591 c -2.816,2.816 -2.816,7.382 0,10.198 l 25.773,25.774 c 2.816,2.816 7.382,2.816 10.198,0 l 11.591,-11.591 c 2.285,-2.285 5.791,-2.737 8.627,-1.188 6.715,3.668 13.861,6.647 21.341,8.844 3.097,0.91 5.253,3.709 5.253,6.936 v 16.389 c 0,3.983 3.229,7.211 7.211,7.211 h 36.449 c 3.983,0 7.211,-3.229 7.211,-7.211 V 246.04 c 0,-3.228 2.156,-6.027 5.253,-6.936 7.48,-2.197 14.625,-5.176 21.341,-8.844 2.836,-1.549 6.342,-1.097 8.627,1.188 l 11.591,11.591 c 2.816,2.816 7.382,2.816 10.198,0 l 25.774,-25.774 c 2.816,-2.816 2.816,-7.382 0,-10.198 l -11.591,-11.591 c -2.285,-2.285 -2.737,-5.791 -1.188,-8.627 3.668,-6.715 6.647,-13.86 8.844,-21.34 0.91,-3.097 3.709,-5.253 6.936,-5.253 h 16.389 c 3.982,0 7.211,-3.229 7.211,-7.212 z" />
  <path
     inkscape:connector-curvature="0"
     id="path10"
     data-old_color="#544f56"
     style="fill:#c8c8c8;fill-opacity:1"
     class=""
     data-original="#544F56"
     d="M 504.789,109.384 H 488.4 c -3.228,0 -6.027,-2.156 -6.937,-5.253 -2.197,-7.48 -5.176,-14.625 -8.844,-21.341 -1.549,-2.836 -1.097,-6.342 1.188,-8.627 l 11.592,-11.592 c 2.816,-2.816 2.816,-7.382 0,-10.198 L 459.625,26.599 c -2.816,-2.816 -7.382,-2.816 -10.198,0 l -11.591,11.592 c -2.284,2.285 -5.791,2.737 -8.627,1.188 -6.715,-3.668 -13.86,-6.647 -21.341,-8.844 -3.097,-0.91 -5.253,-3.709 -5.253,-6.937 V 7.211 C 402.615,3.228 399.386,0 395.404,0 h -36.449 c -3.179,0 -5.871,2.059 -6.831,4.915 42.016,26.478 69.936,73.282 69.936,126.614 0,53.492 -28.089,100.417 -70.316,126.852 v 4.047 c 0,3.983 3.229,7.211 7.211,7.211 h 36.449 c 3.983,0 7.211,-3.228 7.211,-7.211 V 246.04 c 0,-3.228 2.156,-6.027 5.253,-6.937 7.48,-2.197 14.625,-5.176 21.341,-8.844 2.836,-1.549 6.342,-1.097 8.627,1.188 l 11.591,11.592 c 2.816,2.816 7.382,2.816 10.198,0 l 25.774,-25.774 c 2.816,-2.816 2.816,-7.382 0,-10.198 l -11.592,-11.592 c -2.285,-2.285 -2.737,-5.791 -1.188,-8.627 3.668,-6.715 6.647,-13.86 8.844,-21.341 0.91,-3.097 3.709,-5.253 6.937,-5.253 h 16.389 c 3.983,0 7.211,-3.228 7.211,-7.211 v -36.449 c 0,-3.981 -3.229,-7.21 -7.211,-7.21 z" />
  <circle
     style="fill:#ffffff"
     id="circle12"
     class=""
     data-original="#FFF"
     r="57.689999"
     cy="134.82001"
     cx="377.17999" />
  <path
     inkscape:connector-curvature="0"
     id="path18"
     data-old_color="#655e67"
     style="fill:#c8c8c8;fill-opacity:1"
     class=""
     data-original="#655E67"
     d="m 269.64,395.404 v -36.449 c 0,-3.983 -3.229,-7.211 -7.211,-7.211 H 246.04 c -3.228,0 -6.027,-2.156 -6.936,-5.253 -2.197,-7.48 -5.176,-14.625 -8.844,-21.34 -1.549,-2.836 -1.097,-6.342 1.188,-8.627 l 11.591,-11.591 c 2.816,-2.816 2.816,-7.382 0,-10.198 l -25.774,-25.774 c -2.816,-2.816 -7.382,-2.816 -10.198,0 l -11.591,11.591 c -2.285,2.285 -5.791,2.737 -8.627,1.188 -6.715,-3.668 -13.861,-6.647 -21.341,-8.844 -3.097,-0.91 -5.253,-3.709 -5.253,-6.936 v -16.389 c 0,-3.983 -3.229,-7.211 -7.211,-7.211 h -36.449 c -3.983,0 -7.211,3.229 -7.211,7.211 v 16.389 c 0,3.228 -2.156,6.027 -5.253,6.936 -7.48,2.197 -14.625,5.176 -21.341,8.844 -2.836,1.549 -6.342,1.097 -8.627,-1.188 L 62.572,268.961 c -2.816,-2.816 -7.382,-2.816 -10.198,0 l -25.773,25.774 c -2.816,2.816 -2.816,7.382 0,10.198 l 11.591,11.591 c 2.285,2.285 2.737,5.791 1.188,8.627 -3.668,6.715 -6.647,13.86 -8.844,21.34 -0.91,3.097 -3.709,5.253 -6.936,5.253 H 7.211 C 3.228,351.744 0,354.973 0,358.955 v 36.449 c 0,3.983 3.229,7.211 7.211,7.211 H 23.6 c 3.228,0 6.027,2.156 6.936,5.253 2.197,7.48 5.176,14.625 8.844,21.34 1.549,2.836 1.097,6.342 -1.188,8.627 l -11.591,11.591 c -2.816,2.816 -2.816,7.382 0,10.198 l 25.773,25.773 c 2.816,2.816 7.382,2.816 10.198,0 l 11.591,-11.591 c 2.285,-2.285 5.791,-2.737 8.627,-1.188 6.715,3.668 13.861,6.647 21.341,8.844 3.097,0.91 5.253,3.709 5.253,6.936 v 16.389 c 0,3.983 3.229,7.211 7.211,7.211 h 36.449 c 3.983,0 7.211,-3.229 7.211,-7.211 V 488.4 c 0,-3.228 2.156,-6.027 5.253,-6.936 7.48,-2.197 14.625,-5.176 21.341,-8.844 2.836,-1.549 6.342,-1.097 8.627,1.188 l 11.591,11.591 c 2.816,2.816 7.382,2.816 10.198,0 l 25.774,-25.774 c 2.816,-2.816 2.816,-7.382 0,-10.198 l -11.591,-11.591 c -2.285,-2.285 -2.737,-5.791 -1.188,-8.627 3.668,-6.715 6.647,-13.86 8.844,-21.34 0.91,-3.097 3.709,-5.253 6.936,-5.253 h 16.389 c 3.982,0 7.211,-3.229 7.211,-7.212 z" />
  <path
     inkscape:connector-curvature="0"
     id="path20"
     data-old_color="#544f56"
     style="fill:#c8c8c8;fill-opacity:1"
     class=""
     data-original="#544F56"
     d="M 262.429,351.744 H 246.04 c -3.228,0 -6.027,-2.156 -6.937,-5.253 -2.197,-7.48 -5.176,-14.625 -8.844,-21.341 -1.549,-2.836 -1.097,-6.342 1.188,-8.627 l 11.592,-11.592 c 2.816,-2.816 2.816,-7.382 0,-10.198 l -25.774,-25.774 c -2.816,-2.816 -7.382,-2.816 -10.198,0 l -11.591,11.592 c -2.284,2.285 -5.791,2.737 -8.627,1.188 -6.715,-3.668 -13.86,-6.647 -21.341,-8.844 -3.097,-0.91 -5.253,-3.709 -5.253,-6.937 v -16.389 c 0,-3.983 -3.229,-7.211 -7.211,-7.211 h -36.449 c -3.179,0 -5.871,2.059 -6.831,4.915 42.016,26.478 69.936,73.282 69.936,126.614 0,53.492 -28.089,100.417 -70.316,126.852 v 4.047 c 0,3.983 3.229,7.211 7.211,7.211 h 36.449 c 3.983,0 7.211,-3.228 7.211,-7.211 V 488.4 c 0,-3.228 2.156,-6.027 5.253,-6.937 7.48,-2.197 14.625,-5.176 21.341,-8.844 2.836,-1.549 6.342,-1.097 8.627,1.188 l 11.591,11.592 c 2.816,2.816 7.382,2.816 10.198,0 l 25.774,-25.774 c 2.816,-2.816 2.816,-7.382 0,-10.198 l -11.592,-11.592 c -2.285,-2.285 -2.737,-5.791 -1.188,-8.627 3.668,-6.715 6.647,-13.86 8.844,-21.341 0.91,-3.097 3.709,-5.253 6.937,-5.253 h 16.389 c 3.983,0 7.211,-3.228 7.211,-7.211 v -36.449 c 0,-3.981 -3.229,-7.21 -7.211,-7.21 z" />
  <circle
     style="fill:#ffffff"
     id="circle22"
     class=""
     data-original="#FFF"
     r="57.689999"
     cy="377.17999"
     cx="134.82001" />
</svg>
