<?xml version="1.0" encoding="UTF-8" standalone="no"?>
<svg
   xmlns:dc="http://purl.org/dc/elements/1.1/"
   xmlns:cc="http://creativecommons.org/ns#"
   xmlns:rdf="http://www.w3.org/1999/02/22-rdf-syntax-ns#"
   xmlns:svg="http://www.w3.org/2000/svg"
   xmlns="http://www.w3.org/2000/svg"
   xmlns:sodipodi="http://sodipodi.sourceforge.net/DTD/sodipodi-0.dtd"
   xmlns:inkscape="http://www.inkscape.org/namespaces/inkscape"
   id="Capa_1"
   enable-background="new 0 0 512.004 512.004"
   height="50"
   viewBox="0 0 50.000391 50.000391"
   width="50"
   version="1.1"
   sodipodi:docname="Account-grey.svg"
   inkscape:version="0.92.4 (5da689c313, 2019-01-14)">
  <metadata
     id="metadata25">
    <rdf:RDF>
      <cc:Work
         rdf:about="">
        <dc:format>image/svg+xml</dc:format>
        <dc:type
           rdf:resource="http://purl.org/dc/dcmitype/StillImage" />
        <dc:title></dc:title>
      </cc:Work>
    </rdf:RDF>
  </metadata>
  <defs
     id="defs23" />
  <sodipodi:namedview
     pagecolor="#ffffff"
     bordercolor="#666666"
     borderopacity="1"
     objecttolerance="10"
     gridtolerance="10"
     guidetolerance="10"
     inkscape:pageopacity="0"
     inkscape:pageshadow="2"
     inkscape:window-width="1920"
     inkscape:window-height="1017"
     id="namedview21"
     showgrid="false"
     inkscape:zoom="5.2149125"
     inkscape:cx="57.697573"
     inkscape:cy="55.728032"
     inkscape:window-x="1912"
     inkscape:window-y="-8"
     inkscape:window-maximized="1"
     inkscape:current-layer="Capa_1" />
  <path
     style="fill:#787878;fill-opacity:1;stroke-width:0.09683689"
     inkscape:connector-curvature="0"
     id="path2"
     d="M 18.062597,36.946002 37.494856,17.513744 c 3.177218,1.244838 6.927516,0.585475 9.494566,-1.981671 2.566371,-2.566371 3.225831,-6.3167664 1.98167,-9.4945657 L 44.488125,10.520475 40.537858,9.4625308 39.479915,5.5122641 43.962882,1.0292972 c -3.177897,-1.24416034 -6.928195,-0.58479796 -9.494566,1.98167 -2.56705,2.5670491 -3.226509,6.3174449 -1.981671,9.4945658 L 13.054387,31.937792 C 9.6361419,30.497053 5.5380047,31.16881 2.7531695,33.953645 c -3.67089268,3.670893 -3.67089268,9.622682 0,13.293574 3.6708928,3.670894 9.6226815,3.670894 13.2935745,0 2.784835,-2.784834 3.456592,-6.883069 2.015853,-10.301217 z M 6.8958516,43.104537 c -1.3832181,-1.383218 -1.3825403,-3.625669 0,-5.00821 1.3832181,-1.383218 3.6249924,-1.383121 5.0082104,0 1.383218,1.383121 1.383218,3.624992 0,5.00821 -1.382541,1.382444 -3.6249923,1.383122 -5.0082104,0 z" />
  <path
     style="fill:#5a5a5a;fill-opacity:1;stroke-width:0.09683689"
     inkscape:connector-curvature="0"
     id="path4"
     d="m 16.046744,47.247219 c -3.670893,3.670894 -9.6226817,3.670894 -13.2935745,0 l 4.1426821,-4.142682 c 1.3832181,1.383218 3.6256694,1.382541 5.0082104,0 1.383218,-1.383218 1.383121,-3.624992 0,-5.00821 L 40.537761,9.4625308 44.488028,10.520475 48.970995,6.0375073 c 1.24416,3.1778962 0.584798,6.9281947 -1.98167,9.4945657 -2.567049,2.56705 -6.317444,3.226509 -9.494566,1.981671 L 18.062501,36.946002 c 1.440835,3.418148 0.769078,7.516383 -2.015757,10.301217 z" />
  <path
     style="fill:#5a5a5a;fill-opacity:1;stroke-width:0.09683689"
     inkscape:connector-curvature="0"
     id="path6"
     d="M 36.050339,34.415557 9.3132877,7.6785052 11.154545,5.8372487 4.2811588,0.41961212 9.6837005e-5,4.7005773 5.4178302,11.574059 7.2590868,9.7327065 33.996139,36.469758 Z" />
  <path
     style="fill:#787878;fill-opacity:1;stroke-width:0.09683689"
     inkscape:connector-curvature="0"
     id="path8"
     d="M 35.023191,35.442706 2.1405794,2.5600947 9.6837005e-5,4.7005773 5.4178302,11.574059 7.2590868,9.7327065 33.996139,36.469758 Z" />
  <path
     style="fill:#5a5a5a;fill-opacity:1;stroke-width:0.09683689"
     inkscape:connector-curvature="0"
     id="path10"
     d="m 29.480926,36.923148 5.00821,5.008114 2.17544,-0.02943 4.851334,-4.851336 -0.0041,-2.141934 -5.00821,-5.008114 z" />
  <path
     style="fill:#787878;fill-opacity:1;stroke-width:0.09683689"
     inkscape:connector-curvature="0"
     id="path12"
     d="m 29.480926,36.923148 5.00821,5.008114 2.17544,-0.02943 2.408915,-2.408915 -6.081163,-6.081162 z" />
  <path
     style="fill:#5a5a5a;fill-opacity:1;stroke-width:0.09683689"
     inkscape:connector-curvature="0"
     id="path14"
     d="m 34.489136,41.931262 6.613862,6.613862 c 0.970305,0.970305 2.241192,1.455071 3.512081,1.455071 1.270887,0 2.541774,-0.484766 3.511305,-1.454393 1.939159,-1.939159 1.939159,-5.083549 -6.79e-4,-7.023386 l -6.613862,-6.613862 z" />
  <path
     style="fill:#787878;fill-opacity:1;stroke-width:0.09683689"
     inkscape:connector-curvature="0"
     id="path16"
     d="m 34.489136,41.931262 6.613862,6.613862 c 0.970305,0.970305 2.241192,1.455071 3.512081,1.455071 1.270887,0 2.541774,-0.484766 3.511305,-1.454393 L 38.000441,38.419956 Z" />
</svg>
