<?xml version="1.0"?>
<svg xmlns="http://www.w3.org/2000/svg" id="Capa_1" enable-background="new 0 0 512 512" height="512px" viewBox="0 0 512 512" width="512px" class=""><g><g><g fill="#e2dfe3"><path d="m459.085 296.827c-4.15-1.004-8.323 1.544-9.327 5.691-16.055 66.316-64.087 119.194-128.485 141.45-1.37.473-2.748.925-4.128 1.368l8.731-17.953c1.866-3.838.268-8.462-3.569-10.328-3.839-1.867-8.462-.267-10.328 3.569l-16.219 33.352c-.895 1.843-1.023 3.967-.354 5.903.67 1.937 2.081 3.528 3.924 4.425l33.351 16.218c1.089.529 2.239.78 3.373.78 2.865 0 5.618-1.601 6.955-4.349 1.866-3.838.268-8.462-3.569-10.328l-15.165-7.374c.682-.228 1.367-.444 2.046-.678 69.397-23.984 121.157-80.963 138.456-152.42 1.003-4.146-1.545-8.322-5.692-9.326z" data-original="#E2DFE3" class="" style="fill:#1877F2" data-old_color="#E2DFE3"/><path d="m196.174 52.11-33.352-16.22c-3.838-1.866-8.462-.267-10.328 3.569-1.866 3.838-.268 8.462 3.569 10.328l17.099 8.315c-30.094 12.642-56.993 32-78.405 56.533-23.721 27.179-40.345 60.179-48.074 95.434-.913 4.168 1.724 8.288 5.892 9.202.558.122 1.114.181 1.662.181 3.55 0 6.748-2.463 7.54-6.073 7.174-32.724 22.605-63.355 44.622-88.582 19.434-22.268 43.758-39.923 70.959-51.662l-7.731 15.897c-1.866 3.838-.268 8.462 3.569 10.328 1.089.529 2.239.78 3.373.78 2.865 0 5.618-1.601 6.955-4.349l16.219-33.352c1.867-3.839.268-8.463-3.569-10.329z" data-original="#E2DFE3" class="" style="fill:#1877F2" data-old_color="#E2DFE3"/></g><g><path d="m512 153.044v-36.449c0-3.983-3.229-7.211-7.211-7.211h-16.389c-3.228 0-6.027-2.156-6.936-5.253-2.197-7.48-5.176-14.625-8.844-21.34-1.549-2.836-1.097-6.342 1.188-8.627l11.591-11.591c2.816-2.816 2.816-7.382 0-10.198l-25.774-25.774c-2.816-2.816-7.382-2.816-10.198 0l-11.591 11.591c-2.285 2.285-5.791 2.737-8.627 1.188-6.715-3.668-13.861-6.647-21.341-8.844-3.097-.91-5.253-3.709-5.253-6.936v-16.389c0-3.983-3.229-7.211-7.211-7.211h-36.449c-3.983 0-7.211 3.229-7.211 7.211v16.389c0 3.228-2.156 6.027-5.253 6.936-7.48 2.197-14.625 5.176-21.341 8.844-2.836 1.549-6.342 1.097-8.627-1.188l-11.591-11.591c-2.816-2.816-7.382-2.816-10.198 0l-25.773 25.774c-2.816 2.816-2.816 7.382 0 10.198l11.591 11.591c2.285 2.285 2.737 5.791 1.188 8.627-3.668 6.715-6.647 13.86-8.844 21.34-.91 3.097-3.709 5.253-6.936 5.253h-16.389c-3.983 0-7.211 3.229-7.211 7.211v36.449c0 3.983 3.229 7.211 7.211 7.211h16.389c3.228 0 6.027 2.156 6.936 5.253 2.197 7.48 5.176 14.625 8.844 21.34 1.549 2.836 1.097 6.342-1.188 8.627l-11.591 11.591c-2.816 2.816-2.816 7.382 0 10.198l25.773 25.774c2.816 2.816 7.382 2.816 10.198 0l11.591-11.591c2.285-2.285 5.791-2.737 8.627-1.188 6.715 3.668 13.861 6.647 21.341 8.844 3.097.91 5.253 3.709 5.253 6.936v16.389c0 3.983 3.229 7.211 7.211 7.211h36.449c3.983 0 7.211-3.229 7.211-7.211v-16.388c0-3.228 2.156-6.027 5.253-6.936 7.48-2.197 14.625-5.176 21.341-8.844 2.836-1.549 6.342-1.097 8.627 1.188l11.591 11.591c2.816 2.816 7.382 2.816 10.198 0l25.774-25.774c2.816-2.816 2.816-7.382 0-10.198l-11.591-11.591c-2.285-2.285-2.737-5.791-1.188-8.627 3.668-6.715 6.647-13.86 8.844-21.34.91-3.097 3.709-5.253 6.936-5.253h16.389c3.982 0 7.211-3.229 7.211-7.212z" fill="#655e67" data-original="#655E67" class="" style="fill:#FF4500" data-old_color="#655e67"/><path d="m504.789 109.384h-16.389c-3.228 0-6.027-2.156-6.937-5.253-2.197-7.48-5.176-14.625-8.844-21.341-1.549-2.836-1.097-6.342 1.188-8.627l11.592-11.592c2.816-2.816 2.816-7.382 0-10.198l-25.774-25.774c-2.816-2.816-7.382-2.816-10.198 0l-11.591 11.592c-2.284 2.285-5.791 2.737-8.627 1.188-6.715-3.668-13.86-6.647-21.341-8.844-3.097-.91-5.253-3.709-5.253-6.937v-16.387c0-3.983-3.229-7.211-7.211-7.211h-36.449c-3.179 0-5.871 2.059-6.831 4.915 42.016 26.478 69.936 73.282 69.936 126.614 0 53.492-28.089 100.417-70.316 126.852v4.047c0 3.983 3.229 7.211 7.211 7.211h36.449c3.983 0 7.211-3.228 7.211-7.211v-16.388c0-3.228 2.156-6.027 5.253-6.937 7.48-2.197 14.625-5.176 21.341-8.844 2.836-1.549 6.342-1.097 8.627 1.188l11.591 11.592c2.816 2.816 7.382 2.816 10.198 0l25.774-25.774c2.816-2.816 2.816-7.382 0-10.198l-11.592-11.592c-2.285-2.285-2.737-5.791-1.188-8.627 3.668-6.715 6.647-13.86 8.844-21.341.91-3.097 3.709-5.253 6.937-5.253h16.389c3.983 0 7.211-3.228 7.211-7.211v-36.449c0-3.981-3.229-7.21-7.211-7.21z" fill="#544f56" data-original="#544F56" class="" style="fill:#FF4500" data-old_color="#544f56"/><circle cx="377.18" cy="134.82" fill="#fff" r="57.69" data-original="#FFF" class=""/><path d="m377.18 77.13c-5.355 0-10.533.745-15.453 2.11 24.354 6.758 42.237 29.073 42.237 55.58s-17.883 48.822-42.237 55.58c4.92 1.365 10.098 2.11 15.453 2.11 31.861 0 57.69-25.829 57.69-57.69s-25.828-57.69-57.69-57.69z" fill="#edebed" data-original="#EDEBED" class="active-path" style="fill:#F4936E" data-old_color="#edebed"/></g><g><path d="m269.64 395.404v-36.449c0-3.983-3.229-7.211-7.211-7.211h-16.389c-3.228 0-6.027-2.156-6.936-5.253-2.197-7.48-5.176-14.625-8.844-21.34-1.549-2.836-1.097-6.342 1.188-8.627l11.591-11.591c2.816-2.816 2.816-7.382 0-10.198l-25.774-25.774c-2.816-2.816-7.382-2.816-10.198 0l-11.591 11.591c-2.285 2.285-5.791 2.737-8.627 1.188-6.715-3.668-13.861-6.647-21.341-8.844-3.097-.91-5.253-3.709-5.253-6.936v-16.389c0-3.983-3.229-7.211-7.211-7.211h-36.449c-3.983 0-7.211 3.229-7.211 7.211v16.389c0 3.228-2.156 6.027-5.253 6.936-7.48 2.197-14.625 5.176-21.341 8.844-2.836 1.549-6.342 1.097-8.627-1.188l-11.591-11.591c-2.816-2.816-7.382-2.816-10.198 0l-25.773 25.774c-2.816 2.816-2.816 7.382 0 10.198l11.591 11.591c2.285 2.285 2.737 5.791 1.188 8.627-3.668 6.715-6.647 13.86-8.844 21.34-.91 3.097-3.709 5.253-6.936 5.253h-16.389c-3.983 0-7.211 3.229-7.211 7.211v36.449c0 3.983 3.229 7.211 7.211 7.211h16.389c3.228 0 6.027 2.156 6.936 5.253 2.197 7.48 5.176 14.625 8.844 21.34 1.549 2.836 1.097 6.342-1.188 8.627l-11.591 11.591c-2.816 2.816-2.816 7.382 0 10.198l25.773 25.773c2.816 2.816 7.382 2.816 10.198 0l11.591-11.591c2.285-2.285 5.791-2.737 8.627-1.188 6.715 3.668 13.861 6.647 21.341 8.844 3.097.91 5.253 3.709 5.253 6.936v16.389c0 3.983 3.229 7.211 7.211 7.211h36.449c3.983 0 7.211-3.229 7.211-7.211v-16.387c0-3.228 2.156-6.027 5.253-6.936 7.48-2.197 14.625-5.176 21.341-8.844 2.836-1.549 6.342-1.097 8.627 1.188l11.591 11.591c2.816 2.816 7.382 2.816 10.198 0l25.774-25.774c2.816-2.816 2.816-7.382 0-10.198l-11.591-11.591c-2.285-2.285-2.737-5.791-1.188-8.627 3.668-6.715 6.647-13.86 8.844-21.34.91-3.097 3.709-5.253 6.936-5.253h16.389c3.982 0 7.211-3.229 7.211-7.212z" fill="#655e67" data-original="#655E67" class="" style="fill:#FF4500" data-old_color="#655e67"/><path d="m262.429 351.744h-16.389c-3.228 0-6.027-2.156-6.937-5.253-2.197-7.48-5.176-14.625-8.844-21.341-1.549-2.836-1.097-6.342 1.188-8.627l11.592-11.592c2.816-2.816 2.816-7.382 0-10.198l-25.774-25.774c-2.816-2.816-7.382-2.816-10.198 0l-11.591 11.592c-2.284 2.285-5.791 2.737-8.627 1.188-6.715-3.668-13.86-6.647-21.341-8.844-3.097-.91-5.253-3.709-5.253-6.937v-16.389c0-3.983-3.229-7.211-7.211-7.211h-36.449c-3.179 0-5.871 2.059-6.831 4.915 42.016 26.478 69.936 73.282 69.936 126.614 0 53.492-28.089 100.417-70.316 126.852v4.047c0 3.983 3.229 7.211 7.211 7.211h36.449c3.983 0 7.211-3.228 7.211-7.211v-16.386c0-3.228 2.156-6.027 5.253-6.937 7.48-2.197 14.625-5.176 21.341-8.844 2.836-1.549 6.342-1.097 8.627 1.188l11.591 11.592c2.816 2.816 7.382 2.816 10.198 0l25.774-25.774c2.816-2.816 2.816-7.382 0-10.198l-11.592-11.592c-2.285-2.285-2.737-5.791-1.188-8.627 3.668-6.715 6.647-13.86 8.844-21.341.91-3.097 3.709-5.253 6.937-5.253h16.389c3.983 0 7.211-3.228 7.211-7.211v-36.449c0-3.981-3.229-7.21-7.211-7.21z" fill="#544f56" data-original="#544F56" class="" style="fill:#FF4500" data-old_color="#544f56"/><circle cx="134.82" cy="377.18" fill="#fff" r="57.69" data-original="#FFF" class=""/><path d="m134.82 319.49c-5.355 0-10.533.745-15.453 2.11 24.354 6.758 42.237 29.073 42.237 55.58s-17.883 48.822-42.237 55.58c4.92 1.365 10.098 2.11 15.453 2.11 31.861 0 57.69-25.829 57.69-57.69s-25.829-57.69-57.69-57.69z" fill="#edebed" data-original="#EDEBED" class="active-path" style="fill:#F4936E" data-old_color="#edebed"/></g></g></g> </svg>
