<?xml version="1.0" encoding="UTF-8" standalone="no"?>
<svg
   xmlns:dc="http://purl.org/dc/elements/1.1/"
   xmlns:cc="http://creativecommons.org/ns#"
   xmlns:rdf="http://www.w3.org/1999/02/22-rdf-syntax-ns#"
   xmlns:svg="http://www.w3.org/2000/svg"
   xmlns="http://www.w3.org/2000/svg"
   xmlns:sodipodi="http://sodipodi.sourceforge.net/DTD/sodipodi-0.dtd"
   xmlns:inkscape="http://www.inkscape.org/namespaces/inkscape"
   id="color"
   enable-background="new 0 0 24 24"
   height="512"
   viewBox="0 0 24 24"
   width="512"
   version="1.1"
   sodipodi:docname="Add a note-grey.svg"
   inkscape:version="0.92.4 (5da689c313, 2019-01-14)">
  <metadata
     id="metadata41">
    <rdf:RDF>
      <cc:Work
         rdf:about="">
        <dc:format>image/svg+xml</dc:format>
        <dc:type
           rdf:resource="http://purl.org/dc/dcmitype/StillImage" />
      </cc:Work>
    </rdf:RDF>
  </metadata>
  <defs
     id="defs39" />
  <sodipodi:namedview
     pagecolor="#ffffff"
     bordercolor="#666666"
     borderopacity="1"
     objecttolerance="10"
     gridtolerance="10"
     guidetolerance="10"
     inkscape:pageopacity="0"
     inkscape:pageshadow="2"
     inkscape:window-width="1920"
     inkscape:window-height="1017"
     id="namedview37"
     showgrid="false"
     inkscape:zoom="0.4609375"
     inkscape:cx="256"
     inkscape:cy="256"
     inkscape:window-x="-8"
     inkscape:window-y="-8"
     inkscape:window-maximized="1"
     inkscape:current-layer="color" />
  <path
     d="m14.25 3h-11.5c-1.52 0-2.75 1.23-2.75 2.75v12.5c0 1.52 1.23 2.75 2.75 2.75h6.59c-.54-1.14-.84-2.41-.84-3.75l.01-.25h-4.76c-.41 0-.75-.34-.75-.75s.34-.75.75-.75h4.93c.12-.61.31-1.2.55-1.75h-5.48c-.41 0-.75-.34-.75-.75s.34-.75.75-.75h6.33c.45-.65 1-1.24 1.61-1.75h-7.94c-.41 0-.75-.34-.75-.75s.34-.75.75-.75h9.5c.21 0 .39.08.53.22.99-.43 2.08-.68 3.22-.71v-2.76c0-1.52-1.23-2.75-2.75-2.75z"
     fill="#2196f3"
     id="path2"
     style="fill:#787878;fill-opacity:1" />
  <path
     d="m12.25 2h-1.1c-.33-1.15-1.39-2-2.65-2s-2.32.85-2.65 2h-1.1c-.41 0-.75.34-.75.75v2c0 .96.79 1.75 1.75 1.75h5.5c.96 0 1.75-.79 1.75-1.75v-2c0-.41-.34-.75-.75-.75z"
     fill="#1976d2"
     id="path4"
     style="fill:#787878;fill-opacity:1" />
  <g
     fill="#fff"
     id="g12">
    <path
       d="m13.78 9.22c-.76.33-1.46.761-2.09 1.28h-7.94c-.41 0-.75-.34-.75-.75s.34-.75.75-.75h9.5c.21 0 .39.08.53.22z"
       id="path6" />
    <path
       d="m10.08 12.25c-.33.47-.62.97-.85 1.5h-5.48c-.41 0-.75-.34-.75-.75s.34-.75.75-.75z"
       id="path8" />
    <path
       d="m8.68 15.5c-.1.49-.16.99-.17 1.5h-4.76c-.41 0-.75-.34-.75-.75s.34-.75.75-.75z"
       id="path10" />
  </g>
  <path
     d="m4 3h-1.25c-1.52 0-2.75 1.23-2.75 2.75v12.5c0 1.52 1.23 2.75 2.75 2.75h5.64v-4h-4.64c-.41 0-.75-.34-.75-.75 0-.41.34-.75.75-.75h4.64v-1.75h-4.64c-.41 0-.75-.34-.75-.75 0-.41.34-.75.75-.75h4.64v-1.75h-4.64c-.41 0-.75-.34-.75-.75 0-.41.34-.75.75-.75h4.64v-2.5h-2.64c-.96 0-1.75-.79-1.75-1.75z"
     fill="#1d83d4"
     id="path14"
     style="fill:#5a5a5a;fill-opacity:1" />
  <path
     d="m8.39.002c-1.211.048-2.219.881-2.54 1.998h-1.1c-.41 0-.75.34-.75.75v.25 1.75c0 .96.79 1.75 1.75 1.75h2.64z"
     fill="#1667b7"
     id="path16"
     style="fill:#5a5a5a;fill-opacity:1" />
  <path
     d="m8.39 9h-4.64c-.41 0-.75.34-.75.75 0 .41.34.75.75.75h4.64z"
     fill="#dedede"
     id="path18" />
  <path
     d="m8.39 12.25h-4.64c-.41 0-.75.34-.75.75 0 .41.34.75.75.75h4.64z"
     fill="#dedede"
     id="path20" />
  <path
     d="m8.39 15.5h-4.64c-.41 0-.75.34-.75.75 0 .41.34.75.75.75h4.64z"
     fill="#dedede"
     id="path22" />
  <path
     d="m17.25 24c-3.722 0-6.75-3.027-6.75-6.75s3.028-6.75 6.75-6.75 6.75 3.027 6.75 6.75-3.028 6.75-6.75 6.75z"
     fill="#4caf50"
     id="path24"
     style="fill:#787878;fill-opacity:1" />
  <path
     d="m17.25 21c-.552 0-1-.447-1-1v-5.5c0-.553.448-1 1-1s1 .447 1 1v5.5c0 .553-.448 1-1 1z"
     fill="#fff"
     id="path26" />
  <path
     d="m20 18.25h-5.5c-.552 0-1-.447-1-1s.448-1 1-1h5.5c.552 0 1 .447 1 1s-.448 1-1 1z"
     fill="#fff"
     id="path28" />
  <path
     d="m17.25 10.5c-3.722 0-6.75 3.027-6.75 6.75s3.028 6.75 6.75 6.75v-3c-.552 0-1-.447-1-1v-1.75h-1.75c-.552 0-1-.447-1-1s.448-1 1-1h1.75v-1.75c0-.553.448-1 1-1z"
     fill="#429846"
     id="path30"
     style="fill:#5a5a5a;fill-opacity:1" />
  <path
     d="m17.25 18.25h-1v1.75c0 .553.448 1 1 1zm0-4.75c-.552 0-1 .447-1 1v1.75h1z"
     fill="#dedede"
     id="path32" />
  <path
     d="m17.25 16.25h-1-1.75c-.552 0-1 .447-1 1s.448 1 1 1h1.75 1z"
     fill="#dedede"
     id="path34" />
</svg>
