<?xml version="1.0" encoding="UTF-8" standalone="no"?>
<svg
   xmlns:dc="http://purl.org/dc/elements/1.1/"
   xmlns:cc="http://creativecommons.org/ns#"
   xmlns:rdf="http://www.w3.org/1999/02/22-rdf-syntax-ns#"
   xmlns:svg="http://www.w3.org/2000/svg"
   xmlns="http://www.w3.org/2000/svg"
   xmlns:sodipodi="http://sodipodi.sourceforge.net/DTD/sodipodi-0.dtd"
   xmlns:inkscape="http://www.inkscape.org/namespaces/inkscape"
   height="512px"
   viewBox="-40 0 512 512.00257"
   width="512px"
   class=""
   version="1.1"
   id="svg12"
   sodipodi:docname="ADD NEW.svg"
   inkscape:version="0.92.4 (5da689c313, 2019-01-14)">
  <metadata
     id="metadata18">
    <rdf:RDF>
      <cc:Work
         rdf:about="">
        <dc:format>image/svg+xml</dc:format>
        <dc:type
           rdf:resource="http://purl.org/dc/dcmitype/StillImage" />
      </cc:Work>
    </rdf:RDF>
  </metadata>
  <defs
     id="defs16" />
  <sodipodi:namedview
     pagecolor="#ffffff"
     bordercolor="#666666"
     borderopacity="1"
     objecttolerance="10"
     gridtolerance="10"
     guidetolerance="10"
     inkscape:pageopacity="0"
     inkscape:pageshadow="2"
     inkscape:window-width="732"
     inkscape:window-height="480"
     id="namedview14"
     showgrid="false"
     inkscape:zoom="0.4609375"
     inkscape:cx="256"
     inkscape:cy="256"
     inkscape:window-x="0"
     inkscape:window-y="0"
     inkscape:window-maximized="0"
     inkscape:current-layer="svg12" />
  <path
     inkscape:connector-curvature="0"
     id="path2"
     data-old_color="#f3d55b"
     style="fill:#ff4500"
     class=""
     data-original="#F3D55B"
     d="m 432.55469,114.76172 v 255.64453 c -0.22266,10.12891 -8.58594,18.17578 -18.71485,18.01172 H 123.58594 V 18.011719 C 123.80859,7.882812 132.17187,-0.164062 142.30078,0.00390625 H 334.74219 L 335.44922,101.60937 c 0.0508,7.27735 5.96484,13.15235 13.24219,13.15235 z m 0,0" />
  <path
     inkscape:connector-curvature="0"
     id="path4"
     style="fill:#f4936e"
     data-old_color="#f9eab0"
     class=""
     data-original="#F9EAB0"
     d="m 432.55469,106.02344 v 8.73828 h -83.86328 c -7.27735,0 -13.19141,-5.875 -13.24219,-13.15234 L 334.74219,0.00390625 h 6.17969 z m 0,0" />
  <path
     inkscape:connector-curvature="0"
     id="path6"
     data-old_color="#4482c3"
     style="fill:#1877f2"
     class=""
     data-original="#4482C3"
     d="m 125.58595,264.83203 v 247.17188 h -22.06641 c -7.312499,0 -13.242186,-5.92969 -13.242186,-13.24219 V 423.72656 H 15.242198 c -7.3125,0 -13.242188,-5.92969 -13.242188,-13.24219 v -44.13671 c 0,-7.3125 5.929688,-13.24219 13.242188,-13.24219 h 75.035156 v -75.03516 c 0,-7.3125 5.929687,-13.23828 13.242186,-13.23828 z m 0,0" />
  <path
     inkscape:connector-curvature="0"
     id="path8"
     data-old_color="#285680"
     style="fill:#1877f2"
     class="active-path"
     data-original="#285680"
     d="m 247.17187,366.34766 v 44.13671 c 0,7.3125 -5.92578,13.24219 -13.23828,13.24219 h -75.03515 v 75.03516 c 0,7.3125 -5.92969,13.24219 -13.24219,13.24219 H 123.58594 V 264.83203 h 22.07031 c 7.3125,0 13.24219,5.92578 13.24219,13.23828 v 75.03516 h 75.03515 c 7.3125,0 13.23828,5.92969 13.23828,13.24219 z m 0,0" />
</svg>
