<?xml version="1.0" encoding="UTF-8" standalone="no"?>
<svg
   xmlns:dc="http://purl.org/dc/elements/1.1/"
   xmlns:cc="http://creativecommons.org/ns#"
   xmlns:rdf="http://www.w3.org/1999/02/22-rdf-syntax-ns#"
   xmlns:svg="http://www.w3.org/2000/svg"
   xmlns="http://www.w3.org/2000/svg"
   xmlns:sodipodi="http://sodipodi.sourceforge.net/DTD/sodipodi-0.dtd"
   xmlns:inkscape="http://www.inkscape.org/namespaces/inkscape"
   id="color"
   enable-background="new 0 0 24 24"
   height="50"
   viewBox="0 0 2.34375 2.34375"
   width="50"
   version="1.1"
   sodipodi:docname="Add a note-grey.svg"
   inkscape:version="0.92.4 (5da689c313, 2019-01-14)">
  <metadata
     id="metadata41">
    <rdf:RDF>
      <cc:Work
         rdf:about="">
        <dc:format>image/svg+xml</dc:format>
        <dc:type
           rdf:resource="http://purl.org/dc/dcmitype/StillImage" />
        <dc:title></dc:title>
      </cc:Work>
    </rdf:RDF>
  </metadata>
  <defs
     id="defs39" />
  <sodipodi:namedview
     pagecolor="#ffffff"
     bordercolor="#666666"
     borderopacity="1"
     objecttolerance="10"
     gridtolerance="10"
     guidetolerance="10"
     inkscape:pageopacity="0"
     inkscape:pageshadow="2"
     inkscape:window-width="1920"
     inkscape:window-height="1017"
     id="namedview37"
     showgrid="false"
     inkscape:zoom="3.6875"
     inkscape:cx="57.974358"
     inkscape:cy="-37.753633"
     inkscape:window-x="1912"
     inkscape:window-y="-8"
     inkscape:window-maximized="1"
     inkscape:current-layer="color" />
  <path
     d="M 1.3887712,0.29713983 H 0.26800847 C 0.11987288,0.29713983 0,0.41701271 0,0.56514831 V 1.7833686 C 0,1.9315042 0.11987288,2.0513771 0.26800847,2.0513771 H 0.91025424 C 0.85762712,1.9402754 0.82838983,1.8165042 0.82838983,1.685911 L 0.82936441,1.661547 H 0.3654661 c -0.0399576,0 -0.0730932,-0.033136 -0.0730932,-0.073093 0,-0.039958 0.0331356,-0.073093 0.0730932,-0.073093 h 0.4804661 c 0.0116949,-0.05945 0.0302119,-0.11695 0.0536017,-0.1705517 H 0.3654661 c -0.0399576,0 -0.0730932,-0.033136 -0.0730932,-0.073093 0,-0.039958 0.0331356,-0.073093 0.0730932,-0.073093 H 0.98237288 C 1.0262288,1.1352754 1.0798305,1.0777754 1.1392797,1.028072 H 0.3654661 c -0.0399576,0 -0.0730932,-0.0331356 -0.0730932,-0.0730932 0,-0.0399576 0.0331356,-0.0730932 0.0730932,-0.0730932 h 0.9258475 c 0.020466,0 0.038008,0.007797 0.051652,0.0214407 C 1.4394486,0.8614195 1.5456775,0.8370551 1.6567792,0.8341314 V 0.56514831 c 0,-0.1481356 -0.1198729,-0.26800848 -0.268008,-0.26800848 z"
     id="path2"
     style="fill:#787878;fill-opacity:1;stroke-width:0.09745762"
     inkscape:connector-curvature="0" />
  <path
     d="M 1.1938559,0.1996822 H 1.0866525 C 1.0544915,0.08760593 0.95118644,0.00476695 0.82838983,0.00476695 c -0.12279661,0 -0.22610169,0.08283898 -0.25826271,0.19491525 H 0.46292373 c -0.0399576,0 -0.0730932,0.0331356 -0.0730932,0.0730932 v 0.19491526 c 0,0.0935593 0.0769915,0.17055085 0.17055085,0.17055085 H 1.0963983 c 0.093559,0 0.1705509,-0.0769915 0.1705509,-0.17055085 V 0.27277542 c 0,-0.0399576 -0.033136,-0.0730932 -0.073093,-0.0730932 z"
     id="path4"
     style="fill:#787878;fill-opacity:1;stroke-width:0.09745762"
     inkscape:connector-curvature="0" />
  <g
     id="g12"
     style="fill:#ffffff"
     transform="matrix(0.09745763,0,0,0.09745763,0,0.00476695)">
    <path
       d="M 13.78,9.22 C 13.02,9.55 12.32,9.981 11.69,10.5 H 3.75 C 3.34,10.5 3,10.16 3,9.75 3,9.34 3.34,9 3.75,9 h 9.5 c 0.21,0 0.39,0.08 0.53,0.22 z"
       id="path6"
       inkscape:connector-curvature="0" />
    <path
       d="m 10.08,12.25 c -0.33,0.47 -0.62,0.97 -0.85,1.5 H 3.75 C 3.34,13.75 3,13.41 3,13 3,12.59 3.34,12.25 3.75,12.25 Z"
       id="path8"
       inkscape:connector-curvature="0" />
    <path
       d="M 8.68,15.5 C 8.58,15.99 8.52,16.49 8.51,17 H 3.75 C 3.34,17 3,16.66 3,16.25 3,15.84 3.34,15.5 3.75,15.5 Z"
       id="path10"
       inkscape:connector-curvature="0" />
  </g>
  <path
     d="M 0.38983051,0.29713983 H 0.26800847 C 0.11987288,0.29713983 0,0.41701271 0,0.56514831 V 1.7833686 C 0,1.9315042 0.11987288,2.0513771 0.26800847,2.0513771 H 0.81766949 V 1.6615466 H 0.3654661 c -0.0399576,0 -0.0730932,-0.033136 -0.0730932,-0.073093 0,-0.039958 0.0331356,-0.073093 0.0730932,-0.073093 H 0.81766949 V 1.3448093 H 0.3654661 c -0.0399576,0 -0.0730932,-0.033136 -0.0730932,-0.073093 0,-0.039958 0.0331356,-0.073093 0.0730932,-0.073093 H 0.81766949 V 1.028072 H 0.3654661 c -0.0399576,0 -0.0730932,-0.0331356 -0.0730932,-0.0730932 0,-0.0399576 0.0331356,-0.0730932 0.0730932,-0.0730932 H 0.81766949 V 0.63824153 H 0.56038136 c -0.0935593,0 -0.17055085,-0.0769915 -0.17055085,-0.17055085 z"
     id="path14"
     style="fill:#5a5a5a;fill-opacity:1;stroke-width:0.09745762"
     inkscape:connector-curvature="0" />
  <path
     d="M 0.81766949,0.00496186 C 0.69964831,0.00963983 0.60141102,0.09082203 0.57012712,0.1996822 H 0.46292373 c -0.0399576,0 -0.0730932,0.0331356 -0.0730932,0.0730932 v 0.0243644 0.17055085 c 0,0.0935593 0.0769915,0.17055085 0.17055085,0.17055085 h 0.25728813 z"
     id="path16"
     style="fill:#5a5a5a;fill-opacity:1;stroke-width:0.09745762"
     inkscape:connector-curvature="0" />
  <path
     d="M 0.81766949,0.88188559 H 0.3654661 c -0.0399576,0 -0.0730932,0.0331356 -0.0730932,0.0730932 0,0.0399576 0.0331356,0.0730932 0.0730932,0.0730932 h 0.45220339 z"
     id="path18"
     inkscape:connector-curvature="0"
     style="fill:#dedede;stroke-width:0.09745762" />
  <path
     d="M 0.81766949,1.1986229 H 0.3654661 c -0.0399576,0 -0.0730932,0.033136 -0.0730932,0.073093 0,0.039958 0.0331356,0.073093 0.0730932,0.073093 h 0.45220339 z"
     id="path20"
     inkscape:connector-curvature="0"
     style="fill:#dedede;stroke-width:0.09745762" />
  <path
     d="M 0.81766949,1.5153602 H 0.3654661 c -0.0399576,0 -0.0730932,0.033136 -0.0730932,0.073093 0,0.039958 0.0331356,0.073093 0.0730932,0.073093 h 0.45220339 z"
     id="path22"
     inkscape:connector-curvature="0"
     style="fill:#dedede;stroke-width:0.09745762" />
  <path
     d="m 1.6811441,2.34375 c -0.3627373,0 -0.657839,-0.2950042 -0.657839,-0.657839 0,-0.3628347 0.2951017,-0.657839 0.657839,-0.657839 0.3627373,0 0.657839,0.2950043 0.657839,0.657839 0,0.3628348 -0.2951017,0.657839 -0.657839,0.657839 z"
     id="path24"
     style="fill:#787878;fill-opacity:1;stroke-width:0.09745762"
     inkscape:connector-curvature="0" />
  <path
     d="m 1.6811441,2.0513771 c -0.053797,0 -0.097458,-0.043563 -0.097458,-0.097458 v -0.536017 c 0,-0.053894 0.043661,-0.097458 0.097458,-0.097458 0.053797,0 0.097458,0.043564 0.097458,0.097458 v 0.536017 c 0,0.053894 -0.043661,0.097458 -0.097458,0.097458 z"
     id="path26"
     inkscape:connector-curvature="0"
     style="fill:#ffffff;stroke-width:0.09745762" />
  <path
     d="M 1.9491525,1.7833686 H 1.4131356 c -0.053797,0 -0.097458,-0.043563 -0.097458,-0.097458 0,-0.053894 0.043661,-0.097458 0.097458,-0.097458 h 0.5360169 c 0.053797,0 0.097458,0.043564 0.097458,0.097458 0,0.053894 -0.043661,0.097458 -0.097458,0.097458 z"
     id="path28"
     inkscape:connector-curvature="0"
     style="fill:#ffffff;stroke-width:0.09745762" />
  <path
     d="m 1.6811441,1.028072 c -0.3627373,0 -0.657839,0.2950043 -0.657839,0.657839 0,0.3628348 0.2951017,0.657839 0.657839,0.657839 V 2.0513771 c -0.053797,0 -0.097458,-0.043563 -0.097458,-0.097458 V 1.7833686 H 1.4131356 c -0.053797,0 -0.097458,-0.043563 -0.097458,-0.097458 0,-0.053894 0.043661,-0.097458 0.097458,-0.097458 H 1.5836864 V 1.4179025 c 0,-0.053894 0.043661,-0.097458 0.097458,-0.097458 z"
     id="path30"
     style="fill:#5a5a5a;fill-opacity:1;stroke-width:0.09745762"
     inkscape:connector-curvature="0" />
  <path
     d="m 1.6811441,1.7833686 h -0.097458 v 0.1705509 c 0,0.053894 0.043661,0.097458 0.097458,0.097458 z m 0,-0.4629237 c -0.053797,0 -0.097458,0.043564 -0.097458,0.097458 v 0.1705509 h 0.097458 z"
     id="path32"
     inkscape:connector-curvature="0"
     style="fill:#dedede;stroke-width:0.09745762" />
  <path
     d="M 1.6811441,1.5884534 H 1.5836864 1.4131356 c -0.053797,0 -0.097458,0.043564 -0.097458,0.097458 0,0.053894 0.043661,0.097458 0.097458,0.097458 h 0.1705508 0.097458 z"
     id="path34"
     inkscape:connector-curvature="0"
     style="fill:#dedede;stroke-width:0.09745762" />
</svg>
