<?xml version="1.0" encoding="UTF-8" standalone="no"?>
<svg
   xmlns:dc="http://purl.org/dc/elements/1.1/"
   xmlns:cc="http://creativecommons.org/ns#"
   xmlns:rdf="http://www.w3.org/1999/02/22-rdf-syntax-ns#"
   xmlns:svg="http://www.w3.org/2000/svg"
   xmlns="http://www.w3.org/2000/svg"
   xmlns:sodipodi="http://sodipodi.sourceforge.net/DTD/sodipodi-0.dtd"
   xmlns:inkscape="http://www.inkscape.org/namespaces/inkscape"
   id="color"
   enable-background="new 0 0 24 24"
   height="50"
   viewBox="0 0 2.34375 2.34375"
   width="50"
   version="1.1"
   sodipodi:docname="Add a note.svg"
   inkscape:version="0.92.4 (5da689c313, 2019-01-14)">
  <metadata
     id="metadata41">
    <rdf:RDF>
      <cc:Work
         rdf:about="">
        <dc:format>image/svg+xml</dc:format>
        <dc:type
           rdf:resource="http://purl.org/dc/dcmitype/StillImage" />
        <dc:title></dc:title>
      </cc:Work>
    </rdf:RDF>
  </metadata>
  <defs
     id="defs39" />
  <sodipodi:namedview
     pagecolor="#ffffff"
     bordercolor="#666666"
     borderopacity="1"
     objecttolerance="10"
     gridtolerance="10"
     guidetolerance="10"
     inkscape:pageopacity="0"
     inkscape:pageshadow="2"
     inkscape:window-width="1920"
     inkscape:window-height="1017"
     id="namedview37"
     showgrid="false"
     inkscape:zoom="3.6875"
     inkscape:cx="76.087284"
     inkscape:cy="22.700066"
     inkscape:window-x="-8"
     inkscape:window-y="-8"
     inkscape:window-maximized="1"
     inkscape:current-layer="color" />
  <path
     d="M 1.3736759,0.31938559 H 0.26509534 C 0.11856991,0.31938559 0,0.43795551 0,0.58448093 V 1.7894597 C 0,1.9359852 0.11856991,2.0545551 0.26509534,2.0545551 H 0.90036021 C 0.84830509,1.944661 0.81938559,1.8222352 0.81938559,1.6930614 l 9.6425e-4,-0.024099 h -0.4588562 c -0.0395234,0 -0.0722987,-0.032776 -0.0722987,-0.072298 0,-0.039523 0.0327754,-0.072299 0.0722987,-0.072299 H 0.8367373 C 0.848305,1.4655614 0.8666208,1.4086869 0.8897564,1.3556679 H 0.36149364 c -0.0395234,0 -0.0722987,-0.032776 -0.0722987,-0.072299 0,-0.039523 0.0327754,-0.072299 0.0722987,-0.072299 h 0.6102013 C 1.0150741,1.148411 1.0680933,1.091536 1.1268962,1.0423729 H 0.36149364 c -0.0395234,0 -0.0722987,-0.032776 -0.0722987,-0.0722985 0,-0.0395234 0.0327754,-0.0722988 0.0722987,-0.0722988 H 1.2772776 c 0.020244,0 0.037595,0.007712 0.051091,0.0212077 C 1.4238026,0.877532 1.528877,0.8534324 1.6387712,0.8505405 V 0.584481 c 0,-0.14652543 -0.11857,-0.26509534 -0.2650953,-0.26509541 z"
     id="path2"
     inkscape:connector-curvature="0"
     style="fill:#2196f3;stroke-width:0.0963983" />
  <path
     d="M 1.1808793,0.2229873 H 1.0748411 C 1.0430297,0.11212923 0.94084743,0.03019067 0.81938559,0.03019067 c -0.12146186,0 -0.22364406,0.08193858 -0.2554555,0.19279663 H 0.45789195 c -0.0395233,0 -0.0722987,0.0327754 -0.0722987,0.0722988 v 0.19279661 c 0,0.0925423 0.0761547,0.16869704 0.16869703,0.16869704 H 1.0844809 c 0.092543,0 0.1686971,-0.0761547 0.1686971,-0.16869704 V 0.29528602 c 0,-0.0395234 -0.032776,-0.0722988 -0.072299,-0.0722987 z"
     id="path4"
     inkscape:connector-curvature="0"
     style="fill:#1976d2;stroke-width:0.0963983" />
  <g
     id="g12"
     style="fill:#ffffff"
     transform="matrix(0.09639831,0,0,0.09639831,0,0.03019067)">
    <path
       d="M 13.78,9.22 C 13.02,9.55 12.32,9.981 11.69,10.5 H 3.75 C 3.34,10.5 3,10.16 3,9.75 3,9.34 3.34,9 3.75,9 h 9.5 c 0.21,0 0.39,0.08 0.53,0.22 z"
       id="path6"
       inkscape:connector-curvature="0" />
    <path
       d="m 10.08,12.25 c -0.33,0.47 -0.62,0.97 -0.85,1.5 H 3.75 C 3.34,13.75 3,13.41 3,13 3,12.59 3.34,12.25 3.75,12.25 Z"
       id="path8"
       inkscape:connector-curvature="0" />
    <path
       d="M 8.68,15.5 C 8.58,15.99 8.52,16.49 8.51,17 H 3.75 C 3.34,17 3,16.66 3,16.25 3,15.84 3.34,15.5 3.75,15.5 Z"
       id="path10"
       inkscape:connector-curvature="0" />
  </g>
  <path
     d="M 0.38559322,0.31938559 H 0.26509534 C 0.11856991,0.31938559 0,0.43795551 0,0.58448093 V 1.7894597 C 0,1.9359852 0.11856991,2.0545551 0.26509534,2.0545551 H 0.80878178 V 1.6689619 H 0.36149364 c -0.0395234,0 -0.0722987,-0.032776 -0.0722987,-0.072298 0,-0.039523 0.0327754,-0.072299 0.0722987,-0.072299 H 0.80878178 V 1.3556673 H 0.36149364 c -0.0395234,0 -0.0722987,-0.032775 -0.0722987,-0.072298 0,-0.039523 0.0327754,-0.072298 0.0722987,-0.072298 H 0.80878178 V 1.0423729 H 0.36149364 c -0.0395234,0 -0.0722987,-0.032776 -0.0722987,-0.0722985 0,-0.0395234 0.0327754,-0.0722988 0.0722987,-0.0722988 H 0.80878178 V 0.65677966 H 0.55429026 c -0.0925424,0 -0.16869704,-0.0761547 -0.16869704,-0.16869703 z"
     id="path14"
     inkscape:connector-curvature="0"
     style="fill:#1d83d4;stroke-width:0.0963983" />
  <path
     d="M 0.80878178,0.03038347 C 0.69204343,0.03501047 0.59487394,0.11531036 0.56393009,0.2229873 H 0.45789195 c -0.0395233,0 -0.0722987,0.0327754 -0.0722987,0.0722988 v 0.0240996 0.16869705 c 0,0.0925423 0.0761547,0.16869703 0.16869703,0.16869703 H 0.8087818 Z"
     id="path16"
     inkscape:connector-curvature="0"
     style="fill:#1667b7;stroke-width:0.0963983" />
  <path
     d="M 0.80878178,0.89777543 H 0.36149364 c -0.0395234,0 -0.0722987,0.0327754 -0.0722987,0.0722988 0,0.039523 0.0327754,0.0722985 0.0722987,0.0722985 h 0.44728814 z"
     id="path18"
     inkscape:connector-curvature="0"
     style="fill:#dedede;stroke-width:0.0963983" />
  <path
     d="M 0.80878178,1.2110699 H 0.36149364 c -0.0395234,0 -0.0722987,0.032776 -0.0722987,0.072299 0,0.039524 0.0327754,0.072298 0.0722987,0.072298 h 0.44728814 z"
     id="path20"
     inkscape:connector-curvature="0"
     style="fill:#dedede;stroke-width:0.0963983" />
  <path
     d="M 0.80878178,1.5243644 H 0.36149364 c -0.0395234,0 -0.0722987,0.032775 -0.0722987,0.072299 0,0.039524 0.0327754,0.072298 0.0722987,0.072298 h 0.44728814 z"
     id="path22"
     inkscape:connector-curvature="0"
     style="fill:#dedede;stroke-width:0.0963983" />
  <path
     d="m 1.6628707,2.34375 c -0.3587944,0 -0.6506885,-0.2917977 -0.6506885,-0.6506886 0,-0.3588908 0.2918941,-0.6506885 0.6506885,-0.6506885 0.3587946,0 0.6506886,0.2917977 0.6506886,0.6506885 0,0.3588909 -0.291894,0.6506886 -0.6506886,0.6506886 z"
     id="path24"
     inkscape:connector-curvature="0"
     style="fill:#4caf50;stroke-width:0.0963983" />
  <path
     d="m 1.6628707,2.0545551 c -0.053211,0 -0.096398,-0.043091 -0.096398,-0.096398 v -0.530191 c 0,-0.053308 0.043187,-0.096398 0.096398,-0.096398 0.053212,0 0.096398,0.04309 0.096398,0.096398 v 0.5301906 c 0,0.053308 -0.043187,0.096398 -0.096398,0.096398 z"
     id="path26"
     inkscape:connector-curvature="0"
     style="fill:#ffffff;stroke-width:0.0963983" />
  <path
     d="M 1.9279661,1.7894597 H 1.3977754 c -0.053212,0 -0.096398,-0.043091 -0.096398,-0.096398 0,-0.053308 0.043187,-0.096398 0.096398,-0.096398 h 0.5301907 c 0.053212,0 0.096398,0.043091 0.096398,0.096398 0,0.053309 -0.043187,0.096398 -0.096398,0.096398 z"
     id="path28"
     inkscape:connector-curvature="0"
     style="fill:#ffffff;stroke-width:0.0963983" />
  <path
     d="m 1.6628707,1.0423729 c -0.3587944,0 -0.6506885,0.2917977 -0.6506885,0.6506885 0,0.3588909 0.2918941,0.6506886 0.6506885,0.6506886 V 2.0545551 c -0.053211,0 -0.096398,-0.043091 -0.096398,-0.096398 V 1.7894597 H 1.3977754 c -0.053212,0 -0.096398,-0.043091 -0.096398,-0.096398 0,-0.053308 0.043187,-0.096398 0.096398,-0.096398 h 0.168697 V 1.4279661 c 0,-0.053308 0.043187,-0.096398 0.096398,-0.096398 z"
     id="path30"
     inkscape:connector-curvature="0"
     style="fill:#429846;stroke-width:0.0963983" />
  <path
     d="m 1.6628707,1.7894597 h -0.096398 v 0.168697 c 0,0.053308 0.043187,0.096398 0.096398,0.096398 z m 0,-0.4578919 c -0.053211,0 -0.096398,0.043091 -0.096398,0.096398 v 0.1686969 h 0.096398 z"
     id="path32"
     inkscape:connector-curvature="0"
     style="fill:#dedede;stroke-width:0.0963983" />
  <path
     d="M 1.6628707,1.5966631 H 1.5664728 1.3977757 c -0.053212,0 -0.096398,0.04309 -0.096398,0.096398 0,0.053308 0.043187,0.096398 0.096398,0.096398 h 0.1686971 0.096398 z"
     id="path34"
     inkscape:connector-curvature="0"
     style="fill:#dedede;stroke-width:0.0963983" />
</svg>
