<?xml version="1.0" encoding="UTF-8" standalone="no"?>
<svg
   xmlns:dc="http://purl.org/dc/elements/1.1/"
   xmlns:cc="http://creativecommons.org/ns#"
   xmlns:rdf="http://www.w3.org/1999/02/22-rdf-syntax-ns#"
   xmlns:svg="http://www.w3.org/2000/svg"
   xmlns="http://www.w3.org/2000/svg"
   xmlns:sodipodi="http://sodipodi.sourceforge.net/DTD/sodipodi-0.dtd"
   xmlns:inkscape="http://www.inkscape.org/namespaces/inkscape"
   version="1.1"
   id="Capa_1"
   x="0px"
   y="0px"
   viewBox="0 0 47.783203 47.783203"
   xml:space="preserve"
   width="50"
   height="50"
   sodipodi:docname="arrow.svg"
   inkscape:version="0.92.4 (5da689c313, 2019-01-14)"><metadata
   id="metadata19"><rdf:RDF><cc:Work
       rdf:about=""><dc:format>image/svg+xml</dc:format><dc:type
         rdf:resource="http://purl.org/dc/dcmitype/StillImage" /><dc:title></dc:title></cc:Work></rdf:RDF></metadata><defs
   id="defs17" /><sodipodi:namedview
   pagecolor="#ffffff"
   bordercolor="#666666"
   borderopacity="1"
   objecttolerance="10"
   gridtolerance="10"
   guidetolerance="10"
   inkscape:pageopacity="0"
   inkscape:pageshadow="2"
   inkscape:window-width="1920"
   inkscape:window-height="1017"
   id="namedview15"
   showgrid="false"
   inkscape:zoom="5.2149125"
   inkscape:cx="89.215164"
   inkscape:cy="27.54635"
   inkscape:window-x="-8"
   inkscape:window-y="-8"
   inkscape:window-maximized="1"
   inkscape:current-layer="Capa_1" /><g
   id="g12"
   transform="matrix(0.09633458,0,0,0.09521047,0.5949513,0.64694993)"><g
     id="g10">
	<g
   id="g8">
		<path
   d="M 476.95,0 H 12.35 C 5.55,0 0.15,5.5 0.15,12.2 V 235 c 0,6.8 5.5,12.2 12.2,12.2 6.7,0 12.3,-5.5 12.3,-12.2 V 24.5 h 440.2 v 440.2 h -211.9 c -6.8,0 -12.3,5.5 -12.3,12.3 0,6.8 5.5,12.3 12.3,12.3 h 224 c 6.8,0 12.3,-5.5 12.3,-12.3 V 12.3 C 489.25,5.5 483.75,0 476.95,0 Z"
   data-original="#000000"
   class="active-path"
   data-old_color="#000000"
   fill="#000000BF"
   id="path2"
   inkscape:connector-curvature="0" />
		<path
   d="m 0.05,476.9 c 0,6.8 5.5,12.3 12.2,12.3 h 170.4 c 6.8,0 12.3,-5.5 12.3,-12.3 V 306.6 c 0,-6.8 -5.5,-12.3 -12.3,-12.3 H 12.35 c -6.8,0 -12.2,5.5 -12.2,12.3 v 170.3 z m 24.5,-158.1 h 145.9 V 464.7 H 24.55 Z"
   data-original="#000000"
   class="active-path"
   data-old_color="#000000"
   fill="#000000BF"
   id="path4"
   inkscape:connector-curvature="0" />
		<path
   d="m 222.95,266.3 c 2.4,2.4 5.5,3.6 8.7,3.6 3.2,0 6.3,-1.2 8.7,-3.6 l 138.6,-138.7 v 79.9 c 0,6.8 5.5,12.3 12.3,12.3 6.8,0 12.3,-5.5 12.3,-12.3 V 98.1 c 0,-6.8 -5.5,-12.3 -12.3,-12.3 h -109.5 c -6.8,0 -12.3,5.5 -12.3,12.3 0,6.8 5.5,12.3 12.3,12.3 h 79.9 L 222.95,249 c -4.8,4.8 -4.8,12.5 0,17.3 z"
   data-original="#000000"
   class="active-path"
   data-old_color="#000000"
   fill="#000000BF"
   id="path6"
   inkscape:connector-curvature="0" />
	</g>
</g></g> </svg>