<?xml version="1.0" encoding="UTF-8" standalone="no"?>
<!-- Generator: Adobe Illustrator 19.0.0, SVG Export Plug-In . SVG Version: 6.00 Build 0)  -->

<svg
   xmlns:dc="http://purl.org/dc/elements/1.1/"
   xmlns:cc="http://creativecommons.org/ns#"
   xmlns:rdf="http://www.w3.org/1999/02/22-rdf-syntax-ns#"
   xmlns:svg="http://www.w3.org/2000/svg"
   xmlns="http://www.w3.org/2000/svg"
   xmlns:sodipodi="http://sodipodi.sourceforge.net/DTD/sodipodi-0.dtd"
   xmlns:inkscape="http://www.inkscape.org/namespaces/inkscape"
   version="1.1"
   id="Capa_1"
   x="0px"
   y="0px"
   viewBox="0 0 50.000001 50.000001"
   xml:space="preserve"
   sodipodi:docname="close.svg"
   inkscape:version="0.92.4 (5da689c313, 2019-01-14)"
   width="50"
   height="50"><metadata
   id="metadata49"><rdf:RDF><cc:Work
       rdf:about=""><dc:format>image/svg+xml</dc:format><dc:type
         rdf:resource="http://purl.org/dc/dcmitype/StillImage" /><dc:title></dc:title></cc:Work></rdf:RDF></metadata><defs
   id="defs47">
	
	
</defs><sodipodi:namedview
   pagecolor="#ffffff"
   bordercolor="#666666"
   borderopacity="1"
   objecttolerance="10"
   gridtolerance="10"
   guidetolerance="10"
   inkscape:pageopacity="0"
   inkscape:pageshadow="2"
   inkscape:window-width="1920"
   inkscape:window-height="1017"
   id="namedview45"
   showgrid="false"
   inkscape:zoom="3.6875721"
   inkscape:cx="4.3363738"
   inkscape:cy="-35.87834"
   inkscape:window-x="1912"
   inkscape:window-y="-8"
   inkscape:window-maximized="1"
   inkscape:current-layer="Capa_1" />
<circle
   id="ellipse2"
   cy="24.780432"
   cx="24.729733"
   style="fill:#1877f2;fill-opacity:1;stroke-width:0.09635993"
   r="22.767733" /><path
   inkscape:connector-curvature="0"
   id="path4"
   d="m 24.939069,49.446648 c -6.31996,0 -12.639919,-2.404855 -17.4515557,-7.214661 -9.6214431,-9.621443 -9.6214431,-25.279836 0,-34.9032068 v 0 c 9.6214437,-9.619516 25.2817627,-9.6214432 34.9032067,0 9.621443,9.6233708 9.621443,25.2798368 0,34.9032068 -4.811734,4.809806 -11.13362,7.214661 -17.451651,7.214661 z M 10.190602,10.031869 c -8.1302729,8.132201 -8.1302729,21.364829 0,29.497029 8.134128,8.130273 21.366659,8.1322 29.497029,0 8.13037,-8.1322 8.130273,-21.364828 0,-29.497029 -8.134223,-8.1302732 -21.364828,-8.1302732 -29.497029,0 z"
   style="fill:#1877f2;fill-opacity:1;stroke-width:0.09635993" />
<g
   id="g12"
   style="fill:#ffffff;fill-opacity:1"
   transform="matrix(0.09635993,0,0,0.09635993,0.06235892,0.11238464)">
	<path
   style="fill:#ffffff;fill-opacity:1"
   d="m 187.115,344.678 c -5.079,0 -10.157,-1.944 -14.026,-5.813 -7.757,-7.757 -7.757,-20.295 0,-28.052 l 140.26,-140.26 c 7.757,-7.757 20.295,-7.757 28.052,0 7.757,7.757 7.757,20.295 0,28.052 l -140.26,140.26 c -3.889,3.869 -8.948,5.813 -14.026,5.813 z"
   id="path8"
   inkscape:connector-curvature="0" />
	<path
   style="fill:#ffffff;fill-opacity:1"
   d="m 327.355,344.678 c -5.079,0 -10.157,-1.944 -14.026,-5.813 l -140.26,-140.26 c -7.757,-7.757 -7.757,-20.295 0,-28.052 7.757,-7.757 20.295,-7.757 28.052,0 l 140.26,140.26 c 7.757,7.757 7.757,20.295 0,28.052 -3.868,3.869 -8.947,5.813 -14.026,5.813 z"
   id="path10"
   inkscape:connector-curvature="0" />
</g>
<g
   id="g14"
   transform="translate(0,-461.98999)">
</g>
<g
   id="g16"
   transform="translate(0,-461.98999)">
</g>
<g
   id="g18"
   transform="translate(0,-461.98999)">
</g>
<g
   id="g20"
   transform="translate(0,-461.98999)">
</g>
<g
   id="g22"
   transform="translate(0,-461.98999)">
</g>
<g
   id="g24"
   transform="translate(0,-461.98999)">
</g>
<g
   id="g26"
   transform="translate(0,-461.98999)">
</g>
<g
   id="g28"
   transform="translate(0,-461.98999)">
</g>
<g
   id="g30"
   transform="translate(0,-461.98999)">
</g>
<g
   id="g32"
   transform="translate(0,-461.98999)">
</g>
<g
   id="g34"
   transform="translate(0,-461.98999)">
</g>
<g
   id="g36"
   transform="translate(0,-461.98999)">
</g>
<g
   id="g38"
   transform="translate(0,-461.98999)">
</g>
<g
   id="g40"
   transform="translate(0,-461.98999)">
</g>
<g
   id="g42"
   transform="translate(0,-461.98999)">
</g>
</svg>