<?xml version="1.0" encoding="UTF-8" standalone="no"?>
<!-- Generator: Adobe Illustrator 19.0.0, SVG Export Plug-In . SVG Version: 6.00 Build 0)  -->

<svg
   xmlns:dc="http://purl.org/dc/elements/1.1/"
   xmlns:cc="http://creativecommons.org/ns#"
   xmlns:rdf="http://www.w3.org/1999/02/22-rdf-syntax-ns#"
   xmlns:svg="http://www.w3.org/2000/svg"
   xmlns="http://www.w3.org/2000/svg"
   xmlns:sodipodi="http://sodipodi.sourceforge.net/DTD/sodipodi-0.dtd"
   xmlns:inkscape="http://www.inkscape.org/namespaces/inkscape"
   version="1.1"
   id="Capa_1"
   x="0px"
   y="0px"
   viewBox="0 0 511.99 511.99"
   style="enable-background:new 0 0 511.99 511.99;"
   xml:space="preserve"
   sodipodi:docname="close.svg"
   inkscape:version="0.92.4 (5da689c313, 2019-01-14)"><metadata
   id="metadata49"><rdf:RDF><cc:Work
       rdf:about=""><dc:format>image/svg+xml</dc:format><dc:type
         rdf:resource="http://purl.org/dc/dcmitype/StillImage" /></cc:Work></rdf:RDF></metadata><defs
   id="defs47">
	
	
</defs><sodipodi:namedview
   pagecolor="#ffffff"
   bordercolor="#666666"
   borderopacity="1"
   objecttolerance="10"
   gridtolerance="10"
   guidetolerance="10"
   inkscape:pageopacity="0"
   inkscape:pageshadow="2"
   inkscape:window-width="1920"
   inkscape:window-height="1017"
   id="namedview45"
   showgrid="false"
   inkscape:zoom="0.46094651"
   inkscape:cx="-105.21828"
   inkscape:cy="255.995"
   inkscape:window-x="-8"
   inkscape:window-y="-8"
   inkscape:window-maximized="1"
   inkscape:current-layer="Capa_1" />
<circle
   r="236.278"
   id="ellipse2"
   cy="255.99899"
   cx="255.992"
   style="fill:#c8c8c8;fill-opacity:1" /><path
   inkscape:connector-curvature="0"
   id="path4"
   d="m 258.16445,511.979 c -65.587,0 -131.174,-24.957 -181.108001,-74.872 -99.849,-99.849 -99.849,-262.348 0,-362.217 v 0 c 99.849001,-99.829 262.368001,-99.849 362.217001,0 99.849,99.869 99.849,262.348 0,362.217 -49.935,49.915 -115.542,74.872 -181.109,74.872 z m -153.056,-409.037 c -84.374001,84.394 -84.374001,221.719 0,306.113 84.414,84.374 221.738,84.394 306.113,0 84.375,-84.394 84.374,-221.719 0,-306.113 -84.415,-84.374 -221.719,-84.374 -306.113,0 z"
   style="fill:#c8c8c8;fill-opacity:1" />
<g
   id="g12"
   style="fill:#1877f2;fill-opacity:1">
	<path
   style="fill:#1877f2;fill-opacity:1"
   d="M187.115,344.678c-5.079,0-10.157-1.944-14.026-5.813c-7.757-7.757-7.757-20.295,0-28.052   l140.26-140.26c7.757-7.757,20.295-7.757,28.052,0c7.757,7.757,7.757,20.295,0,28.052l-140.26,140.26   C197.252,342.734,192.193,344.678,187.115,344.678z"
   id="path8" />
	<path
   style="fill:#1877f2;fill-opacity:1"
   d="M327.355,344.678c-5.079,0-10.157-1.944-14.026-5.813l-140.26-140.26   c-7.757-7.757-7.757-20.295,0-28.052s20.295-7.757,28.052,0l140.26,140.26c7.757,7.757,7.757,20.295,0,28.052   C337.513,342.734,332.434,344.678,327.355,344.678z"
   id="path10" />
</g>
<g
   id="g14">
</g>
<g
   id="g16">
</g>
<g
   id="g18">
</g>
<g
   id="g20">
</g>
<g
   id="g22">
</g>
<g
   id="g24">
</g>
<g
   id="g26">
</g>
<g
   id="g28">
</g>
<g
   id="g30">
</g>
<g
   id="g32">
</g>
<g
   id="g34">
</g>
<g
   id="g36">
</g>
<g
   id="g38">
</g>
<g
   id="g40">
</g>
<g
   id="g42">
</g>
</svg>