<svg id="Flat" height="512" viewBox="0 0 512 512" width="512" xmlns="http://www.w3.org/2000/svg"><rect fill="#f7cc38" height="224" rx="32" width="272" x="216" y="72"/><path d="m216 312a32 32 0 0 0 32 32h208a32 32 0 0 0 32-32v-160a32 32 0 0 0 -32-32h-112v-64a32 32 0 0 0 -32-32h-64a32 32 0 0 0 -32 32z" fill="#fbdc44"/><rect fill="#f7cc38" height="224" rx="32" width="272" x="24" y="216"/><path d="m24 456a32 32 0 0 0 32 32h208a32 32 0 0 0 32-32v-160a32 32 0 0 0 -32-32h-112v-64a32 32 0 0 0 -32-32h-64a32 32 0 0 0 -32 32z" fill="#fbe36a"/><g fill="#f79539"><path d="m408 416v-24l-64 48 64 48v-24h72v-48z"/><path d="m104 96v24l64-48-64-48v24h-72v48z"/></g></svg>