<?xml version="1.0" encoding="UTF-8" standalone="no"?>
<svg
   xmlns:dc="http://purl.org/dc/elements/1.1/"
   xmlns:cc="http://creativecommons.org/ns#"
   xmlns:rdf="http://www.w3.org/1999/02/22-rdf-syntax-ns#"
   xmlns:svg="http://www.w3.org/2000/svg"
   xmlns="http://www.w3.org/2000/svg"
   xmlns:sodipodi="http://sodipodi.sourceforge.net/DTD/sodipodi-0.dtd"
   xmlns:inkscape="http://www.inkscape.org/namespaces/inkscape"
   id="Flat"
   height="50"
   viewBox="0 0 50 50"
   width="50"
   version="1.1"
   sodipodi:docname="Combine notes.svg"
   inkscape:version="0.92.4 (5da689c313, 2019-01-14)">
  <metadata
     id="metadata21">
    <rdf:RDF>
      <cc:Work
         rdf:about="">
        <dc:format>image/svg+xml</dc:format>
        <dc:type
           rdf:resource="http://purl.org/dc/dcmitype/StillImage" />
        <dc:title></dc:title>
      </cc:Work>
    </rdf:RDF>
  </metadata>
  <defs
     id="defs19" />
  <sodipodi:namedview
     pagecolor="#ffffff"
     bordercolor="#666666"
     borderopacity="1"
     objecttolerance="10"
     gridtolerance="10"
     guidetolerance="10"
     inkscape:pageopacity="0"
     inkscape:pageshadow="2"
     inkscape:window-width="1920"
     inkscape:window-height="1017"
     id="namedview17"
     showgrid="false"
     inkscape:zoom="2.6074563"
     inkscape:cx="118.48807"
     inkscape:cy="-4.7852278"
     inkscape:window-x="-8"
     inkscape:window-y="-8"
     inkscape:window-maximized="1"
     inkscape:current-layer="Flat" />
  <rect
     height="22.402325"
     rx="3.2003319"
     width="27.202822"
     x="21.341606"
     y="7.0231023"
     id="rect2"
     style="fill:#f7cc38;stroke-width:0.10001037" />
  <path
     d="m 21.341606,31.025591 a 3.200332,3.200332 0 0 0 3.200332,3.200333 h 20.802158 a 3.200332,3.200332 0 0 0 3.200332,-3.200333 V 15.023931 A 3.200332,3.200332 0 0 0 45.344096,11.8236 H 34.142934 V 5.4229355 A 3.200332,3.200332 0 0 0 30.942602,2.222604 h -6.400664 a 3.200332,3.200332 0 0 0 -3.200332,3.2003315 z"
     id="path4"
     inkscape:connector-curvature="0"
     style="fill:#fbdc44;stroke-width:0.10001037" />
  <rect
     height="22.402325"
     rx="3.2003319"
     width="27.202822"
     x="2.1396141"
     y="21.424597"
     id="rect6"
     style="fill:#f7cc38;stroke-width:0.10001037" />
  <path
     d="m 2.1396141,45.427085 a 3.200332,3.200332 0 0 0 3.2003322,3.200333 H 26.142104 a 3.200332,3.200332 0 0 0 3.200332,-3.200333 V 29.425426 A 3.200332,3.200332 0 0 0 26.142104,26.225093 H 14.940942 V 19.82443 A 3.200332,3.200332 0 0 0 11.74061,16.624098 H 5.3399463 A 3.200332,3.200332 0 0 0 2.1396141,19.82443 Z"
     id="path8"
     inkscape:connector-curvature="0"
     style="fill:#fbe36a;stroke-width:0.10001037" />
  <g
     id="g14"
     style="fill:#f79539"
     transform="matrix(0.10001038,0,0,0.10001038,-0.26063455,-0.17764529)">
    <path
       d="m 408,416 v -24 l -64,48 64,48 v -24 h 72 v -48 z"
       id="path10"
       inkscape:connector-curvature="0" />
    <path
       d="m 104,96 v 24 L 168,72 104,24 V 48 H 32 v 48 z"
       id="path12"
       inkscape:connector-curvature="0" />
  </g>
</svg>
