<?xml version="1.0" encoding="UTF-8" standalone="no"?>
<svg
   xmlns:dc="http://purl.org/dc/elements/1.1/"
   xmlns:cc="http://creativecommons.org/ns#"
   xmlns:rdf="http://www.w3.org/1999/02/22-rdf-syntax-ns#"
   xmlns:svg="http://www.w3.org/2000/svg"
   xmlns="http://www.w3.org/2000/svg"
   xmlns:sodipodi="http://sodipodi.sourceforge.net/DTD/sodipodi-0.dtd"
   xmlns:inkscape="http://www.inkscape.org/namespaces/inkscape"
   id="Flat"
   height="512"
   viewBox="0 0 512 512"
   width="512"
   version="1.1"
   sodipodi:docname="Combine notes-grey.svg"
   inkscape:version="0.92.4 (5da689c313, 2019-01-14)">
  <metadata
     id="metadata21">
    <rdf:RDF>
      <cc:Work
         rdf:about="">
        <dc:format>image/svg+xml</dc:format>
        <dc:type
           rdf:resource="http://purl.org/dc/dcmitype/StillImage" />
      </cc:Work>
    </rdf:RDF>
  </metadata>
  <defs
     id="defs19" />
  <sodipodi:namedview
     pagecolor="#ffffff"
     bordercolor="#666666"
     borderopacity="1"
     objecttolerance="10"
     gridtolerance="10"
     guidetolerance="10"
     inkscape:pageopacity="0"
     inkscape:pageshadow="2"
     inkscape:window-width="1920"
     inkscape:window-height="1017"
     id="namedview17"
     showgrid="false"
     inkscape:zoom="0.4609375"
     inkscape:cx="256"
     inkscape:cy="256"
     inkscape:window-x="-8"
     inkscape:window-y="-8"
     inkscape:window-maximized="1"
     inkscape:current-layer="Flat" />
  <rect
     height="224"
     rx="32"
     width="272"
     x="216"
     y="72"
     id="rect2"
     fill="#f7cc38"
     style="fill:#5a5a5a;fill-opacity:1" />
  <path
     d="m216 312a32 32 0 0 0 32 32h208a32 32 0 0 0 32-32v-160a32 32 0 0 0 -32-32h-112v-64a32 32 0 0 0 -32-32h-64a32 32 0 0 0 -32 32z"
     id="path4"
     style="fill:#787878;fill-opacity:1"
     fill="#fbdc44" />
  <rect
     fill="#f7cc38"
     height="224"
     rx="32"
     width="272"
     x="24"
     y="216"
     id="rect6"
     style="fill:#5a5a5a;fill-opacity:1" />
  <path
     d="m24 456a32 32 0 0 0 32 32h208a32 32 0 0 0 32-32v-160a32 32 0 0 0 -32-32h-112v-64a32 32 0 0 0 -32-32h-64a32 32 0 0 0 -32 32z"
     fill="#fbe36a"
     id="path8"
     style="fill:#787878;fill-opacity:1" />
  <g
     id="g14"
     style="fill:#5a5a5a;fill-opacity:1">
    <path
       d="m 408,416 v -24 l -64,48 64,48 v -24 h 72 v -48 z"
       id="path10"
       inkscape:connector-curvature="0"
       style="fill:#5a5a5a;fill-opacity:1" />
    <path
       d="m 104,96 v 24 L 168,72 104,24 V 48 H 32 v 48 z"
       id="path12"
       inkscape:connector-curvature="0"
       style="fill:#5a5a5a;fill-opacity:1" />
  </g>
</svg>
