<?xml version="1.0" encoding="UTF-8" standalone="no"?>
<svg
   xmlns:dc="http://purl.org/dc/elements/1.1/"
   xmlns:cc="http://creativecommons.org/ns#"
   xmlns:rdf="http://www.w3.org/1999/02/22-rdf-syntax-ns#"
   xmlns:svg="http://www.w3.org/2000/svg"
   xmlns="http://www.w3.org/2000/svg"
   xmlns:sodipodi="http://sodipodi.sourceforge.net/DTD/sodipodi-0.dtd"
   xmlns:inkscape="http://www.inkscape.org/namespaces/inkscape"
   height="50pt"
   viewBox="0 0 50 50"
   width="50pt"
   version="1.1"
   id="svg6"
   sodipodi:docname="delete.svg"
   inkscape:version="0.92.4 (5da689c313, 2019-01-14)">
  <metadata
     id="metadata12">
    <rdf:RDF>
      <cc:Work
         rdf:about="">
        <dc:format>image/svg+xml</dc:format>
        <dc:type
           rdf:resource="http://purl.org/dc/dcmitype/StillImage" />
        <dc:title></dc:title>
      </cc:Work>
    </rdf:RDF>
  </metadata>
  <defs
     id="defs10" />
  <sodipodi:namedview
     pagecolor="#ffffff"
     bordercolor="#666666"
     borderopacity="1"
     objecttolerance="10"
     gridtolerance="10"
     guidetolerance="10"
     inkscape:pageopacity="0"
     inkscape:pageshadow="2"
     inkscape:window-width="1920"
     inkscape:window-height="1017"
     id="namedview8"
     showgrid="false"
     inkscape:zoom="1.9555922"
     inkscape:cx="77.072752"
     inkscape:cy="5.4810443"
     inkscape:window-x="-8"
     inkscape:window-y="-8"
     inkscape:window-maximized="1"
     inkscape:current-layer="svg6" />
  <path
     d="M 24.949143,0.10171082 C 11.191634,0.10171082 0,11.293345 0,25.050854 c 0,13.757508 11.191634,24.949142 24.949143,24.949142 13.757509,0 24.949143,-11.191634 24.949143,-24.949142 0,-13.757509 -11.191634,-24.94914318 -24.949143,-24.94914318 z m 0,0"
     id="path2"
     inkscape:connector-curvature="0"
     style="fill:#f44336;stroke-width:0.09745759" />
  <path
     d="m 34.136805,31.298418 c 0.812781,0.813162 0.812781,2.126936 0,2.940098 -0.405439,0.405438 -0.937649,0.60911 -1.470239,0.60911 -0.53221,0 -1.06442,-0.203672 -1.469859,-0.60911 l -6.247564,-6.247946 -6.247565,6.247946 c -0.405439,0.405438 -0.937648,0.60911 -1.469858,0.60911 -0.53259,0 -1.0648,-0.203672 -1.470239,-0.60911 -0.812781,-0.813162 -0.812781,-2.126936 0,-2.940098 l 6.247945,-6.247564 -6.247945,-6.247565 c -0.812781,-0.813162 -0.812781,-2.126936 0,-2.940098 0.813161,-0.81278 2.126936,-0.81278 2.940097,0 l 6.247565,6.247946 6.247564,-6.247946 c 0.813162,-0.81278 2.126936,-0.81278 2.940098,0 0.812781,0.813162 0.812781,2.126936 0,2.940098 l -6.247946,6.247565 z m 0,0"
     id="path4"
     inkscape:connector-curvature="0"
     style="fill:#fafafa;stroke-width:0.09745759" />
</svg>
