<?xml version="1.0" encoding="UTF-8" standalone="no"?>
<!-- Generator: Adobe Illustrator 19.0.0, SVG Export Plug-In . SVG Version: 6.00 Build 0)  -->

<svg
   xmlns:dc="http://purl.org/dc/elements/1.1/"
   xmlns:cc="http://creativecommons.org/ns#"
   xmlns:rdf="http://www.w3.org/1999/02/22-rdf-syntax-ns#"
   xmlns:svg="http://www.w3.org/2000/svg"
   xmlns="http://www.w3.org/2000/svg"
   xmlns:sodipodi="http://sodipodi.sourceforge.net/DTD/sodipodi-0.dtd"
   xmlns:inkscape="http://www.inkscape.org/namespaces/inkscape"
   version="1.1"
   id="Capa_1"
   x="0px"
   y="0px"
   viewBox="0 0 490.787 265.78699"
   xml:space="preserve"
   sodipodi:docname="down-arrow.svg"
   inkscape:version="0.92.4 (5da689c313, 2019-01-14)"
   width="490.78699"
   height="265.78699"><metadata
   id="metadata41"><rdf:RDF><cc:Work
       rdf:about=""><dc:format>image/svg+xml</dc:format><dc:type
         rdf:resource="http://purl.org/dc/dcmitype/StillImage" /><dc:title></dc:title></cc:Work></rdf:RDF></metadata><defs
   id="defs39" /><sodipodi:namedview
   pagecolor="#ffffff"
   bordercolor="#666666"
   borderopacity="1"
   objecttolerance="10"
   gridtolerance="10"
   guidetolerance="10"
   inkscape:pageopacity="0"
   inkscape:pageshadow="2"
   inkscape:window-width="1920"
   inkscape:window-height="1017"
   id="namedview37"
   showgrid="false"
   inkscape:zoom="1.3600784"
   inkscape:cx="196.72306"
   inkscape:cy="213.35747"
   inkscape:window-x="-8"
   inkscape:window-y="-8"
   inkscape:window-maximized="1"
   inkscape:current-layer="Capa_1" />
<path
   style="fill:#000000"
   d="m 491.29086,25.506905 c -0.0415,2.8307 -1.20591,5.528941 -3.23854,7.499851 L 249.56615,263.79037 c -4.23279,4.09507 -10.98388,3.98425 -15.08097,-0.24758 L 3.7015848,25.055635 c -4.16925347,-4.162 -4.17541007,-10.91502 -0.014394,-15.0852793 4.1619999,-4.16924 10.9150062,-4.1754 15.0852652,-0.0144 0.08767,0.0874 0.173143,0.1758593 0.257669,0.2662693 L 243.03525,201.52727 471.13863,8.7988657 c 4.2279,-4.10216 13.04177,4.8587293 17.14392,9.0866293 1.97681,2.03872 3.05993,4.78188 3.00831,7.62141 z"
   id="path2"
   inkscape:connector-curvature="0"
   sodipodi:nodetypes="cccccccccccc" />
<path
   d="m 491.29086,25.506905 c -0.0415,2.8307 -1.20591,5.528941 -3.23854,7.499851 L 249.56615,263.79037 c -4.23279,4.09507 -10.98388,3.98425 -15.08097,-0.24758 L 3.7015848,25.055635 c -4.16925347,-4.162 -4.17541007,-10.91502 -0.014394,-15.0852793 4.1619999,-4.16924 10.9150062,-4.1754 15.0852652,-0.0144 0.08767,0.0874 0.173143,0.1758593 0.257669,0.2662693 L 242.3867,241.03447 473.19927,17.656895 c 4.2279,-4.10216 10.98113,-3.9993 15.08328,0.2286 1.97681,2.03872 3.05993,4.78188 3.00831,7.62141 z"
   id="path4"
   inkscape:connector-curvature="0"
   sodipodi:nodetypes="cccccccccccc"
   style="fill:#000000" />
<g
   id="g6"
   transform="rotate(-4.5554526,-2584.5668,124.91796)">
</g>
<g
   id="g8"
   transform="rotate(-4.5554526,-2584.5668,124.91796)">
</g>
<g
   id="g10"
   transform="rotate(-4.5554526,-2584.5668,124.91796)">
</g>
<g
   id="g12"
   transform="rotate(-4.5554526,-2584.5668,124.91796)">
</g>
<g
   id="g14"
   transform="rotate(-4.5554526,-2584.5668,124.91796)">
</g>
<g
   id="g16"
   transform="rotate(-4.5554526,-2584.5668,124.91796)">
</g>
<g
   id="g18"
   transform="rotate(-4.5554526,-2584.5668,124.91796)">
</g>
<g
   id="g20"
   transform="rotate(-4.5554526,-2584.5668,124.91796)">
</g>
<g
   id="g22"
   transform="rotate(-4.5554526,-2584.5668,124.91796)">
</g>
<g
   id="g24"
   transform="rotate(-4.5554526,-2584.5668,124.91796)">
</g>
<g
   id="g26"
   transform="rotate(-4.5554526,-2584.5668,124.91796)">
</g>
<g
   id="g28"
   transform="rotate(-4.5554526,-2584.5668,124.91796)">
</g>
<g
   id="g30"
   transform="rotate(-4.5554526,-2584.5668,124.91796)">
</g>
<g
   id="g32"
   transform="rotate(-4.5554526,-2584.5668,124.91796)">
</g>
<g
   id="g34"
   transform="rotate(-4.5554526,-2584.5668,124.91796)">
</g>
</svg>