<?xml version="1.0" encoding="UTF-8" standalone="no"?>
<!-- Generator: Adobe Illustrator 19.0.0, SVG Export Plug-In . SVG Version: 6.00 Build 0)  -->

<svg
   xmlns:dc="http://purl.org/dc/elements/1.1/"
   xmlns:cc="http://creativecommons.org/ns#"
   xmlns:rdf="http://www.w3.org/1999/02/22-rdf-syntax-ns#"
   xmlns:svg="http://www.w3.org/2000/svg"
   xmlns="http://www.w3.org/2000/svg"
   xmlns:sodipodi="http://sodipodi.sourceforge.net/DTD/sodipodi-0.dtd"
   xmlns:inkscape="http://www.inkscape.org/namespaces/inkscape"
   version="1.1"
   id="Capa_1"
   x="0px"
   y="0px"
   viewBox="0 0 49.000001 26"
   xml:space="preserve"
   sodipodi:docname="down-arrow.svg"
   inkscape:version="0.92.4 (5da689c313, 2019-01-14)"
   width="49"
   height="26"><metadata
   id="metadata41"><rdf:RDF><cc:Work
       rdf:about=""><dc:format>image/svg+xml</dc:format><dc:type
         rdf:resource="http://purl.org/dc/dcmitype/StillImage" /><dc:title></dc:title></cc:Work></rdf:RDF></metadata><defs
   id="defs39" /><sodipodi:namedview
   pagecolor="#ffffff"
   bordercolor="#666666"
   borderopacity="1"
   objecttolerance="10"
   gridtolerance="10"
   guidetolerance="10"
   inkscape:pageopacity="0"
   inkscape:pageshadow="2"
   inkscape:window-width="1920"
   inkscape:window-height="1017"
   id="namedview37"
   showgrid="false"
   inkscape:zoom="15.387531"
   inkscape:cx="28.560221"
   inkscape:cy="14.039852"
   inkscape:window-x="1912"
   inkscape:window-y="-8"
   inkscape:window-maximized="1"
   inkscape:current-layer="Capa_1" />
<path
   style="fill:#000000;stroke-width:0.09773368"
   d="m 48.400462,2.1223271 c -0.0041,0.2766547 -0.117858,0.5403636 -0.316514,0.7329879 L 24.775815,25.410649 c -0.413686,0.400226 -1.073495,0.389395 -1.473918,-0.0242 L 0.74656632,2.0782228 C 0.33908979,1.6714552 0.33848808,1.0114576 0.74515952,0.60388277 1.1519271,0.19640759 1.8119233,0.19580549 2.2194981,0.60247577 c 0.00857,0.00854 0.016922,0.017187 0.025183,0.026024 L 24.137526,19.325447 46.43091,0.48938867 c 0.413209,-0.40091918 1.274621,0.4748616 1.675539,0.88806993 0.193201,0.1992516 0.299058,0.4673507 0.294013,0.7448685 z"
   id="path2"
   inkscape:connector-curvature="0"
   sodipodi:nodetypes="cccccccccccc" />
<path
   d="m 48.400462,2.1223271 c -0.0041,0.2766547 -0.117858,0.5403636 -0.316514,0.7329879 L 24.775815,25.410649 c -0.413686,0.400226 -1.073495,0.389395 -1.473918,-0.0242 L 0.74656592,2.0782228 C 0.33908942,1.6714552 0.33848771,1.0114576 0.74515914,0.60388277 1.1519267,0.19640758 1.8119229,0.19580548 2.2194977,0.60247537 c 0.00857,0.00854 0.016922,0.017187 0.025183,0.026024 L 24.074141,23.186631 46.632304,1.3551166 c 0.413209,-0.40091923 1.073227,-0.39086633 1.474145,0.022342 0.193201,0.1992516 0.299058,0.4673507 0.294013,0.7448685 z"
   id="path4"
   inkscape:connector-curvature="0"
   sodipodi:nodetypes="cccccccccccc"
   style="fill:#000000;stroke-width:0.09773368" />
<g
   id="g6"
   transform="rotate(-4.5554526,-5615.2802,6.0084813)">
</g>
<g
   id="g8"
   transform="rotate(-4.5554526,-5615.2802,6.0084813)">
</g>
<g
   id="g10"
   transform="rotate(-4.5554526,-5615.2802,6.0084813)">
</g>
<g
   id="g12"
   transform="rotate(-4.5554526,-5615.2802,6.0084813)">
</g>
<g
   id="g14"
   transform="rotate(-4.5554526,-5615.2802,6.0084813)">
</g>
<g
   id="g16"
   transform="rotate(-4.5554526,-5615.2802,6.0084813)">
</g>
<g
   id="g18"
   transform="rotate(-4.5554526,-5615.2802,6.0084813)">
</g>
<g
   id="g20"
   transform="rotate(-4.5554526,-5615.2802,6.0084813)">
</g>
<g
   id="g22"
   transform="rotate(-4.5554526,-5615.2802,6.0084813)">
</g>
<g
   id="g24"
   transform="rotate(-4.5554526,-5615.2802,6.0084813)">
</g>
<g
   id="g26"
   transform="rotate(-4.5554526,-5615.2802,6.0084813)">
</g>
<g
   id="g28"
   transform="rotate(-4.5554526,-5615.2802,6.0084813)">
</g>
<g
   id="g30"
   transform="rotate(-4.5554526,-5615.2802,6.0084813)">
</g>
<g
   id="g32"
   transform="rotate(-4.5554526,-5615.2802,6.0084813)">
</g>
<g
   id="g34"
   transform="rotate(-4.5554526,-5615.2802,6.0084813)">
</g>
</svg>