<?xml version="1.0" encoding="UTF-8" standalone="no"?>
<svg
   xmlns:dc="http://purl.org/dc/elements/1.1/"
   xmlns:cc="http://creativecommons.org/ns#"
   xmlns:rdf="http://www.w3.org/1999/02/22-rdf-syntax-ns#"
   xmlns:svg="http://www.w3.org/2000/svg"
   xmlns="http://www.w3.org/2000/svg"
   xmlns:sodipodi="http://sodipodi.sourceforge.net/DTD/sodipodi-0.dtd"
   xmlns:inkscape="http://www.inkscape.org/namespaces/inkscape"
   height="512px"
   viewBox="0 0 512 512"
   width="512px"
   class=""
   version="1.1"
   id="svg8"
   sodipodi:docname="facebook.svg"
   inkscape:version="0.92.4 (5da689c313, 2019-01-14)">
  <metadata
     id="metadata14">
    <rdf:RDF>
      <cc:Work
         rdf:about="">
        <dc:format>image/svg+xml</dc:format>
        <dc:type
           rdf:resource="http://purl.org/dc/dcmitype/StillImage" />
      </cc:Work>
    </rdf:RDF>
  </metadata>
  <defs
     id="defs12" />
  <sodipodi:namedview
     pagecolor="#ffffff"
     bordercolor="#666666"
     borderopacity="1"
     objecttolerance="10"
     gridtolerance="10"
     guidetolerance="10"
     inkscape:pageopacity="0"
     inkscape:pageshadow="2"
     inkscape:window-width="1920"
     inkscape:window-height="1017"
     id="namedview10"
     showgrid="false"
     inkscape:zoom="0.4609375"
     inkscape:cx="256"
     inkscape:cy="256"
     inkscape:window-x="-8"
     inkscape:window-y="-8"
     inkscape:window-maximized="1"
     inkscape:current-layer="svg8" />
  <path
     inkscape:connector-curvature="0"
     id="path2"
     data-old_color="#4267b2"
     style="fill:#ffffff"
     class=""
     data-original="#4267B2"
     d="M 483.73828,0 H 28.238281 C 12.640625,0.0078125 -0.00390625,12.660156 0,28.261719 V 483.76172 C 0.0078125,499.35937 12.660156,512.00391 28.261719,512 H 483.73828 c 15.60547,0.004 28.25781,-12.64453 28.26172,-28.25 0,-0.004 0,-0.008 0,-0.0117 V 28.238281 C 511.99219,12.640625 499.33984,-0.00390625 483.73828,0 Z m 0,0" />
  <path
     inkscape:connector-curvature="0"
     id="path4"
     data-old_color="#fff"
     style="fill:#1877f2;fill-opacity:1"
     class="active-path"
     data-original="#FFF"
     d="M 353.5,512 V 314 h 66.75 l 10,-77.5 H 353.5 V 187.14062 C 353.5,164.75391 359.71484,149.5 391.81641,149.5 H 432.5 V 80.371094 c -7.07813,-0.941406 -31.36328,-3.046875 -59.62109,-3.046875 -59,0 -99.37891,36.000001 -99.37891,102.140621 V 236.5 H 207 V 314 h 66.5 v 198 z m 0,0" />
</svg>
