<?xml version="1.0" encoding="UTF-8" standalone="no"?>
<svg
   xmlns:dc="http://purl.org/dc/elements/1.1/"
   xmlns:cc="http://creativecommons.org/ns#"
   xmlns:rdf="http://www.w3.org/1999/02/22-rdf-syntax-ns#"
   xmlns:svg="http://www.w3.org/2000/svg"
   xmlns="http://www.w3.org/2000/svg"
   xmlns:sodipodi="http://sodipodi.sourceforge.net/DTD/sodipodi-0.dtd"
   xmlns:inkscape="http://www.inkscape.org/namespaces/inkscape"
   id="Capa_1"
   enable-background="new 0 0 512 512"
   height="512px"
   viewBox="0 0 512 512"
   width="512px"
   class=""
   version="1.1"
   sodipodi:docname="FRIENDS.svg"
   inkscape:version="0.92.4 (5da689c313, 2019-01-14)">
  <metadata
     id="metadata49">
    <rdf:RDF>
      <cc:Work
         rdf:about="">
        <dc:format>image/svg+xml</dc:format>
        <dc:type
           rdf:resource="http://purl.org/dc/dcmitype/StillImage" />
      </cc:Work>
    </rdf:RDF>
  </metadata>
  <defs
     id="defs47" />
  <sodipodi:namedview
     pagecolor="#ffffff"
     bordercolor="#666666"
     borderopacity="1"
     objecttolerance="10"
     gridtolerance="10"
     guidetolerance="10"
     inkscape:pageopacity="0"
     inkscape:pageshadow="2"
     inkscape:window-width="1920"
     inkscape:window-height="1017"
     id="namedview45"
     showgrid="false"
     inkscape:zoom="1.3037281"
     inkscape:cx="1.1372315"
     inkscape:cy="259.16967"
     inkscape:window-x="-8"
     inkscape:window-y="-8"
     inkscape:window-maximized="1"
     inkscape:current-layer="Capa_1" />
  <path
     d="M 272.01,486.06 H 0 V 376.84 C 0,354.45 13.63,334.32 34.42,326 l 57.01,-22.8 h 73.14 l 57.01,22.8 c 20.79,8.32 34.42,28.45 34.42,50.84 z"
     data-original="#8CF2F2"
     class=""
     style="fill:#c8c8c8;fill-opacity:1"
     data-old_color="#8cf2f2"
     id="path2"
     inkscape:connector-curvature="0" />
  <path
     d="M 272.01,486.06 H 128 V 303.2 h 36.57 l 57.01,22.8 c 20.79,8.32 34.42,28.45 34.42,50.84 z"
     data-original="#57D9D4"
     class=""
     style="fill:#c8c8c8;fill-opacity:1"
     data-old_color="#57d9d4"
     id="path4"
     inkscape:connector-curvature="0" />
  <path
     d="m 164.57,267.45 v 35.75 c 0,10.1 -4.09,19.24 -10.71,25.86 -6.62,6.62 -15.76,10.71 -25.86,10.71 -20.2,0 -36.57,-16.37 -36.57,-36.57 v -35.75 z"
     data-original="#FFBFAB"
     class=""
     style="fill:#dcdcdc;fill-opacity:1"
     data-old_color="#ffbfab"
     id="path6"
     inkscape:connector-curvature="0" />
  <path
     d="m 164.57,267.45 v 35.75 c 0,10.1 -4.09,19.24 -10.71,25.86 -6.62,6.62 -15.76,10.71 -25.86,10.71 v -72.32 z"
     data-original="#EAA492"
     class=""
     data-old_color="#eaa492"
     style="fill:#dcdcdc;fill-opacity:1"
     id="path8"
     inkscape:connector-curvature="0" />
  <path
     d="m 221.94,119.88 v 44.71 H 34.06 v -44.71 c 0,-25.94 10.52,-49.42 27.52,-66.42 17,-17 40.48,-27.52 66.42,-27.52 51.88,0 93.94,42.06 93.94,93.94 z"
     data-original="#FFDA2D"
     class=""
     style="fill:#c8c8c8;fill-opacity:1"
     data-old_color="#ffda2d"
     id="path10"
     inkscape:connector-curvature="0" />
  <path
     d="m 221.94,119.88 v 44.71 H 128 V 25.94 c 51.88,0 93.94,42.06 93.94,93.94 z"
     data-original="#FCAE00"
     class=""
     style="fill:#c8c8c8;fill-opacity:1"
     data-old_color="#fcae00"
     id="path12"
     inkscape:connector-curvature="0" />
  <path
     d="m 237.71,177.54 c 0,10.1 -4.09,19.24 -10.71,25.86 -6.62,6.62 -15.76,10.71 -25.86,10.71 0,20.2 -8.18,38.49 -21.42,51.73 -13.24,13.23 -31.52,21.42 -51.72,21.42 -20.2,0 -38.48,-8.19 -51.72,-21.42 C 63.04,252.6 54.86,234.31 54.86,214.11 44.76,214.11 35.62,210.02 29,203.4 22.38,196.78 18.29,187.64 18.29,177.54 c 0,-20.2 16.37,-36.57 36.57,-36.57 h 11.58 c 17,0 32.39,-6.89 43.53,-18.03 C 121.11,111.8 128,96.41 128,79.41 c 0,34 27.56,61.56 61.56,61.56 h 11.58 c 10.1,0 19.24,4.09 25.86,10.71 6.62,6.62 10.71,15.76 10.71,25.86 z"
     data-original="#FFCEBF"
     class=""
     style="fill:#dcdcdc;fill-opacity:1"
     data-old_color="#ffcebf"
     id="path14"
     inkscape:connector-curvature="0" />
  <path
     d="m 237.71,177.54 c 0,10.1 -4.09,19.24 -10.71,25.86 -6.62,6.62 -15.76,10.71 -25.86,10.71 0,20.2 -8.18,38.49 -21.42,51.73 -13.24,13.23 -31.52,21.42 -51.72,21.42 V 79.41 c 0,34 27.56,61.56 61.56,61.56 h 11.58 c 10.1,0 19.24,4.09 25.86,10.71 6.62,6.62 10.71,15.76 10.71,25.86 z"
     data-original="#FFBFAB"
     class=""
     style="fill:#dcdcdc;fill-opacity:1"
     data-old_color="#ffbfab"
     id="path16"
     inkscape:connector-curvature="0" />
  <g
     id="g24"
     style="fill:#c8c8c8;fill-opacity:1"
     transform="matrix(1,0,0,0.653324,0,32.133398)">
    <g
       id="g22"
       style="fill:#c8c8c8;fill-opacity:1">
      <path
         d="m 512,376.33 v 83.64 H 256 v -83.64 c 0,-7.44 1.54,-13.65 4.44,-19.27 2.9,-5.62 7.16,-10.66 12.59,-15.74 10.87,-10.16 17.03,-24.37 17.03,-39.25 V 186.63 c 0,-25.94 10.52,-49.43 27.52,-66.43 17,-17 40.48,-27.51 66.42,-27.51 51.88,0 93.94,42.06 93.94,93.94 v 115.44 c 0,7.44 1.54,14.71 4.44,21.39 2.9,6.69 7.16,12.78 12.59,17.86 10.86,10.17 17.03,20.13 17.03,35.01 z"
         data-original="#FFDA2D"
         class=""
         style="fill:#c8c8c8;fill-opacity:1"
         data-old_color="#ffda2d"
         id="path20"
         inkscape:connector-curvature="0" />
    </g>
  </g>
  <path
     d="m 512,449.97 v 36.09 H 256 v -36.09 c 0,-22.39 13.63,-42.53 34.42,-50.85 l 19.95,-7.98 73.63,0.18 74.55,0.19 19.03,7.61 c 20.79,8.32 34.42,28.46 34.42,50.85 z"
     data-original="#FF738E"
     class=""
     style="fill:#c8c8c8;fill-opacity:1"
     data-old_color="#ff738e"
     id="path28"
     inkscape:connector-curvature="0" />
  <path
     d="m 512,449.97 v 36.09 H 384 v -94.74 l 74.55,0.19 19.03,7.61 c 20.79,8.32 34.42,28.46 34.42,50.85 z"
     data-original="#FF3B62"
     class=""
     style="fill:#c8c8c8;fill-opacity:1"
     data-old_color="#ff3b62"
     id="path30"
     inkscape:connector-curvature="0" />
  <path
     d="m 458.55,391.51 c -16.98,27.83 -45.8,41.65 -74.55,41.47 -28.49,-0.19 -56.9,-14.14 -73.63,-41.84 l 37.06,-14.82 10.63,-42.13 h 51.88 l 10.63,42.13 z"
     data-original="#FFBFAB"
     class=""
     style="fill:#dcdcdc;fill-opacity:1"
     data-old_color="#ffbfab"
     id="path32"
     inkscape:connector-curvature="0" />
  <path
     d="m 458.55,391.51 c -16.98,27.83 -45.8,41.65 -74.55,41.47 v -98.79 h 25.94 l 10.63,42.13 z"
     data-original="#EAA492"
     class=""
     data-old_color="#eaa492"
     style="fill:#dcdcdc;fill-opacity:1"
     id="path34"
     inkscape:connector-curvature="0" />
  <path
     d="m 493.71,244.29 c 0,10.1 -4.09,19.24 -10.71,25.86 -6.62,6.62 -15.76,10.71 -25.86,10.71 0,20.2 -8.18,38.48 -21.42,51.72 C 422.48,345.82 404.2,354 384,354 c -20.2,0 -38.48,-8.18 -51.72,-21.42 -13.24,-13.24 -21.42,-31.52 -21.42,-51.72 -10.1,0 -19.24,-4.09 -25.86,-10.71 -6.62,-6.62 -10.71,-15.76 -10.71,-25.86 0,-20.2 16.37,-36.57 36.57,-36.57 h 11.58 c 17,0 32.39,-6.89 43.53,-18.03 11.14,-11.14 18.03,-26.53 18.03,-43.53 0,34 27.56,61.56 61.56,61.56 h 11.58 c 10.1,0 19.24,4.09 25.86,10.71 6.62,6.62 10.71,15.76 10.71,25.86 z"
     data-original="#FFCEBF"
     class=""
     style="fill:#dcdcdc;fill-opacity:1"
     data-old_color="#ffcebf"
     id="path36"
     inkscape:connector-curvature="0" />
  <path
     d="m 493.71,244.29 c 0,10.1 -4.09,19.24 -10.71,25.86 -6.62,6.62 -15.76,10.71 -25.86,10.71 0,20.2 -8.18,38.48 -21.42,51.72 C 422.48,345.82 404.2,354 384,354 V 146.16 c 0,34 27.56,61.56 61.56,61.56 h 11.58 c 10.1,0 19.24,4.09 25.86,10.71 6.62,6.62 10.71,15.76 10.71,25.86 z"
     data-original="#FFBFAB"
     class=""
     style="fill:#dcdcdc;fill-opacity:1"
     data-old_color="#ffbfab"
     id="path38"
     inkscape:connector-curvature="0" />
  <path
     style="opacity:1;fill:#1877f2;fill-opacity:1;stroke:none;stroke-width:8.04347897;stroke-linecap:square;stroke-miterlimit:4;stroke-dasharray:none;stroke-dashoffset:0.17640001;stroke-opacity:1"
     id="path848"
     sodipodi:type="arc"
     sodipodi:cx="102.06514"
     sodipodi:cy="175.01767"
     sodipodi:rx="9.2543983"
     sodipodi:ry="9.4600515"
     sodipodi:start="0"
     sodipodi:end="6.2740398"
     sodipodi:open="true"
     d="m 111.31954,175.01767 a 9.2543983,9.4600515 0 0 1 -9.23324,9.46003 9.2543983,9.4600515 0 0 1 -9.275462,-9.41677 9.2543983,9.4600515 0 0 1 9.190822,-9.50309 9.2543983,9.4600515 0 0 1 9.31749,9.37331" />
  <path
     style="opacity:1;fill:#1877f2;fill-opacity:1;stroke:none;stroke-width:8.37681293;stroke-linecap:square;stroke-miterlimit:4;stroke-dasharray:none;stroke-dashoffset:0.17640001;stroke-opacity:1"
     id="path848-7"
     sodipodi:type="arc"
     sodipodi:cx="149.57106"
     sodipodi:cy="173.85861"
     sodipodi:rx="9.6379137"
     sodipodi:ry="9.8520899"
     sodipodi:start="0"
     sodipodi:end="6.2740398"
     sodipodi:open="true"
     d="m 159.20897,173.85861 a 9.6379137,9.8520899 0 0 1 -9.61587,9.85207 9.6379137,9.8520899 0 0 1 -9.65985,-9.80702 9.6379137,9.8520899 0 0 1 9.5717,-9.89691 9.6379137,9.8520899 0 0 1 9.70362,9.76176" />
  <path
     style="opacity:1;fill:#1877f2;fill-opacity:1;stroke:none;stroke-width:8.04347897;stroke-linecap:square;stroke-miterlimit:4;stroke-dasharray:none;stroke-dashoffset:0.17640001;stroke-opacity:1"
     id="path848-4"
     sodipodi:type="arc"
     sodipodi:cx="359.57083"
     sodipodi:cy="242.01358"
     sodipodi:rx="9.2543983"
     sodipodi:ry="9.4600515"
     sodipodi:start="0"
     sodipodi:end="6.2740398"
     sodipodi:open="true"
     d="m 368.82523,242.01358 a 9.2543983,9.4600515 0 0 1 -9.23324,9.46003 9.2543983,9.4600515 0 0 1 -9.27546,-9.41677 9.2543983,9.4600515 0 0 1 9.19082,-9.50309 9.2543983,9.4600515 0 0 1 9.31749,9.37331" />
  <path
     style="opacity:1;fill:#1877f2;fill-opacity:1;stroke:none;stroke-width:8.37681293;stroke-linecap:square;stroke-miterlimit:4;stroke-dasharray:none;stroke-dashoffset:0.17640001;stroke-opacity:1"
     id="path848-7-0"
     sodipodi:type="arc"
     sodipodi:cx="407.07675"
     sodipodi:cy="240.85452"
     sodipodi:rx="9.6379137"
     sodipodi:ry="9.8520899"
     sodipodi:start="0"
     sodipodi:end="6.2740398"
     sodipodi:open="true"
     d="m 416.71467,240.85452 a 9.6379137,9.8520899 0 0 1 -9.61588,9.85207 9.6379137,9.8520899 0 0 1 -9.65985,-9.80702 9.6379137,9.8520899 0 0 1 9.5717,-9.89691 9.6379137,9.8520899 0 0 1 9.70362,9.76176" />
  <path
     style="fill:#1877f2;fill-opacity:1;stroke-width:0.42823967"
     d="m 81.913356,221.26639 c 1.463153,1.00682 1.371707,0.41951 1.371707,1.25852 0,0.10488 -0.08083,0.24047 0,0.31463 0.08083,0.0742 0.262097,-0.0742 0.342925,0 0.709525,0.65098 -1.084251,-0.0254 0.342926,0.62926 0.102239,0.0469 0.262098,-0.0742 0.342926,0 0.17146,0.15731 -0.171466,0.78657 0,0.94389 0.08083,0.0742 0.262097,-0.0742 0.342925,0 0.08252,0.0757 -0.08252,1.1828 0,1.25852 0.08083,0.0742 0.262098,-0.0742 0.342926,0 0.08083,0.0742 -0.05112,0.22082 0,0.31463 0.0723,0.13266 0.270632,0.18196 0.342925,0.31462 0.102244,0.18761 -0.161656,0.48095 0,0.62926 0.08083,0.0742 0.240687,-0.0469 0.342926,0 0.144591,0.0663 0.22862,0.20975 0.342926,0.31463 0.11431,0.10488 0.270632,0.18197 0.34293,0.31463 0.05112,0.0938 -0.08083,0.24047 0,0.31463 0.08083,0.0742 0.262098,-0.0742 0.342926,0 0.08083,0.0742 -0.08083,0.24047 0,0.31463 0.161656,0.14832 0.524195,-0.14832 0.685851,0 0.08083,0.0742 -0.08083,0.24047 0,0.31463 0.161656,0.14832 0.524195,-0.14832 0.685851,0 0.08083,0.0742 -0.08083,0.24047 0,0.31463 0.07011,0.0643 0.89281,-0.0624 1.028777,0 1.427177,0.65471 -0.366599,-0.0217 0.34293,0.62926 0.08252,0.0757 1.289185,-0.0757 1.371703,0 0.08083,0.0742 -0.08083,0.24047 0,0.31463 0.161656,0.14831 0.524195,-0.14832 0.685851,0 0.08083,0.0742 -0.08083,0.24047 0,0.31462 0.08083,0.0742 0.262098,-0.0742 0.342926,0 0.08083,0.0742 -0.08083,0.24048 0,0.31463 0.08083,0.0742 0.240687,-0.0469 0.342925,0 0.144591,0.0663 0.19834,0.2483 0.342926,0.31463 0.204482,0.0938 0.481374,-0.0938 0.685856,0 0.144591,0.0663 0.198335,0.2483 0.342925,0.31463 0.135967,0.0624 0.95867,-0.0643 1.028777,0 0.08083,0.0742 -0.08083,0.24047 0,0.31463 0.171466,0.15732 0.857317,-0.15731 1.028777,0 0.08083,0.0742 -0.05112,0.22083 0,0.31463 0.713589,1.30941 -0.0237,-0.33635 0.685856,0.31463 0.08083,0.0742 -0.08083,0.24047 0,0.31463 0.171461,0.15731 0.857312,-0.15732 1.028777,0 0.08083,0.0742 -0.08083,0.24047 0,0.31463 0.161656,0.14832 0.524195,-0.14832 0.685851,0 0.161656,0.14832 -0.161656,0.48094 0,0.62926 0.161656,0.14831 0.524195,-0.14832 0.685855,0 0.0808,0.0742 -0.0808,0.24047 0,0.31463 0.16166,0.14831 0.52419,-0.14832 0.68585,0 0.0808,0.0742 -0.0808,0.24047 0,0.31463 0.0701,0.0643 0.892812,-0.0624 1.028782,0 0.28918,0.13265 0.39667,0.4966 0.68585,0.62926 0.13597,0.0624 0.95868,-0.0643 1.02878,0 0.0808,0.0742 -0.0808,0.24047 0,0.31463 0.17146,0.15731 0.85731,-0.15732 1.02878,0 0.0808,0.0742 -0.0808,0.24047 0,0.31462 0.0701,0.0643 0.89281,-0.0624 1.02878,0 0.14459,0.0663 0.19833,0.24831 0.34292,0.31463 0.10224,0.0469 0.2621,-0.0742 0.34293,0 0.0808,0.0742 -0.0808,0.24047 0,0.31463 0.10618,0.0974 1.60844,-0.0974 1.71463,0 0.0808,0.0742 -0.0808,0.24047 0,0.31463 0.0275,0.0253 1.44471,0 1.71463,0 1.48602,0 2.97203,0 4.45804,0 0.24307,0 1.9689,-0.0407 2.05756,0 0.14459,0.0663 0.19834,0.2483 0.34293,0.31463 0.20233,0.0928 0.7929,-0.0721 1.02877,0 0.24249,0.0742 0.44337,0.24047 0.68585,0.31463 0.23296,0.0712 1.95816,0 2.40049,0 1.71463,0 3.42926,0 5.14389,0 2.6291,0 5.2582,0 7.8873,0 1.02878,0 2.05756,0 3.08634,0 0.11431,0 0.22862,0 0.34292,0 0.11431,0 0.2621,0.0742 0.34293,0 0.0808,-0.0742 -0.0808,-0.24047 0,-0.31463 0.0156,-0.0143 1.55294,0 1.71463,0 0.22862,0 0.45724,0 0.68585,0 0.11431,0 0.34293,-0.10487 0.34293,0 0,0.10488 -0.34293,0.10488 -0.34293,0 0,-0.14832 0.19834,-0.2483 0.34293,-0.31463 0.10436,-0.0479 0.87434,0 1.02878,0 0.80016,0 1.60032,0 2.40048,0 2.6291,0 5.2582,0 7.8873,0 0.68585,0 1.3717,0 2.05756,0 0.15444,0 0.92441,0.0479 1.02878,0 0.14459,-0.0663 0.19833,-0.2483 0.34292,-0.31463 0.0887,-0.0407 1.81449,0 2.05756,0 0.11431,0 0.24068,0.0469 0.34293,0 0.14459,-0.0663 0.19833,-0.2483 0.34292,-0.31463 0.10224,-0.0469 0.24068,0.0469 0.34293,0 0.14459,-0.0663 0.19833,-0.2483 0.34292,-0.31463 0.20449,-0.0938 0.48137,0.0938 0.68585,0 0.1446,-0.0663 0.19834,-0.2483 0.34293,-0.31462 0.20448,-0.0938 0.5242,0.14831 0.68586,0 0.0808,-0.0742 -0.0808,-0.24047 0,-0.31463 0.16165,-0.14832 0.52419,0.14831 0.68585,0 0.70952,-0.65098 -1.08425,0.0254 0.34292,-0.62926 0.20449,-0.0938 0.5242,0.14832 0.68585,0 0.0808,-0.0742 -0.0808,-0.24048 0,-0.31463 0.0808,-0.0742 0.24069,0.0469 0.34293,0 1.56944,-0.71997 -1.45518,0.1304 1.02878,-0.62926 0.10844,-0.0331 0.2621,0.0742 0.34293,0 0.0808,-0.0742 -0.0808,-0.24047 0,-0.31463 0.16165,-0.14832 0.48137,0.0938 0.68585,0 0.14459,-0.0663 0.19833,-0.2483 0.34292,-0.31463 0.10224,-0.0469 0.2621,0.0742 0.34293,0 0.0808,-0.0742 -0.0808,-0.24047 0,-0.31463 0.0808,-0.0742 0.2621,0.0742 0.34293,0 0.0808,-0.0742 -0.0808,-0.24047 0,-0.31463 0.16165,-0.14832 0.52419,0.14832 0.68585,0 0.0808,-0.0742 -0.0808,-0.24047 0,-0.31463 0.0808,-0.0742 0.26209,0.0742 0.34292,0 0.0808,-0.0742 -0.0808,-0.24047 0,-0.31463 0.17147,-0.15731 0.85732,0.15732 1.02878,0 0.0808,-0.0742 -0.0808,-0.24047 0,-0.31463 0.0808,-0.0742 0.2621,0.0742 0.34293,0 0.0808,-0.0742 -0.0808,-0.24047 0,-0.31463 0.0808,-0.0742 0.2621,0.0742 0.34293,0 0.0808,-0.0742 -0.0511,-0.22082 0,-0.31463 0.71358,-1.30941 -0.0237,0.33635 0.68585,-0.31462 0.0808,-0.0742 -0.0808,-0.24047 0,-0.31463 0.0808,-0.0742 0.26209,0.0742 0.34292,0 0.0808,-0.0742 -0.0808,-0.24047 0,-0.31463 0.0808,-0.0742 0.2621,0.0742 0.34293,0 0.0808,-0.0742 -0.0808,-0.24047 0,-0.31463 0.16166,-0.14832 0.52419,0.14832 0.68585,0 0.0808,-0.0742 -0.0511,-0.22083 0,-0.31463 0.14459,-0.26532 0.54126,-0.36394 0.68585,-0.62926 0.0511,-0.0938 -0.0808,-0.24047 0,-0.31463 0.16166,-0.14832 0.48137,0.0938 0.68586,0 0.14459,-0.0663 0.22862,-0.20975 0.34292,-0.31463 0.11431,-0.10488 0.27063,-0.18197 0.34293,-0.31463 0.0511,-0.0938 -0.0808,-0.24047 0,-0.31463 0.16166,-0.14831 0.52419,0.14832 0.68585,0 0.17146,-0.15731 -0.17146,-0.78657 0,-0.94388 0.0808,-0.0742 0.2621,0.0742 0.34293,0 0.16165,-0.14832 -0.16166,-0.48094 0,-0.62927 0.0808,-0.0742 0.2621,0.0742 0.34292,0 0,-0.839 -0.11431,0.10488 0.34293,-0.31462 0.0808,-0.0742 -0.0808,-0.24047 0,-0.31463 0.0808,-0.0742 0.2621,0.0742 0.34293,0 0.17146,-0.15732 -0.17147,-0.78658 0,-0.94389 0.0808,-0.0742 0.26209,0.0742 0.34292,0 0.0701,-0.0643 -0.068,-0.81914 0,-0.94389 0.0723,-0.13266 0.27063,-0.18197 0.34293,-0.31463 0.10224,-0.18761 -0.16166,-0.48094 0,-0.62926 0.0808,-0.0742 0.26209,0.0742 0.34292,0 0.16166,-0.14831 -0.10224,-0.44165 0,-0.62925 0.0723,-0.13266 0.27064,-0.18197 0.34293,-0.31463 0.0511,-0.0938 0,-0.20976 0,-0.31463 0,-0.10488 0,-0.20976 0,-0.31463 0,-0.62926 0,-1.25852 0,-1.88778 0,-0.62926 0,-1.25851 0,-1.88778 0,-0.10487 0.0808,-0.24047 0,-0.31462 -0.0808,-0.0742 -0.2621,0.0741 -0.34293,0 -0.17146,-0.15732 0.17147,-0.78658 0,-0.94389 -0.0808,-0.0742 -0.26209,0.0742 -0.34292,0 -0.16166,-0.14832 0.16165,-0.48094 0,-0.62926 -0.0138,-0.0127 -1.24577,0 -1.37171,0 -0.11431,0 -0.26209,-0.0742 -0.34292,0 -0.0808,0.0742 0.0808,0.24047 0,0.31463 -0.16166,0.14832 -0.5242,-0.14832 -0.68586,0 -0.16165,0.14832 0.16166,0.48094 0,0.62926 -0.0808,0.0742 -0.26209,-0.0742 -0.34292,0 -0.0808,0.0742 0.0808,0.24047 0,0.31463 -0.16166,0.14831 -0.5242,-0.14832 -0.68585,0 -0.0808,0.0742 0.0511,0.22082 0,0.31463 -0.71359,1.30941 0.0237,-0.33635 -0.68586,0.31462 -0.0808,0.0742 0.0808,0.24047 0,0.31463 -0.0808,0.0742 -0.26209,-0.0742 -0.34292,0 -0.0808,0.0742 0.0808,0.24047 0,0.31464 -0.16166,0.14831 -0.5242,-0.14832 -0.68585,0 -0.16166,0.14831 0.16165,0.48094 0,0.62925 -0.0808,0.0742 -0.2621,-0.0742 -0.34293,0 -0.16166,0.14832 0.16166,0.48094 0,0.62926 -0.0808,0.0742 -0.2621,-0.0742 -0.34293,0 -0.16165,0.14832 0.16166,0.48094 0,0.62926 -0.16165,0.14832 -0.52419,-0.14832 -0.68585,0 -0.0808,0.0742 0.0808,0.24047 0,0.31463 -0.0808,0.0742 -0.2621,-0.0742 -0.34292,0 -0.0808,0.0742 0.0808,0.24047 0,0.31463 -0.0808,0.0742 -0.2621,-0.0742 -0.34293,0 -0.70953,0.65098 1.08425,-0.0254 -0.34293,0.62926 -0.10224,0.0469 -0.26209,-0.0742 -0.34292,0 -0.0808,0.0742 0.0511,0.22082 0,0.31463 -0.0723,0.13266 -0.27063,0.18197 -0.34293,0.31463 -0.0511,0.0938 0.0511,0.22082 0,0.31463 -0.71359,1.30941 0.0237,-0.33635 -0.68585,0.31462 -0.0808,0.0742 0.0808,0.24047 0,0.31463 -0.0808,0.0742 -0.24069,-0.0469 -0.34293,0 -0.14459,0.0663 -0.19833,0.2483 -0.34292,0.31463 -0.10224,0.0469 -0.2621,-0.0742 -0.34293,0 -0.0808,0.0742 0.0808,0.24047 0,0.31463 -0.0808,0.0742 -0.2621,-0.0742 -0.34293,0 -0.0808,0.0742 0.0808,0.24047 0,0.31463 -0.16165,0.14832 -0.52419,-0.14832 -0.68585,0 -0.0808,0.0742 0.0808,0.24047 0,0.31463 -0.16165,0.14832 -0.52419,-0.14832 -0.68585,0 -0.0808,0.0742 0.0808,0.24047 0,0.31463 -0.16166,0.14832 -0.48137,-0.0938 -0.68585,0 -1.42718,0.65471 0.3666,-0.0217 -0.34293,0.62926 -0.16166,0.14832 -0.48137,-0.0938 -0.68585,0 -0.14459,0.0663 -0.19834,0.2483 -0.34293,0.31463 -0.20448,0.0938 -0.52419,-0.14832 -0.68585,0 -0.0808,0.0742 0.0808,0.24047 0,0.31463 -0.17146,0.15731 -0.85731,-0.15732 -1.02878,0 -0.45724,0.4195 0.57155,0.31463 -0.34293,0.31463 -0.11431,0 -0.22861,0 -0.34292,0 -0.11431,0 -0.2621,-0.0742 -0.34293,0 -0.0808,0.0742 0.0808,0.24047 0,0.31462 -0.0808,0.0742 -0.26209,-0.0742 -0.34292,0 -0.0808,0.0742 0.0808,0.24048 0,0.31463 -0.16166,0.14832 -0.5242,-0.14831 -0.68585,0 -0.0808,0.0742 0.0808,0.24047 0,0.31464 -0.16166,0.14831 -0.5242,-0.14832 -0.68586,0 -0.0808,0.0742 0.0808,0.24047 0,0.31463 -0.0938,0.0861 -1.18567,-0.0854 -1.3717,0 -0.28918,0.13266 -0.39667,0.49659 -0.68585,0.62925 -0.13597,0.0624 -0.95868,-0.0643 -1.02878,0 -0.0808,0.0742 0.0808,0.24047 0,0.31463 -0.17147,0.15732 -0.85732,-0.15731 -1.02878,0 -0.0808,0.0742 0.0808,0.24047 0,0.31463 -0.0825,0.0757 -1.28919,-0.0757 -1.3717,0 -0.0808,0.0742 0.0808,0.24047 0,0.31463 -0.0808,0.0742 -0.24069,-0.0469 -0.34293,0 -0.14459,0.0663 -0.19834,0.2483 -0.34293,0.31463 -0.18603,0.0853 -1.27787,-0.0861 -1.3717,0 -0.0808,0.0742 0.0808,0.24047 0,0.31463 -0.0808,0.0742 -0.22862,0 -0.34293,0 -0.68585,0 -1.37171,0 -2.05756,0 -4.68665,0 -9.37331,0 -14.05997,0 -2.40048,0 -4.80096,0 -7.20144,0 -0.0832,0 -1.01776,0.0101 -1.02879,0 -0.0808,-0.0742 0.0808,-0.24047 0,-0.31463 -0.0938,-0.0861 -1.18567,0.0853 -1.3717,0 -0.14459,-0.0663 -0.19833,-0.2483 -0.34292,-0.31463 -0.10437,-0.0479 -0.87434,0 -1.02878,0 -0.68586,0 -1.37171,0 -2.05756,0 -0.17932,0 -1.28153,0.0414 -1.37171,0 -0.14459,-0.0663 -0.19833,-0.2483 -0.34292,-0.31463 -0.10224,-0.0469 -0.22862,0 -0.34293,0 -0.11431,0 -0.22861,0 -0.34292,0 -0.68585,0 -1.37171,0 -2.05756,0 -0.11431,0 -0.2621,0.0742 -0.34293,0 -0.0808,-0.0742 0.0808,-0.24047 0,-0.31463 -0.17146,-0.15731 -0.85731,0.15732 -1.02877,0 -0.0808,-0.0742 0.0808,-0.24047 0,-0.31463 -0.16166,-0.14831 -0.5242,0.14832 -0.68586,0 -0.0808,-0.0742 0.0808,-0.24047 0,-0.31463 -0.0155,-0.0143 -1.55294,0 -1.71463,0 -0.11431,0 -0.2621,0.0742 -0.34292,0 -0.0808,-0.0742 0.0808,-0.24047 0,-0.31462 -0.0701,-0.0643 -0.89281,0.0624 -1.02878,0 -1.13735,-1.0435 0.32331,0.14831 -0.68586,-0.31463 -0.14458,-0.0663 -0.19833,-0.2483 -0.34292,-0.31464 -0.13597,-0.0624 -0.95867,0.0643 -1.02878,0 -0.0808,-0.0742 0.0808,-0.24047 0,-0.31463 -0.0825,-0.0757 -1.28918,0.0757 -1.3717,0 -0.0808,-0.0742 0.0808,-0.24047 0,-0.31462 -0.17147,-0.15732 -0.85732,0.15731 -1.02878,0 -0.0808,-0.0742 0.0808,-0.24047 0,-0.31463 -0.16166,-0.14832 -0.48137,0.0938 -0.68586,0 -0.14459,-0.0663 -0.19833,-0.2483 -0.34292,-0.31463 -0.27434,-0.12585 -0.75444,0.12585 -1.02878,0 -0.14459,-0.0663 -0.19834,-0.2483 -0.34293,-0.31463 -0.20448,-0.0938 -0.48137,0.0938 -0.68585,0 -0.14459,-0.0663 -0.19833,-0.2483 -0.34292,-0.31463 -0.20449,-0.0938 -0.48137,0.0938 -0.68586,0 -0.144592,-0.0663 -0.198332,-0.2483 -0.342922,-0.31463 -0.10225,-0.0469 -0.24069,0.0469 -0.34293,0 -0.14459,-0.0663 -0.19834,-0.2483 -0.34292,-0.31463 -0.10225,-0.0469 -0.2621,0.0742 -0.34293,0 -0.0808,-0.0742 0.0808,-0.24047 0,-0.31463 -0.0701,-0.0643 -0.892814,0.0624 -1.02878,0 -0.144591,-0.0663 -0.198335,-0.2483 -0.342926,-0.31463 -0.102239,-0.0469 -0.240687,0.0469 -0.342926,0 -0.14459,-0.0663 -0.198334,-0.2483 -0.342925,-0.31463 -0.204482,-0.0938 -0.524195,0.14832 -0.685851,0 -0.08083,-0.0742 0.08083,-0.24047 0,-0.31463 -0.161661,-0.14831 -0.524196,0.14832 -0.685856,0 -0.08083,-0.0742 0.08083,-0.24047 0,-0.31463 -0.08252,-0.0757 -1.289185,0.0757 -1.371703,0 -0.457236,-0.4195 0.571541,-0.31462 -0.342926,-0.31462 -0.804225,0 0.161657,0.0742 -0.685851,-0.31463 -0.102243,-0.0469 -0.240687,0.0469 -0.34293,0 -0.144586,-0.0663 -0.198335,-0.2483 -0.342926,-0.31463 -0.102238,-0.0469 -0.262097,0.0742 -0.342925,0 -0.08083,-0.0742 0.08083,-0.24047 0,-0.31463 -0.08083,-0.0742 -0.240683,0.0469 -0.342926,0 -0.144591,-0.0663 -0.198335,-0.2483 -0.342926,-0.31463 -0.135966,-0.0624 -0.958669,0.0643 -1.028776,0 -0.08083,-0.0742 0.08083,-0.24047 0,-0.31463 -0.08083,-0.0742 -0.262098,0.0742 -0.342926,0 -0.08083,-0.0742 0.08083,-0.24047 0,-0.31463 -0.07011,-0.0643 -0.892815,0.0624 -1.028782,0 -0.14459,-0.0663 -0.198334,-0.2483 -0.342925,-0.31463 -0.274339,-0.12585 -0.754438,0.12585 -1.028777,0 -0.144591,-0.0663 -0.198335,-0.2483 -0.342926,-0.31463 -0.102243,-0.0469 -0.240687,0.0469 -0.342925,0 -0.289182,-0.13266 -0.396674,-0.4966 -0.685856,-0.62926 -0.102239,-0.0469 -0.240683,0.0469 -0.342926,0 -0.144591,-0.0663 -0.198335,-0.2483 -0.342926,-0.31463 -0.204482,-0.0938 -0.524195,0.14832 -0.685851,0 -0.08083,-0.0742 0.08083,-0.24047 0,-0.31463 -0.161656,-0.14832 -0.524195,0.14832 -0.685851,0 -0.08083,-0.0742 0.08083,-0.24047 0,-0.31462 -0.08083,-0.0742 -0.262098,0.0742 -0.342926,0 -0.08083,-0.0742 0.08083,-0.24047 0,-0.31464 -0.16166,-0.14831 -0.524195,0.14832 -0.685856,0 -0.08083,-0.0742 0.08083,-0.24047 0,-0.31463 -0.161656,-0.14831 -0.524195,0.14833 -0.685851,0 -0.08083,-0.0742 0.08083,-0.24047 0,-0.31462 -0.161656,-0.14832 -0.481369,0.0938 -0.685851,0 -0.408298,-0.18731 -0.478539,-0.62926 -0.342926,-0.62926 0.11431,0 0,0.20975 0,0.31463 0,0.62925 0,1.25852 0,1.88777 0,0.0763 -0.01104,0.93377 0,0.94389 0.161656,0.14832 0.524195,-0.14832 0.685852,0 0.08083,0.0742 0,0.20975 0,0.31463 0,0.83901 0,1.67802 0,2.51703 z"
     id="path4607"
     inkscape:connector-curvature="0" />
  <path
     style="fill:#1877f2;fill-opacity:1;stroke-width:0.42823967"
     d="m 338.51543,284.54645 c 1.46315,1.00682 1.37171,0.41951 1.37171,1.25852 0,0.10488 -0.0808,0.24047 0,0.31463 0.0808,0.0742 0.26209,-0.0742 0.34292,0 0.70953,0.65098 -1.08425,-0.0254 0.34293,0.62926 0.10224,0.0469 0.26209,-0.0742 0.34292,0 0.17146,0.15731 -0.17146,0.78657 0,0.94389 0.0808,0.0742 0.2621,-0.0742 0.34293,0 0.0825,0.0757 -0.0825,1.1828 0,1.25852 0.0808,0.0742 0.2621,-0.0742 0.34292,0 0.0808,0.0742 -0.0511,0.22082 0,0.31463 0.0723,0.13266 0.27064,0.18196 0.34293,0.31462 0.10224,0.18761 -0.16166,0.48095 0,0.62926 0.0808,0.0742 0.24069,-0.0469 0.34292,0 0.1446,0.0663 0.22862,0.20975 0.34293,0.31463 0.11431,0.10488 0.27063,0.18197 0.34293,0.31463 0.0511,0.0938 -0.0808,0.24047 0,0.31463 0.0808,0.0742 0.2621,-0.0742 0.34293,0 0.0808,0.0742 -0.0808,0.24047 0,0.31463 0.16165,0.14832 0.52419,-0.14832 0.68585,0 0.0808,0.0742 -0.0808,0.24047 0,0.31463 0.16165,0.14832 0.52419,-0.14832 0.68585,0 0.0808,0.0742 -0.0808,0.24047 0,0.31463 0.0701,0.0643 0.89281,-0.0624 1.02878,0 1.42717,0.65471 -0.3666,-0.0217 0.34293,0.62926 0.0825,0.0757 1.28918,-0.0757 1.3717,0 0.0808,0.0742 -0.0808,0.24047 0,0.31463 0.16165,0.14831 0.52419,-0.14832 0.68585,0 0.0808,0.0742 -0.0808,0.24047 0,0.31462 0.0808,0.0742 0.2621,-0.0742 0.34293,0 0.0808,0.0742 -0.0808,0.24048 0,0.31463 0.0808,0.0742 0.24068,-0.0469 0.34292,0 0.14459,0.0663 0.19834,0.2483 0.34293,0.31463 0.20448,0.0938 0.48137,-0.0938 0.68585,0 0.14459,0.0663 0.19834,0.2483 0.34293,0.31463 0.13597,0.0624 0.95867,-0.0643 1.02878,0 0.0808,0.0742 -0.0808,0.24047 0,0.31463 0.17146,0.15732 0.85731,-0.15731 1.02877,0 0.0808,0.0742 -0.0511,0.22083 0,0.31463 0.71359,1.30941 -0.0237,-0.33635 0.68586,0.31463 0.0808,0.0742 -0.0808,0.24047 0,0.31463 0.17146,0.15731 0.85731,-0.15732 1.02878,0 0.0808,0.0742 -0.0808,0.24047 0,0.31463 0.16165,0.14832 0.52419,-0.14832 0.68585,0 0.16165,0.14832 -0.16166,0.48094 0,0.62926 0.16165,0.14831 0.52419,-0.14832 0.68585,0 0.0808,0.0742 -0.0808,0.24047 0,0.31463 0.16166,0.14831 0.52419,-0.14832 0.68585,0 0.0808,0.0742 -0.0808,0.24047 0,0.31463 0.0701,0.0643 0.89281,-0.0624 1.02878,0 0.28918,0.13265 0.39667,0.4966 0.68585,0.62926 0.13597,0.0624 0.95868,-0.0643 1.02878,0 0.0808,0.0742 -0.0808,0.24047 0,0.31463 0.17146,0.15731 0.85731,-0.15732 1.02878,0 0.0808,0.0742 -0.0808,0.24047 0,0.31462 0.0701,0.0643 0.89281,-0.0624 1.02878,0 0.14459,0.0663 0.19833,0.24831 0.34292,0.31463 0.10224,0.0469 0.2621,-0.0742 0.34293,0 0.0808,0.0742 -0.0808,0.24047 0,0.31463 0.10618,0.0974 1.60844,-0.0974 1.71463,0 0.0808,0.0742 -0.0808,0.24047 0,0.31463 0.0275,0.0253 1.44471,0 1.71463,0 1.48602,0 2.97203,0 4.45804,0 0.24307,0 1.9689,-0.0407 2.05756,0 0.14459,0.0663 0.19834,0.2483 0.34293,0.31463 0.20233,0.0928 0.7929,-0.0721 1.02877,0 0.24249,0.0742 0.44337,0.24047 0.68585,0.31463 0.23296,0.0712 1.95816,0 2.40049,0 1.71463,0 3.42926,0 5.14389,0 2.6291,0 5.2582,0 7.8873,0 1.02878,0 2.05756,0 3.08634,0 0.11431,0 0.22862,0 0.34292,0 0.11431,0 0.2621,0.0742 0.34293,0 0.0808,-0.0742 -0.0808,-0.24047 0,-0.31463 0.0156,-0.0143 1.55294,0 1.71463,0 0.22862,0 0.45724,0 0.68585,0 0.11431,0 0.34293,-0.10487 0.34293,0 0,0.10488 -0.34293,0.10488 -0.34293,0 0,-0.14832 0.19834,-0.2483 0.34293,-0.31463 0.10436,-0.0479 0.87434,0 1.02878,0 0.80016,0 1.60032,0 2.40048,0 2.6291,0 5.2582,0 7.8873,0 0.68585,0 1.3717,0 2.05756,0 0.15444,0 0.92441,0.0479 1.02878,0 0.14459,-0.0663 0.19833,-0.2483 0.34292,-0.31463 0.0887,-0.0407 1.81449,0 2.05756,0 0.11431,0 0.24068,0.0469 0.34293,0 0.14459,-0.0663 0.19833,-0.2483 0.34292,-0.31463 0.10224,-0.0469 0.24068,0.0469 0.34293,0 0.14459,-0.0663 0.19833,-0.2483 0.34292,-0.31463 0.20449,-0.0938 0.48137,0.0938 0.68585,0 0.1446,-0.0663 0.19834,-0.2483 0.34293,-0.31462 0.20448,-0.0938 0.5242,0.14831 0.68586,0 0.0808,-0.0742 -0.0808,-0.24047 0,-0.31463 0.16165,-0.14832 0.52419,0.14831 0.68585,0 0.70952,-0.65098 -1.08425,0.0254 0.34292,-0.62926 0.20449,-0.0938 0.5242,0.14832 0.68585,0 0.0808,-0.0742 -0.0808,-0.24048 0,-0.31463 0.0808,-0.0742 0.24069,0.0469 0.34293,0 1.56944,-0.71997 -1.45518,0.1304 1.02878,-0.62926 0.10844,-0.0331 0.2621,0.0742 0.34293,0 0.0808,-0.0742 -0.0808,-0.24047 0,-0.31463 0.16165,-0.14832 0.48137,0.0938 0.68585,0 0.14459,-0.0663 0.19833,-0.2483 0.34292,-0.31463 0.10224,-0.0469 0.2621,0.0742 0.34293,0 0.0808,-0.0742 -0.0808,-0.24047 0,-0.31463 0.0808,-0.0742 0.2621,0.0742 0.34293,0 0.0808,-0.0742 -0.0808,-0.24047 0,-0.31463 0.16165,-0.14832 0.52419,0.14832 0.68585,0 0.0808,-0.0742 -0.0808,-0.24047 0,-0.31463 0.0808,-0.0742 0.26209,0.0742 0.34292,0 0.0808,-0.0742 -0.0808,-0.24047 0,-0.31463 0.17147,-0.15731 0.85732,0.15732 1.02878,0 0.0808,-0.0742 -0.0808,-0.24047 0,-0.31463 0.0808,-0.0742 0.2621,0.0742 0.34293,0 0.0808,-0.0742 -0.0808,-0.24047 0,-0.31463 0.0808,-0.0742 0.2621,0.0742 0.34293,0 0.0808,-0.0742 -0.0511,-0.22082 0,-0.31463 0.71358,-1.30941 -0.0237,0.33635 0.68585,-0.31462 0.0808,-0.0742 -0.0808,-0.24047 0,-0.31463 0.0808,-0.0742 0.26209,0.0742 0.34292,0 0.0808,-0.0742 -0.0808,-0.24047 0,-0.31463 0.0808,-0.0742 0.2621,0.0742 0.34293,0 0.0808,-0.0742 -0.0808,-0.24047 0,-0.31463 0.16166,-0.14832 0.52419,0.14832 0.68585,0 0.0808,-0.0742 -0.0511,-0.22083 0,-0.31463 0.14459,-0.26532 0.54126,-0.36394 0.68585,-0.62926 0.0511,-0.0938 -0.0808,-0.24047 0,-0.31463 0.16166,-0.14832 0.48137,0.0938 0.68586,0 0.14459,-0.0663 0.22862,-0.20975 0.34292,-0.31463 0.11431,-0.10488 0.27063,-0.18197 0.34293,-0.31463 0.0511,-0.0938 -0.0808,-0.24047 0,-0.31463 0.16166,-0.14831 0.52419,0.14832 0.68585,0 0.17146,-0.15731 -0.17146,-0.78657 0,-0.94388 0.0808,-0.0742 0.2621,0.0742 0.34293,0 0.16165,-0.14832 -0.16166,-0.48094 0,-0.62927 0.0808,-0.0742 0.2621,0.0742 0.34292,0 0,-0.839 -0.11431,0.10488 0.34293,-0.31462 0.0808,-0.0742 -0.0808,-0.24047 0,-0.31463 0.0808,-0.0742 0.2621,0.0742 0.34293,0 0.17146,-0.15732 -0.17147,-0.78658 0,-0.94389 0.0808,-0.0742 0.26209,0.0742 0.34292,0 0.0701,-0.0643 -0.068,-0.81914 0,-0.94389 0.0723,-0.13266 0.27063,-0.18197 0.34293,-0.31463 0.10224,-0.18761 -0.16166,-0.48094 0,-0.62926 0.0808,-0.0742 0.26209,0.0742 0.34292,0 0.16166,-0.14831 -0.10224,-0.44165 0,-0.62925 0.0723,-0.13266 0.27064,-0.18197 0.34293,-0.31463 0.0511,-0.0938 0,-0.20976 0,-0.31463 0,-0.10488 0,-0.20976 0,-0.31463 0,-0.62926 0,-1.25852 0,-1.88778 0,-0.62926 0,-1.25851 0,-1.88778 0,-0.10487 0.0808,-0.24047 0,-0.31462 -0.0808,-0.0742 -0.2621,0.0741 -0.34293,0 -0.17146,-0.15732 0.17147,-0.78658 0,-0.94389 -0.0808,-0.0742 -0.26209,0.0742 -0.34292,0 -0.16166,-0.14832 0.16165,-0.48094 0,-0.62926 -0.0138,-0.0127 -1.24577,0 -1.37171,0 -0.11431,0 -0.26209,-0.0742 -0.34292,0 -0.0808,0.0742 0.0808,0.24047 0,0.31463 -0.16166,0.14832 -0.5242,-0.14832 -0.68586,0 -0.16165,0.14832 0.16166,0.48094 0,0.62926 -0.0808,0.0742 -0.26209,-0.0742 -0.34292,0 -0.0808,0.0742 0.0808,0.24047 0,0.31463 -0.16166,0.14831 -0.5242,-0.14832 -0.68585,0 -0.0808,0.0742 0.0511,0.22082 0,0.31463 -0.71359,1.30941 0.0237,-0.33635 -0.68586,0.31462 -0.0808,0.0742 0.0808,0.24047 0,0.31463 -0.0808,0.0742 -0.26209,-0.0742 -0.34292,0 -0.0808,0.0742 0.0808,0.24047 0,0.31464 -0.16166,0.14831 -0.5242,-0.14832 -0.68585,0 -0.16166,0.14831 0.16165,0.48094 0,0.62925 -0.0808,0.0742 -0.2621,-0.0742 -0.34293,0 -0.16166,0.14832 0.16166,0.48094 0,0.62926 -0.0808,0.0742 -0.2621,-0.0742 -0.34293,0 -0.16165,0.14832 0.16166,0.48094 0,0.62926 -0.16165,0.14832 -0.52419,-0.14832 -0.68585,0 -0.0808,0.0742 0.0808,0.24047 0,0.31463 -0.0808,0.0742 -0.2621,-0.0742 -0.34292,0 -0.0808,0.0742 0.0808,0.24047 0,0.31463 -0.0808,0.0742 -0.2621,-0.0742 -0.34293,0 -0.70953,0.65098 1.08425,-0.0254 -0.34293,0.62926 -0.10224,0.0469 -0.26209,-0.0742 -0.34292,0 -0.0808,0.0742 0.0511,0.22082 0,0.31463 -0.0723,0.13266 -0.27063,0.18197 -0.34293,0.31463 -0.0511,0.0938 0.0511,0.22082 0,0.31463 -0.71359,1.30941 0.0237,-0.33635 -0.68585,0.31462 -0.0808,0.0742 0.0808,0.24047 0,0.31463 -0.0808,0.0742 -0.24069,-0.0469 -0.34293,0 -0.14459,0.0663 -0.19833,0.2483 -0.34292,0.31463 -0.10224,0.0469 -0.2621,-0.0742 -0.34293,0 -0.0808,0.0742 0.0808,0.24047 0,0.31463 -0.0808,0.0742 -0.2621,-0.0742 -0.34293,0 -0.0808,0.0742 0.0808,0.24047 0,0.31463 -0.16165,0.14832 -0.52419,-0.14832 -0.68585,0 -0.0808,0.0742 0.0808,0.24047 0,0.31463 -0.16165,0.14832 -0.52419,-0.14832 -0.68585,0 -0.0808,0.0742 0.0808,0.24047 0,0.31463 -0.16166,0.14832 -0.48137,-0.0938 -0.68585,0 -1.42718,0.65471 0.3666,-0.0217 -0.34293,0.62926 -0.16166,0.14832 -0.48137,-0.0938 -0.68585,0 -0.14459,0.0663 -0.19834,0.2483 -0.34293,0.31463 -0.20448,0.0938 -0.52419,-0.14832 -0.68585,0 -0.0808,0.0742 0.0808,0.24047 0,0.31463 -0.17146,0.15731 -0.85731,-0.15732 -1.02878,0 -0.45724,0.4195 0.57155,0.31463 -0.34293,0.31463 -0.11431,0 -0.22861,0 -0.34292,0 -0.11431,0 -0.2621,-0.0742 -0.34293,0 -0.0808,0.0742 0.0808,0.24047 0,0.31462 -0.0808,0.0742 -0.26209,-0.0742 -0.34292,0 -0.0808,0.0742 0.0808,0.24048 0,0.31463 -0.16166,0.14832 -0.5242,-0.14831 -0.68585,0 -0.0808,0.0742 0.0808,0.24047 0,0.31464 -0.16166,0.14831 -0.5242,-0.14832 -0.68586,0 -0.0808,0.0742 0.0808,0.24047 0,0.31463 -0.0938,0.0861 -1.18567,-0.0854 -1.3717,0 -0.28918,0.13266 -0.39667,0.49659 -0.68585,0.62925 -0.13597,0.0624 -0.95868,-0.0643 -1.02878,0 -0.0808,0.0742 0.0808,0.24047 0,0.31463 -0.17147,0.15732 -0.85732,-0.15731 -1.02878,0 -0.0808,0.0742 0.0808,0.24047 0,0.31463 -0.0825,0.0757 -1.28919,-0.0757 -1.3717,0 -0.0808,0.0742 0.0808,0.24047 0,0.31463 -0.0808,0.0742 -0.24069,-0.0469 -0.34293,0 -0.14459,0.0663 -0.19834,0.2483 -0.34293,0.31463 -0.18603,0.0853 -1.27787,-0.0861 -1.3717,0 -0.0808,0.0742 0.0808,0.24047 0,0.31463 -0.0808,0.0742 -0.22862,0 -0.34293,0 -0.68585,0 -1.37171,0 -2.05756,0 -4.68665,0 -9.37331,0 -14.05997,0 -2.40048,0 -4.80096,0 -7.20144,0 -0.0832,0 -1.01776,0.0101 -1.02879,0 -0.0808,-0.0742 0.0808,-0.24047 0,-0.31463 -0.0938,-0.0861 -1.18567,0.0853 -1.3717,0 -0.14459,-0.0663 -0.19833,-0.2483 -0.34292,-0.31463 -0.10437,-0.0479 -0.87434,0 -1.02878,0 -0.68586,0 -1.37171,0 -2.05756,0 -0.17932,0 -1.28153,0.0414 -1.37171,0 -0.14459,-0.0663 -0.19833,-0.2483 -0.34292,-0.31463 -0.10224,-0.0469 -0.22862,0 -0.34293,0 -0.11431,0 -0.22861,0 -0.34292,0 -0.68585,0 -1.37171,0 -2.05756,0 -0.11431,0 -0.2621,0.0742 -0.34293,0 -0.0808,-0.0742 0.0808,-0.24047 0,-0.31463 -0.17146,-0.15731 -0.85731,0.15732 -1.02877,0 -0.0808,-0.0742 0.0808,-0.24047 0,-0.31463 -0.16166,-0.14831 -0.5242,0.14832 -0.68586,0 -0.0808,-0.0742 0.0808,-0.24047 0,-0.31463 -0.0155,-0.0143 -1.55294,0 -1.71463,0 -0.11431,0 -0.2621,0.0742 -0.34292,0 -0.0808,-0.0742 0.0808,-0.24047 0,-0.31462 -0.0701,-0.0643 -0.89281,0.0624 -1.02878,0 -1.13735,-1.0435 0.32331,0.14831 -0.68586,-0.31463 -0.14458,-0.0663 -0.19833,-0.2483 -0.34292,-0.31464 -0.13597,-0.0624 -0.95867,0.0643 -1.02878,0 -0.0808,-0.0742 0.0808,-0.24047 0,-0.31463 -0.0825,-0.0757 -1.28918,0.0757 -1.3717,0 -0.0808,-0.0742 0.0808,-0.24047 0,-0.31462 -0.17147,-0.15732 -0.85732,0.15731 -1.02878,0 -0.0808,-0.0742 0.0808,-0.24047 0,-0.31463 -0.16166,-0.14832 -0.48137,0.0938 -0.68586,0 -0.14459,-0.0663 -0.19833,-0.2483 -0.34292,-0.31463 -0.27434,-0.12585 -0.75444,0.12585 -1.02878,0 -0.14459,-0.0663 -0.19834,-0.2483 -0.34293,-0.31463 -0.20448,-0.0938 -0.48137,0.0938 -0.68585,0 -0.14459,-0.0663 -0.19833,-0.2483 -0.34292,-0.31463 -0.20449,-0.0938 -0.48137,0.0938 -0.68586,0 -0.14459,-0.0663 -0.19833,-0.2483 -0.34292,-0.31463 -0.10225,-0.0469 -0.24069,0.0469 -0.34293,0 -0.14459,-0.0663 -0.19834,-0.2483 -0.34292,-0.31463 -0.10225,-0.0469 -0.2621,0.0742 -0.34293,0 -0.0808,-0.0742 0.0808,-0.24047 0,-0.31463 -0.0701,-0.0643 -0.89281,0.0624 -1.02878,0 -0.14459,-0.0663 -0.19833,-0.2483 -0.34292,-0.31463 -0.10224,-0.0469 -0.24069,0.0469 -0.34293,0 -0.14459,-0.0663 -0.19833,-0.2483 -0.34293,-0.31463 -0.20448,-0.0938 -0.52419,0.14832 -0.68585,0 -0.0808,-0.0742 0.0808,-0.24047 0,-0.31463 -0.16166,-0.14831 -0.52419,0.14832 -0.68585,0 -0.0808,-0.0742 0.0808,-0.24047 0,-0.31463 -0.0825,-0.0757 -1.28919,0.0757 -1.37171,0 -0.45723,-0.4195 0.57155,-0.31462 -0.34292,-0.31462 -0.80423,0 0.16166,0.0742 -0.68585,-0.31463 -0.10225,-0.0469 -0.24069,0.0469 -0.34293,0 -0.14459,-0.0663 -0.19834,-0.2483 -0.34293,-0.31463 -0.10224,-0.0469 -0.2621,0.0742 -0.34292,0 -0.0808,-0.0742 0.0808,-0.24047 0,-0.31463 -0.0808,-0.0742 -0.24069,0.0469 -0.34293,0 -0.14459,-0.0663 -0.19833,-0.2483 -0.34293,-0.31463 -0.13596,-0.0624 -0.95867,0.0643 -1.02877,0 -0.0808,-0.0742 0.0808,-0.24047 0,-0.31463 -0.0808,-0.0742 -0.2621,0.0742 -0.34293,0 -0.0808,-0.0742 0.0808,-0.24047 0,-0.31463 -0.0701,-0.0643 -0.89281,0.0624 -1.02878,0 -0.14459,-0.0663 -0.19833,-0.2483 -0.34293,-0.31463 -0.27433,-0.12585 -0.75443,0.12585 -1.02877,0 -0.14459,-0.0663 -0.19834,-0.2483 -0.34293,-0.31463 -0.10224,-0.0469 -0.24069,0.0469 -0.34292,0 -0.28919,-0.13266 -0.39668,-0.4966 -0.68586,-0.62926 -0.10224,-0.0469 -0.24068,0.0469 -0.34293,0 -0.14459,-0.0663 -0.19833,-0.2483 -0.34292,-0.31463 -0.20448,-0.0938 -0.5242,0.14832 -0.68585,0 -0.0808,-0.0742 0.0808,-0.24047 0,-0.31463 -0.16166,-0.14832 -0.5242,0.14832 -0.68585,0 -0.0808,-0.0742 0.0808,-0.24047 0,-0.31462 -0.0808,-0.0742 -0.2621,0.0742 -0.34293,0 -0.0808,-0.0742 0.0808,-0.24047 0,-0.31464 -0.16166,-0.14831 -0.52419,0.14832 -0.68586,0 -0.0808,-0.0742 0.0808,-0.24047 0,-0.31463 -0.16165,-0.14831 -0.52419,0.14833 -0.68585,0 -0.0808,-0.0742 0.0808,-0.24047 0,-0.31462 -0.16165,-0.14832 -0.48137,0.0938 -0.68585,0 -0.4083,-0.18731 -0.47854,-0.62926 -0.34292,-0.62926 0.11431,0 0,0.20975 0,0.31463 0,0.62925 0,1.25852 0,1.88777 0,0.0763 -0.011,0.93377 0,0.94389 0.16165,0.14832 0.52419,-0.14832 0.68585,0 0.0808,0.0742 0,0.20975 0,0.31463 0,0.83901 0,1.67802 0,2.51703 z"
     id="path4607-1"
     inkscape:connector-curvature="0" />
</svg>
