<?xml version="1.0"?>
<svg xmlns="http://www.w3.org/2000/svg" id="Capa_1" enable-background="new 0 0 512 512" height="512px" viewBox="0 0 512 512" width="512px" class=""><g><g><path d="m272.01 486.06h-272.01v-109.22c0-22.39 13.63-42.52 34.42-50.84l57.01-22.8h73.14l57.01 22.8c20.79 8.32 34.42 28.45 34.42 50.84z" fill="#8cf2f2" data-original="#8CF2F2" class="" style="fill:#FF4500" data-old_color="#8cf2f2"/><path d="m272.01 486.06h-144.01v-182.86h36.57l57.01 22.8c20.79 8.32 34.42 28.45 34.42 50.84z" fill="#57d9d4" data-original="#57D9D4" class="" style="fill:#FF4500" data-old_color="#57d9d4"/><path d="m164.57 267.45v35.75c0 10.1-4.09 19.24-10.71 25.86s-15.76 10.71-25.86 10.71c-20.2 0-36.57-16.37-36.57-36.57v-35.75z" fill="#ffbfab" data-original="#FFBFAB" class="" style="fill:#1877F2" data-old_color="#ffbfab"/><path d="m164.57 267.45v35.75c0 10.1-4.09 19.24-10.71 25.86s-15.76 10.71-25.86 10.71v-72.32z" fill="#eaa492" data-original="#EAA492" class="" data-old_color="#eaa492" style="fill:#1877F2"/><path d="m221.94 119.88v44.71h-187.88v-44.71c0-25.94 10.52-49.42 27.52-66.42s40.48-27.52 66.42-27.52c51.88 0 93.94 42.06 93.94 93.94z" fill="#ffda2d" data-original="#FFDA2D" class="" style="fill:#F4936E" data-old_color="#ffda2d"/><path d="m221.94 119.88v44.71h-93.94v-138.65c51.88 0 93.94 42.06 93.94 93.94z" fill="#fcae00" data-original="#FCAE00" class="" style="fill:#F4936E" data-old_color="#fcae00"/><path d="m237.71 177.54c0 10.1-4.09 19.24-10.71 25.86s-15.76 10.71-25.86 10.71c0 20.2-8.18 38.49-21.42 51.73-13.24 13.23-31.52 21.42-51.72 21.42s-38.48-8.19-51.72-21.42c-13.24-13.24-21.42-31.53-21.42-51.73-10.1 0-19.24-4.09-25.86-10.71s-10.71-15.76-10.71-25.86c0-20.2 16.37-36.57 36.57-36.57h11.58c17 0 32.39-6.89 43.53-18.03s18.03-26.53 18.03-43.53c0 34 27.56 61.56 61.56 61.56h11.58c10.1 0 19.24 4.09 25.86 10.71s10.71 15.76 10.71 25.86z" fill="#ffcebf" data-original="#FFCEBF" class="" style="fill:#1877F2" data-old_color="#ffcebf"/><path d="m237.71 177.54c0 10.1-4.09 19.24-10.71 25.86s-15.76 10.71-25.86 10.71c0 20.2-8.18 38.49-21.42 51.73-13.24 13.23-31.52 21.42-51.72 21.42v-207.85c0 34 27.56 61.56 61.56 61.56h11.58c10.1 0 19.24 4.09 25.86 10.71s10.71 15.76 10.71 25.86z" fill="#ffbfab" data-original="#FFBFAB" class="" style="fill:#1877F2" data-old_color="#ffbfab"/><path d="m172.102 388.425h30.083v30h-30.083z" fill="#f2e8e4" data-original="#F2E8E4" class="active-path" style="fill:#1877F2" data-old_color="#f2e8e4"/><g><g><path d="m512 376.33v83.64h-256v-83.64c0-7.44 1.54-13.65 4.44-19.27s7.16-10.66 12.59-15.74c10.87-10.16 17.03-24.37 17.03-39.25v-115.44c0-25.94 10.52-49.43 27.52-66.43s40.48-27.51 66.42-27.51c51.88 0 93.94 42.06 93.94 93.94v115.44c0 7.44 1.54 14.71 4.44 21.39 2.9 6.69 7.16 12.78 12.59 17.86 10.86 10.17 17.03 20.13 17.03 35.01z" fill="#ffda2d" data-original="#FFDA2D" class="" style="fill:#F4936E" data-old_color="#ffda2d"/></g></g><path d="m512 376.33v83.64h-128v-367.28c51.88 0 93.94 42.06 93.94 93.94v115.44c0 7.44 1.54 14.71 4.44 21.39 2.9 6.69 7.16 12.78 12.59 17.86 10.86 10.17 17.03 20.13 17.03 35.01z" fill="#fcae00" data-original="#FCAE00" class="" style="fill:#F4936E" data-old_color="#fcae00"/><path d="m512 449.97v36.09h-256v-36.09c0-22.39 13.63-42.53 34.42-50.85l19.95-7.98 73.63.18 74.55.19 19.03 7.61c20.79 8.32 34.42 28.46 34.42 50.85z" fill="#ff738e" data-original="#FF738E" class="" style="fill:#FF4500" data-old_color="#ff738e"/><path d="m512 449.97v36.09h-128v-94.74l74.55.19 19.03 7.61c20.79 8.32 34.42 28.46 34.42 50.85z" fill="#ff3b62" data-original="#FF3B62" class="" style="fill:#FF4500" data-old_color="#ff3b62"/><path d="m458.55 391.51c-16.98 27.83-45.8 41.65-74.55 41.47-28.49-.19-56.9-14.14-73.63-41.84l37.06-14.82 10.63-42.13h51.88l10.63 42.13z" fill="#ffbfab" data-original="#FFBFAB" class="" style="fill:#1877F2" data-old_color="#ffbfab"/><path d="m458.55 391.51c-16.98 27.83-45.8 41.65-74.55 41.47v-98.79h25.94l10.63 42.13z" fill="#eaa492" data-original="#EAA492" class="" data-old_color="#eaa492" style="fill:#1877F2"/><path d="m493.71 244.29c0 10.1-4.09 19.24-10.71 25.86s-15.76 10.71-25.86 10.71c0 20.2-8.18 38.48-21.42 51.72s-31.52 21.42-51.72 21.42-38.48-8.18-51.72-21.42-21.42-31.52-21.42-51.72c-10.1 0-19.24-4.09-25.86-10.71s-10.71-15.76-10.71-25.86c0-20.2 16.37-36.57 36.57-36.57h11.58c17 0 32.39-6.89 43.53-18.03s18.03-26.53 18.03-43.53c0 34 27.56 61.56 61.56 61.56h11.58c10.1 0 19.24 4.09 25.86 10.71s10.71 15.76 10.71 25.86z" fill="#ffcebf" data-original="#FFCEBF" class="" style="fill:#1877F2" data-old_color="#ffcebf"/><path d="m493.71 244.29c0 10.1-4.09 19.24-10.71 25.86s-15.76 10.71-25.86 10.71c0 20.2-8.18 38.48-21.42 51.72s-31.52 21.42-51.72 21.42v-207.84c0 34 27.56 61.56 61.56 61.56h11.58c10.1 0 19.24 4.09 25.86 10.71s10.71 15.76 10.71 25.86z" fill="#ffbfab" data-original="#FFBFAB" class="" style="fill:#1877F2" data-old_color="#ffbfab"/></g></g> </svg>
