<?xml version="1.0" encoding="UTF-8" standalone="no"?>
<!-- Generator: Adobe Illustrator 19.0.0, SVG Export Plug-In . SVG Version: 6.00 Build 0)  -->

<svg
   xmlns:dc="http://purl.org/dc/elements/1.1/"
   xmlns:cc="http://creativecommons.org/ns#"
   xmlns:rdf="http://www.w3.org/1999/02/22-rdf-syntax-ns#"
   xmlns:svg="http://www.w3.org/2000/svg"
   xmlns="http://www.w3.org/2000/svg"
   xmlns:sodipodi="http://sodipodi.sourceforge.net/DTD/sodipodi-0.dtd"
   xmlns:inkscape="http://www.inkscape.org/namespaces/inkscape"
   version="1.1"
   id="Capa_1"
   x="0px"
   y="0px"
   viewBox="0 0 512 512"
   style="enable-background:new 0 0 512 512;"
   xml:space="preserve"
   sodipodi:docname="Home.svg"
   inkscape:version="0.92.4 (5da689c313, 2019-01-14)"><metadata
   id="metadata57"><rdf:RDF><cc:Work
       rdf:about=""><dc:format>image/svg+xml</dc:format><dc:type
         rdf:resource="http://purl.org/dc/dcmitype/StillImage" /></cc:Work></rdf:RDF></metadata><defs
   id="defs55" /><sodipodi:namedview
   pagecolor="#ffffff"
   bordercolor="#666666"
   borderopacity="1"
   objecttolerance="10"
   gridtolerance="10"
   guidetolerance="10"
   inkscape:pageopacity="0"
   inkscape:pageshadow="2"
   inkscape:window-width="1920"
   inkscape:window-height="1017"
   id="namedview53"
   showgrid="false"
   inkscape:zoom="0.65186406"
   inkscape:cx="396.24015"
   inkscape:cy="199.59909"
   inkscape:window-x="-8"
   inkscape:window-y="-8"
   inkscape:window-maximized="1"
   inkscape:current-layer="Capa_1" />
<rect
   x="382.933"
   y="73.6"
   style="fill:#F05540;"
   width="58.667"
   height="102.4"
   id="rect2" />
<rect
   x="360.533"
   y="21.333"
   style="fill:#F3705A;"
   width="103.467"
   height="55.467"
   id="rect4" />
<path
   style="fill:#abc837"
   d="M44.8,276.267V512h418.133V276.267c-82.133-82.133-128-128-209.067-209.067l0,0  C172.8,149.333,126.933,195.2,44.8,276.267z"
   id="path6" />
<path
   style="fill:#89a02c"
   d="M464,276.267c-82.133-82.133-128-128-209.067-209.067c-41.6,40.533-73.6,72.533-105.6,104.533  s-64,64-104.533,104.533v48c82.133-82.133,128-128,209.067-209.067c82.133,82.133,128,128,209.067,209.067v6.4l0,0v-54.4H464z"
   id="path8" />
<path
   style="fill:#415A6B;"
   d="M216.533,512H90.667V388.267c0-35.2,28.8-62.933,62.933-62.933l0,0c35.2,0,62.933,28.8,62.933,62.933  V512z"
   id="path10" />
<rect
   x="253.867"
   y="325.333"
   style="fill:#344A5E;"
   width="164.267"
   height="144"
   id="rect12" />
<g
   id="g18">
	<rect
   x="270.933"
   y="342.4"
   style="fill:#8AD7F8;"
   width="56.533"
   height="109.867"
   id="rect14" />
	<rect
   x="344.533"
   y="342.4"
   style="fill:#8AD7F8;"
   width="56.533"
   height="109.867"
   id="rect16" />
</g>
<path
   style="fill:#F3705A;"
   d="M502.4,232.533L279.467,9.6c-12.8-12.8-35.2-12.8-48,0L9.6,232.533c-12.8,12.8-12.8,35.2,0,48  c12.8,12.8,35.2,12.8,48,0L256,82.133l198.4,198.4c12.8,12.8,35.2,12.8,48,0C515.2,266.667,515.2,245.333,502.4,232.533z"
   id="path20" />
<g
   id="g22">
</g>
<g
   id="g24">
</g>
<g
   id="g26">
</g>
<g
   id="g28">
</g>
<g
   id="g30">
</g>
<g
   id="g32">
</g>
<g
   id="g34">
</g>
<g
   id="g36">
</g>
<g
   id="g38">
</g>
<g
   id="g40">
</g>
<g
   id="g42">
</g>
<g
   id="g44">
</g>
<g
   id="g46">
</g>
<g
   id="g48">
</g>
<g
   id="g50">
</g>
</svg>