<?xml version="1.0" encoding="UTF-8" standalone="no"?>
<!-- Generator: Adobe Illustrator 19.0.0, SVG Export Plug-In . SVG Version: 6.00 Build 0)  -->

<svg
   xmlns:dc="http://purl.org/dc/elements/1.1/"
   xmlns:cc="http://creativecommons.org/ns#"
   xmlns:rdf="http://www.w3.org/1999/02/22-rdf-syntax-ns#"
   xmlns:svg="http://www.w3.org/2000/svg"
   xmlns="http://www.w3.org/2000/svg"
   xmlns:sodipodi="http://sodipodi.sourceforge.net/DTD/sodipodi-0.dtd"
   xmlns:inkscape="http://www.inkscape.org/namespaces/inkscape"
   version="1.1"
   id="Capa_1"
   x="0px"
   y="0px"
   viewBox="0 0 50.000001 50.000001"
   xml:space="preserve"
   sodipodi:docname="left-arrow.svg"
   inkscape:version="0.92.4 (5da689c313, 2019-01-14)"
   width="50"
   height="50"><metadata
   id="metadata41"><rdf:RDF><cc:Work
       rdf:about=""><dc:format>image/svg+xml</dc:format><dc:type
         rdf:resource="http://purl.org/dc/dcmitype/StillImage" /><dc:title></dc:title></cc:Work></rdf:RDF></metadata><defs
   id="defs39" /><sodipodi:namedview
   pagecolor="#ffffff"
   bordercolor="#666666"
   borderopacity="1"
   objecttolerance="10"
   gridtolerance="10"
   guidetolerance="10"
   inkscape:pageopacity="0"
   inkscape:pageshadow="2"
   inkscape:window-width="1920"
   inkscape:window-height="1017"
   id="namedview37"
   showgrid="false"
   inkscape:zoom="5.4403136"
   inkscape:cx="110.69834"
   inkscape:cy="58.619003"
   inkscape:window-x="1912"
   inkscape:window-y="-8"
   inkscape:window-maximized="1"
   inkscape:current-layer="Capa_1" />
<path
   style="fill:#000000;stroke-width:0.09963735"
   d="m 35.897979,49.448589 c -0.282074,4.98e-4 -0.552787,-0.111096 -0.752459,-0.31037 l -23.381599,-23.3815 c -0.414891,-0.41499 -0.414891,-1.087742 0,-1.502831 L 35.14552,0.87228867 c 0.407812,-0.422163 1.080567,-0.433821 1.502829,-0.0261 0.422165,0.40781503 0.43382,1.08056703 0.02607,1.50283003 -0.0086,0.0089 -0.01721,0.01754 -0.02607,0.0261 L 17.956131,25.004257 37.529545,47.413619 c 0.415582,0.414492 -0.46272,1.307218 -0.877213,1.722806 -0.199875,0.200271 -0.471384,0.312662 -0.754353,0.312164 z"
   id="path2"
   inkscape:connector-curvature="0"
   sodipodi:nodetypes="cccccccccccc" />
<path
   d="m 35.897979,49.448589 c -0.282074,4.98e-4 -0.552787,-0.111096 -0.752459,-0.31037 l -23.381599,-23.3815 c -0.414891,-0.41499 -0.414891,-1.087742 0,-1.502831 L 35.14552,0.87228867 c 0.407812,-0.422163 1.080567,-0.433821 1.502829,-0.0261 0.422165,0.40781503 0.43382,1.08056703 0.02607,1.50283003 -0.0086,0.0089 -0.01721,0.01754 -0.02607,0.0261 L 14.019209,25.004257 36.650438,47.633396 c 0.41559,0.414491 0.416387,1.087441 0.0023,1.503029 -0.199874,0.200271 -0.471384,0.312662 -0.754352,0.312164 z"
   id="path4"
   inkscape:connector-curvature="0"
   sodipodi:nodetypes="cccccccccccc"
   style="fill:#000000;stroke-width:0.09963735" />
<g
   id="g6"
   transform="matrix(0.09963735,0,0,0.09963735,-0.23759763,0.54786967)">
</g>
<g
   id="g8"
   transform="matrix(0.09963735,0,0,0.09963735,-0.23759763,0.54786967)">
</g>
<g
   id="g10"
   transform="matrix(0.09963735,0,0,0.09963735,-0.23759763,0.54786967)">
</g>
<g
   id="g12"
   transform="matrix(0.09963735,0,0,0.09963735,-0.23759763,0.54786967)">
</g>
<g
   id="g14"
   transform="matrix(0.09963735,0,0,0.09963735,-0.23759763,0.54786967)">
</g>
<g
   id="g16"
   transform="matrix(0.09963735,0,0,0.09963735,-0.23759763,0.54786967)">
</g>
<g
   id="g18"
   transform="matrix(0.09963735,0,0,0.09963735,-0.23759763,0.54786967)">
</g>
<g
   id="g20"
   transform="matrix(0.09963735,0,0,0.09963735,-0.23759763,0.54786967)">
</g>
<g
   id="g22"
   transform="matrix(0.09963735,0,0,0.09963735,-0.23759763,0.54786967)">
</g>
<g
   id="g24"
   transform="matrix(0.09963735,0,0,0.09963735,-0.23759763,0.54786967)">
</g>
<g
   id="g26"
   transform="matrix(0.09963735,0,0,0.09963735,-0.23759763,0.54786967)">
</g>
<g
   id="g28"
   transform="matrix(0.09963735,0,0,0.09963735,-0.23759763,0.54786967)">
</g>
<g
   id="g30"
   transform="matrix(0.09963735,0,0,0.09963735,-0.23759763,0.54786967)">
</g>
<g
   id="g32"
   transform="matrix(0.09963735,0,0,0.09963735,-0.23759763,0.54786967)">
</g>
<g
   id="g34"
   transform="matrix(0.09963735,0,0,0.09963735,-0.23759763,0.54786967)">
</g>
</svg>