<?xml version="1.0" encoding="UTF-8" standalone="no"?>
<!-- Generator: Adobe Illustrator 19.0.0, SVG Export Plug-In . SVG Version: 6.00 Build 0)  -->

<svg
   xmlns:dc="http://purl.org/dc/elements/1.1/"
   xmlns:cc="http://creativecommons.org/ns#"
   xmlns:rdf="http://www.w3.org/1999/02/22-rdf-syntax-ns#"
   xmlns:svg="http://www.w3.org/2000/svg"
   xmlns="http://www.w3.org/2000/svg"
   xmlns:sodipodi="http://sodipodi.sourceforge.net/DTD/sodipodi-0.dtd"
   xmlns:inkscape="http://www.inkscape.org/namespaces/inkscape"
   version="1.1"
   id="Capa_1"
   x="0px"
   y="0px"
   viewBox="0 0 490.787 490.787"
   style="enable-background:new 0 0 490.787 490.787;"
   xml:space="preserve"
   sodipodi:docname="left-arrow.svg"
   inkscape:version="0.92.4 (5da689c313, 2019-01-14)"><metadata
   id="metadata41"><rdf:RDF><cc:Work
       rdf:about=""><dc:format>image/svg+xml</dc:format><dc:type
         rdf:resource="http://purl.org/dc/dcmitype/StillImage" /></cc:Work></rdf:RDF></metadata><defs
   id="defs39" /><sodipodi:namedview
   pagecolor="#ffffff"
   bordercolor="#666666"
   borderopacity="1"
   objecttolerance="10"
   gridtolerance="10"
   guidetolerance="10"
   inkscape:pageopacity="0"
   inkscape:pageshadow="2"
   inkscape:window-width="1920"
   inkscape:window-height="1017"
   id="namedview37"
   showgrid="false"
   inkscape:zoom="1.3600784"
   inkscape:cx="441.56188"
   inkscape:cy="230.50788"
   inkscape:window-x="-8"
   inkscape:window-y="-8"
   inkscape:window-maximized="1"
   inkscape:current-layer="Capa_1" />
<path
   style="fill:#000000"
   d="m 362.671,490.787 c -2.831,0.005 -5.548,-1.115 -7.552,-3.115 L 120.452,253.006 c -4.164,-4.165 -4.164,-10.917 0,-15.083 L 355.119,3.256 c 4.093,-4.237 10.845,-4.354 15.083,-0.262 4.237,4.093 4.354,10.845 0.262,15.083 -0.086,0.089 -0.173,0.176 -0.262,0.262 L 182.59951,245.454 379.04602,470.36324 c 4.171,4.16 -4.64402,13.11976 -8.80402,17.29076 -2.006,2.01 -4.731,3.138 -7.571,3.133 z"
   id="path2"
   inkscape:connector-curvature="0"
   sodipodi:nodetypes="cccccccccccc" />
<path
   d="m 362.671,490.787 c -2.831,0.005 -5.548,-1.115 -7.552,-3.115 L 120.452,253.006 c -4.164,-4.165 -4.164,-10.917 0,-15.083 L 355.119,3.256 c 4.093,-4.237 10.845,-4.354 15.083,-0.262 4.237,4.093 4.354,10.845 0.262,15.083 -0.086,0.089 -0.173,0.176 -0.262,0.262 L 143.087,245.454 370.223,472.569 c 4.171,4.16 4.179,10.914 0.019,15.085 -2.006,2.01 -4.731,3.138 -7.571,3.133 z"
   id="path4"
   inkscape:connector-curvature="0"
   sodipodi:nodetypes="cccccccccccc"
   style="fill:#000000" />
<g
   id="g6">
</g>
<g
   id="g8">
</g>
<g
   id="g10">
</g>
<g
   id="g12">
</g>
<g
   id="g14">
</g>
<g
   id="g16">
</g>
<g
   id="g18">
</g>
<g
   id="g20">
</g>
<g
   id="g22">
</g>
<g
   id="g24">
</g>
<g
   id="g26">
</g>
<g
   id="g28">
</g>
<g
   id="g30">
</g>
<g
   id="g32">
</g>
<g
   id="g34">
</g>
</svg>