<?xml version="1.0" encoding="UTF-8" standalone="no"?>
<!-- Generator: Adobe Illustrator 19.0.0, SVG Export Plug-In . SVG Version: 6.00 Build 0)  -->

<svg
   xmlns:dc="http://purl.org/dc/elements/1.1/"
   xmlns:cc="http://creativecommons.org/ns#"
   xmlns:rdf="http://www.w3.org/1999/02/22-rdf-syntax-ns#"
   xmlns:svg="http://www.w3.org/2000/svg"
   xmlns="http://www.w3.org/2000/svg"
   xmlns:sodipodi="http://sodipodi.sourceforge.net/DTD/sodipodi-0.dtd"
   xmlns:inkscape="http://www.inkscape.org/namespaces/inkscape"
   version="1.1"
   id="Layer_1"
   x="0px"
   y="0px"
   viewBox="0 0 496.156 496.156"
   style="enable-background:new 0 0 496.156 496.156;"
   xml:space="preserve"
   sodipodi:docname="lock.svg"
   inkscape:version="0.92.4 (5da689c313, 2019-01-14)"><metadata
   id="metadata47"><rdf:RDF><cc:Work
       rdf:about=""><dc:format>image/svg+xml</dc:format><dc:type
         rdf:resource="http://purl.org/dc/dcmitype/StillImage" /></cc:Work></rdf:RDF></metadata><defs
   id="defs45" /><sodipodi:namedview
   pagecolor="#ffffff"
   bordercolor="#666666"
   borderopacity="1"
   objecttolerance="10"
   gridtolerance="10"
   guidetolerance="10"
   inkscape:pageopacity="0"
   inkscape:pageshadow="2"
   inkscape:window-width="1920"
   inkscape:window-height="1017"
   id="namedview43"
   showgrid="false"
   inkscape:zoom="0.47565684"
   inkscape:cx="248.078"
   inkscape:cy="248.078"
   inkscape:window-x="-8"
   inkscape:window-y="-8"
   inkscape:window-maximized="1"
   inkscape:current-layer="Layer_1" />
<path
   style="fill:#1877f2;fill-opacity:1"
   d="M0,248.08C0,111.06,111.069,0.002,248.074,0.002c137.013,0,248.082,111.059,248.082,248.078  c0,137.005-111.069,248.074-248.082,248.074C111.069,496.154,0,385.085,0,248.08z"
   id="path2" />
<g
   id="g8">
	<rect
   x="125.768"
   y="232.258"
   style="fill:#FFFFFF;"
   width="244.62"
   height="159.85"
   id="rect4" />
	<path
   style="fill:#FFFFFF;"
   d="M341.796,332.218c-7.712,0-13.964-6.252-13.964-13.964V182.269   c0-43.977-35.778-79.755-79.754-79.755s-79.754,35.778-79.754,79.755v135.984c0,7.712-6.252,13.964-13.964,13.964   s-13.964-6.252-13.964-13.964V182.269c0-59.376,48.306-107.683,107.682-107.683S355.76,122.893,355.76,182.269v135.984   C355.76,325.966,349.508,332.218,341.796,332.218z"
   id="path6" />
</g>
<path
   style="fill:#1877f2;fill-opacity:1"
   d="M274.717,301.354c0-14.715-11.926-26.64-26.639-26.64c-14.712,0-26.639,11.925-26.639,26.64  c0,9.356,4.83,17.582,12.128,22.334c0,4.242,0,9.407,0,11.45c0,8.015,6.496,14.509,14.51,14.509c8.014,0,14.51-6.494,14.51-14.509  c0-2.043,0-7.207,0-11.45C269.887,318.937,274.717,310.711,274.717,301.354z"
   id="path10" />
<g
   id="g12">
</g>
<g
   id="g14">
</g>
<g
   id="g16">
</g>
<g
   id="g18">
</g>
<g
   id="g20">
</g>
<g
   id="g22">
</g>
<g
   id="g24">
</g>
<g
   id="g26">
</g>
<g
   id="g28">
</g>
<g
   id="g30">
</g>
<g
   id="g32">
</g>
<g
   id="g34">
</g>
<g
   id="g36">
</g>
<g
   id="g38">
</g>
<g
   id="g40">
</g>
</svg>