<?xml version="1.0" encoding="UTF-8" standalone="no"?>
<!-- Generator: Adobe Illustrator 19.0.0, SVG Export Plug-In . SVG Version: 6.00 Build 0)  -->

<svg
   xmlns:dc="http://purl.org/dc/elements/1.1/"
   xmlns:cc="http://creativecommons.org/ns#"
   xmlns:rdf="http://www.w3.org/1999/02/22-rdf-syntax-ns#"
   xmlns:svg="http://www.w3.org/2000/svg"
   xmlns="http://www.w3.org/2000/svg"
   xmlns:sodipodi="http://sodipodi.sourceforge.net/DTD/sodipodi-0.dtd"
   xmlns:inkscape="http://www.inkscape.org/namespaces/inkscape"
   version="1.1"
   id="Layer_1"
   x="0px"
   y="0px"
   viewBox="0 0 49.999999 49.999999"
   xml:space="preserve"
   sodipodi:docname="lock.svg"
   inkscape:version="0.92.4 (5da689c313, 2019-01-14)"
   width="50"
   height="50"><metadata
   id="metadata47"><rdf:RDF><cc:Work
       rdf:about=""><dc:format>image/svg+xml</dc:format><dc:type
         rdf:resource="http://purl.org/dc/dcmitype/StillImage" /><dc:title></dc:title></cc:Work></rdf:RDF></metadata><defs
   id="defs45" /><sodipodi:namedview
   pagecolor="#ffffff"
   bordercolor="#666666"
   borderopacity="1"
   objecttolerance="10"
   gridtolerance="10"
   guidetolerance="10"
   inkscape:pageopacity="0"
   inkscape:pageshadow="2"
   inkscape:window-width="1920"
   inkscape:window-height="1017"
   id="namedview43"
   showgrid="false"
   inkscape:zoom="3.8052547"
   inkscape:cx="107.83457"
   inkscape:cy="57.258028"
   inkscape:window-x="1912"
   inkscape:window-y="-8"
   inkscape:window-maximized="1"
   inkscape:current-layer="Layer_1" />
<path
   style="fill:#1877f2;fill-opacity:1;stroke-width:0.10009871"
   d="M 0,25.166103 C 0,11.450577 11.117865,0.33381308 24.83189,0.33381308 c 13.714826,0 24.832691,11.11686392 24.832691,24.83228992 0,13.714026 -11.117865,24.831891 -24.832691,24.831891 C 11.117865,49.997994 0,38.880129 0,25.166103 Z"
   id="path2"
   inkscape:connector-curvature="0" />
<g
   id="g8"
   transform="matrix(0.10009872,0,0,0.10009872,0,0.33361293)">
	<rect
   x="125.768"
   y="232.258"
   style="fill:#ffffff"
   width="244.62"
   height="159.85001"
   id="rect4" />
	<path
   style="fill:#ffffff"
   d="m 341.796,332.218 c -7.712,0 -13.964,-6.252 -13.964,-13.964 V 182.269 c 0,-43.977 -35.778,-79.755 -79.754,-79.755 -43.976,0 -79.754,35.778 -79.754,79.755 v 135.984 c 0,7.712 -6.252,13.964 -13.964,13.964 -7.712,0 -13.964,-6.252 -13.964,-13.964 V 182.269 c 0,-59.376 48.306,-107.683 107.682,-107.683 59.376,0 107.682,48.307 107.682,107.683 v 135.984 c 0,7.713 -6.252,13.965 -13.964,13.965 z"
   id="path6"
   inkscape:connector-curvature="0" />
</g>
<path
   style="fill:#1877f2;fill-opacity:1;stroke-width:0.10009871"
   d="m 27.49882,30.498763 c 0,-1.472953 -1.193777,-2.66663 -2.66653,-2.66663 -1.472652,0 -2.66653,1.193677 -2.66653,2.66663 0,0.936523 0.483477,1.759935 1.213998,2.235605 0,0.424619 0,0.941628 0,1.14613 0,0.802291 0.650241,1.452333 1.452432,1.452333 0.802191,0 1.452433,-0.650042 1.452433,-1.452333 0,-0.204502 0,-0.721411 0,-1.14613 0.73072,-0.47557 1.214197,-1.298982 1.214197,-2.235605 z"
   id="path10"
   inkscape:connector-curvature="0" />
<g
   id="g12"
   transform="matrix(0.10009872,0,0,0.10009872,0,0.33361293)">
</g>
<g
   id="g14"
   transform="matrix(0.10009872,0,0,0.10009872,0,0.33361293)">
</g>
<g
   id="g16"
   transform="matrix(0.10009872,0,0,0.10009872,0,0.33361293)">
</g>
<g
   id="g18"
   transform="matrix(0.10009872,0,0,0.10009872,0,0.33361293)">
</g>
<g
   id="g20"
   transform="matrix(0.10009872,0,0,0.10009872,0,0.33361293)">
</g>
<g
   id="g22"
   transform="matrix(0.10009872,0,0,0.10009872,0,0.33361293)">
</g>
<g
   id="g24"
   transform="matrix(0.10009872,0,0,0.10009872,0,0.33361293)">
</g>
<g
   id="g26"
   transform="matrix(0.10009872,0,0,0.10009872,0,0.33361293)">
</g>
<g
   id="g28"
   transform="matrix(0.10009872,0,0,0.10009872,0,0.33361293)">
</g>
<g
   id="g30"
   transform="matrix(0.10009872,0,0,0.10009872,0,0.33361293)">
</g>
<g
   id="g32"
   transform="matrix(0.10009872,0,0,0.10009872,0,0.33361293)">
</g>
<g
   id="g34"
   transform="matrix(0.10009872,0,0,0.10009872,0,0.33361293)">
</g>
<g
   id="g36"
   transform="matrix(0.10009872,0,0,0.10009872,0,0.33361293)">
</g>
<g
   id="g38"
   transform="matrix(0.10009872,0,0,0.10009872,0,0.33361293)">
</g>
<g
   id="g40"
   transform="matrix(0.10009872,0,0,0.10009872,0,0.33361293)">
</g>
</svg>