<?xml version="1.0" encoding="UTF-8" standalone="no"?>
<svg
   xmlns:dc="http://purl.org/dc/elements/1.1/"
   xmlns:cc="http://creativecommons.org/ns#"
   xmlns:rdf="http://www.w3.org/1999/02/22-rdf-syntax-ns#"
   xmlns:svg="http://www.w3.org/2000/svg"
   xmlns="http://www.w3.org/2000/svg"
   xmlns:sodipodi="http://sodipodi.sourceforge.net/DTD/sodipodi-0.dtd"
   xmlns:inkscape="http://www.inkscape.org/namespaces/inkscape"
   version="1.1"
   id="Capa_1"
   x="0px"
   y="0px"
   viewBox="0 0 512.092 512.092"
   style="enable-background:new 0 0 512.092 512.092;"
   xml:space="preserve"
   width="512px"
   height="512px"
   class=""
   sodipodi:docname="NOTES.svg"
   inkscape:version="0.92.4 (5da689c313, 2019-01-14)"><metadata
   id="metadata17"><rdf:RDF><cc:Work
       rdf:about=""><dc:format>image/svg+xml</dc:format><dc:type
         rdf:resource="http://purl.org/dc/dcmitype/StillImage" /><dc:title /></cc:Work></rdf:RDF></metadata><defs
   id="defs15" /><sodipodi:namedview
   pagecolor="#ffffff"
   bordercolor="#666666"
   borderopacity="1"
   objecttolerance="10"
   gridtolerance="10"
   guidetolerance="10"
   inkscape:pageopacity="0"
   inkscape:pageshadow="2"
   inkscape:window-width="1920"
   inkscape:window-height="1017"
   id="namedview13"
   showgrid="false"
   inkscape:zoom="0.4609375"
   inkscape:cx="-113.89831"
   inkscape:cy="256"
   inkscape:window-x="-8"
   inkscape:window-y="-8"
   inkscape:window-maximized="1"
   inkscape:current-layer="Capa_1" /><path
   inkscape:connector-curvature="0"
   id="path2"
   data-old_color="#FFA000"
   class="active-path"
   data-original="#FFA000"
   d="M 396.784,446.553 266.011,115.886 c -1.446,-3.641 -4.771,-6.196 -8.661,-6.656 L 54.683,85.38 c -5.752,-0.808 -11.07,3.2 -11.878,8.952 -0.018,0.13 -0.034,0.261 -0.048,0.392 L 0.091,436.057 c -0.763,5.841 3.353,11.196 9.194,11.959 0.085,0.011 0.171,0.021 0.256,0.03 l 373.333,42.667 h 1.216 c 5.521,0.024 10.148,-4.168 10.667,-9.664 l 2.773,-29.589 c 0.142,-1.672 -0.114,-3.353 -0.746,-4.907 z"
   style="fill:#f4936e" /><path
   inkscape:connector-curvature="0"
   id="path4"
   data-old_color="#FFE082"
   class=""
   data-original="#FFE082"
   d="m 469.424,94.724 c -0.684,-5.851 -5.983,-10.04 -11.834,-9.355 -0.031,0.004 -0.061,0.007 -0.092,0.011 L 365.765,96.175 94.832,128.046 c -5.801,0.659 -9.994,5.86 -9.408,11.669 l 32,341.333 c 0.519,5.496 5.146,9.688 10.667,9.664 h 1.216 L 502.64,448.045 c 5.853,-0.671 10.053,-5.96 9.382,-11.813 -0.005,-0.045 -0.01,-0.089 -0.016,-0.134 z"
   style="fill:#ff4500" /><g
   id="g833"
   transform="rotate(-7.8488371,223.85814,958.28468)"><path
     style="fill:#455a64"
     d="m 309.424,170.713 c -5.891,0.011 -10.675,-4.757 -10.686,-10.648 -0.005,-2.84 1.123,-5.565 3.134,-7.571 l 53.333,-53.333 c 4.093,-4.237 10.845,-4.355 15.083,-0.262 4.237,4.093 4.354,10.845 0.262,15.083 -0.086,0.089 -0.173,0.176 -0.262,0.262 l -53.333,53.333 c -1.995,2.002 -4.704,3.13 -7.531,3.136 z"
     data-original="#455A64"
     class=""
     id="path6"
     inkscape:connector-curvature="0" /><circle
     style="fill:#1877f2"
     cx="394.758"
     cy="74.712997"
     r="53.333"
     data-original="#F44336"
     class=""
     data-old_color="#F44336"
     id="circle8" /></g> <text
   xml:space="preserve"
   style="font-style:normal;font-weight:normal;font-size:48.91851044px;line-height:1.25;font-family:sans-serif;letter-spacing:0px;word-spacing:0px;fill:#1877f2;fill-opacity:1;stroke:none;stroke-width:1.22296274"
   x="107.15807"
   y="226.48688"
   id="text860"
   transform="matrix(0.88911092,-0.11415039,0.07990415,1.1144604,0,0)"><tspan
     sodipodi:role="line"
     x="107.15807"
     y="226.48688"
     id="tspan844"
     style="fill:#ffffff;stroke-width:1.22296274"><tspan
       x="107.15807"
       y="226.48688"
       id="tspan840"
       style="fill:#ffffff;stroke-width:1.22296274">Redux setup</tspan></tspan><tspan
     sodipodi:role="line"
     x="107.15807"
     y="287.63498"
     id="tspan850"
     style="fill:#ffffff;stroke-width:1.22296274"><tspan
       x="107.15807"
       y="287.63498"
       style="font-size:32.61233902px;fill:#ffffff;fill-opacity:1;stroke-width:1.22296274"
       id="tspan846">Import it</tspan></tspan><tspan
     sodipodi:role="line"
     x="107.15807"
     y="348.78311"
     id="tspan854"
     style="fill:#ffffff;stroke-width:1.22296274"><tspan
       x="107.15807"
       y="348.78311"
       style="font-size:32.61233902px;fill:#ffffff;fill-opacity:1;stroke-width:1.22296274"
       id="tspan852">Wrap the root inside the </tspan></tspan><tspan
     sodipodi:role="line"
     x="107.15807"
     y="409.9313"
     id="tspan858"
     style="fill:#ffffff;stroke-width:1.22296274"><tspan
       x="107.15807"
       y="409.9313"
       style="font-size:32.61233902px;fill:#ffffff;fill-opacity:1;stroke-width:1.22296274"
       id="tspan856">provider component</tspan></tspan></text>

<text
   xml:space="preserve"
   style="font-style:normal;font-weight:normal;font-size:40.00718689px;line-height:1.25;font-family:sans-serif;letter-spacing:0px;word-spacing:0px;fill:#000000;fill-opacity:1;stroke:none;stroke-width:1.00017965"
   x="305.95328"
   y="323.31232"
   id="text864"><tspan
     sodipodi:role="line"
     id="tspan862"
     x="305.95328"
     y="359.81207"
     style="stroke-width:1.00017965" /></text>

</svg>