<?xml version="1.0" encoding="UTF-8" standalone="no"?>
<svg
   xmlns:dc="http://purl.org/dc/elements/1.1/"
   xmlns:cc="http://creativecommons.org/ns#"
   xmlns:rdf="http://www.w3.org/1999/02/22-rdf-syntax-ns#"
   xmlns:svg="http://www.w3.org/2000/svg"
   xmlns="http://www.w3.org/2000/svg"
   xmlns:sodipodi="http://sodipodi.sourceforge.net/DTD/sodipodi-0.dtd"
   xmlns:inkscape="http://www.inkscape.org/namespaces/inkscape"
   version="1.1"
   id="Capa_1"
   x="0px"
   y="0px"
   viewBox="0 0 512.092 512.092"
   style="enable-background:new 0 0 512.092 512.092;"
   xml:space="preserve"
   width="512px"
   height="512px"
   class=""
   sodipodi:docname="note.svg"
   inkscape:version="0.92.4 (5da689c313, 2019-01-14)"><metadata
   id="metadata17"><rdf:RDF><cc:Work
       rdf:about=""><dc:format>image/svg+xml</dc:format><dc:type
         rdf:resource="http://purl.org/dc/dcmitype/StillImage" /><dc:title></dc:title></cc:Work></rdf:RDF></metadata><defs
   id="defs15" /><sodipodi:namedview
   pagecolor="#ffffff"
   bordercolor="#666666"
   borderopacity="1"
   objecttolerance="10"
   gridtolerance="10"
   guidetolerance="10"
   inkscape:pageopacity="0"
   inkscape:pageshadow="2"
   inkscape:window-width="1920"
   inkscape:window-height="1017"
   id="namedview13"
   showgrid="false"
   inkscape:zoom="0.4609375"
   inkscape:cx="256"
   inkscape:cy="256"
   inkscape:window-x="-8"
   inkscape:window-y="-8"
   inkscape:window-maximized="1"
   inkscape:current-layer="Capa_1" /><path
   inkscape:connector-curvature="0"
   id="path4"
   data-old_color="#FFE082"
   class=""
   data-original="#FFE082"
   d="m 491.34743,71.426925 c -0.0625,-7.253055 -5.86034,-13.056046 -12.94802,-12.95943 -0.0376,10e-4 -0.0738,8.04e-4 -0.11156,0.0018 L 367.15877,60.052001 38.940991,64.711832 c -7.024514,0.07095 -12.712115,5.909276 -12.761418,13.098449 L 20.37262,499.93301 c -0.08901,6.79732 4.904557,12.51874 11.512107,13.18984 l 1.454624,0.1543 452.107329,-4.89035 c 7.08827,-0.0792 12.79561,-6.02426 12.74892,-13.27811 6.6e-4,-0.0557 -0.001,-0.11044 -0.002,-0.16616 z"
   style="fill:#ff4500;stroke-width:1.21718407" /> <path
   style="fill:none;stroke:#1877f2;stroke-width:4.49008417;stroke-linecap:butt;stroke-linejoin:miter;stroke-miterlimit:4;stroke-dasharray:none;stroke-opacity:1"
   d="m 66.190168,166.60846 c 8.891217,0.82529 17.782433,1.65059 26.673638,2.47587 0.808306,0.075 1.616589,0.15006 2.424872,0.22508 0.808306,0.075 1.80029,0.74357 2.424895,0.22507 0.624593,-0.51849 -0.399535,-1.90637 0.22507,-2.42487 0.624593,-0.51849 1.800278,0.74358 2.424887,0.22508 0.62459,-0.51849 -0.399539,-1.90638 0.22507,-2.42487 0.62459,-0.5185 1.80028,0.74357 2.42488,0.22507 0.62459,-0.51849 -0.39953,-1.90638 0.22507,-2.42487 1.24922,-1.037 3.60056,1.48715 4.84975,0.45016 0.62461,-0.5185 -0.39951,-1.90638 0.22509,-2.42487 0.6246,-0.51851 1.80027,0.74356 2.42487,0.22507 0.6246,-0.5185 0.15005,-1.61659 0.22508,-2.42487 0.80829,0.0751 1.80028,0.74357 2.42487,0.22508 1.2492,-1.037 -0.79902,-3.81277 0.45017,-4.84977 1.24919,-1.037 3.60055,1.48715 4.84975,0.45016 0.62459,-0.51849 -0.39952,-1.90638 0.22508,-2.42487 0.62459,-0.51849 1.80028,0.74357 2.42487,0.22508 0.6246,-0.5185 -0.39951,-1.90639 0.22508,-2.42488 0.0853,-0.0708 6.68654,0.62066 7.27463,0.67524 1.14332,0.10606 12.02469,1.00534 12.12439,1.1254 0.5185,0.62459 -0.74358,1.80028 -0.22509,2.42487 1.0999,1.32498 6.17474,-0.64976 7.27464,0.67523 0.51849,0.62459 -0.51945,1.66836 -0.22508,2.42488 0.41629,1.06987 1.46653,1.76664 2.1998,2.64996 0.73326,0.88332 1.22481,2.04384 2.19979,2.64996 1.37881,0.85715 3.81275,-0.79906 4.84975,0.45015 0.51851,0.6246 -0.74356,1.80027 -0.22507,2.42488 1.03699,1.24918 3.81275,-0.79905 4.84975,0.45016 0.51849,0.62459 -0.74358,1.80027 -0.22508,2.42487 0.5185,0.62459 1.90639,-0.39952 2.42489,0.22508 0.51849,0.62459 -0.74359,1.80028 -0.22508,2.42487 0.52933,0.63766 9.17015,0.26265 9.69949,0.90032 0.51851,0.62459 -0.74357,1.80029 -0.22508,2.42488 0.0885,0.10662 8.809,0.81765 9.69951,0.90031 0.80829,0.075 1.61659,0.15006 2.42488,0.22508 0.80829,0.075 1.80026,0.74357 2.42488,0.22507 0.6246,-0.51848 -0.39953,-1.90638 0.22507,-2.42487 1.2492,-1.037 3.60056,1.48715 4.84976,0.45016 0.6246,-0.51848 -0.39953,-1.90638 0.22508,-2.42488 1.24919,-1.037 3.60054,1.48715 4.84975,0.45016 0.62459,-0.5185 -0.39953,-1.90638 0.22508,-2.42487 1.2492,-1.037 3.60054,1.48714 4.84975,0.45015 0.6246,-0.5185 -0.39953,-1.90638 0.22508,-2.42487 1.32497,-1.09991 5.94965,1.77513 7.27464,0.67524 0.62459,-0.51851 -0.39954,-1.90639 0.22508,-2.42489 0.62459,-0.51849 1.80025,0.74358 2.42487,0.22508 0.62459,-0.51849 -0.39953,-1.90637 0.22508,-2.42487 0.62459,-0.51849 1.61658,0.15005 2.42487,0.22508 1.14332,0.10606 12.00429,1.22505 12.12437,1.12539 0.62461,-0.5185 -0.39952,-1.90639 0.22509,-2.42488 1.32497,-1.09991 5.94966,1.77514 7.27462,0.67524 0.62461,-0.51848 -0.39951,-1.90638 0.22508,-2.42488 0.62461,-0.5185 1.61658,0.15006 2.42488,0.22508 4.04146,0.37514 8.08292,0.75026 12.12438,1.1254 8.89122,0.82528 17.78242,1.65058 26.67365,2.47587 0.80828,0.0751 1.61658,0.15005 2.42487,0.22508 0.80828,0.075 1.90638,-0.39954 2.42487,0.22507 0.51849,0.62459 -0.74357,1.80029 -0.22508,2.42488 1.09992,1.32498 6.17474,-0.64975 7.27463,0.67523 0.5185,0.6246 -0.74357,1.80028 -0.22508,2.42488 1.037,1.24919 3.81277,-0.79905 4.84976,0.45016 0.51849,0.6246 -0.74358,1.80028 -0.22508,2.42487 0.52933,0.63766 9.17017,0.26266 9.6995,0.90031 0.5185,0.62461 -0.74357,1.80029 -0.22508,2.4249 0.5185,0.62459 1.61659,0.15004 2.42488,0.22507 1.09207,0.10134 6.50241,0.97572 7.27463,0.67524 10.56012,-4.10916 -2.60781,-0.0732 2.87504,-4.62468 1.24919,-1.037 3.60055,1.48715 4.84975,0.45016 0.62461,-0.5185 -0.39952,-1.90638 0.22507,-2.42488 1.24921,-1.03701 3.60057,1.48715 4.84977,0.45016 0.62459,-0.51849 -0.39952,-1.90639 0.22508,-2.42487 1.2492,-1.03701 3.33673,1.0389 4.84974,0.45015 2.13975,-0.83262 3.16019,-3.56699 5.29991,-4.3996 0.75651,-0.29437 1.80028,0.74357 2.42487,0.22508 0.62461,-0.5185 -0.39951,-1.90638 0.22508,-2.42488 1.2492,-1.03698 3.60056,1.48715 4.84977,0.45016 0.62459,-0.5185 -0.39953,-1.90638 0.22508,-2.42488 1.2492,-1.03699 3.60054,1.48715 4.84975,0.45016 0.6246,-0.51849 -0.39952,-1.90637 0.22508,-2.42487 1.24919,-1.037 3.60054,1.48714 4.84974,0.45015 0.62461,-0.51849 -0.39951,-1.90638 0.22508,-2.42487 1.32498,-1.09991 5.94965,1.77513 7.27464,0.67523 0.62459,-0.51849 -0.39953,-1.90638 0.22508,-2.42487 0.62459,-0.5185 1.80027,0.74357 2.42487,0.22508 0.6246,-0.5185 -0.39952,-1.90638 0.22508,-2.42487 0.6246,-0.51851 2.4999,-0.58323 2.42488,0.22507 -0.075,0.80829 -3.23317,-0.3001 -2.42488,-0.22507 3.23317,0.3001 6.46634,0.6002 9.69952,0.90031 0.80828,0.0751 1.90636,-0.39953 2.42487,0.22508 0.51849,0.6246 -0.74359,1.80027 -0.22508,2.42488 0.52933,0.63765 9.17015,0.26265 9.6995,0.90031 1.03699,1.2492 -1.48716,3.60055 -0.45017,4.84974 0.51852,0.62462 1.61659,0.15006 2.4249,0.22508 4.84973,0.45017 9.69949,0.90032 14.54923,1.35048 0.80831,0.0751 1.61659,0.15005 2.42488,0.22508 0.8083,0.0751 1.80028,0.74358 2.42489,0.22508 0.6246,-0.5185 -0.39954,-1.90639 0.22507,-2.42488 0.63767,-0.52933 9.06185,1.42965 9.6995,0.90031 0.62461,-0.51849 -0.39952,-1.90638 0.22508,-2.42487 0.63768,-0.52933 9.06185,1.42966 9.69951,0.90031 0.62459,-0.5185 -0.39951,-1.90638 0.22508,-2.42487 0.62459,-0.5185 1.61659,0.15006 2.42487,0.22508 0.80831,0.075 1.61659,0.15006 2.42487,0.22508 0.80831,0.075 1.61659,0.15006 2.42489,0.22507 0.80829,0.0751 2.49991,-0.58321 2.42488,0.22508 -0.075,0.8083 -3.23318,-0.30009 -2.42488,-0.22508 2.42488,0.22508 4.84975,0.45017 7.27462,0.67525"
   id="path836"
   inkscape:connector-curvature="0" /><path
   style="fill:none;stroke:#1877f2;stroke-width:4.49008417;stroke-linecap:butt;stroke-linejoin:miter;stroke-miterlimit:4;stroke-dasharray:none;stroke-opacity:1"
   d="m 74.623826,247.0197 c 8.891217,0.82528 17.782433,1.65058 26.673654,2.47587 0.80829,0.075 1.61658,0.15005 2.42487,0.22508 0.80829,0.075 1.80028,0.74358 2.42488,0.22508 0.62459,-0.5185 -0.39952,-1.90638 0.22508,-2.42489 0.6246,-0.51848 1.80027,0.74359 2.42487,0.22509 0.6246,-0.51849 -0.39952,-1.90639 0.22509,-2.42488 0.62459,-0.51849 1.80026,0.74357 2.42486,0.22507 0.6246,-0.51849 -0.39952,-1.90638 0.22508,-2.42488 1.24922,-1.03699 3.60056,1.48716 4.84977,0.45016 0.6246,-0.51849 -0.39952,-1.90638 0.22507,-2.42486 0.6246,-0.5185 1.80029,0.74356 2.42488,0.22507 0.6246,-0.5185 0.15005,-1.61658 0.22507,-2.42487 0.8083,0.0751 1.80029,0.74357 2.42488,0.22508 1.2492,-1.037 -0.79903,-3.81276 0.45015,-4.84977 1.24921,-1.037 3.60057,1.48716 4.84976,0.45017 0.62459,-0.51849 -0.39951,-1.90639 0.22508,-2.42488 0.62459,-0.51848 1.80028,0.74358 2.42487,0.22509 0.62461,-0.5185 -0.39951,-1.9064 0.22508,-2.42489 0.0853,-0.0708 6.68655,0.62066 7.27463,0.67525 1.14332,0.10606 12.02468,1.00534 12.12439,1.12539 0.5185,0.62459 -0.74357,1.80028 -0.22508,2.42487 1.0999,1.32498 6.17471,-0.64975 7.27463,0.67523 0.51849,0.6246 -0.51946,1.66837 -0.22508,2.42489 0.4163,1.06985 1.46652,1.76663 2.19979,2.64995 0.73327,0.88332 1.22483,2.04386 2.19981,2.64997 1.37881,0.85714 3.81275,-0.79906 4.84975,0.45015 0.5185,0.62459 -0.74357,1.80026 -0.22508,2.42487 1.03699,1.24919 3.81276,-0.79905 4.84975,0.45016 0.51849,0.62458 -0.74357,1.80027 -0.22508,2.42486 0.51849,0.62461 1.90637,-0.39951 2.42487,0.22508 0.51849,0.62461 -0.74358,1.80029 -0.22507,2.42489 0.52933,0.63766 9.17017,0.26263 9.6995,0.90032 0.5185,0.62458 -0.74356,1.80028 -0.22507,2.42487 0.0884,0.10662 8.80899,0.81766 9.6995,0.90032 0.80829,0.075 1.61659,0.15005 2.42487,0.22508 0.80829,0.075 1.80027,0.74358 2.42488,0.22507 0.6246,-0.51849 -0.39953,-1.90639 0.22508,-2.42487 1.24921,-1.03702 3.60056,1.48715 4.84974,0.45016 0.62461,-0.51849 -0.39952,-1.90638 0.22508,-2.4249 1.2492,-1.03699 3.60057,1.48717 4.84977,0.45017 0.62459,-0.51849 -0.39954,-1.90639 0.22508,-2.42486 1.2492,-1.03701 3.60055,1.48714 4.84974,0.45015 0.62461,-0.5185 -0.39952,-1.90639 0.22509,-2.42488 1.32498,-1.0999 5.94966,1.77513 7.27463,0.67525 0.6246,-0.51851 -0.39954,-1.9064 0.22507,-2.4249 0.6246,-0.51849 1.80027,0.74358 2.42489,0.22508 0.62459,-0.51848 -0.39955,-1.90637 0.22507,-2.42487 0.62459,-0.51849 1.61658,0.15006 2.42488,0.22508 1.14332,0.10606 12.00427,1.22505 12.12437,1.1254 0.62461,-0.5185 -0.39951,-1.90639 0.22508,-2.42489 1.32498,-1.0999 5.94965,1.77514 7.27462,0.67525 0.6246,-0.51849 -0.3995,-1.90638 0.22508,-2.42489 0.62461,-0.5185 1.61659,0.15006 2.42487,0.22509 4.04148,0.37513 8.08294,0.75027 12.1244,1.12539 8.89121,0.82529 17.78243,1.65058 26.67365,2.47587 0.80829,0.0751 1.61657,0.15005 2.42488,0.22508 0.80828,0.075 1.90637,-0.39953 2.42487,0.22508 0.51849,0.6246 -0.74358,1.80028 -0.22508,2.42488 1.0999,1.32497 6.17473,-0.64976 7.27462,0.67523 0.51851,0.62459 -0.74357,1.80028 -0.22508,2.42487 1.03699,1.2492 3.81276,-0.79905 4.84976,0.45016 0.5185,0.62461 -0.74358,1.80028 -0.22508,2.42487 0.52932,0.63766 9.17017,0.26266 9.6995,0.90032 0.51851,0.6246 -0.74357,1.80029 -0.22508,2.42489 0.51851,0.62459 1.61659,0.15004 2.42488,0.22507 1.09206,0.10135 6.50241,0.97572 7.27463,0.67525 10.56012,-4.10916 -2.60781,-0.0732 2.87503,-4.62469 1.24921,-1.037 3.60056,1.48715 4.84975,0.45016 0.6246,-0.51849 -0.39951,-1.90638 0.22508,-2.42488 1.24921,-1.037 3.60056,1.48715 4.84977,0.45016 0.62459,-0.51849 -0.39954,-1.90638 0.22507,-2.42487 1.24921,-1.03699 3.33673,1.03891 4.84975,0.45015 2.13974,-0.83262 3.16017,-3.56699 5.29991,-4.39959 0.75651,-0.29438 1.80028,0.74357 2.42487,0.22508 0.6246,-0.5185 -0.39951,-1.90638 0.22508,-2.42489 1.2492,-1.03697 3.60055,1.48716 4.84976,0.45017 0.62459,-0.5185 -0.39953,-1.90639 0.22508,-2.42489 1.2492,-1.03699 3.60056,1.48716 4.84975,0.45017 0.62461,-0.51849 -0.39952,-1.90638 0.22507,-2.42488 1.24921,-1.037 3.60057,1.48716 4.84976,0.45016 0.6246,-0.51849 -0.39951,-1.90639 0.22508,-2.42488 1.32499,-1.0999 5.94964,1.77514 7.27463,0.67524 0.62459,-0.51849 -0.39954,-1.90639 0.22508,-2.42488 0.62459,-0.5185 1.80028,0.74357 2.42488,0.22508 0.62459,-0.5185 -0.39953,-1.90638 0.22507,-2.42487 0.62459,-0.51851 2.49991,-0.58322 2.42488,0.22507 -0.0751,0.8083 -3.23316,-0.30009 -2.42488,-0.22507 3.23318,0.3001 6.46635,0.60021 9.69951,0.90032 0.8083,0.0751 1.90636,-0.39954 2.42489,0.22508 0.51848,0.62459 -0.7436,1.80026 -0.22509,2.42487 0.52932,0.63766 9.17016,0.26266 9.6995,0.90031 1.03699,1.2492 -1.48715,3.60055 -0.45016,4.84975 0.5185,0.62461 1.61659,0.15005 2.42489,0.22508 4.84974,0.45016 9.69948,0.90031 14.54924,1.35047 0.80829,0.0751 1.61659,0.15006 2.42488,0.22508 0.80831,0.075 1.80027,0.74359 2.42489,0.22509 0.62459,-0.5185 -0.39954,-1.9064 0.22508,-2.42489 0.63764,-0.52933 9.06184,1.42966 9.6995,0.90033 0.6246,-0.5185 -0.39953,-1.9064 0.22508,-2.42489 0.63765,-0.52933 9.06184,1.42966 9.69951,0.90032 0.62458,-0.5185 -0.39953,-1.90639 0.22508,-2.42487 0.62458,-0.51851 1.61658,0.15005 2.42486,0.22508 0.80829,0.075 1.61659,0.15005 2.42487,0.22508 0.80831,0.0751 1.61659,0.15005 2.42487,0.22507 0.80831,0.075 2.49993,-0.58322 2.4249,0.22508 -0.0751,0.80829 -3.23318,-0.3001 -2.4249,-0.22508 2.4249,0.22508 4.84977,0.45016 7.27464,0.67524"
   id="path836-3"
   inkscape:connector-curvature="0" /><path
   style="fill:none;stroke:#1877f2;stroke-width:4.49008417;stroke-linecap:butt;stroke-linejoin:miter;stroke-miterlimit:4;stroke-dasharray:none;stroke-opacity:1"
   d="m 72.045993,327.49077 c 8.891205,0.82529 17.782422,1.65057 26.673627,2.47587 0.808305,0.075 1.61659,0.15004 2.42488,0.22507 0.8083,0.075 1.80028,0.74358 2.42489,0.22508 0.62459,-0.51849 -0.39954,-1.90637 0.22508,-2.42487 0.62459,-0.51849 1.80027,0.74358 2.42487,0.22508 0.62459,-0.51849 -0.39952,-1.90638 0.22508,-2.42488 0.62459,-0.51849 1.80027,0.74357 2.42487,0.22508 0.6246,-0.51849 -0.39952,-1.90638 0.22508,-2.42487 1.24921,-1.037 3.60055,1.48715 4.84975,0.45016 0.6246,-0.51851 -0.39951,-1.90639 0.22508,-2.42488 0.62461,-0.5185 1.80028,0.74357 2.42487,0.22508 0.62461,-0.5185 0.15006,-1.61659 0.22508,-2.42487 0.8083,0.075 1.80028,0.74357 2.42488,0.22508 1.24919,-1.03702 -0.79903,-3.81278 0.45016,-4.84977 1.2492,-1.037 3.60056,1.48715 4.84975,0.45016 0.6246,-0.51849 -0.39952,-1.90638 0.22509,-2.42487 0.62459,-0.5185 1.80027,0.74356 2.42487,0.22507 0.62459,-0.51849 -0.39951,-1.90638 0.22508,-2.42487 0.0853,-0.0707 6.68653,0.62065 7.27463,0.67523 1.14331,0.10617 12.02468,1.00535 12.12438,1.12539 0.5185,0.6246 -0.74357,1.80029 -0.22508,2.42489 1.09989,1.32497 6.17473,-0.64976 7.27464,0.67523 0.51849,0.62459 -0.51946,1.66836 -0.22508,2.42487 0.4163,1.06988 1.46652,1.76665 2.1998,2.64996 0.73325,0.88333 1.22482,2.04385 2.19979,2.64996 1.3788,0.85716 3.81274,-0.79905 4.84975,0.45016 0.5185,0.6246 -0.74357,1.80027 -0.22508,2.42487 1.03699,1.24919 3.81276,-0.79904 4.84976,0.45017 0.51849,0.62459 -0.74358,1.80026 -0.22508,2.42487 0.5185,0.62459 1.90638,-0.39952 2.42488,0.22508 0.51849,0.62459 -0.74358,1.80028 -0.22508,2.42487 0.52933,0.63766 9.17016,0.26265 9.6995,0.90032 0.5185,0.62459 -0.74357,1.80027 -0.22508,2.42487 0.0885,0.10662 8.80899,0.81766 9.69951,0.90032 0.80829,0.075 1.61659,0.15006 2.42487,0.22507 0.80829,0.075 1.80028,0.74358 2.42488,0.22508 0.62461,-0.51849 -0.39953,-1.90638 0.22507,-2.42487 1.24922,-1.037 3.60057,1.48715 4.84976,0.45015 0.6246,-0.51849 -0.39952,-1.90638 0.22508,-2.42487 1.2492,-1.037 3.60056,1.48715 4.84976,0.45016 0.62459,-0.5185 -0.39954,-1.90638 0.22508,-2.42487 1.24919,-1.03701 3.60054,1.48713 4.84974,0.45015 0.62462,-0.5185 -0.39952,-1.90638 0.22508,-2.42487 1.32499,-1.09991 5.94966,1.77513 7.27464,0.67523 0.62459,-0.5185 -0.39953,-1.90638 0.22508,-2.42488 0.62459,-0.51849 1.80026,0.74358 2.42487,0.22508 0.6246,-0.51849 -0.39953,-1.90637 0.22508,-2.42487 0.6246,-0.5185 1.61658,0.15004 2.42488,0.22507 1.14331,0.10617 12.00428,1.22504 12.12437,1.12539 0.6246,-0.51849 -0.39951,-1.90638 0.22508,-2.42487 1.32498,-1.09991 5.94966,1.77514 7.27463,0.67523 0.6246,-0.51849 -0.3995,-1.90638 0.22508,-2.42487 0.6246,-0.5185 1.61658,0.15005 2.42487,0.22508 4.04146,0.37514 8.08292,0.75026 12.12438,1.1254 8.89123,0.82528 17.78244,1.65057 26.67366,2.47587 0.80829,0.075 1.61658,0.15005 2.42488,0.22508 0.80828,0.075 1.90637,-0.39954 2.42487,0.22507 0.51849,0.62459 -0.74358,1.80028 -0.22507,2.42488 1.09989,1.32498 6.17472,-0.64976 7.2746,0.67523 0.51851,0.6246 -0.74357,1.80028 -0.22508,2.42487 1.037,1.2492 3.81278,-0.79904 4.84977,0.45017 0.5185,0.6246 -0.74358,1.80028 -0.22508,2.42487 0.52933,0.63766 9.17017,0.26266 9.6995,0.90031 0.51851,0.62461 -0.74357,1.80028 -0.22508,2.42489 0.51851,0.6246 1.61658,0.15005 2.42489,0.22508 1.09205,0.10134 6.50239,0.97572 7.27462,0.67524 10.56012,-4.10917 -2.6078,-0.0732 2.87503,-4.62468 1.24921,-1.03701 3.60057,1.48715 4.84976,0.45015 0.6246,-0.51849 -0.39953,-1.90639 0.22507,-2.42488 1.24922,-1.037 3.60056,1.48716 4.84976,0.45017 0.6246,-0.51849 -0.39952,-1.90639 0.22508,-2.42488 1.24921,-1.037 3.33674,1.03891 4.84975,0.45016 2.13974,-0.83263 3.16018,-3.56699 5.2999,-4.3996 0.75651,-0.29437 1.80029,0.74357 2.42489,0.22508 0.6246,-0.5185 -0.39953,-1.90638 0.22507,-2.42488 1.24919,-1.03699 3.60056,1.48715 4.84976,0.45015 0.6246,-0.51849 -0.39952,-1.90637 0.22508,-2.42487 1.2492,-1.03699 3.60055,1.48715 4.84975,0.45016 0.6246,-0.51849 -0.39951,-1.90637 0.22508,-2.42488 1.2492,-1.03699 3.60056,1.48715 4.84974,0.45016 0.62461,-0.51849 -0.39951,-1.90638 0.22509,-2.42487 1.32498,-1.09991 5.94965,1.77513 7.27463,0.67523 0.6246,-0.51849 -0.39953,-1.90638 0.22509,-2.42487 0.62459,-0.5185 1.80026,0.74357 2.42487,0.22508 0.62459,-0.51851 -0.39953,-1.90638 0.22508,-2.42488 0.62459,-0.5185 2.4999,-0.58322 2.42487,0.22508 -0.075,0.80829 -3.23317,-0.3001 -2.42487,-0.22508 3.23317,0.3001 6.46633,0.60021 9.69951,0.90032 0.80828,0.075 1.90636,-0.39953 2.42487,0.22507 0.51849,0.62459 -0.74359,1.80027 -0.22508,2.42488 0.52933,0.63766 9.17016,0.26265 9.6995,0.90032 1.03699,1.2492 -1.48715,3.60054 -0.45015,4.84974 0.5185,0.62461 1.61658,0.15006 2.42488,0.22508 4.84974,0.45017 9.69949,0.90032 14.54923,1.35048 0.80831,0.075 1.61659,0.15005 2.4249,0.22508 0.80829,0.075 1.80027,0.74357 2.42488,0.22507 0.6246,-0.51849 -0.39953,-1.90638 0.22508,-2.42487 0.63765,-0.52934 9.06183,1.42965 9.6995,0.90031 0.62461,-0.51849 -0.39953,-1.90638 0.22507,-2.42487 0.63767,-0.52934 9.06185,1.42965 9.69951,0.90031 0.62459,-0.5185 -0.39952,-1.90638 0.22508,-2.42487 0.62459,-0.5185 1.61658,0.15005 2.42487,0.22508 0.8083,0.0751 1.61658,0.15006 2.42488,0.22507 0.80829,0.075 1.61658,0.15006 2.42487,0.22508 0.8083,0.075 2.49991,-0.58321 2.42488,0.22508 -0.075,0.8083 -3.23317,-0.3001 -2.42488,-0.22508 2.42488,0.22508 4.84976,0.45017 7.27464,0.67525"
   id="path836-4"
   inkscape:connector-curvature="0" /><path
   style="fill:none;stroke:#1877f2;stroke-width:4.49008417;stroke-linecap:butt;stroke-linejoin:miter;stroke-miterlimit:4;stroke-dasharray:none;stroke-opacity:1"
   d="m 79.392718,406.43729 c 8.891206,0.8253 17.782433,1.65058 26.673642,2.47587 0.8083,0.075 1.61659,0.15005 2.42488,0.22508 0.80829,0.075 1.80028,0.74358 2.42488,0.22508 0.6246,-0.51849 -0.39952,-1.90637 0.22508,-2.42487 0.6246,-0.5185 1.80027,0.74357 2.42488,0.22507 0.62459,-0.51849 -0.39953,-1.90638 0.22508,-2.42487 0.62459,-0.51849 1.80027,0.74357 2.42487,0.22508 0.62459,-0.51849 -0.39952,-1.90639 0.22508,-2.42487 1.24921,-1.03702 3.60055,1.48714 4.84975,0.45015 0.6246,-0.5185 -0.39952,-1.90639 0.22508,-2.42488 0.6246,-0.5185 1.80028,0.74357 2.42487,0.22509 0.6246,-0.5185 0.15005,-1.61659 0.22508,-2.42489 0.8083,0.075 1.80028,0.74357 2.42487,0.22508 1.2492,-1.037 -0.79902,-3.81276 0.45017,-4.84975 1.24919,-1.03701 3.60055,1.48715 4.84975,0.45015 0.62459,-0.51849 -0.39952,-1.90638 0.22508,-2.42487 0.6246,-0.51849 1.80028,0.74357 2.42487,0.22508 0.6246,-0.51849 -0.39951,-1.90638 0.22509,-2.42487 0.0853,-0.0708 6.68653,0.62064 7.27462,0.67523 1.14332,0.10617 12.02469,1.00534 12.12439,1.12539 0.5185,0.6246 -0.74357,1.80028 -0.22509,2.42488 1.09991,1.32497 6.17474,-0.64975 7.27464,0.67524 0.51849,0.62459 -0.51945,1.66835 -0.22508,2.42487 0.4163,1.06986 1.46653,1.76664 2.1998,2.64995 0.73326,0.88333 1.22482,2.04386 2.19979,2.64997 1.37881,0.85715 3.81275,-0.79906 4.84976,0.45016 0.5185,0.62459 -0.74357,1.80027 -0.22508,2.42487 1.03699,1.24919 3.81275,-0.79906 4.84975,0.45015 0.5185,0.6246 -0.74357,1.80028 -0.22507,2.42489 0.51849,0.62459 1.90638,-0.39954 2.42488,0.22507 0.51849,0.62459 -0.74358,1.80029 -0.22508,2.42488 0.52933,0.63766 9.17015,0.26263 9.69949,0.90031 0.51851,0.6246 -0.74357,1.80028 -0.22508,2.42488 0.0885,0.10662 8.80899,0.81765 9.6995,0.90031 0.8083,0.075 1.61659,0.15005 2.42489,0.22508 0.80828,0.0751 1.80026,0.74358 2.42487,0.22508 0.6246,-0.51849 -0.39952,-1.90638 0.22508,-2.42488 1.24921,-1.037 3.60056,1.48715 4.84974,0.45016 0.62461,-0.51849 -0.39952,-1.90638 0.22509,-2.42487 1.24919,-1.037 3.60055,1.48715 4.84975,0.45015 0.62459,-0.5185 -0.39953,-1.90638 0.22508,-2.42487 1.2492,-1.037 3.60056,1.48714 4.84976,0.45016 0.6246,-0.5185 -0.39954,-1.90638 0.22507,-2.42488 1.32498,-1.09991 5.94966,1.77512 7.27464,0.67524 0.62459,-0.5185 -0.39954,-1.90638 0.22508,-2.42488 0.62459,-0.5185 1.80025,0.74357 2.42487,0.22507 0.62459,-0.51849 -0.39954,-1.90638 0.22508,-2.42488 0.62459,-0.51848 1.61658,0.15006 2.42487,0.22509 1.14332,0.10617 12.00429,1.22504 12.12437,1.12539 0.62461,-0.51849 -0.39951,-1.90638 0.22508,-2.42487 1.32498,-1.09992 5.94967,1.77513 7.27463,0.67523 0.62461,-0.51849 -0.3995,-1.90638 0.22508,-2.42487 0.62461,-0.5185 1.61659,0.15005 2.42488,0.22507 4.04146,0.37513 8.08292,0.75027 12.12438,1.12539 8.89123,0.8253 17.78243,1.65059 26.67366,2.47587 0.80828,0.075 1.61658,0.15006 2.42487,0.22508 0.8083,0.0751 1.90637,-0.39952 2.42487,0.22509 0.5185,0.62459 -0.74358,1.80027 -0.22507,2.42487 1.0999,1.32497 6.17472,-0.64976 7.27461,0.67523 0.51852,0.6246 -0.74357,1.80029 -0.22507,2.42488 1.03699,1.2492 3.81276,-0.79905 4.84975,0.45015 0.5185,0.62461 -0.74358,1.80028 -0.22508,2.42489 0.52933,0.63765 9.17018,0.26264 9.6995,0.90031 0.51851,0.62461 -0.74357,1.80028 -0.22508,2.42488 0.51852,0.6246 1.61659,0.15006 2.42489,0.22509 1.09206,0.10134 6.5024,0.97571 7.27462,0.67523 10.56013,-4.10916 -2.6078,-0.0732 2.87504,-4.62469 1.2492,-1.037 3.60056,1.48715 4.84975,0.45016 0.62461,-0.51848 -0.39951,-1.90638 0.22508,-2.42487 1.24921,-1.03701 3.60056,1.48715 4.84976,0.45015 0.62459,-0.51849 -0.39953,-1.90638 0.22508,-2.42487 1.24921,-1.03699 3.33673,1.03891 4.84974,0.45016 2.13975,-0.83262 3.16018,-3.567 5.29991,-4.39959 0.75651,-0.29438 1.80029,0.74357 2.42488,0.22507 0.62461,-0.5185 -0.39952,-1.90638 0.22508,-2.42488 1.24919,-1.03698 3.60055,1.48715 4.84976,0.45016 0.62459,-0.51849 -0.39952,-1.90637 0.22508,-2.42487 1.2492,-1.037 3.60055,1.48714 4.84974,0.45015 0.62461,-0.51849 -0.39951,-1.90637 0.22509,-2.42487 1.24919,-1.03699 3.60055,1.48715 4.84975,0.45015 0.62461,-0.51849 -0.39952,-1.90639 0.22507,-2.42487 1.32499,-1.09991 5.94965,1.77513 7.27464,0.67524 0.62459,-0.5185 -0.39953,-1.9064 0.22508,-2.42488 0.62459,-0.5185 1.80027,0.74357 2.42487,0.22508 0.6246,-0.5185 -0.39952,-1.90639 0.22508,-2.42488 0.6246,-0.5185 2.4999,-0.58322 2.42488,0.22509 -0.075,0.80828 -3.23317,-0.30011 -2.42488,-0.22509 3.23318,0.30011 6.46634,0.60021 9.69951,0.90032 0.80829,0.075 1.90637,-0.39953 2.42488,0.22508 0.51849,0.62459 -0.7436,1.80027 -0.22508,2.42487 0.52933,0.63766 9.17016,0.26266 9.6995,0.90031 1.037,1.2492 -1.48716,3.60056 -0.45016,4.84976 0.5185,0.6246 1.61659,0.15005 2.42489,0.22508 4.84973,0.45015 9.69949,0.90031 14.54923,1.35047 0.80831,0.075 1.61659,0.15005 2.42489,0.22508 0.8083,0.075 1.80027,0.74358 2.42489,0.22508 0.62459,-0.51849 -0.39954,-1.90638 0.22508,-2.42487 0.63764,-0.52935 9.06183,1.42965 9.6995,0.90031 0.6246,-0.51849 -0.39954,-1.90638 0.22507,-2.42487 0.63767,-0.52934 9.06184,1.42964 9.69951,0.90031 0.62459,-0.5185 -0.39952,-1.90638 0.22508,-2.42487 0.62458,-0.51851 1.61658,0.15004 2.42487,0.22507 0.8083,0.0751 1.61658,0.15005 2.42487,0.22508 0.8083,0.075 1.61659,0.15005 2.42488,0.22508 0.80829,0.075 2.49991,-0.58322 2.42488,0.22508 -0.075,0.80829 -3.23317,-0.30011 -2.42488,-0.22508 2.42488,0.22508 4.84975,0.45015 7.27464,0.67523"
   id="path836-0"
   inkscape:connector-curvature="0" /></svg>