<?xml version="1.0" encoding="UTF-8" standalone="no"?>
<svg
   xmlns:dc="http://purl.org/dc/elements/1.1/"
   xmlns:cc="http://creativecommons.org/ns#"
   xmlns:rdf="http://www.w3.org/1999/02/22-rdf-syntax-ns#"
   xmlns:svg="http://www.w3.org/2000/svg"
   xmlns="http://www.w3.org/2000/svg"
   xmlns:sodipodi="http://sodipodi.sourceforge.net/DTD/sodipodi-0.dtd"
   xmlns:inkscape="http://www.inkscape.org/namespaces/inkscape"
   version="1.1"
   id="Capa_1"
   x="0px"
   y="0px"
   viewBox="0 0 49.999902 49.999902"
   xml:space="preserve"
   width="50"
   height="50"
   sodipodi:docname="password_eye_crossed.svg"
   inkscape:version="0.92.4 (5da689c313, 2019-01-14)"><metadata
   id="metadata21"><rdf:RDF><cc:Work
       rdf:about=""><dc:format>image/svg+xml</dc:format><dc:type
         rdf:resource="http://purl.org/dc/dcmitype/StillImage" /><dc:title></dc:title></cc:Work></rdf:RDF></metadata><defs
   id="defs19" /><sodipodi:namedview
   pagecolor="#ffffff"
   bordercolor="#666666"
   borderopacity="1"
   objecttolerance="10"
   gridtolerance="10"
   guidetolerance="10"
   inkscape:pageopacity="0"
   inkscape:pageshadow="2"
   inkscape:window-width="1920"
   inkscape:window-height="1017"
   id="namedview17"
   showgrid="false"
   inkscape:zoom="3.6875"
   inkscape:cx="3.5240336"
   inkscape:cy="72.761435"
   inkscape:window-x="-8"
   inkscape:window-y="-8"
   inkscape:window-maximized="1"
   inkscape:current-layer="Capa_1" /><g
   id="g14"
   transform="matrix(0.09585029,0,0,0.09585029,0.27118591,2.9538403)"><g
     id="g6">
	<g
   id="g4">
		<path
   d="M 508.745,246.041 C 504.171,239.784 395.188,92.835 255.997,92.835 c -139.191,0 -248.179,146.949 -252.748,153.2 -4.332,5.936 -4.332,13.987 0,19.923 4.569,6.257 113.557,153.206 252.748,153.206 139.191,0 248.174,-146.95 252.748,-153.201 4.338,-5.935 4.338,-13.992 0,-19.922 z M 255.997,385.406 c -102.529,0 -191.33,-97.533 -217.617,-129.418 26.253,-31.913 114.868,-129.395 217.617,-129.395 102.524,0 191.319,97.516 217.617,129.418 -26.253,31.912 -114.868,129.395 -217.617,129.395 z"
   data-original="#000000"
   class="active-path"
   data-old_color="#000000"
   id="path2"
   inkscape:connector-curvature="0"
   style="fill:#808080" />
	</g>
</g><g
     id="g12">
	<g
   id="g10">
		<path
   d="m 255.997,154.725 c -55.842,0 -101.275,45.433 -101.275,101.275 0,55.842 45.433,101.275 101.275,101.275 55.842,0 101.275,-45.433 101.275,-101.275 0,-55.842 -45.433,-101.275 -101.275,-101.275 z m 0,168.791 c -37.23,0 -67.516,-30.287 -67.516,-67.516 0,-37.229 30.287,-67.516 67.516,-67.516 37.229,0 67.516,30.287 67.516,67.516 0,37.229 -30.286,67.516 -67.516,67.516 z"
   data-original="#000000"
   class="active-path"
   data-old_color="#000000"
   id="path8"
   inkscape:connector-curvature="0"
   style="fill:#808080" />
	</g>
</g></g> <rect
   style="opacity:1;fill:#808080;fill-opacity:1;stroke:none;stroke-width:15.76717281;stroke-linecap:square;stroke-miterlimit:4;stroke-dasharray:none;stroke-dashoffset:0.17640001;stroke-opacity:1"
   id="rect818"
   width="54.914246"
   height="2.863235"
   x="-20.161963"
   y="34.380695"
   transform="matrix(0.84765773,-0.53054347,0.51565288,0.85679759,0,0)" /></svg>