<?xml version="1.0" encoding="UTF-8" standalone="no"?>
<svg
   xmlns:dc="http://purl.org/dc/elements/1.1/"
   xmlns:cc="http://creativecommons.org/ns#"
   xmlns:rdf="http://www.w3.org/1999/02/22-rdf-syntax-ns#"
   xmlns:svg="http://www.w3.org/2000/svg"
   xmlns="http://www.w3.org/2000/svg"
   xmlns:sodipodi="http://sodipodi.sourceforge.net/DTD/sodipodi-0.dtd"
   xmlns:inkscape="http://www.inkscape.org/namespaces/inkscape"
   version="1.1"
   id="Capa_1"
   x="0px"
   y="0px"
   viewBox="0 0 511.999 511.999"
   style="enable-background:new 0 0 511.999 511.999;"
   xml:space="preserve"
   width="512px"
   height="512px"
   sodipodi:docname="password_eye_crossed.svg"
   inkscape:version="0.92.4 (5da689c313, 2019-01-14)"><metadata
   id="metadata21"><rdf:RDF><cc:Work
       rdf:about=""><dc:format>image/svg+xml</dc:format><dc:type
         rdf:resource="http://purl.org/dc/dcmitype/StillImage" /><dc:title></dc:title></cc:Work></rdf:RDF></metadata><defs
   id="defs19" /><sodipodi:namedview
   pagecolor="#ffffff"
   bordercolor="#666666"
   borderopacity="1"
   objecttolerance="10"
   gridtolerance="10"
   guidetolerance="10"
   inkscape:pageopacity="0"
   inkscape:pageshadow="2"
   inkscape:window-width="1920"
   inkscape:window-height="1017"
   id="namedview17"
   showgrid="false"
   inkscape:zoom="0.921875"
   inkscape:cx="345.37704"
   inkscape:cy="305.48381"
   inkscape:window-x="-8"
   inkscape:window-y="-8"
   inkscape:window-maximized="1"
   inkscape:current-layer="Capa_1" /><g
   id="g14"
   style="fill:#808080;fill-opacity:1"><g
     id="g6"
     style="fill:#808080;fill-opacity:1">
	<g
   id="g4"
   style="fill:#808080;fill-opacity:1">
		<path
   d="M508.745,246.041c-4.574-6.257-113.557-153.206-252.748-153.206S7.818,239.784,3.249,246.035    c-4.332,5.936-4.332,13.987,0,19.923c4.569,6.257,113.557,153.206,252.748,153.206s248.174-146.95,252.748-153.201    C513.083,260.028,513.083,251.971,508.745,246.041z M255.997,385.406c-102.529,0-191.33-97.533-217.617-129.418    c26.253-31.913,114.868-129.395,217.617-129.395c102.524,0,191.319,97.516,217.617,129.418    C447.361,287.923,358.746,385.406,255.997,385.406z"
   data-original="#000000"
   class="active-path"
   data-old_color="#000000"
   fill="#808080"
   id="path2"
   style="fill:#808080;fill-opacity:1" />
	</g>
</g><g
     id="g12"
     style="fill:#808080;fill-opacity:1">
	<g
   id="g10"
   style="fill:#808080;fill-opacity:1">
		<path
   d="M255.997,154.725c-55.842,0-101.275,45.433-101.275,101.275s45.433,101.275,101.275,101.275    s101.275-45.433,101.275-101.275S311.839,154.725,255.997,154.725z M255.997,323.516c-37.23,0-67.516-30.287-67.516-67.516    s30.287-67.516,67.516-67.516s67.516,30.287,67.516,67.516S293.227,323.516,255.997,323.516z"
   data-original="#000000"
   class="active-path"
   data-old_color="#000000"
   fill="#808080"
   id="path8"
   style="fill:#808080;fill-opacity:1" />
	</g>
</g></g> <rect
   style="opacity:1;fill:#000000;fill-opacity:0;stroke:#808080;stroke-width:27.58722305;stroke-linecap:square;stroke-miterlimit:4;stroke-dasharray:none;stroke-dashoffset:0.17640001;stroke-opacity:1"
   id="rect831"
   width="604.61554"
   height="7.978343"
   x="-293.95041"
   y="358.00244"
   transform="matrix(0.71908798,-0.69491905,0.69059564,0.72324109,0,0)" /></svg>