<?xml version="1.0" encoding="UTF-8" standalone="no"?>
<!-- Generator: Adobe Illustrator 19.0.0, SVG Export Plug-In . SVG Version: 6.00 Build 0)  -->

<svg
   xmlns:dc="http://purl.org/dc/elements/1.1/"
   xmlns:cc="http://creativecommons.org/ns#"
   xmlns:rdf="http://www.w3.org/1999/02/22-rdf-syntax-ns#"
   xmlns:svg="http://www.w3.org/2000/svg"
   xmlns="http://www.w3.org/2000/svg"
   xmlns:sodipodi="http://sodipodi.sourceforge.net/DTD/sodipodi-0.dtd"
   xmlns:inkscape="http://www.inkscape.org/namespaces/inkscape"
   version="1.1"
   id="Capa_1"
   x="0px"
   y="0px"
   viewBox="0 0 50.000001 50.000001"
   xml:space="preserve"
   sodipodi:docname="password_tick.svg"
   width="50"
   height="50"
   inkscape:version="0.92.4 (5da689c313, 2019-01-14)"><metadata
   id="metadata43"><rdf:RDF><cc:Work
       rdf:about=""><dc:format>image/svg+xml</dc:format><dc:type
         rdf:resource="http://purl.org/dc/dcmitype/StillImage" /><dc:title></dc:title></cc:Work></rdf:RDF></metadata><defs
   id="defs41" /><sodipodi:namedview
   pagecolor="#ffffff"
   bordercolor="#666666"
   borderopacity="1"
   objecttolerance="10"
   gridtolerance="10"
   guidetolerance="10"
   inkscape:pageopacity="0"
   inkscape:pageshadow="2"
   inkscape:window-width="1920"
   inkscape:window-height="1017"
   id="namedview39"
   showgrid="false"
   inkscape:zoom="5.1331549"
   inkscape:cx="43.593703"
   inkscape:cy="37.819075"
   inkscape:window-x="-8"
   inkscape:window-y="-8"
   inkscape:window-maximized="1"
   inkscape:current-layer="g6" />
<g
   id="g6"
   transform="translate(0,-317.80499)">
	<path
   style="fill:#3bb54a;stroke-width:0.13559264"
   d="m 24.9361,317.93348 c 13.771604,0 24.935759,11.16416 24.935759,24.93576 0,13.7716 -11.164155,24.93576 -24.935759,24.93576 -13.771603,0 -24.93575937235,-11.16416 -24.93575937235,-24.93576 v 0 C -0.03884565,329.13669 11.061718,317.97267 24.794135,317.93348 c 0.04732,-1.4e-4 0.09464,-1.4e-4 0.141965,0 z"
   id="path2"
   inkscape:connector-curvature="0" />
	<polygon
   style="fill:#d4e1f4"
   points="285.78,133.225 155.168,263.837 82.025,191.217 111.805,161.96 155.168,204.801 256.001,103.968 "
   id="polygon4"
   transform="matrix(0.13559265,0,0,0.13559265,2.0503501e-4,317.93334)" />
</g>
<g
   id="g8"
   transform="translate(0,-317.80499)">
</g>
<g
   id="g10"
   transform="translate(0,-317.80499)">
</g>
<g
   id="g12"
   transform="translate(0,-317.80499)">
</g>
<g
   id="g14"
   transform="translate(0,-317.80499)">
</g>
<g
   id="g16"
   transform="translate(0,-317.80499)">
</g>
<g
   id="g18"
   transform="translate(0,-317.80499)">
</g>
<g
   id="g20"
   transform="translate(0,-317.80499)">
</g>
<g
   id="g22"
   transform="translate(0,-317.80499)">
</g>
<g
   id="g24"
   transform="translate(0,-317.80499)">
</g>
<g
   id="g26"
   transform="translate(0,-317.80499)">
</g>
<g
   id="g28"
   transform="translate(0,-317.80499)">
</g>
<g
   id="g30"
   transform="translate(0,-317.80499)">
</g>
<g
   id="g32"
   transform="translate(0,-317.80499)">
</g>
<g
   id="g34"
   transform="translate(0,-317.80499)">
</g>
<g
   id="g36"
   transform="translate(0,-317.80499)">
</g>
</svg>