<?xml version="1.0" encoding="UTF-8" standalone="no"?>
<!-- Generator: Adobe Illustrator 19.0.0, SVG Export Plug-In . SVG Version: 6.00 Build 0)  -->

<svg
   xmlns:dc="http://purl.org/dc/elements/1.1/"
   xmlns:cc="http://creativecommons.org/ns#"
   xmlns:rdf="http://www.w3.org/1999/02/22-rdf-syntax-ns#"
   xmlns:svg="http://www.w3.org/2000/svg"
   xmlns="http://www.w3.org/2000/svg"
   xmlns:sodipodi="http://sodipodi.sourceforge.net/DTD/sodipodi-0.dtd"
   xmlns:inkscape="http://www.inkscape.org/namespaces/inkscape"
   version="1.1"
   id="Layer_1"
   x="0px"
   y="0px"
   viewBox="0 0 50 50"
   xml:space="preserve"
   sodipodi:docname="photo.svg"
   width="50"
   height="50"
   inkscape:version="0.92.4 (5da689c313, 2019-01-14)"><metadata
   id="metadata91"><rdf:RDF><cc:Work
       rdf:about=""><dc:format>image/svg+xml</dc:format><dc:type
         rdf:resource="http://purl.org/dc/dcmitype/StillImage" /><dc:title></dc:title></cc:Work></rdf:RDF></metadata><defs
   id="defs89" /><sodipodi:namedview
   pagecolor="#ffffff"
   bordercolor="#666666"
   borderopacity="1"
   objecttolerance="10"
   gridtolerance="10"
   guidetolerance="10"
   inkscape:pageopacity="0"
   inkscape:pageshadow="2"
   inkscape:window-width="1920"
   inkscape:window-height="1017"
   id="namedview87"
   showgrid="false"
   inkscape:zoom="3.9837023"
   inkscape:cx="57.709664"
   inkscape:cy="57.684038"
   inkscape:window-x="-8"
   inkscape:window-y="-8"
   inkscape:window-maximized="1"
   inkscape:current-layer="Layer_1" />
<circle
   style="fill:#357180;stroke-width:0.10487478"
   cx="24.851759"
   cy="25.149248"
   r="24.851759"
   id="circle2" />
<rect
   x="-40.034763"
   y="4.2534785"
   transform="rotate(-99.073304)"
   style="fill:#ebf6f9;stroke-width:0.10487612"
   width="22.560637"
   height="31.186066"
   id="rect4" />
<polygon
   style="fill:#dbf0f5"
   points="75.928,163.193 354.191,117.39 385.731,310.686 107.467,356.489 "
   id="polygon6"
   transform="matrix(0.10487478,0,0,0.10487478,0,0.29749042)" />
<path
   style="fill:#6cc077;stroke-width:0.10487478"
   d="m 39.529614,29.310051 -4.599075,-3.297893 c 0,0 -1.371133,-1.271397 -2.412225,-1.039519 -0.937056,0.20996 -1.84674,1.575534 -2.018629,1.845167 l -1.541451,-1.105799 c 0,0 -1.607729,-1.491949 -2.827738,-1.218436 -1.220008,0.272779 -2.408659,2.230477 -2.408659,2.230477 l -0.337906,0.469735 -2.901886,-2.082185 c 0,0 -1.975002,-1.833001 -3.474082,-1.497821 -1.499395,0.335075 -2.960825,2.74216 -2.960825,2.74216 l -3.503132,4.882865 1.005749,6.089869 28.523949,-4.696082 z"
   id="path8"
   inkscape:connector-curvature="0" />
<g
   id="g14"
   transform="matrix(0.10487478,0,0,0.10487478,0,0.29749042)">
	<path
   style="fill:#67b8cb"
   d="m 239.937,186.302 c -0.015,-0.318 0.153,-0.621 0.09,-0.943 -0.819,-4.954 -6.832,-8.082 -13.429,-7.001 -0.868,0.146 -1.594,0.513 -2.398,0.778 -2.406,-2.305 -6.32,-3.558 -10.642,-2.847 -5.594,0.92 -9.538,4.692 -9.934,8.831 -5.253,1.968 -8.756,6.181 -8.03,10.593 0.685,4.172 4.894,7.012 10.099,7.461 2.324,3.532 7.416,5.557 13.055,4.632 5.111,-0.842 9.066,-3.843 10.57,-7.431 1.392,0.225 2.862,0.247 4.393,-0.007 5.86,-0.958 10.02,-5.306 9.306,-9.71 -0.296,-1.804 -1.513,-3.241 -3.08,-4.356 z"
   id="path10"
   inkscape:connector-curvature="0" />
	<path
   style="fill:#67b8cb"
   d="m 297.668,188.368 c -0.079,-0.221 -0.258,-0.389 -0.292,-0.61 -0.576,-3.514 2.761,-7.005 7.446,-7.772 0.621,-0.105 1.194,-0.022 1.785,-0.022 1.096,-2.107 3.457,-3.843 6.511,-4.344 3.985,-0.662 7.495,0.984 8.711,3.678 3.985,0.135 7.3,2.17 7.813,5.306 0.49,2.967 -1.706,5.833 -5.089,7.326 -0.756,2.896 -3.734,5.426 -7.734,6.084 -3.633,0.599 -6.982,-0.528 -8.812,-2.586 -0.887,0.46 -1.875,0.812 -2.956,0.992 -4.168,0.688 -7.959,-1.291 -8.471,-4.419 -0.229,-1.28 0.261,-2.522 1.088,-3.633 z"
   id="path12"
   inkscape:connector-curvature="0" />
</g>
<path
   style="fill:#020202;stroke-width:0.10487478"
   d="m 27.921968,24.187757 c 0,-0.366119 -0.162871,-0.66197 -0.363392,-0.66197 h -1.525298 c -0.200521,0 -0.363392,0.295851 -0.363392,0.66197 0,0.366117 0.162871,0.662388 0.363392,0.662388 h 1.525298 c 0.200521,-3.14e-4 0.363392,-0.296585 0.363392,-0.662388"
   id="path16"
   inkscape:connector-curvature="0" />
<g
   id="g22"
   transform="matrix(0.10487478,0,0,0.10487478,0,0.29749042)">
	<path
   style="fill:#231f20"
   d="m 413.704,249.108 c 0,-6.114 -4.954,-11.064 -11.057,-11.064 H 245.299 c -6.107,0 -11.057,4.95 -11.057,11.064 v 82.263 c 0,6.103 4.95,11.057 11.057,11.057 h 157.349 c 6.103,0 11.057,-4.954 11.057,-11.057 v -82.263 z"
   id="path18"
   inkscape:connector-curvature="0" />
	<path
   style="fill:#231f20"
   d="m 311.498,241.265 c 0,-7.416 -5.014,-13.444 -11.192,-13.444 h -54.869 c -6.185,0 -11.195,6.024 -11.195,13.444 v 31.94 c 0,7.424 5.006,13.44 11.195,13.44 h 54.869 c 6.178,0 11.192,-6.013 11.192,-13.44 z"
   id="path20"
   inkscape:connector-curvature="0" />
</g>
<path
   style="fill:#020202;stroke-width:0.10487478"
   d="m 39.755304,30.707402 c 0,-3.191549 -2.587156,-5.779124 -5.779126,-5.779124 -3.191129,0 -5.779124,2.587575 -5.779124,5.779124 0,3.191864 2.587995,5.779545 5.779124,5.779545 3.19197,0 5.779126,-2.587681 5.779126,-5.779545"
   id="path24"
   inkscape:connector-curvature="0" />
<path
   style="fill:#231f20;stroke-width:0.10487478"
   d="m 39.462179,30.708136 c 0,-3.030252 -2.455749,-5.486 -5.485161,-5.486 -3.029413,0 -5.485581,2.456168 -5.485581,5.486 0,3.029099 2.456168,5.485581 5.485581,5.485581 3.029412,1.04e-4 5.485161,-2.456482 5.485161,-5.485581"
   id="path26"
   inkscape:connector-curvature="0" />
<path
   style="fill:#969595;stroke-width:0.10487478"
   d="m 39.168215,30.707402 c 0,-2.866962 -2.324235,-5.191616 -5.191302,-5.191616 -2.867382,0 -5.191616,2.325074 -5.191616,5.191616 0,2.867801 2.324234,5.191617 5.191616,5.191617 2.867067,0 5.191302,-2.323816 5.191302,-5.191617"
   id="path28"
   inkscape:connector-curvature="0" />
<path
   style="fill:#231f20;stroke-width:0.10487478"
   d="m 38.934763,30.708136 c 0,-2.7387 -2.220304,-4.957745 -4.958165,-4.957745 -2.737861,0 -4.957431,2.21873 -4.957431,4.957745 0,2.737861 2.219465,4.957012 4.957431,4.957012 2.737861,0 4.958165,-2.219046 4.958165,-4.957012"
   id="path30"
   inkscape:connector-curvature="0" />
<path
   style="fill:#020202;stroke-width:0.10487478"
   d="m 38.566653,30.707402 c 0,-2.516575 -2.040129,-4.55639 -4.556705,-4.55639 -2.516155,0 -4.556389,2.039815 -4.556389,4.55639 0,2.516575 2.040128,4.556705 4.556389,4.556705 2.516157,0 4.556705,-2.04013 4.556705,-4.556705"
   id="path32"
   inkscape:connector-curvature="0" />
<path
   style="fill:#231f20;stroke-width:0.10487478"
   d="m 38.335194,30.707402 c 0,-2.388208 -1.936617,-4.324826 -4.325246,-4.324826 -2.388208,0 -4.324825,1.936618 -4.324825,4.324826 0,2.389047 1.936617,4.324827 4.324825,4.324827 2.389048,0 4.325246,-1.93578 4.325246,-4.324827"
   id="path34"
   inkscape:connector-curvature="0" />
<path
   style="fill:#5a5b5d;stroke-width:0.10487478"
   d="m 38.103211,30.707402 c 0,-2.260681 -1.832582,-4.093262 -4.093683,-4.093262 -2.260679,0 -4.092947,1.832581 -4.092947,4.093262 0,2.261101 1.832162,4.093263 4.092947,4.093263 2.261521,0 4.093683,-1.832162 4.093683,-4.093263"
   id="path36"
   inkscape:connector-curvature="0" />
<path
   style="fill:#231f20;stroke-width:0.10487478"
   d="m 37.918841,30.707402 c 0,-2.158638 -1.749835,-3.908892 -3.908893,-3.908892 -2.158638,0 -3.908473,1.75015 -3.908473,3.908892 0,2.158638 1.749835,3.909207 3.908473,3.909207 2.159058,0 3.908893,-1.750569 3.908893,-3.909207"
   id="path38"
   inkscape:connector-curvature="0" />
<path
   style="fill:#a5b6b9;stroke-width:0.10487478"
   d="m 37.399606,30.707402 c 0,-1.872224 -1.517853,-3.389343 -3.390078,-3.389343 -1.871804,0 -3.389342,1.517119 -3.389342,3.389343 0,1.871806 1.517433,3.390078 3.389342,3.390078 1.872225,0 3.390078,-1.518272 3.390078,-3.390078"
   id="path40"
   inkscape:connector-curvature="0" />
<path
   style="fill:#ffffff;stroke-width:0.10487478"
   d="m 34.489121,29.568986 c 0,0.898672 -0.72867,1.626922 -1.626922,1.626922 -0.898987,0 -1.626923,-0.728354 -1.626923,-1.626922 0,-0.898253 0.727936,-1.626922 1.626923,-1.626922 0.898566,0 1.626922,0.728669 1.626922,1.626922"
   id="path42"
   inkscape:connector-curvature="0" />
<g
   id="g48"
   transform="matrix(0.10487478,0,0,0.10487478,0,0.29749042)">
	<path
   style="fill:#67b8cb"
   d="m 244.18,234.111 c -2.238,0 -4.045,1.811 -4.045,4.041 v 3.042 0.228 l 7.311,-7.308 h -3.267 v -0.003 z"
   id="path44"
   inkscape:connector-curvature="0" />
	<path
   style="fill:#67b8cb"
   d="m 275.427,238.152 c 0,-2.23 -1.807,-4.041 -4.045,-4.041 h -5.31 L 242.96,257.22 c 0.389,0.123 0.79,0.21 1.22,0.21 h 19.173 l 12.075,-12.071 z"
   id="path46"
   inkscape:connector-curvature="0" />
</g>
<g
   id="g54"
   transform="matrix(0.10487478,0,0,0.10487478,0,0.29749042)">
	<path
   style="fill:#d6e4f4"
   d="m 247.446,234.111 -7.311,7.308 v 2.997 8.965 c 0,1.807 1.19,3.319 2.825,3.835 l 23.113,-23.109 h -18.626 v 0.004 z"
   id="path50"
   inkscape:connector-curvature="0" />
	<path
   style="fill:#d6e4f4"
   d="m 275.427,253.385 v -8.026 l -12.075,12.071 h 8.03 c 2.234,-0.001 4.045,-1.812 4.045,-4.045"
   id="path52"
   inkscape:connector-curvature="0" />
</g>
<g
   id="g56"
   transform="matrix(0.10487478,0,0,0.10487478,0,0.29749042)">
</g>
<g
   id="g58"
   transform="matrix(0.10487478,0,0,0.10487478,0,0.29749042)">
</g>
<g
   id="g60"
   transform="matrix(0.10487478,0,0,0.10487478,0,0.29749042)">
</g>
<g
   id="g62"
   transform="matrix(0.10487478,0,0,0.10487478,0,0.29749042)">
</g>
<g
   id="g64"
   transform="matrix(0.10487478,0,0,0.10487478,0,0.29749042)">
</g>
<g
   id="g66"
   transform="matrix(0.10487478,0,0,0.10487478,0,0.29749042)">
</g>
<g
   id="g68"
   transform="matrix(0.10487478,0,0,0.10487478,0,0.29749042)">
</g>
<g
   id="g70"
   transform="matrix(0.10487478,0,0,0.10487478,0,0.29749042)">
</g>
<g
   id="g72"
   transform="matrix(0.10487478,0,0,0.10487478,0,0.29749042)">
</g>
<g
   id="g74"
   transform="matrix(0.10487478,0,0,0.10487478,0,0.29749042)">
</g>
<g
   id="g76"
   transform="matrix(0.10487478,0,0,0.10487478,0,0.29749042)">
</g>
<g
   id="g78"
   transform="matrix(0.10487478,0,0,0.10487478,0,0.29749042)">
</g>
<g
   id="g80"
   transform="matrix(0.10487478,0,0,0.10487478,0,0.29749042)">
</g>
<g
   id="g82"
   transform="matrix(0.10487478,0,0,0.10487478,0,0.29749042)">
</g>
<g
   id="g84"
   transform="matrix(0.10487478,0,0,0.10487478,0,0.29749042)">
</g>
</svg>