<?xml version="1.0" encoding="UTF-8" standalone="no"?>
<svg
   xmlns:dc="http://purl.org/dc/elements/1.1/"
   xmlns:cc="http://creativecommons.org/ns#"
   xmlns:rdf="http://www.w3.org/1999/02/22-rdf-syntax-ns#"
   xmlns:svg="http://www.w3.org/2000/svg"
   xmlns="http://www.w3.org/2000/svg"
   xmlns:sodipodi="http://sodipodi.sourceforge.net/DTD/sodipodi-0.dtd"
   xmlns:inkscape="http://www.inkscape.org/namespaces/inkscape"
   id="Capa_1"
   enable-background="new 0 0 497 497"
   height="50"
   viewBox="0 0 48.535156 48.535156"
   width="50"
   class=""
   version="1.1"
   sodipodi:docname="SEARCH-BLUE.svg"
   inkscape:version="0.92.4 (5da689c313, 2019-01-14)">
  <metadata
     id="metadata33">
    <rdf:RDF>
      <cc:Work
         rdf:about="">
        <dc:format>image/svg+xml</dc:format>
        <dc:type
           rdf:resource="http://purl.org/dc/dcmitype/StillImage" />
        <dc:title></dc:title>
      </cc:Work>
    </rdf:RDF>
  </metadata>
  <defs
     id="defs31" />
  <sodipodi:namedview
     pagecolor="#ffffff"
     bordercolor="#666666"
     borderopacity="1"
     objecttolerance="10"
     gridtolerance="10"
     guidetolerance="10"
     inkscape:pageopacity="0"
     inkscape:pageshadow="2"
     inkscape:window-width="1920"
     inkscape:window-height="1017"
     id="namedview29"
     showgrid="false"
     inkscape:zoom="5.2149124"
     inkscape:cx="44.224688"
     inkscape:cy="42.738946"
     inkscape:window-x="1912"
     inkscape:window-y="-8"
     inkscape:window-maximized="1"
     inkscape:current-layer="Capa_1" />
  <path
     d="m 28.989516,31.291344 3.017625,-3.054675 4.0729,4.023502 -3.017626,3.054674 z"
     data-original="#A4BDE0"
     class=""
     style="fill:#ff4500;fill-opacity:1;stroke-width:0.09541877"
     data-old_color="#a4bde0"
     id="path2"
     inkscape:connector-curvature="0" />
  <path
     d="m 27.983714,32.309807 2.011751,-2.03645 4.072899,4.023501 -2.011751,2.036449 z"
     data-original="#B0D0FF"
     class=""
     style="fill:#ff4500;fill-opacity:1;stroke-width:0.09541877"
     data-old_color="#b0d0ff"
     id="path4"
     inkscape:connector-curvature="0" />
  <path
     d="m 45.461121,39.566269 c 5.72e-4,-5.73e-4 -8.356919,-6.298111 -8.356919,-6.298111 l -4.036423,2.049088 12.864424,10.696216 c 1.666879,-1.687344 1.650291,-4.406376 -0.03705,-6.073255 -0.137971,-0.136299 -0.283407,-0.260145 -0.43403,-0.373938 z"
     data-original="#8D6ED1"
     class="active-path"
     style="fill:#3a6fd8;fill-opacity:1;stroke-width:0.09543319"
     data-old_color="#8d6ed1"
     id="path6"
     inkscape:connector-curvature="0" />
  <path
     d="m 43.883115,41.976945 c -0.137972,-0.136298 -0.283408,-0.260144 -0.434029,-0.373939 5.72e-4,-5.72e-4 -8.35692,-6.29811 -8.35692,-6.29811 l -2.024387,0.01235 0.01235,2.024388 6.399138,8.279928 c 0.116192,0.148646 0.241804,0.29256 0.379775,0.428859 1.687345,1.666879 4.406376,1.650289 6.073256,-0.03705 0.555531,-0.562352 -0.361936,-2.369541 -2.049184,-4.036421 z"
     data-original="#A381E6"
     class=""
     style="fill:#3a6fd8;fill-opacity:1;stroke-width:0.09543319"
     data-old_color="#a381e6"
     id="path8"
     inkscape:connector-curvature="0" />
  <circle
     cx="-17.29833"
     cy="16.656107"
     r="17.177973"
     data-original="#A4BDE0"
     class=""
     style="fill:#3a6fd8;fill-opacity:1;stroke-width:0.09543319"
     data-old_color="#a4bde0"
     id="circle10"
     transform="rotate(-90.349567)" />
  <path
     d="m 30.993892,27.231958 -2.012035,2.036736 2.036738,2.012037 2.012034,-2.036738 c 0.555627,-0.562448 0.550098,-1.468761 -0.01235,-2.024387 -0.562353,-0.555626 -1.46876,-0.550096 -2.024387,0.01235 z"
     data-original="#B0D0FF"
     class=""
     style="fill:#3a6fd8;stroke-width:0.09543319"
     data-old_color="#b0d0ff"
     id="path12"
     inkscape:connector-curvature="0" />
  <path
     d="m 31.006244,29.256343 c -0.562449,-0.555626 -1.46876,-0.550096 -2.024387,0.01235 l -2.012035,2.036739 c -0.555627,0.562447 -0.550097,1.468759 0.01235,2.024386 0.562448,0.555627 1.46876,0.550097 2.024386,-0.01235 l 2.012036,-2.036737 c 0.555626,-0.562448 0.550096,-1.468761 -0.01235,-2.024387 z"
     data-original="#C4E3FA"
     class=""
     style="fill:#3a6fd8;fill-opacity:1;stroke-width:0.09543319"
     data-old_color="#c4e3fa"
     id="path14"
     inkscape:connector-curvature="0" />
  <path
     d="m 35.067463,31.256027 -2.012036,2.036738 2.036738,2.012035 2.012037,-2.036737 c 0.555626,-0.562448 0.550095,-1.46876 -0.01235,-2.024387 -0.562449,-0.555626 -1.46876,-0.550096 -2.024388,0.01235 z"
     data-original="#B0D0FF"
     class=""
     style="fill:#3a6fd8;stroke-width:0.09543319"
     data-old_color="#b0d0ff"
     id="path16"
     inkscape:connector-curvature="0" />
  <path
     d="m 35.079815,33.280509 c -0.562447,-0.555626 -1.46876,-0.550096 -2.024386,0.01235 l -2.012036,2.036738 c -0.555626,0.562448 -0.550097,1.468761 0.01235,2.024387 0.562448,0.555626 1.46876,0.550096 2.024386,-0.01235 l 2.012036,-2.036738 c 0.555626,-0.562448 0.550096,-1.468856 -0.01235,-2.024387 z"
     data-original="#C4E3FA"
     class=""
     style="fill:#3a6fd8;fill-opacity:1;stroke-width:0.09543319"
     data-old_color="#c4e3fa"
     id="path18"
     inkscape:connector-curvature="0" />
  <path
     d="M 6.5775504,7.1361147 26.945119,27.25666 C 32.501289,21.632276 32.44599,12.568677 26.821607,7.0126031 21.197223,1.4564332 12.13372,1.511731 6.5775504,7.1361147 Z"
     data-original="#E3F5FF"
     class=""
     style="fill:#eaeff2;fill-opacity:1;stroke-width:0.09543319"
     data-old_color="#e3f5ff"
     id="path20"
     inkscape:connector-curvature="0" />
  <path
     d="M 24.809571,9.04934 C 19.185188,3.4931712 11.022467,2.6366268 6.5775504,7.1361147 1.0213809,12.760499 1.0766788,21.824002 6.7010628,27.380172 12.325448,32.936341 21.38895,32.881043 26.945119,27.25666 31.390036,22.757172 30.433861,14.605511 24.809571,9.04934 Z"
     data-original="#FFF"
     class=""
     data-old_color="#fff"
     style="fill:#eaeff2;fill-opacity:1;stroke-width:0.09543319"
     id="path22"
     inkscape:connector-curvature="0" />
</svg>
