<?xml version="1.0" encoding="UTF-8" standalone="no"?>
<svg
   xmlns:dc="http://purl.org/dc/elements/1.1/"
   xmlns:cc="http://creativecommons.org/ns#"
   xmlns:rdf="http://www.w3.org/1999/02/22-rdf-syntax-ns#"
   xmlns:svg="http://www.w3.org/2000/svg"
   xmlns="http://www.w3.org/2000/svg"
   xmlns:sodipodi="http://sodipodi.sourceforge.net/DTD/sodipodi-0.dtd"
   xmlns:inkscape="http://www.inkscape.org/namespaces/inkscape"
   id="Capa_1"
   enable-background="new 0 0 497 497"
   height="512px"
   viewBox="0 0 497 497"
   width="512px"
   class=""
   version="1.1"
   sodipodi:docname="SEARCH-BLUE.svg"
   inkscape:version="0.92.4 (5da689c313, 2019-01-14)">
  <metadata
     id="metadata33">
    <rdf:RDF>
      <cc:Work
         rdf:about="">
        <dc:format>image/svg+xml</dc:format>
        <dc:type
           rdf:resource="http://purl.org/dc/dcmitype/StillImage" />
        <dc:title />
      </cc:Work>
    </rdf:RDF>
  </metadata>
  <defs
     id="defs31" />
  <sodipodi:namedview
     pagecolor="#ffffff"
     bordercolor="#666666"
     borderopacity="1"
     objecttolerance="10"
     gridtolerance="10"
     guidetolerance="10"
     inkscape:pageopacity="0"
     inkscape:pageshadow="2"
     inkscape:window-width="1920"
     inkscape:window-height="1017"
     id="namedview29"
     showgrid="false"
     inkscape:zoom="1.3037281"
     inkscape:cx="361.81036"
     inkscape:cy="205.18593"
     inkscape:window-x="-8"
     inkscape:window-y="-8"
     inkscape:window-maximized="1"
     inkscape:current-layer="Capa_1" />
  <path
     d="m 307.71677,328.11419 31.6203,-32.00851 42.67802,42.1604 -31.6203,32.00851 z"
     data-original="#A4BDE0"
     class=""
     style="fill:#ff4500;stroke-width:0.99984896;fill-opacity:1"
     data-old_color="#a4bde0"
     id="path2"
     inkscape:connector-curvature="0" />
  <path
     d="m 297.17745,338.78619 21.0802,-21.33901 42.67801,42.1604 -21.0802,21.33901 z"
     data-original="#B0D0FF"
     class=""
     style="fill:#ff4500;fill-opacity:1;stroke-width:0.99984896"
     data-old_color="#b0d0ff"
     id="path4"
     inkscape:connector-curvature="0" />
  <path
     d="m 480.31506,414.82328 c 0.006,-0.006 -87.56827,-65.99497 -87.56827,-65.99497 L 350.451,370.29976 485.25132,482.38042 c 17.46645,-17.68089 17.29262,-46.17236 -0.38827,-63.63881 -1.44574,-1.42821 -2.96969,-2.72594 -4.54799,-3.91833 z"
     data-original="#8D6ED1"
     class="active-path"
     style="fill:#3a6fd8;fill-opacity:1"
     data-old_color="#8d6ed1"
     id="path6"
     inkscape:connector-curvature="0" />
  <path
     d="m 463.77987,440.08363 c -1.44574,-1.4282 -2.96969,-2.72593 -4.54799,-3.91832 0.006,-0.006 -87.56827,-65.99497 -87.56827,-65.99497 l -21.21261,0.12942 0.12942,21.21261 67.05359,86.76151 c 1.21752,1.5576 2.53375,3.0656 3.97949,4.49381 17.68089,17.46645 46.17236,17.29262 63.63882,-0.38827 5.82115,-5.89263 -3.79256,-24.82933 -21.47245,-42.29579 z"
     data-original="#A381E6"
     class=""
     style="fill:#3a6fd8;fill-opacity:1"
     data-old_color="#a381e6"
     id="path8"
     inkscape:connector-curvature="0" />
  <circle
     cx="-181.51199"
     cy="178.47926"
     r="180"
     data-original="#A4BDE0"
     class=""
     style="fill:#3a6fd8;fill-opacity:1"
     data-old_color="#a4bde0"
     id="circle10"
     transform="rotate(-90.349567)" />
  <path
     d="m 328.7197,285.57777 -21.08318,21.34202 21.34203,21.08319 21.08318,-21.34203 c 5.82215,-5.89363 5.76421,-15.39045 -0.12942,-21.2126 -5.89263,-5.82216 -15.39045,-5.76421 -21.21261,0.12942 z"
     data-original="#B0D0FF"
     class=""
     style="fill:#3a6fd8"
     data-old_color="#b0d0ff"
     id="path12"
     inkscape:connector-curvature="0" />
  <path
     d="m 328.84913,306.79037 c -5.89363,-5.82215 -15.39046,-5.76421 -21.21261,0.12942 l -21.08318,21.34203 c -5.82215,5.89363 -5.76421,15.39045 0.12942,21.21261 5.89363,5.82215 15.39045,5.76421 21.2126,-0.12943 l 21.08319,-21.34202 c 5.82215,-5.89363 5.76421,-15.39046 -0.12942,-21.21261 z"
     data-original="#C4E3FA"
     class=""
     style="fill:#3a6fd8;fill-opacity:1"
     data-old_color="#c4e3fa"
     id="path14"
     inkscape:connector-curvature="0" />
  <path
     d="m 371.40476,327.74413 -21.08319,21.34202 21.34203,21.08319 21.08319,-21.34203 c 5.82215,-5.89363 5.7642,-15.39045 -0.12943,-21.2126 -5.89363,-5.82215 -15.39045,-5.76421 -21.2126,0.12942 z"
     data-original="#B0D0FF"
     class=""
     style="fill:#3a6fd8"
     data-old_color="#b0d0ff"
     id="path16"
     inkscape:connector-curvature="0" />
  <path
     d="m 371.53419,348.95773 c -5.89363,-5.82215 -15.39046,-5.76421 -21.21261,0.12942 l -21.08318,21.34203 c -5.82215,5.89363 -5.76421,15.39046 0.12942,21.21261 5.89363,5.82215 15.39045,5.76421 21.2126,-0.12942 l 21.08319,-21.34203 c 5.82215,-5.89363 5.7642,-15.39146 -0.12942,-21.21261 z"
     data-original="#C4E3FA"
     class=""
     style="fill:#3a6fd8;fill-opacity:1"
     data-old_color="#c4e3fa"
     id="path18"
     inkscape:connector-curvature="0" />
  <path
     d="M 72.872214,75.002787 286.29449,285.83661 C 344.51501,226.90131 343.93556,131.92807 285.00027,73.708558 226.06496,15.488042 131.09273,16.067483 72.872214,75.002787 Z"
     data-original="#E3F5FF"
     class=""
     style="fill:#eaeff2;fill-opacity:1"
     data-old_color="#e3f5ff"
     id="path20"
     inkscape:connector-curvature="0" />
  <path
     d="M 263.91708,95.050585 C 204.98178,36.830069 119.44843,27.854745 72.872214,75.002787 14.651698,133.93809 15.231139,228.91032 74.166443,287.13084 c 58.935307,58.22051 153.907537,57.64107 212.128047,-1.29423 46.57622,-47.14804 36.5569,-132.5655 -22.37741,-190.786025 z"
     data-original="#FFF"
     class=""
     data-old_color="#fff"
     style="fill:#eaeff2;fill-opacity:1"
     id="path22"
     inkscape:connector-curvature="0" />
</svg>
