<?xml version="1.0" encoding="UTF-8" standalone="no"?>
<svg
   xmlns:dc="http://purl.org/dc/elements/1.1/"
   xmlns:cc="http://creativecommons.org/ns#"
   xmlns:rdf="http://www.w3.org/1999/02/22-rdf-syntax-ns#"
   xmlns:svg="http://www.w3.org/2000/svg"
   xmlns="http://www.w3.org/2000/svg"
   xmlns:sodipodi="http://sodipodi.sourceforge.net/DTD/sodipodi-0.dtd"
   xmlns:inkscape="http://www.inkscape.org/namespaces/inkscape"
   version="1.1"
   id="Capa_1"
   x="0px"
   y="0px"
   viewBox="0 0 50 50"
   xml:space="preserve"
   width="50"
   height="50"
   class=""
   sodipodi:docname="share.svg"
   inkscape:version="0.92.4 (5da689c313, 2019-01-14)"><metadata
   id="metadata15"><rdf:RDF><cc:Work
       rdf:about=""><dc:format>image/svg+xml</dc:format><dc:type
         rdf:resource="http://purl.org/dc/dcmitype/StillImage" /><dc:title></dc:title></cc:Work></rdf:RDF></metadata><defs
   id="defs13" /><sodipodi:namedview
   pagecolor="#ffffff"
   bordercolor="#666666"
   borderopacity="1"
   objecttolerance="10"
   gridtolerance="10"
   guidetolerance="10"
   inkscape:pageopacity="0"
   inkscape:pageshadow="2"
   inkscape:window-width="1920"
   inkscape:window-height="1017"
   id="namedview11"
   showgrid="false"
   inkscape:zoom="1.84375"
   inkscape:cx="99.412957"
   inkscape:cy="5.9544798"
   inkscape:window-x="-8"
   inkscape:window-y="-8"
   inkscape:window-maximized="1"
   inkscape:current-layer="Capa_1" /><g
   id="g8"
   transform="matrix(0.08898305,0,0,0.08898305,1.5593218,1.1864407)"
   style="fill:#ffffff"><g
     id="g6"
     style="fill:#ffffff">
	<g
   id="g4"
   style="fill:#ffffff">
		<path
   d="m 406,332 c -29.641,0 -55.761,14.581 -72.167,36.755 L 191.99,296.124 C 194.345,288.097 196,279.778 196,271 c 0,-11.906 -2.441,-23.225 -6.658,-33.636 L 337.787,148.036 C 354.307,167.424 378.589,180 406,180 c 49.629,0 90,-40.371 90,-90 0,-49.629 -40.371,-90 -90,-90 -49.629,0 -90,40.371 -90,90 0,11.437 2.355,22.286 6.262,32.358 l -148.887,89.59 C 156.869,193.136 132.937,181 106,181 c -49.629,0 -90,40.371 -90,90 0,49.629 40.371,90 90,90 30.13,0 56.691,-15.009 73.035,-37.806 l 141.376,72.395 C 317.807,403.995 316,412.75 316,422 c 0,49.629 40.371,90 90,90 49.629,0 90,-40.371 90,-90 0,-49.629 -40.371,-90 -90,-90 z"
   data-original="#000000"
   class="active-path"
   data-old_color="#000000"
   id="path2"
   inkscape:connector-curvature="0"
   style="fill:#ffffff" />
	</g>
</g></g> </svg>