<?xml version="1.0" encoding="UTF-8" standalone="no"?>
<!-- Generator: Adobe Illustrator 19.0.0, SVG Export Plug-In . SVG Version: 6.00 Build 0)  -->

<svg
   xmlns:dc="http://purl.org/dc/elements/1.1/"
   xmlns:cc="http://creativecommons.org/ns#"
   xmlns:rdf="http://www.w3.org/1999/02/22-rdf-syntax-ns#"
   xmlns:svg="http://www.w3.org/2000/svg"
   xmlns="http://www.w3.org/2000/svg"
   xmlns:sodipodi="http://sodipodi.sourceforge.net/DTD/sodipodi-0.dtd"
   xmlns:inkscape="http://www.inkscape.org/namespaces/inkscape"
   version="1.1"
   id="Capa_1"
   x="0px"
   y="0px"
   viewBox="0 0 50.000001 50.000001"
   xml:space="preserve"
   sodipodi:docname="tick.svg"
   width="50"
   height="50"
   inkscape:version="0.92.4 (5da689c313, 2019-01-14)"><metadata
   id="metadata43"><rdf:RDF><cc:Work
       rdf:about=""><dc:format>image/svg+xml</dc:format><dc:type
         rdf:resource="http://purl.org/dc/dcmitype/StillImage" /><dc:title></dc:title></cc:Work></rdf:RDF></metadata><defs
   id="defs41" /><sodipodi:namedview
   pagecolor="#ffffff"
   bordercolor="#666666"
   borderopacity="1"
   objecttolerance="10"
   gridtolerance="10"
   guidetolerance="10"
   inkscape:pageopacity="0"
   inkscape:pageshadow="2"
   inkscape:window-width="1920"
   inkscape:window-height="1017"
   id="namedview39"
   showgrid="false"
   inkscape:zoom="3.6296886"
   inkscape:cx="109.80941"
   inkscape:cy="54.152976"
   inkscape:window-x="-8"
   inkscape:window-y="-8"
   inkscape:window-maximized="1"
   inkscape:current-layer="Capa_1" />
<g
   id="g6"
   transform="matrix(0.13383751,0,0,0.13383751,2.0545132e-4,0.7739059)">
	<path
   style="fill:#3bb54a"
   d="m 183.903,0.001 c 101.566,0 183.902,82.336 183.902,183.902 0,101.566 -82.336,183.902 -183.902,183.902 C 82.337,367.805 0.001,285.469 0.001,183.903 v 0 C -0.288,82.625 81.579,0.29 182.856,0.001 183.205,0 183.554,0 183.903,0.001 Z"
   id="path2"
   inkscape:connector-curvature="0" />
	<polygon
   style="fill:#d4e1f4"
   points="285.78,133.225 155.168,263.837 82.025,191.217 111.805,161.96 155.168,204.801 256.001,103.968 "
   id="polygon4" />
</g>
<g
   id="g8"
   transform="matrix(0.13383751,0,0,0.13383751,2.0545132e-4,0.7739059)">
</g>
<g
   id="g10"
   transform="matrix(0.13383751,0,0,0.13383751,2.0545132e-4,0.7739059)">
</g>
<g
   id="g12"
   transform="matrix(0.13383751,0,0,0.13383751,2.0545132e-4,0.7739059)">
</g>
<g
   id="g14"
   transform="matrix(0.13383751,0,0,0.13383751,2.0545132e-4,0.7739059)">
</g>
<g
   id="g16"
   transform="matrix(0.13383751,0,0,0.13383751,2.0545132e-4,0.7739059)">
</g>
<g
   id="g18"
   transform="matrix(0.13383751,0,0,0.13383751,2.0545132e-4,0.7739059)">
</g>
<g
   id="g20"
   transform="matrix(0.13383751,0,0,0.13383751,2.0545132e-4,0.7739059)">
</g>
<g
   id="g22"
   transform="matrix(0.13383751,0,0,0.13383751,2.0545132e-4,0.7739059)">
</g>
<g
   id="g24"
   transform="matrix(0.13383751,0,0,0.13383751,2.0545132e-4,0.7739059)">
</g>
<g
   id="g26"
   transform="matrix(0.13383751,0,0,0.13383751,2.0545132e-4,0.7739059)">
</g>
<g
   id="g28"
   transform="matrix(0.13383751,0,0,0.13383751,2.0545132e-4,0.7739059)">
</g>
<g
   id="g30"
   transform="matrix(0.13383751,0,0,0.13383751,2.0545132e-4,0.7739059)">
</g>
<g
   id="g32"
   transform="matrix(0.13383751,0,0,0.13383751,2.0545132e-4,0.7739059)">
</g>
<g
   id="g34"
   transform="matrix(0.13383751,0,0,0.13383751,2.0545132e-4,0.7739059)">
</g>
<g
   id="g36"
   transform="matrix(0.13383751,0,0,0.13383751,2.0545132e-4,0.7739059)">
</g>
</svg>