<?xml version="1.0" encoding="UTF-8" standalone="no"?>
<svg
   xmlns:dc="http://purl.org/dc/elements/1.1/"
   xmlns:cc="http://creativecommons.org/ns#"
   xmlns:rdf="http://www.w3.org/1999/02/22-rdf-syntax-ns#"
   xmlns:svg="http://www.w3.org/2000/svg"
   xmlns="http://www.w3.org/2000/svg"
   xmlns:sodipodi="http://sodipodi.sourceforge.net/DTD/sodipodi-0.dtd"
   xmlns:inkscape="http://www.inkscape.org/namespaces/inkscape"
   height="682pt"
   viewBox="-21 -22 682.66669 682"
   width="682pt"
   version="1.1"
   id="svg4"
   sodipodi:docname="try-me-arrow.svg"
   inkscape:version="0.92.4 (5da689c313, 2019-01-14)">
  <metadata
     id="metadata10">
    <rdf:RDF>
      <cc:Work
         rdf:about="">
        <dc:format>image/svg+xml</dc:format>
        <dc:type
           rdf:resource="http://purl.org/dc/dcmitype/StillImage" />
      </cc:Work>
    </rdf:RDF>
  </metadata>
  <defs
     id="defs8" />
  <sodipodi:namedview
     pagecolor="#ffffff"
     bordercolor="#666666"
     borderopacity="1"
     objecttolerance="10"
     gridtolerance="10"
     guidetolerance="10"
     inkscape:pageopacity="0"
     inkscape:pageshadow="2"
     inkscape:window-width="1920"
     inkscape:window-height="1017"
     id="namedview6"
     showgrid="false"
     inkscape:zoom="0.25953079"
     inkscape:cx="-186.87571"
     inkscape:cy="454.66667"
     inkscape:window-x="1912"
     inkscape:window-y="-8"
     inkscape:window-maximized="1"
     inkscape:current-layer="svg4" />
  <path
     d="m 175.33505,525.45322 c 51.18555,-12.06444 98.7299,-32.68286 141.30193,-61.28753 42.57797,-28.59749 78.05269,-63.74971 105.44111,-104.46976 24.49749,-36.42284 41.5406,-75.9415 50.8411,-117.71498 L 637.4117,263.41462 477.29348,70.606287 262.91735,214.61733 428.31789,236.16932 C 389.48226,404.16537 210.82297,518.44528 19.514017,493.51737 l -6.44751,40.02713 c 54.662683,7.12264 109.262983,4.40053 162.268543,-8.09128 z m 201.48049,-336.86519 91.3596,-61.37366 68.23441,82.16906 z m 0,0"
     id="path2"
     style="fill:#1877f2;stroke-width:0.85346973;fill-opacity:1"
     inkscape:connector-curvature="0" />
  <path
     style="opacity:1;fill:#1877f2;fill-opacity:1;stroke:#1877f2;stroke-width:115.59322357;stroke-linecap:square;stroke-miterlimit:4;stroke-dasharray:none;stroke-dashoffset:0.17640001;stroke-opacity:1"
     d="m 635.3774,293.00573 c -50.86102,-6.99666 -94.19817,-12.84471 -96.30478,-12.99566 -3.09993,-0.22214 47.7418,-35.4291 102.55615,-71.01824 l 10.10448,-6.5605 37.71975,45.39507 c 20.74586,24.96729 40.30868,48.42939 43.47293,52.13801 6.97162,8.17098 18.31757,8.98035 -97.54853,-6.95868 z"
     id="path817"
     inkscape:connector-curvature="0"
     transform="matrix(0.75073318,0,0,0.75073318,-21,-22.333345)" />
</svg>
