<?xml version="1.0" encoding="UTF-8" standalone="no"?>
<svg
   xmlns:dc="http://purl.org/dc/elements/1.1/"
   xmlns:cc="http://creativecommons.org/ns#"
   xmlns:rdf="http://www.w3.org/1999/02/22-rdf-syntax-ns#"
   xmlns:svg="http://www.w3.org/2000/svg"
   xmlns="http://www.w3.org/2000/svg"
   xmlns:sodipodi="http://sodipodi.sourceforge.net/DTD/sodipodi-0.dtd"
   xmlns:inkscape="http://www.inkscape.org/namespaces/inkscape"
   height="50pt"
   viewBox="-21 -22 50.048878 50"
   width="50pt"
   version="1.1"
   id="svg4"
   sodipodi:docname="try-me-arrow.svg"
   inkscape:version="0.92.4 (5da689c313, 2019-01-14)">
  <metadata
     id="metadata10">
    <rdf:RDF>
      <cc:Work
         rdf:about="">
        <dc:format>image/svg+xml</dc:format>
        <dc:type
           rdf:resource="http://purl.org/dc/dcmitype/StillImage" />
        <dc:title></dc:title>
      </cc:Work>
    </rdf:RDF>
  </metadata>
  <defs
     id="defs8" />
  <sodipodi:namedview
     pagecolor="#ffffff"
     bordercolor="#666666"
     borderopacity="1"
     objecttolerance="10"
     gridtolerance="10"
     guidetolerance="10"
     inkscape:pageopacity="0"
     inkscape:pageshadow="2"
     inkscape:window-width="1920"
     inkscape:window-height="1017"
     id="namedview6"
     showgrid="false"
     inkscape:zoom="1.4681279"
     inkscape:cx="84.625399"
     inkscape:cy="112.25598"
     inkscape:window-x="1912"
     inkscape:window-y="-8"
     inkscape:window-maximized="1"
     inkscape:current-layer="svg4" />
  <path
     d="m -7.3476839,17.919612 c 3.883813,-0.915415 7.49134197,-2.479879 10.7215853,-4.650324 3.2306944,-2.169891 5.9224147,-4.8371453 8.0005696,-7.9268623 1.858799,-2.763661 3.151981,-5.76222388 3.857676,-8.9318768 L 27.713367,-1.9631276 15.564056,-16.592868 -0.70218993,-5.6657241 11.847928,-4.0304229 C 8.9011925,8.7166397 -4.6549619,17.387869 -19.170937,15.496412 l -0.489218,3.037142 c 4.147648,0.540446 8.290562,0.3339 12.3124711,-0.613942 z m 15.2877618,-25.560365 6.9321051,-4.656855 5.177431,6.2347497 z m 0,0"
     id="path2"
     style="fill:#1877f2;fill-opacity:1;stroke-width:0.06475883"
     inkscape:connector-curvature="0" />
  <path
     style="opacity:1;fill:#1877f2;fill-opacity:1;stroke:#1877f2;stroke-width:6.58459234;stroke-linecap:square;stroke-miterlimit:4;stroke-dasharray:none;stroke-dashoffset:0.17640001;stroke-opacity:1"
     d="M 13.948284,-6.9542366 C 11.051063,-7.352789 8.582428,-7.6859126 8.4624284,-7.6945119 8.2858456,-7.7071914 11.181968,-9.7126813 14.304384,-11.739961 l 0.575587,-0.37371 2.148647,2.5858647 c 1.181757,1.4222247 2.296123,2.7587031 2.476369,2.9699588 0.397129,0.4654476 1.043433,0.5115567 -5.556703,-0.3963891 z"
     id="path817"
     inkscape:connector-curvature="0" />
</svg>
