<?xml version="1.0" encoding="UTF-8" standalone="no"?>
<svg
   xmlns:dc="http://purl.org/dc/elements/1.1/"
   xmlns:cc="http://creativecommons.org/ns#"
   xmlns:rdf="http://www.w3.org/1999/02/22-rdf-syntax-ns#"
   xmlns:svg="http://www.w3.org/2000/svg"
   xmlns="http://www.w3.org/2000/svg"
   xmlns:sodipodi="http://sodipodi.sourceforge.net/DTD/sodipodi-0.dtd"
   xmlns:inkscape="http://www.inkscape.org/namespaces/inkscape"
   version="1.1"
   id="Capa_1"
   x="0px"
   y="0px"
   viewBox="0 0 40.9375 40.9375"
   xml:space="preserve"
   width="50"
   height="50"
   sodipodi:docname="upload.svg"
   inkscape:version="0.92.4 (5da689c313, 2019-01-14)"><metadata
   id="metadata21"><rdf:RDF><cc:Work
       rdf:about=""><dc:format>image/svg+xml</dc:format><dc:type
         rdf:resource="http://purl.org/dc/dcmitype/StillImage" /><dc:title></dc:title></cc:Work></rdf:RDF></metadata><defs
   id="defs19" /><sodipodi:namedview
   pagecolor="#ffffff"
   bordercolor="#666666"
   borderopacity="1"
   objecttolerance="10"
   gridtolerance="10"
   guidetolerance="10"
   inkscape:pageopacity="0"
   inkscape:pageshadow="2"
   inkscape:window-width="1920"
   inkscape:window-height="1017"
   id="namedview17"
   showgrid="false"
   inkscape:zoom="3.6875"
   inkscape:cx="84.408423"
   inkscape:cy="25.569418"
   inkscape:window-x="-8"
   inkscape:window-y="-8"
   inkscape:window-maximized="1"
   inkscape:current-layer="Capa_1" /><g
   id="g14"
   transform="matrix(0.09559468,0,0,0.09559468,0.6661017,0.02966857)"><g
     id="g12">
	<g
   id="g10">
		<g
   id="g8">
			<circle
   cx="158"
   cy="144.39999"
   r="28.799999"
   data-original="#000000"
   class="active-path"
   data-old_color="#000000"
   id="circle2"
   style="fill:#778899" />
			<path
   d="M 394.4,250.4 C 380.8,237.6 363.6,229.2 344.8,226.8 V 80.4 c 0,-15.6 -6.4,-29.6 -16.4,-40 C 318,30 304,24 288.4,24 H 56.4 C 40.8,24 26.8,30.4 16.4,40.4 6,50.8 0,64.8 0,80.4 v 184.4 17.2 37.2 c 0,15.6 6.4,29.6 16.4,40 10.4,10.4 24.4,16.4 40,16.4 h 224.4 c 14.8,12 33.2,19.6 53.6,19.6 23.6,0 44.8,-9.6 60,-24.8 15.2,-15.2 24.8,-36.4 24.8,-60 0,-23.6 -9.6,-44.8 -24.8,-60 z M 21.2,80.4 C 21.2,70.8 25.2,62 31.6,56 38,49.6 46.8,45.6 56.4,45.6 h 232 c 9.6,0 18.4,4 24.8,10.4 6.4,6.4 10.4,15.2 10.4,24.8 v 124.8 l -59.2,-59.2 c -4,-4 -10.8,-4.4 -15.2,0 L 160,236 99.6,175.2 c -4,-4 -10.8,-4.4 -15.2,0 l -63.2,64 V 80.4 Z M 56,355.2 v -0.8 c -9.6,0 -18.4,-4 -24.8,-10.4 -6,-6.4 -10,-15.2 -10,-24.8 V 282 269.6 l 70.8,-71.2 60.4,60.4 c 4,4 10.8,4 15.2,0 l 89.2,-89.6 58.4,58.8 c -1.2,0.4 -2.4,0.8 -3.6,1.2 -1.6,0.4 -3.2,0.8 -5.2,1.6 -1.6,0.4 -3.2,1.2 -4.8,1.6 -1.2,0.4 -2,0.8 -3.2,1.6 -1.6,0.8 -2.8,1.2 -4,2 -2,1.2 -4,2.4 -6,3.6 -1.2,0.8 -2,1.2 -3.2,2 -0.8,0.4 -1.2,0.8 -2,1.2 -3.6,2.4 -6.8,5.2 -9.6,8.4 -15.2,15.2 -24.8,36.4 -24.8,60 0,6 0.8,11.6 2,17.6 0.4,1.6 0.8,2.8 1.2,4.4 1.2,4 2.4,8 4,12 v 0.4 c 1.6,3.2 3.2,6.8 5.2,9.6 H 56 Z m 322.8,0 c -11.6,11.6 -27.2,18.4 -44.8,18.4 -16.8,0 -32.4,-6.8 -43.6,-17.6 -1.6,-1.6 -3.2,-3.6 -4.8,-5.2 -1.2,-1.2 -2.4,-2.8 -3.6,-4 -1.6,-2 -2.8,-4.4 -4,-6.8 -0.8,-1.6 -1.6,-2.8 -2.4,-4.4 -0.8,-2 -1.6,-4.4 -2,-6.8 -0.4,-1.6 -1.2,-3.6 -1.6,-5.2 -0.8,-4 -1.2,-8.4 -1.2,-12.8 0,-17.6 7.2,-33.2 18.4,-44.8 11.2,-11.6 27.2,-18.4 44.8,-18.4 17.6,0 33.2,7.2 44.8,18.4 11.6,11.6 18.4,27.2 18.4,44.8 0,17.2 -7.2,32.8 -18.4,44.4 z"
   data-original="#000000"
   class="active-path"
   data-old_color="#000000"
   id="path4"
   inkscape:connector-curvature="0"
   style="fill:#778899" />
			<path
   d="m 341.6,267.6 c -0.8,-0.8 -2,-1.6 -3.6,-2.4 -1.2,-0.4 -2.4,-0.8 -3.6,-0.8 -0.4,0 -0.4,0 -0.4,0 -0.4,0 -0.4,0 -0.4,0 -1.2,0 -2.4,0.4 -3.6,0.8 -1.2,0.4 -2.4,1.2 -3.6,2.4 l -24.8,24.8 c -4,4 -4,10.8 0,15.2 4,4 10.8,4 15.2,0 l 6.4,-6.4 v 44 c 0,6 4.8,10.8 10.8,10.8 6,0 10.8,-4.8 10.8,-10.8 v -44 l 6.4,6.4 c 4,4 10.8,4 15.2,0 4,-4 4,-10.8 0,-15.2 z"
   data-original="#000000"
   class="active-path"
   data-old_color="#000000"
   id="path6"
   inkscape:connector-curvature="0"
   style="fill:#778899" />
		</g>
	</g>
</g></g> </svg>