<?xml version="1.0" encoding="UTF-8" standalone="no"?>
<!-- Generator: Adobe Illustrator 19.0.0, SVG Export Plug-In . SVG Version: 6.00 Build 0)  -->

<svg
   xmlns:dc="http://purl.org/dc/elements/1.1/"
   xmlns:cc="http://creativecommons.org/ns#"
   xmlns:rdf="http://www.w3.org/1999/02/22-rdf-syntax-ns#"
   xmlns:svg="http://www.w3.org/2000/svg"
   xmlns="http://www.w3.org/2000/svg"
   xmlns:sodipodi="http://sodipodi.sourceforge.net/DTD/sodipodi-0.dtd"
   xmlns:inkscape="http://www.inkscape.org/namespaces/inkscape"
   version="1.1"
   id="Layer_1"
   x="0px"
   y="0px"
   viewBox="0 0 50 50"
   xml:space="preserve"
   sodipodi:docname="username.svg"
   inkscape:version="0.92.4 (5da689c313, 2019-01-14)"
   width="50"
   height="50"><metadata
   id="metadata102"><rdf:RDF><cc:Work
       rdf:about=""><dc:format>image/svg+xml</dc:format><dc:type
         rdf:resource="http://purl.org/dc/dcmitype/StillImage" /><dc:title></dc:title></cc:Work></rdf:RDF></metadata><defs
   id="defs100" /><sodipodi:namedview
   pagecolor="#ffffff"
   bordercolor="#666666"
   borderopacity="1"
   objecttolerance="10"
   gridtolerance="10"
   guidetolerance="10"
   inkscape:pageopacity="0"
   inkscape:pageshadow="2"
   inkscape:window-width="1920"
   inkscape:window-height="1017"
   id="namedview98"
   showgrid="false"
   inkscape:zoom="7.9673373"
   inkscape:cx="76.863324"
   inkscape:cy="12.21841"
   inkscape:window-x="1912"
   inkscape:window-y="-8"
   inkscape:window-maximized="1"
   inkscape:current-layer="Layer_1" />
<circle
   style="fill:#00ab66;fill-opacity:1;stroke-width:0.10593031"
   cx="25.101986"
   cy="24.897007"
   r="25.101986"
   id="circle2" />
<path
   style="fill:#e9e4b1;stroke-width:0.10593031"
   d="M 38.765301,17.22098 H 11.229142 c -2.0357687,0 -3.3160424,1.280697 -3.3160424,3.315195 v 14.658529 c 0,2.035345 1.2802737,3.316466 3.3160424,3.316466 h 27.536159 c 2.035768,0 3.316783,-1.281015 3.316783,-3.316466 V 20.536175 c 0,-2.03418 -1.281439,-3.315195 -3.316783,-3.315195 z m -12.976357,3.309263 c 0.002,-7.42e-4 0.0087,-0.0023 0.0087,-0.0023 -0.0091,0.0071 -0.02066,0.01229 -0.03008,0.01907 -0.02182,0.01589 -0.04523,0.02892 -0.0678,0.04279 -0.04046,0.02532 -0.08125,0.04841 -0.12521,0.06854 -0.02415,0.01112 -0.04873,0.02256 -0.07415,0.0321 -0.04756,0.01938 -0.09629,0.03326 -0.145866,0.04555 -0.02415,0.0064 -0.04555,0.01303 -0.06938,0.01663 -0.07489,0.01504 -0.151375,0.02383 -0.229128,0.02383 -0.680178,0 -1.230698,-0.550944 -1.230698,-1.230699 0,-0.679754 0.550944,-1.231122 1.230698,-1.231122 0.679755,0 1.230699,0.551368 1.230699,1.231122 4.23e-4,0.403807 -0.196925,0.758991 -0.497767,0.984517 z"
   id="path4"
   inkscape:connector-curvature="0" />
<g
   id="g12"
   transform="matrix(0.1059303,0,0,0.1059303,0,-0.20497881)">
	<path
   style="fill:#ffffff"
   d="m 239.355,197.69 c -0.224,0.06 -0.43,0.123 -0.655,0.157 0.221,-0.034 0.426,-0.101 0.655,-0.157 z"
   id="path6"
   inkscape:connector-curvature="0" />
	<path
   style="fill:#ffffff"
   d="m 243.254,195.901 c -0.206,0.15 -0.427,0.273 -0.64,0.404 0.209,-0.131 0.434,-0.254 0.64,-0.404 z"
   id="path8"
   inkscape:connector-curvature="0" />
	<path
   style="fill:#ffffff"
   d="m 241.428,196.956 c -0.228,0.105 -0.46,0.221 -0.7,0.303 0.239,-0.089 0.475,-0.198 0.7,-0.303 z"
   id="path10"
   inkscape:connector-curvature="0" />
</g>
<path
   style="fill:#58595a;stroke-width:0.10593031"
   d="m 25.056436,20.776425 c 0.07765,0 0.154235,-0.0087 0.229127,-0.02383 0.02373,-0.0036 0.04555,-0.01028 0.06939,-0.01663 0.04958,-0.01229 0.0983,-0.02691 0.145866,-0.04555 0.025,-0.0087 0.04989,-0.02097 0.07415,-0.0321 0.04396,-0.02023 0.08517,-0.0428 0.12521,-0.06854 0.02256,-0.0143 0.04597,-0.02691 0.06779,-0.04279 0.0075,-0.0052 0.01388,-0.01229 0.0214,-0.01663 -0.04799,0.0095 -0.707085,0.145443 -1.206546,-0.143535 -0.538232,-0.312706 -0.757084,-0.841087 -0.757084,-0.841087 -4.24e-4,0.679755 0.55052,1.230699 1.230698,1.230699 z"
   id="path14"
   inkscape:connector-curvature="0" />
<g
   id="g24"
   transform="matrix(0.1059303,0,0,0.1059303,0,-0.20497881)">
	<path
   style="fill:#ffffff"
   d="m 238.7,197.847 c -0.707,0.142 -1.429,0.225 -2.163,0.225 0.734,-0.004 1.452,-0.087 2.163,-0.225 z"
   id="path16"
   inkscape:connector-curvature="0" />
	<path
   style="fill:#ffffff"
   d="m 243.538,195.722 c 0,0 -0.067,0.015 -0.082,0.022 -0.071,0.041 -0.131,0.109 -0.202,0.157 0.089,-0.063 0.194,-0.112 0.284,-0.179 z"
   id="path18"
   inkscape:connector-curvature="0" />
	<path
   style="fill:#ffffff"
   d="m 240.732,197.26 c -0.449,0.176 -0.909,0.314 -1.377,0.43 0.467,-0.116 0.928,-0.251 1.377,-0.43 z"
   id="path20"
   inkscape:connector-curvature="0" />
	<path
   style="fill:#ffffff"
   d="m 242.614,196.309 c -0.382,0.239 -0.767,0.457 -1.182,0.647 0.415,-0.194 0.8,-0.407 1.182,-0.647 z"
   id="path22"
   inkscape:connector-curvature="0" />
</g>
<g
   id="g28"
   transform="matrix(0.1059303,0,0,0.1059303,0,-0.20497881)">
	<path
   style="fill:#90b9c0"
   d="m 377.303,335.668 c 0,5.882 -4.76,10.634 -10.638,10.634 h -76.647 c -5.867,0 -10.634,-4.756 -10.634,-10.634 v -94.922 c 0,-5.871 4.763,-10.634 10.634,-10.634 h 76.647 c 5.875,0 10.638,4.763 10.638,10.634 z"
   id="path26"
   inkscape:connector-curvature="0" />
</g>
<g
   id="g32"
   transform="matrix(0.1059303,0,0,0.1059303,0,-0.20497881)">
	<path
   style="fill:#ffffff"
   d="m 336.192,312.469 v -6.279 c 9.212,-3.985 15.364,-14.425 16.479,-27.24 1.661,-0.726 2.919,-3.214 2.919,-6.316 0,-3.54 -1.62,-6.376 -3.652,-6.556 -2.821,-12.49 -11.79,-18.926 -24.034,-18.926 -12.239,0 -21.324,6.436 -24.191,18.926 -2.032,0.165 -3.659,3.02 -3.659,6.556 0,3.102 1.25,5.583 2.919,6.316 1.115,12.741 7.296,23.147 16.456,27.18 v 6.346 c -28.314,0.412 -33.676,3.656 -33.676,24.374 v 15.517 H 370.22 V 336.85 c 0.011,-20.8 -5.512,-23.984 -34.028,-24.381 z"
   id="path30"
   inkscape:connector-curvature="0" />
</g>
<g
   id="g42"
   transform="matrix(0.1059303,0,0,0.1059303,0,-0.20497881)">
	<rect
   x="102.282"
   y="232.664"
   style="fill:#5b4f3f"
   width="146.45399"
   height="16.655001"
   id="rect34" />
	<rect
   x="102.282"
   y="256.91101"
   style="fill:#5b4f3f"
   width="146.45399"
   height="7.1059999"
   id="rect36" />
	<rect
   x="184.80701"
   y="278.539"
   style="fill:#5b4f3f"
   width="63.946999"
   height="11.547"
   id="rect38" />
	<rect
   x="102.282"
   y="278.539"
   style="fill:#5b4f3f"
   width="63.946999"
   height="11.547"
   id="rect40" />
</g>
<g
   id="g45"
   transform="matrix(0.1059303,0,0,0.1059303,0,-0.20497881)">
	<path
   id="SVGCleanerId_0"
   style="fill:#58595a"
   d="m 257.151,164.459 c 1.482,-2.93 2.327,-6.23 2.327,-9.725 0,-4.561 -9.242,-8 -21.493,-8 -12.258,0 -21.5,3.439 -21.5,8 0,11.85 9.643,21.497 21.497,21.497 1.138,0 2.26,-0.09 3.353,-0.262 0,0 1.291,0.456 2.769,1.71 1.063,0.913 2.219,2.544 2.219,2.544 -2.63,0.834 -5.437,1.291 -8.34,1.291 -15.218,0 -27.599,-12.385 -27.599,-27.603 0,-8.602 13.863,-12.453 27.603,-12.453 13.74,0 27.596,3.847 27.596,12.453 0,3.738 -0.745,7.296 -2.099,10.552 z"
   inkscape:connector-curvature="0" />
</g>
<g
   id="g48"
   transform="matrix(0.1059303,0,0,0.1059303,0,-0.20497881)">
	<path
   id="SVGCleanerId_0_1_"
   style="fill:#58595a"
   d="m 257.151,164.459 c 1.482,-2.93 2.327,-6.23 2.327,-9.725 0,-4.561 -9.242,-8 -21.493,-8 -12.258,0 -21.5,3.439 -21.5,8 0,11.85 9.643,21.497 21.497,21.497 1.138,0 2.26,-0.09 3.353,-0.262 0,0 1.291,0.456 2.769,1.71 1.063,0.913 2.219,2.544 2.219,2.544 -2.63,0.834 -5.437,1.291 -8.34,1.291 -15.218,0 -27.599,-12.385 -27.599,-27.603 0,-8.602 13.863,-12.453 27.603,-12.453 13.74,0 27.596,3.847 27.596,12.453 0,3.738 -0.745,7.296 -2.099,10.552 z"
   inkscape:connector-curvature="0" />
</g>
<g
   id="g51"
   transform="matrix(0.1059303,0,0,0.1059303,0,-0.20497881)">
	<path
   id="SVGCleanerId_0_2_"
   style="fill:#58595a"
   d="m 257.151,164.459 c 1.482,-2.93 2.327,-6.23 2.327,-9.725 0,-4.561 -9.242,-8 -21.493,-8 -12.258,0 -21.5,3.439 -21.5,8 0,11.85 9.643,21.497 21.497,21.497 1.138,0 2.26,-0.09 3.353,-0.262 0,0 1.291,0.456 2.769,1.71 1.063,0.913 2.219,2.544 2.219,2.544 -2.63,0.834 -5.437,1.291 -8.34,1.291 -15.218,0 -27.599,-12.385 -27.599,-27.603 0,-8.602 13.863,-12.453 27.603,-12.453 13.74,0 27.596,3.847 27.596,12.453 0,3.738 -0.745,7.296 -2.099,10.552 z"
   inkscape:connector-curvature="0" />
</g>
<path
   style="fill:#ce2f2e;stroke-width:0.10593031"
   d="m 27.610204,15.268049 c 0,0.314295 -0.48908,0.569587 -1.092036,0.569587 h -2.570504 c -0.60285,0 -1.092036,-0.254868 -1.092036,-0.569587 v 0 c 0,-0.314719 0.488763,-0.569587 1.092036,-0.569587 h 2.570504 c 0.602956,0 1.092036,0.254868 1.092036,0.569587 z"
   id="path53"
   inkscape:connector-curvature="0" />
<path
   style="fill:#ad2728;stroke-width:0.10593031"
   d="m 25.340223,10.683703 c 0.32902,1.608446 0.808567,3.251425 1.500291,4.830528 h 0.07574 C 29.831986,8.2979407 29.778385,2.456626 29.608791,0.20444181 28.357436,-0.02267276 27.073985,-0.15625087 25.765957,-0.19036043 25.951441,1.3971111 26.321244,5.8876026 25.340223,10.683703 Z"
   id="path55"
   inkscape:connector-curvature="0" />
<g
   id="g61"
   transform="matrix(0.1059303,0,0,0.1059303,0,-0.20497881)">
	<path
   style="fill:#ce2f2e"
   d="m 224.331,148.392 h 0.718 c 6.529,-14.907 11.057,-30.417 14.166,-45.601 -9.287,-45.403 -5.751,-87.891 -4.007,-102.772 -12.325,0.09 -24.423,1.119 -36.235,3.023 -1.642,20.636 -2.525,76.329 25.358,145.35 z"
   id="path57"
   inkscape:connector-curvature="0" />
	<path
   style="fill:#ce2f2e"
   d="m 225.05,148.392 h 28.329 c -6.529,-14.907 -11.057,-30.417 -14.163,-45.601 -3.109,15.184 -7.637,30.69 -14.166,45.601 z"
   id="path59"
   inkscape:connector-curvature="0" />
</g>
<path
   style="opacity:0.25;fill:#efefef;stroke-width:0.10593031;enable-background:new"
   d="m 11.197045,17.22098 c -2.0357686,0 -3.3160423,1.280697 -3.3160423,3.315195 v 14.658529 c 0,2.035345 1.2802737,3.316466 3.3160423,3.316466 H 34.052038 L 12.762271,17.22098 Z"
   id="path63"
   inkscape:connector-curvature="0" />
<path
   style="fill:#d7d7d7;stroke-width:0.10593031"
   d="m 25.76797,20.546874 c 0.0095,-0.0071 0.02097,-0.01229 0.03008,-0.01907 0,0 -0.0071,0.0016 -0.0087,0.0023 -0.0075,0.0049 -0.0143,0.01165 -0.0214,0.01674 z"
   id="path65"
   inkscape:connector-curvature="0" />
<g
   id="g67"
   transform="matrix(0.1059303,0,0,0.1059303,0,-0.20497881)">
</g>
<g
   id="g69"
   transform="matrix(0.1059303,0,0,0.1059303,0,-0.20497881)">
</g>
<g
   id="g71"
   transform="matrix(0.1059303,0,0,0.1059303,0,-0.20497881)">
</g>
<g
   id="g73"
   transform="matrix(0.1059303,0,0,0.1059303,0,-0.20497881)">
</g>
<g
   id="g75"
   transform="matrix(0.1059303,0,0,0.1059303,0,-0.20497881)">
</g>
<g
   id="g77"
   transform="matrix(0.1059303,0,0,0.1059303,0,-0.20497881)">
</g>
<g
   id="g79"
   transform="matrix(0.1059303,0,0,0.1059303,0,-0.20497881)">
</g>
<g
   id="g81"
   transform="matrix(0.1059303,0,0,0.1059303,0,-0.20497881)">
</g>
<g
   id="g83"
   transform="matrix(0.1059303,0,0,0.1059303,0,-0.20497881)">
</g>
<g
   id="g85"
   transform="matrix(0.1059303,0,0,0.1059303,0,-0.20497881)">
</g>
<g
   id="g87"
   transform="matrix(0.1059303,0,0,0.1059303,0,-0.20497881)">
</g>
<g
   id="g89"
   transform="matrix(0.1059303,0,0,0.1059303,0,-0.20497881)">
</g>
<g
   id="g91"
   transform="matrix(0.1059303,0,0,0.1059303,0,-0.20497881)">
</g>
<g
   id="g93"
   transform="matrix(0.1059303,0,0,0.1059303,0,-0.20497881)">
</g>
<g
   id="g95"
   transform="matrix(0.1059303,0,0,0.1059303,0,-0.20497881)">
</g>
</svg>