<?xml version="1.0" encoding="UTF-8" standalone="no"?>
<!-- Generator: Adobe Illustrator 19.0.0, SVG Export Plug-In . SVG Version: 6.00 Build 0)  -->

<svg
   xmlns:dc="http://purl.org/dc/elements/1.1/"
   xmlns:cc="http://creativecommons.org/ns#"
   xmlns:rdf="http://www.w3.org/1999/02/22-rdf-syntax-ns#"
   xmlns:svg="http://www.w3.org/2000/svg"
   xmlns="http://www.w3.org/2000/svg"
   xmlns:sodipodi="http://sodipodi.sourceforge.net/DTD/sodipodi-0.dtd"
   xmlns:inkscape="http://www.inkscape.org/namespaces/inkscape"
   version="1.1"
   id="Capa_1"
   x="0px"
   y="0px"
   viewBox="0 0 50 50"
   xml:space="preserve"
   sodipodi:docname="View notes-grey.svg"
   inkscape:version="0.92.4 (5da689c313, 2019-01-14)"
   width="50"
   height="50"><metadata
   id="metadata87"><rdf:RDF><cc:Work
       rdf:about=""><dc:format>image/svg+xml</dc:format><dc:type
         rdf:resource="http://purl.org/dc/dcmitype/StillImage" /><dc:title></dc:title></cc:Work></rdf:RDF></metadata><defs
   id="defs85" /><sodipodi:namedview
   pagecolor="#ffffff"
   bordercolor="#666666"
   borderopacity="1"
   objecttolerance="10"
   gridtolerance="10"
   guidetolerance="10"
   inkscape:pageopacity="0"
   inkscape:pageshadow="2"
   inkscape:window-width="1920"
   inkscape:window-height="1017"
   id="namedview83"
   showgrid="false"
   inkscape:zoom="5.2149125"
   inkscape:cx="73.058539"
   inkscape:cy="5.2906284"
   inkscape:window-x="1912"
   inkscape:window-y="-8"
   inkscape:window-maximized="1"
   inkscape:current-layer="Capa_1" />
<linearGradient
   id="SVGID_1_"
   gradientUnits="userSpaceOnUse"
   x1="338.7359"
   y1="219.6922"
   x2="662.64587"
   y2="-18.3279"
   gradientTransform="matrix(1.0039,0,0,-1.0039,0.1922,516.5606)">
	<stop
   offset="0"
   style="stop-color:#B8DE6F"
   id="stop2" />
	<stop
   offset="1"
   style="stop-color:#8AA753"
   id="stop4" />
</linearGradient>
<path
   style="fill:#5a5a5a;fill-opacity:1;stroke-width:0.09411941"
   d="m 42.672434,2.5683031 5.492243,35.9204789 c 0.177603,1.16181 -0.621094,2.24889 -1.782904,2.426587 l -35.92048,5.492243 C 9.2994835,46.585215 8.2124046,45.786518 8.0347072,44.624709 L 2.5424638,8.7042289 C 2.3648605,7.5424191 3.1635577,6.4553401 4.3253675,6.2776426 L 40.245848,0.7853993 c 1.161809,-0.1776033 2.248888,0.6210939 2.426586,1.7829038 z"
   id="path7"
   inkscape:connector-curvature="0" />
<linearGradient
   id="SVGID_2_"
   gradientUnits="userSpaceOnUse"
   x1="322.32361"
   y1="198.6866"
   x2="627.27362"
   y2="-63.1735"
   gradientTransform="matrix(1.0039,0,0,-1.0039,0.1922,516.5606)">
	<stop
   offset="0"
   style="stop-color:#FE7695"
   id="stop9" />
	<stop
   offset="1"
   style="stop-color:#FE547B"
   id="stop11" />
</linearGradient>
<path
   style="fill:#787878;fill-opacity:1;stroke-width:0.09411941"
   d="M 43.055593,5.4348034 45.809621,41.66823 c 0.08913,1.171975 -0.789756,2.195335 -1.961636,2.284466 L 7.6145581,46.706724 C 6.4425834,46.795855 5.4192232,45.916968 5.3300921,44.745087 L 2.5760644,8.5116606 C 2.4869334,7.3396859 3.3658204,6.3163257 4.5377009,6.2271946 L 40.771128,3.4731669 c 1.171974,-0.089131 2.195429,0.7896617 2.284465,1.9616365 z"
   id="path14"
   inkscape:connector-curvature="0" />
<linearGradient
   id="SVGID_3_"
   gradientUnits="userSpaceOnUse"
   x1="304.36899"
   y1="178.97279"
   x2="588.59888"
   y2="-105.2572"
   gradientTransform="matrix(1.0039,0,0,-1.0039,0.1922,516.5606)">
	<stop
   offset="0"
   style="stop-color:#67DCDC"
   id="stop16" />
	<stop
   offset="1"
   style="stop-color:#019394"
   id="stop18" />
</linearGradient>
<path
   style="fill:#5a5a5a;fill-opacity:1;stroke-width:0.09411941"
   d="M 43.220491,8.3221041 V 44.660003 c 0,1.175364 -0.9539,2.12917 -2.129169,2.12917 H 4.7534226 c -1.175363,0 -2.129169,-0.9539 -2.129169,-2.12917 V 8.3221041 c 0,-1.175363 0.9539001,-2.1291689 2.129169,-2.1291689 H 41.091322 c 1.175363,-9.41e-5 2.129169,0.9539 2.129169,2.1291689 z"
   id="path21"
   inkscape:connector-curvature="0" />
<linearGradient
   id="SVGID_4_"
   gradientUnits="userSpaceOnUse"
   x1="228.51511"
   y1="284.54291"
   x2="228.51511"
   y2="-203.45711"
   gradientTransform="matrix(1.0039,0,0,-1.0039,0.1922,516.5606)">
	<stop
   offset="0"
   style="stop-color:#FCC344"
   id="stop23" />
	<stop
   offset="1"
   style="stop-color:#F7AE3D"
   id="stop25" />
</linearGradient>
<path
   style="fill:#787878;fill-opacity:1;stroke-width:0.09411941"
   d="M 29.640474,48.698102 1.9697473,46.616275 C 0.79711373,46.527991 -0.08186732,45.505949 0.00632256,44.333315 L 2.7323967,8.0978177 C 2.8206808,6.9251841 3.8427233,6.046203 5.0153569,6.1343929 L 41.250948,8.8604671 c 1.172634,0.088284 2.051615,1.1103265 1.963519,2.2829599 l -2.123616,28.226501 c -0.02447,0.324901 -0.175721,0.627118 -0.42109,0.841428 l -8.914612,7.782827 c -0.582412,0.508244 -1.344026,0.761803 -2.114675,0.703919 z"
   id="path28"
   inkscape:connector-curvature="0" />
<g
   id="g36"
   style="fill:#5a5a5a;fill-opacity:1"
   transform="matrix(0.0941194,0,0,0.0941194,2.0479761e-4,0.6388554)">
	
		<rect
   x="74.863998"
   y="201.70599"
   transform="matrix(-0.9971,-0.0756,0.0756,-0.9971,467.3999,446.2027)"
   style="fill:#5a5a5a;fill-opacity:1"
   width="334.564"
   height="25.096001"
   id="rect30" />
	
		<rect
   x="70.035004"
   y="265.40601"
   transform="matrix(-0.9971,-0.0756,0.0756,-0.9971,452.9404,573.0537)"
   style="fill:#5a5a5a;fill-opacity:1"
   width="334.564"
   height="25.096001"
   id="rect32" />
	
		<rect
   x="65.322998"
   y="325.80801"
   transform="matrix(-0.9971,-0.0756,0.0756,-0.9971,352.1519,690.0431)"
   style="fill:#5a5a5a;fill-opacity:1"
   width="247.62801"
   height="25.096001"
   id="rect34" />
</g>
<linearGradient
   id="SVGID_5_"
   gradientUnits="userSpaceOnUse"
   x1="184.4758"
   y1="54.442902"
   x2="184.4758"
   y2="7.3929"
   gradientTransform="matrix(1.0039,0,0,-1.0039,0.1922,516.5606)">
	<stop
   offset="0"
   style="stop-color:#FCC344;stop-opacity:0"
   id="stop38" />
	<stop
   offset="1"
   style="stop-color:#D48000"
   id="stop40" />
</linearGradient>
<path
   style="fill:#6e6e6e;fill-opacity:1;stroke-width:0.09411941"
   d="M 31.754866,47.994183 34.897889,45.250132 0.1341367,42.634836 0.00641668,44.333409 c -0.08546042,1.135362 0.73742548,2.130675 1.85443452,2.271854 0.035954,0.0046 0.072378,0.0082 0.1090843,0.01092 l 27.6706325,2.081733 c 0.770555,0.05807 1.532169,-0.195487 2.114298,-0.703731 z"
   id="path43"
   inkscape:connector-curvature="0" />
<linearGradient
   id="SVGID_6_"
   gradientUnits="userSpaceOnUse"
   x1="356.8396"
   y1="71.394699"
   x2="424.26959"
   y2="-7.0051999"
   gradientTransform="matrix(1.0039,0,0,-1.0039,0.1922,516.5606)">
	<stop
   offset="0"
   style="stop-color:#FCC344"
   id="stop45" />
	<stop
   offset="1"
   style="stop-color:#D48000"
   id="stop47" />
</linearGradient>
<path
   style="fill:#6e6e6e;fill-opacity:1;stroke-width:0.09411941"
   d="m 40.943931,39.868856 c 0,0 -0.07605,0.172991 -0.341654,0.401419 -0.09864,0.08489 -8.794893,7.67826 -8.794893,7.67826 -0.615729,0.537516 -1.421202,0.805568 -2.236276,0.744296 v 0 0 c 0.703542,0.0529 1.316824,-0.47455 1.369719,-1.178093 l 0.468527,-6.227974 c 0.08828,-1.172633 1.110326,-2.051614 2.28296,-1.963425 z"
   id="path50"
   inkscape:connector-curvature="0" />
<g
   id="g52"
   transform="matrix(0.09713084,0,0,0.09713084,2.0411682e-4,-0.89910484)">
</g>
<g
   id="g54"
   transform="matrix(0.09713084,0,0,0.09713084,2.0411682e-4,-0.89910484)">
</g>
<g
   id="g56"
   transform="matrix(0.09713084,0,0,0.09713084,2.0411682e-4,-0.89910484)">
</g>
<g
   id="g58"
   transform="matrix(0.09713084,0,0,0.09713084,2.0411682e-4,-0.89910484)">
</g>
<g
   id="g60"
   transform="matrix(0.09713084,0,0,0.09713084,2.0411682e-4,-0.89910484)">
</g>
<g
   id="g62"
   transform="matrix(0.09713084,0,0,0.09713084,2.0411682e-4,-0.89910484)">
</g>
<g
   id="g64"
   transform="matrix(0.09713084,0,0,0.09713084,2.0411682e-4,-0.89910484)">
</g>
<g
   id="g66"
   transform="matrix(0.09713084,0,0,0.09713084,2.0411682e-4,-0.89910484)">
</g>
<g
   id="g68"
   transform="matrix(0.09713084,0,0,0.09713084,2.0411682e-4,-0.89910484)">
</g>
<g
   id="g70"
   transform="matrix(0.09713084,0,0,0.09713084,2.0411682e-4,-0.89910484)">
</g>
<g
   id="g72"
   transform="matrix(0.09713084,0,0,0.09713084,2.0411682e-4,-0.89910484)">
</g>
<g
   id="g74"
   transform="matrix(0.09713084,0,0,0.09713084,2.0411682e-4,-0.89910484)">
</g>
<g
   id="g76"
   transform="matrix(0.09713084,0,0,0.09713084,2.0411682e-4,-0.89910484)">
</g>
<g
   id="g78"
   transform="matrix(0.09713084,0,0,0.09713084,2.0411682e-4,-0.89910484)">
</g>
<g
   id="g80"
   transform="matrix(0.09713084,0,0,0.09713084,2.0411682e-4,-0.89910484)">
</g>
</svg>